<?xml version="1.0" encoding="utf-8"?>
<!-- Generator: Adobe Illustrator 19.0.1, SVG Export Plug-In . SVG Version: 6.00 Build 0)  -->
<!DOCTYPE svg PUBLIC "-//W3C//DTD SVG 1.1//EN" "http://www.w3.org/Graphics/SVG/1.1/DTD/svg11.dtd">
<svg version="1.1" id="Layer_1" xmlns="http://www.w3.org/2000/svg" xmlns:xlink="http://www.w3.org/1999/xlink" x="0px" y="0px"
	 viewBox="0 0 512 512" enable-background="new 0 0 512 512" xml:space="preserve">
<g id="XMLID_23_">
	<g id="XMLID_25_">
		<path id="XMLID_46_" d="M141.4,218.3c-117.9-13-133.1,65.5-83.9,119.4c-7.5-33,3.7-98.5,93.3-85.6c-107.9,2.4-99,96.3-42.1,118.8
			c-3.3-31-13.3-59.7,47.1-79.4c-67.2,30.8-40.4,95,28,105.5c-23.2-25.8-18-49.9,27-63.4c-13.2,35.9-2.3,70.6,49.5,71.9
			c1.3,2.6,2.3,5.2,3.3,7.9c3.4,9.3,5.4,18.8,6.9,25.8c0.3,1.4-15,0.1-15,0.1s16.2,8.6,16.3,10.6c0.6,8.8-2.1,24.7-2.1,24.7l9.5-6.5
			l13.8,12.9l-3.1-12.7l21,2.7L282.5,448c0,0,6.3-23.2,13.3-35.2c1.5-2.6,6.1-7.4,6.1-7.4l10.1-1.5c0,0,3.4,18.1,5.5,24.4
			c0.5,1.4-15.1,4.2-15.1,4.2s17.2,4.3,17.6,6.3c1.6,8.7,0.6,24.8,0.6,24.8l8.7-7.5l15.1,11.3l-4.5-12.3l21.1,0.4L330.2,436
			c0,0,5.5-21.6,10.9-34.5c3.3-2.6,7.6-2.7,18.2-6.3c14.6-4.9,59.4-11.6,103.8-46c35.6-27.6,42.2-76.9,18.1-119.2
			c-24-42.3-76.6-83.4-76.6-83.4s33.1,8.9,36.2-1c2-6.2-7.1-14.4-7.1-14.4s23.9,5.6,25.6-5.3c2.8-18.5-30.7-27.3-30.7-27.3
			s1.7-23.6,19.7-31.7c-22.7-11.5-33.3,20.6-40.9,19.5c-10.4-1.6-22.5-56.1-22.5-56.1s-21,14.9-11.1,49.9
			c-10.7-12.8-18.2-11.5-33.8-10.4c-24.3-56.5-68.3-18.7-60,12.5c9.4-12.4,23.5-17,39.1-7.6c-33.9-8.2-41.2,16.3-33.6,29
			c6.5-8.1,17-14.6,30.9-11.1c-38.3,3.8-26.7,29.7-16.4,37.5c-1.6-15.3,11.6-23.3,22.3-22.1c-24.2,10.9-18.4,32.9-2.3,35
			c1.7-14.4,9.6-17,22.1-13c5.1,1.5,58.5,143.4-73.9,131.8c-69.3-6.1-80.5-81.4-120-96.3c-70-26.5-156.6,35.5-124.9,116.3
			C20,208.9,83.4,200.1,141.4,218.3z M373.8,105.6c0-3.9,3.2-7.1,7.1-7.1c3.9,0,7.1,3.2,7.1,7.1c0,3.9-3.2,7.1-7.1,7.1
			C377,112.7,373.8,109.5,373.8,105.6z"/>
	</g>
</g>
</svg>
