<?xml version="1.0" encoding="utf-8"?>
<!-- Generator: Adobe Illustrator 19.0.1, SVG Export Plug-In . SVG Version: 6.00 Build 0)  -->
<!DOCTYPE svg PUBLIC "-//W3C//DTD SVG 1.1//EN" "http://www.w3.org/Graphics/SVG/1.1/DTD/svg11.dtd">
<svg version="1.1" id="Layer_1" xmlns="http://www.w3.org/2000/svg" xmlns:xlink="http://www.w3.org/1999/xlink" x="0px" y="0px"
	 viewBox="0 0 512 512" enable-background="new 0 0 512 512" width="512" height="512" xml:space="preserve">
<g id="Layer_3">
	<path d="M288.2,61.6C179.4,42.5,75.1,115.5,55.8,224.4s53.7,213.2,162.8,232.5S431.8,403.1,451,294.1
		C470.3,185.2,397.3,80.9,288.2,61.6z M362.1,411.2c0-16.4-1-69.5-1-69.5l-160.9-28.4c0,0-35.7,104.1-37.3,109.1
		C95,384.9,55.4,307.1,69.5,226.4c5.4-30.9,18.2-58.5,36.1-81.7c3.7,9.1,17,26.8,34.4,34.2c18,7.7,34.6,12.4,53.3,4.8
		c19.7-8.1,33.6-29,33.4-50.4c-0.4-21.4-15.1-35.9-35.7-35.3c-10.2,0.4-19.5,8.7-20.3,17.6c2.3,0.4,11.6-0.2,13.7,8.5
		c1,4.1-0.2,7.7-3.7,10.4c-5.8,4.1-14.1,1.7-17.8-5.4c-5.8-10.4-1.9-24.1,5.6-33c8.1-9.3,26.5-20.7,50.2-9.7
		c52.7,24.1,23.2,103.7,16.8,127.7c44.2,7.9,88.3,15.6,132.7,23.4c3.3-26.8,3.1-99.1-9.1-131.9c58.3,40.2,91.2,111.6,78,185.8
		C428.4,342,400.4,383.6,362.1,411.2z M461,335.5c5.4-13.7,27-23.2,29.7-38.4c2.7-15.1-14.3-31.5-14.7-46.2
		c-0.4-15.1,16-32.4,12.7-46.7c-3.3-14.7-25.3-23.4-31.3-36.9c-6-13.7,2.5-35.9-6.2-48.1c-8.5-12.2-32.1-11.8-43.1-22.2
		c-10.8-10.4-11.4-34-24.1-42.1c-12.4-7.9-34.2,1.5-48.3-3.9c-13.7-5.4-23.2-27-38.4-29.7c-15.1-2.7-31.5,14.3-46.2,14.7
		c-15.1,0.4-32.4-16-46.7-12.7c-14.7,3.3-23.4,25.3-36.9,31.3c-13.7,6-35.9-2.5-48.1,6.2C107,69.5,107.4,93.1,97,104.1
		c-10.4,10.8-34,11.4-42.1,24.1c-7.9,12.4,1.5,34.2-3.9,48.3c-5.4,13.7-27,23.2-29.7,38.4c-2.7,15.1,14.3,31.5,14.7,46.2
		c0.4,15.1-16,32.4-12.7,46.7c3.3,14.7,25.3,23.4,31.3,36.9c6,13.7-2.5,35.9,6.2,48.1c8.5,12.2,32.1,11.8,43.1,22.2
		c10.8,10.4,11.4,34,24.1,42.1c12.4,7.9,34.2-1.5,48.3,3.9c13.7,5.4,23.2,27,38.4,29.7c15.1,2.7,31.5-14.3,46.2-14.7
		c15.1-0.4,32.4,16,46.7,12.7c14.7-3.3,23.4-25.3,36.9-31.3c13.7-6,35.9,2.5,48.1-6.2c12.2-8.5,11.8-32.1,22.2-43.1
		c10.4-10.8,34-11.4,42.1-24.1C464.9,371.4,455.6,349.8,461,335.5z M218.6,456.9C109.5,437.6,36.5,333.3,55.8,224.4
		S179.4,42.5,288.2,61.6S470.3,185.2,451,294.1C432,403.1,327.7,476.1,218.6,456.9z M359.4,106c12.4,32.8,12.7,105.1,9.1,131.9
		c-44.4-7.9-88.6-15.6-132.7-23.4c6.4-24.1,35.9-103.7-16.8-127.7c-23.6-10.8-42.3,0.6-50.2,10c-7.7,8.9-11.4,22.6-5.6,33
		c3.9,7.1,12,9.5,17.8,5.4c3.5-2.7,4.8-6.2,3.7-10.4c-2.3-8.7-11.4-8.1-13.7-8.5c0.8-8.9,10.2-17.2,20.3-17.6
		c20.5-0.6,35.3,13.9,35.7,35.3c0.4,21.6-13.5,42.3-33.4,50.4c-18.9,7.7-35.3,3.1-53.3-4.8c-17.4-7.5-30.7-25.1-34.4-34.2
		c-18,23.2-30.7,50.8-36.1,81.7c-14.1,80.5,25.5,158.2,93.3,195.8c1.9-5.2,37.3-109.1,37.3-109.1L361.5,342c0,0,0.8,52.9,1,69.5
		c38.4-27.4,66.4-69.3,75.3-119.5C450.4,217.5,417.7,146.2,359.4,106z M218.6,456.9C109.5,437.6,36.5,333.3,55.8,224.4
		S179.4,42.5,288.2,61.6S470.3,185.2,451,294.1C432,403.1,327.7,476.1,218.6,456.9z M359.4,106c12.4,32.8,12.7,105.1,9.1,131.9
		c-44.4-7.9-88.6-15.6-132.7-23.4c6.4-24.1,35.9-103.7-16.8-127.7c-23.6-10.8-42.3,0.6-50.2,10c-7.7,8.9-11.4,22.6-5.6,33
		c3.9,7.1,12,9.5,17.8,5.4c3.5-2.7,4.8-6.2,3.7-10.4c-2.3-8.7-11.4-8.1-13.7-8.5c0.8-8.9,10.2-17.2,20.3-17.6
		c20.5-0.6,35.3,13.9,35.7,35.3c0.4,21.6-13.5,42.3-33.4,50.4c-18.9,7.7-35.3,3.1-53.3-4.8c-17.4-7.5-30.7-25.1-34.4-34.2
		c-18,23.2-30.7,50.8-36.1,81.7c-14.1,80.5,25.5,158.2,93.3,195.8c1.9-5.2,37.3-109.1,37.3-109.1L361.5,342c0,0,0.8,52.9,1,69.5
		c38.4-27.4,66.4-69.3,75.3-119.5C450.4,217.5,417.7,146.2,359.4,106z M222.7,216.3l153.3,27c6.6,1.2,10.8,8.7,9.5,15.3
		c-1.2,6.6-7.7,12.2-14.3,11.2l-153.3-27c-6.6-1.2-10.8-8.7-9.5-15.3C209.6,220.8,216.1,215.2,222.7,216.3z M363.9,338l-163-28.8
		c-6.6-1.2-11-7.7-9.7-14.3c1.2-6.6,7.5-11.4,14.1-10.2l163,28.8c6.6,1.2,11,7.7,9.7,14.3C376.8,334.5,370.6,339.3,363.9,338z
		 M407.9,298.4c-1.7,10-11.2,16-20.9,14.1l-198.9-35c-10-1.7-16.6-10.6-14.9-20.5c1.7-10,11.2-16,20.9-14.1l198.9,35
		C402.9,279.7,409.8,288.5,407.9,298.4z"/>
</g>
</svg>
