<?xml version="1.0" encoding="utf-8"?>
<!-- Generator: Adobe Illustrator 19.0.1, SVG Export Plug-In . SVG Version: 6.00 Build 0)  -->
<!DOCTYPE svg PUBLIC "-//W3C//DTD SVG 1.1//EN" "http://www.w3.org/Graphics/SVG/1.1/DTD/svg11.dtd">
<svg version="1.1" id="Layer_1" xmlns="http://www.w3.org/2000/svg" xmlns:xlink="http://www.w3.org/1999/xlink" x="0px" y="0px"
	 viewBox="-99 0 400 400" enable-background="new -99 0 400 400" xml:space="preserve">
<g id="Calque_1">
	<g>
		<rect x="-81.1" y="11.9" fill="#FFFFFF" stroke="#324657" width="364" height="376.1"/>
		<rect x="-73.9" y="20.2" fill="#FFFFFF" width="349.8" height="205.7"/>
		<g>
			<path d="M-52.1,289.6H-59l-1.3,2.6c-0.3,0.6-0.5,1.1-0.5,1.5c0,0.3,0.1,0.5,0.4,0.6c0.3,0.3,0.9,0.4,1.6,0.4v0.5h-5.7v-0.5
				c0.8-0.1,1.3-0.3,1.5-0.5c0.5-0.4,1-1.1,1.5-2.4l6.3-13.7h0.5l6.3,13.8c0.5,1.1,1,1.9,1.4,2.1c0.4,0.4,1,0.5,1.8,0.5v0.5h-7.2
				v-0.5c0.8,0,1.3-0.1,1.5-0.4c0.3-0.1,0.4-0.4,0.4-0.6c0-0.4-0.1-0.9-0.5-1.8L-52.1,289.6z M-52.4,288.7l-3-6.8l-3.1,6.8H-52.4z"
				/>
			<path d="M-33.5,295.1l-6.9-13.9v11.1c0,1,0.1,1.6,0.4,1.9c0.4,0.4,0.9,0.5,1.5,0.5h0.6v0.5h-6.3v-0.5h0.6c0.8,0,1.3-0.3,1.6-0.6
				c0.3-0.3,0.3-0.9,0.3-1.8v-10.9c0-0.8-0.1-1.3-0.3-1.6c-0.1-0.3-0.4-0.4-0.6-0.6c-0.4-0.1-0.9-0.3-1.6-0.3v-0.5h5l6.5,13.1
				l6.4-13.1h5v0.5h-0.6c-0.8,0-1.3,0.3-1.6,0.6c-0.3,0.3-0.3,0.9-0.3,1.8v10.9c0,1,0.1,1.6,0.4,1.9c0.4,0.4,0.9,0.5,1.5,0.5h0.6
				v0.5h-7.7v-0.5h0.6c0.8,0,1.3-0.3,1.6-0.6c0.3-0.3,0.3-0.9,0.3-1.8v-11.1l-6.9,13.9h-0.3V295.1z"/>
			<path d="M-7.4,286.7c1.3,0.3,2.1,0.6,2.8,1.1c0.9,0.8,1.3,1.6,1.3,2.8c0,0.9-0.3,1.6-0.9,2.4c-0.5,0.8-1.4,1.3-2.3,1.6
				c-1,0.4-2.5,0.5-4.5,0.5h-8.4v-0.5h0.6c0.8,0,1.3-0.3,1.6-0.6c0.3-0.3,0.3-0.9,0.3-1.9v-10.8c0-1-0.1-1.6-0.4-2
				c-0.4-0.4-0.9-0.5-1.5-0.5h-0.6v-0.5h7.8c1.5,0,2.6,0.1,3.5,0.3c1.4,0.3,2.4,0.8,3,1.5c0.8,0.8,1,1.6,1,2.6
				c0,0.9-0.3,1.6-0.9,2.3C-5.6,285.8-6.4,286.3-7.4,286.7z M-14.4,286c0.4,0,0.8,0.1,1.1,0.1s0.9,0,1.4,0c1.3,0,2.3-0.1,2.9-0.4
				c0.6-0.3,1.1-0.6,1.5-1.1c0.4-0.5,0.5-1.1,0.5-1.8c0-1-0.4-1.8-1.3-2.5c-0.9-0.6-2.1-1-3.8-1c-0.9,0-1.6,0.1-2.4,0.3V286z
				 M-14.4,294c1,0.3,2,0.4,3,0.4c1.6,0,2.8-0.4,3.6-1c0.9-0.6,1.3-1.5,1.3-2.5c0-0.6-0.3-1.3-0.6-1.9c-0.4-0.6-1-1-1.9-1.4
				c-0.9-0.4-1.9-0.5-3.1-0.5c-0.5,0-1,0-1.4,0c-0.4,0-0.8,0-0.9,0.1C-14.4,287.2-14.4,294-14.4,294z"/>
			<path d="M10.9,289.6H4l-1.3,2.6c-0.3,0.6-0.5,1.1-0.5,1.5c0,0.3,0.1,0.5,0.4,0.6c0.3,0.3,0.9,0.4,1.6,0.4v0.5h-5.7v-0.5
				c0.8-0.1,1.3-0.3,1.5-0.5c0.5-0.4,1-1.1,1.5-2.4l6.3-13.7h0.5l6.3,13.8c0.5,1.1,1,1.9,1.4,2.1c0.4,0.4,1,0.5,1.8,0.5v0.5h-7v-0.5
				c0.8,0,1.3-0.1,1.5-0.4c0.3-0.1,0.4-0.4,0.4-0.6c0-0.4-0.1-0.9-0.5-1.8L10.9,289.6z M10.5,288.7l-3-6.8l-3.1,6.8H10.5z"/>
			<path d="M30.9,278.2v5.8h-0.5c-0.1-1.1-0.5-2-0.9-2.6s-1-1.1-1.8-1.5c-0.8-0.4-1.5-0.6-2.4-0.6s-1.6,0.3-2.3,0.8
				s-0.9,1.1-0.9,1.8c0,0.5,0.3,1,0.6,1.4c0.5,0.6,1.9,1.4,3.9,2.5c1.6,0.9,2.8,1.5,3.4,1.9c0.6,0.5,1.1,1,1.4,1.6
				c0.4,0.6,0.5,1.3,0.5,1.9c0,1.3-0.5,2.4-1.6,3.3c-1,0.9-2.4,1.4-4,1.4c-0.5,0-1,0-1.5-0.1c-0.3,0-0.9-0.3-1.8-0.5
				c-0.9-0.3-1.4-0.4-1.6-0.4s-0.4,0-0.5,0.1c-0.1,0.1-0.3,0.4-0.3,0.8h-0.5v-5.7h0.5c0.3,1.3,0.5,2.1,0.9,2.6
				c0.4,0.6,1,1.1,1.8,1.5c0.8,0.4,1.6,0.6,2.6,0.6c1.1,0,2-0.3,2.6-0.8s1-1.1,1-1.9c0-0.4-0.1-0.9-0.4-1.3
				c-0.3-0.4-0.6-0.8-1.1-1.1c-0.4-0.3-1.3-0.8-2.8-1.5s-2.6-1.4-3.3-1.9c-0.6-0.5-1.1-1-1.5-1.5c-0.4-0.6-0.5-1.3-0.5-1.9
				c0-1.3,0.5-2.3,1.5-3.1c1-0.9,2.3-1.3,3.8-1.3c1,0,2,0.3,3,0.6c0.5,0.3,0.9,0.3,1,0.3c0.3,0,0.4-0.1,0.5-0.3
				c0.1-0.1,0.3-0.4,0.4-0.8h0.6V278.2z"/>
			<path d="M46.3,278.2v5.8h-0.5c-0.1-1.1-0.5-2-0.9-2.6s-1-1.1-1.8-1.5c-0.8-0.4-1.5-0.6-2.4-0.6s-1.6,0.3-2.3,0.8
				s-0.9,1.1-0.9,1.8c0,0.5,0.3,1,0.6,1.4c0.5,0.6,1.9,1.4,3.9,2.5c1.6,0.9,2.8,1.5,3.4,1.9c0.6,0.5,1.1,1,1.4,1.6
				c0.4,0.6,0.5,1.3,0.5,1.9c0,1.3-0.5,2.4-1.6,3.3c-1,0.9-2.4,1.4-4,1.4c-0.5,0-1,0-1.5-0.1c-0.3,0-0.9-0.3-1.8-0.5
				c-0.9-0.3-1.4-0.4-1.6-0.4s-0.4,0-0.5,0.1c-0.1,0.1-0.3,0.4-0.3,0.8h-0.5v-5.7h0.5c0.3,1.3,0.5,2.1,0.9,2.6s1,1.1,1.8,1.5
				c0.8,0.4,1.6,0.6,2.6,0.6c1.1,0,2-0.3,2.6-0.8s1-1.1,1-1.9c0-0.4-0.1-0.9-0.4-1.3c-0.3-0.4-0.6-0.8-1.1-1.1
				c-0.4-0.3-1.3-0.8-2.8-1.5s-2.6-1.4-3.3-1.9c-0.6-0.5-1.1-1-1.5-1.5c-0.4-0.6-0.5-1.3-0.5-1.9c0-1.3,0.5-2.3,1.5-3.1
				s2.3-1.3,3.8-1.3c1,0,2,0.3,3,0.6c0.5,0.3,0.9,0.3,1,0.3c0.3,0,0.4-0.1,0.5-0.3c0.1-0.1,0.3-0.4,0.4-0.8h0.6V278.2z"/>
			<path d="M61.8,289.6h-6.9l-1.3,2.6c-0.3,0.6-0.5,1.1-0.5,1.5c0,0.3,0.1,0.5,0.4,0.6c0.3,0.3,0.9,0.4,1.6,0.4v0.5h-5.7v-0.5
				c0.8-0.1,1.3-0.3,1.5-0.5c0.5-0.4,1-1.1,1.5-2.4l6.3-13.7h0.5l6.3,13.8c0.5,1.1,1,1.9,1.4,2.1c0.4,0.4,1,0.5,1.8,0.5v0.5h-7v-0.5
				c0.8,0,1.3-0.1,1.5-0.4c0.3-0.1,0.4-0.4,0.4-0.6c0-0.4-0.1-0.9-0.5-1.8L61.8,289.6z M61.4,288.7l-3-6.8l-3.1,6.8H61.4z"/>
			<path d="M69.8,295.1v-0.5h0.6c0.8,0,1.3-0.3,1.6-0.6c0.3-0.3,0.3-0.9,0.3-1.8v-10.8c0-1-0.1-1.6-0.4-2c-0.4-0.4-0.9-0.5-1.5-0.5
				h-0.6v-0.5h7.3c2.6,0,4.8,0.3,6.2,0.9c1.4,0.5,2.5,1.5,3.4,2.8c0.9,1.3,1.3,2.9,1.3,4.5c0,2.3-0.8,4.3-2.3,5.8
				c-1.8,1.8-4.3,2.6-7.8,2.6h-8V295.1z M75,294c1.1,0.3,2,0.4,2.8,0.4c2,0,3.8-0.6,5.2-2c1.4-1.4,2-3.1,2-5.4s-0.6-4.1-2-5.4
				c-1.4-1.4-3.1-2-5.2-2c-0.8,0-1.8,0.1-2.8,0.4V294z"/>
			<path d="M95,279.4v6.5h3.9c1,0,1.8-0.1,2-0.4c0.5-0.4,0.8-1,0.8-2h0.5v5.8h-0.5c-0.1-0.8-0.3-1.4-0.4-1.5
				c-0.1-0.3-0.4-0.5-0.8-0.6s-0.9-0.3-1.6-0.3H95v5.5c0,0.8,0,1.1,0.1,1.4c0.1,0.1,0.3,0.3,0.4,0.4c0.1,0.1,0.5,0.1,1,0.1h3
				c1,0,1.8-0.1,2.3-0.3c0.5-0.1,0.9-0.4,1.4-0.8c0.5-0.5,1.1-1.3,1.6-2.3h0.5l-1.5,4.1H89.9v-0.5h0.6c0.4,0,0.9-0.1,1.3-0.3
				c0.3-0.1,0.5-0.4,0.6-0.6c0.1-0.3,0.1-0.8,0.1-1.6v-10.8c0-1-0.1-1.8-0.4-2c-0.4-0.4-0.9-0.5-1.6-0.5h-0.6v-0.5h13.8l0.3,3.6
				h-0.5c-0.1-0.9-0.4-1.5-0.6-1.8c-0.3-0.4-0.5-0.6-1-0.8c-0.4-0.1-1-0.1-1.9-0.1L95,279.4L95,279.4z"/>
			<path d="M113.9,295.1v-0.5h0.6c0.8,0,1.3-0.3,1.6-0.6c0.3-0.3,0.3-0.9,0.3-1.8v-10.8c0-1-0.1-1.6-0.4-2c-0.4-0.4-0.9-0.5-1.5-0.5
				h-0.6v-0.5h7.3c2.6,0,4.8,0.3,6.2,0.9c1.4,0.5,2.5,1.5,3.4,2.8c0.9,1.3,1.3,2.9,1.3,4.5c0,2.3-0.8,4.3-2.3,5.8
				c-1.8,1.8-4.3,2.6-7.8,2.6h-8V295.1z M119.1,294c1.1,0.3,2,0.4,2.8,0.4c2,0,3.8-0.6,5.2-2c1.4-1.4,2-3.1,2-5.4s-0.6-4.1-2-5.4
				c-1.4-1.4-3.1-2-5.2-2c-0.8,0-1.8,0.1-2.8,0.4V294z"/>
			<path d="M139.1,279.4v6.5h3.9c1,0,1.8-0.1,2-0.4c0.5-0.4,0.8-1,0.8-2h0.5v5.8h-0.5c-0.1-0.8-0.3-1.4-0.4-1.5
				c-0.1-0.3-0.4-0.5-0.8-0.6s-0.9-0.3-1.6-0.3h-3.9v5.5c0,0.8,0,1.1,0.1,1.4c0.1,0.1,0.3,0.3,0.4,0.4c0.1,0.1,0.5,0.1,1,0.1h3
				c1,0,1.8-0.1,2.3-0.3c0.5-0.1,0.9-0.4,1.4-0.8c0.5-0.5,1.1-1.3,1.6-2.3h0.5l-1.5,4.1H134v-0.5h0.6c0.4,0,0.9-0.1,1.3-0.3
				c0.3-0.1,0.5-0.4,0.6-0.6c0.1-0.3,0.1-0.8,0.1-1.6v-10.8c0-1-0.1-1.8-0.4-2c-0.4-0.4-0.9-0.5-1.6-0.5H134v-0.5h13.8l0.3,3.6h-0.6
				c-0.1-0.9-0.4-1.5-0.6-1.8c-0.3-0.4-0.5-0.6-1-0.8c-0.4-0.1-1-0.1-1.9-0.1L139.1,279.4L139.1,279.4z"/>
			<path d="M163.1,279.4v6.5h3.3c0.8,0,1.3-0.1,1.6-0.5c0.4-0.3,0.6-0.9,0.8-1.9h0.5v5.7h-0.5c0-0.6-0.1-1.1-0.3-1.4
				c-0.1-0.3-0.4-0.5-0.8-0.6c-0.3-0.1-0.8-0.3-1.4-0.3h-3.3v5.3c0,0.9,0,1.4,0.1,1.6s0.3,0.4,0.5,0.5c0.4,0.3,0.8,0.3,1.3,0.3h0.6
				v0.5h-7.7v-0.5h0.6c0.8,0,1.3-0.3,1.6-0.6c0.3-0.3,0.4-0.9,0.4-1.9v-10.8c0-0.9,0-1.4-0.1-1.6c-0.1-0.3-0.3-0.4-0.5-0.5
				c-0.4-0.3-0.8-0.3-1.3-0.3H158v-0.5h13.3l0.1,3.6H171c-0.3-0.8-0.5-1.4-0.8-1.8c-0.3-0.4-0.6-0.6-1.1-0.8c-0.5-0.1-1.1-0.3-2-0.3
				h-4V279.4z"/>
			<path d="M191.3,295.1h-4.8l-6-7.8c-0.5,0-0.8,0-1.1,0c-0.1,0-0.3,0-0.4,0c-0.1,0-0.3,0-0.4,0v4.8c0,1,0.1,1.8,0.4,2
				c0.4,0.4,0.9,0.5,1.5,0.5h0.8v0.5h-7.7v-0.5h0.6c0.8,0,1.3-0.3,1.6-0.6c0.1-0.3,0.3-0.9,0.3-1.8v-10.8c0-1-0.1-1.8-0.4-2
				c-0.4-0.4-0.9-0.5-1.5-0.5h-0.6v-0.5h6.5c1.9,0,3.3,0.1,4.3,0.4c0.9,0.3,1.6,0.8,2.3,1.4s1,1.5,1,2.5c0,1-0.4,1.9-1.1,2.6
				c-0.8,0.8-1.9,1.3-3.4,1.6l3.6,4.8c0.9,1.1,1.6,1.9,2.1,2.1c0.6,0.4,1.4,0.6,2.4,0.6L191.3,295.1L191.3,295.1z M178.7,286.6
				c0.1,0,0.3,0,0.4,0c0.1,0,0.3,0,0.3,0c1.8,0,3-0.4,3.9-1s1.3-1.5,1.3-2.6c0-1-0.4-1.9-1-2.5c-0.8-0.6-1.6-1-2.8-1
				c-0.5,0-1.3,0.1-2.1,0.3v6.9H178.7z"/>
			<path d="M203.9,289.6H197l-1.3,2.6c-0.3,0.6-0.5,1.1-0.5,1.5c0,0.3,0.1,0.5,0.4,0.6c0.3,0.3,0.9,0.4,1.6,0.4v0.5h-5.7v-0.5
				c0.8-0.1,1.3-0.3,1.5-0.5c0.5-0.4,1-1.1,1.5-2.4l6.3-13.7h0.5l6.3,13.8c0.5,1.1,1,1.9,1.4,2.1c0.4,0.4,1,0.5,1.8,0.5v0.5h-7v-0.5
				c0.8,0,1.3-0.1,1.5-0.4c0.3-0.1,0.4-0.4,0.4-0.6c0-0.4-0.1-0.9-0.5-1.8L203.9,289.6z M203.5,288.7l-3-6.8l-3.1,6.8H203.5z"/>
			<path d="M211.1,278.6h4.9l10.9,12.4v-9.6c0-1-0.1-1.6-0.4-1.9c-0.4-0.4-0.9-0.5-1.5-0.5h-0.6v-0.5h6.3v0.5h-0.6
				c-0.8,0-1.3,0.3-1.6,0.6c-0.3,0.3-0.3,0.9-0.3,1.8v14.1h-0.5l-11.8-13.4v10.3c0,1,0.1,1.6,0.4,1.9c0.4,0.4,0.9,0.5,1.5,0.5h0.6
				v0.5h-6.3v-0.5h0.6c0.8,0,1.3-0.3,1.6-0.6c0.3-0.3,0.3-0.9,0.3-1.8v-11.6c-0.5-0.5-0.9-0.9-1.1-1.1c-0.3-0.1-0.6-0.4-1.1-0.5
				c-0.3-0.1-0.6-0.1-1.1-0.1v-0.5H211.1z"/>
			<path d="M247.8,278.2l0.4,5.7h-0.4c-0.5-1.6-1.4-2.9-2.4-3.6s-2.3-1.1-3.6-1.1c-1.1,0-2.3,0.3-3.3,0.9c-1,0.5-1.8,1.5-2.3,2.6
				c-0.5,1.3-0.9,2.8-0.9,4.5c0,1.5,0.3,2.8,0.8,3.9c0.5,1.1,1.3,2,2.4,2.5c1,0.6,2.3,0.9,3.5,0.9c1.1,0,2.1-0.3,3.1-0.8
				c0.9-0.5,1.9-1.4,2.9-2.8l0.4,0.3c-0.9,1.5-2,2.5-3.1,3.3c-1.3,0.6-2.6,1-4.3,1c-3,0-5.3-1-6.9-3c-1.3-1.5-1.9-3.3-1.9-5.4
				c0-1.6,0.4-3.1,1.3-4.5c0.8-1.4,1.9-2.5,3.3-3.3s2.9-1.1,4.6-1.1c1.3,0,2.5,0.3,3.9,0.9c0.4,0.1,0.6,0.3,0.8,0.3
				c0.3,0,0.5-0.1,0.6-0.3c0.3-0.3,0.4-0.5,0.5-0.9h0.6V278.2z"/>
			<path d="M255.6,279.4v6.5h3.9c1,0,1.8-0.1,2-0.4c0.5-0.4,0.8-1,0.8-2h0.5v5.8h-0.5c-0.1-0.8-0.3-1.4-0.4-1.5
				c-0.1-0.3-0.4-0.5-0.8-0.6c-0.4-0.1-0.9-0.3-1.6-0.3h-3.9v5.5c0,0.8,0,1.1,0.1,1.4c0.1,0.1,0.3,0.3,0.4,0.4
				c0.1,0.1,0.5,0.1,1,0.1h3c1,0,1.8-0.1,2.3-0.3s0.9-0.4,1.4-0.8c0.5-0.5,1.1-1.3,1.6-2.3h0.5l-1.5,4.1h-13.8v-0.5h0.6
				c0.4,0,0.9-0.1,1.3-0.3c0.3-0.1,0.5-0.4,0.6-0.6c0.1-0.3,0.1-0.8,0.1-1.6v-10.8c0-1-0.1-1.8-0.4-2c-0.4-0.4-0.9-0.5-1.6-0.5h-0.6
				v-0.5h13.8l0.3,3.6h-0.5c-0.1-0.9-0.4-1.5-0.6-1.8c-0.3-0.4-0.5-0.6-1-0.8c-0.4-0.1-1-0.1-1.9-0.1L255.6,279.4L255.6,279.4z"/>
			<path d="M38.4,313.4v6.5h3.9c1,0,1.8-0.1,2-0.4c0.5-0.4,0.8-1,0.8-2h0.5v5.8h-0.5c-0.1-0.8-0.3-1.4-0.4-1.5
				c-0.1-0.3-0.4-0.5-0.8-0.6c-0.4-0.1-0.9-0.3-1.6-0.3h-3.9v5.5c0,0.8,0,1.1,0.1,1.4c0.1,0.1,0.3,0.3,0.4,0.4
				c0.1,0.1,0.5,0.1,1,0.1h3c1,0,1.8-0.1,2.3-0.3c0.5-0.1,0.9-0.4,1.4-0.8c0.5-0.5,1.1-1.3,1.6-2.3h0.5l-1.5,4.1H33.4v-0.5H34
				c0.4,0,0.9-0.1,1.3-0.3c0.3-0.1,0.5-0.4,0.6-0.6c0.1-0.3,0.1-0.8,0.1-1.6v-10.8c0-1-0.1-1.8-0.4-2c-0.4-0.4-0.9-0.5-1.6-0.5h-0.6
				v-0.5h13.8l0.3,3.6H47c-0.1-0.9-0.4-1.5-0.6-1.8c-0.3-0.4-0.5-0.6-1-0.8c-0.4-0.1-1-0.1-1.9-0.1L38.4,313.4L38.4,313.4z"/>
			<path d="M49.4,312.5h4.9l10.9,12.4v-9.6c0-1-0.1-1.6-0.4-1.9c-0.4-0.4-0.9-0.5-1.5-0.5h-0.6v-0.5H69v0.5h-0.6
				c-0.8,0-1.3,0.3-1.6,0.6c-0.3,0.3-0.3,0.9-0.3,1.8v14.1h-0.5L54.1,316v10.3c0,1,0.1,1.6,0.4,1.9c0.4,0.4,0.9,0.5,1.5,0.5h0.6v0.5
				h-6.3v-0.5H51c0.8,0,1.3-0.3,1.6-0.6c0.3-0.3,0.3-0.9,0.3-1.8v-11.6c-0.5-0.5-0.9-0.9-1.1-1.1c-0.3-0.1-0.6-0.4-1.1-0.5
				c-0.3-0.1-0.6-0.1-1.1-0.1v-0.5H49.4z"/>
			<path d="M89.3,312.1v5.8h-0.5c-0.1-1.1-0.5-2-0.9-2.6c-0.4-0.6-1-1.1-1.8-1.5c-0.8-0.4-1.5-0.6-2.4-0.6s-1.6,0.3-2.3,0.8
				c-0.6,0.5-0.9,1.1-0.9,1.8c0,0.5,0.3,1,0.6,1.4c0.5,0.6,1.9,1.4,3.9,2.5c1.6,0.9,2.8,1.5,3.4,1.9c0.6,0.5,1.1,1,1.4,1.6
				c0.4,0.6,0.5,1.3,0.5,1.9c0,1.3-0.5,2.4-1.6,3.3c-1,0.9-2.4,1.4-4,1.4c-0.5,0-1,0-1.5-0.1c-0.3,0-0.9-0.3-1.8-0.5
				s-1.4-0.4-1.6-0.4c-0.3,0-0.4,0-0.5,0.1c-0.1,0.1-0.3,0.4-0.3,0.8h-0.5v-5.7h0.5c0.3,1.3,0.5,2.1,0.9,2.6c0.4,0.6,1,1.1,1.8,1.5
				c0.8,0.4,1.6,0.6,2.6,0.6c1.1,0,2-0.3,2.6-0.8c0.6-0.5,1-1.1,1-1.9c0-0.4-0.1-0.9-0.4-1.3c-0.3-0.4-0.6-0.8-1.1-1.1
				c-0.4-0.3-1.3-0.8-2.8-1.5c-1.5-0.8-2.6-1.4-3.3-1.9c-0.6-0.5-1.1-1-1.5-1.5c-0.4-0.6-0.5-1.3-0.5-1.9c0-1.3,0.5-2.3,1.5-3.1
				c1-0.9,2.3-1.3,3.8-1.3c1,0,2,0.3,3,0.6c0.5,0.3,0.9,0.3,1,0.3c0.3,0,0.4-0.1,0.5-0.3c0.1-0.1,0.3-0.4,0.4-0.8h0.6V312.1z"/>
			<path d="M105.3,312.9v-0.5h6.4v0.5h-0.6c-0.8,0-1.3,0.3-1.6,0.9c-0.1,0.3-0.3,0.9-0.3,1.8v6.8c0,1.6-0.1,3-0.5,3.9
				c-0.4,0.9-1,1.8-2.1,2.4c-1,0.6-2.5,1-4.3,1c-2,0-3.4-0.4-4.4-1c-1-0.6-1.8-1.5-2.1-2.5c-0.3-0.8-0.4-2.1-0.4-4.1v-6.5
				c0-1-0.1-1.6-0.5-2c-0.3-0.4-0.8-0.5-1.5-0.5h-0.6v-0.5h7.8v0.5h-0.6c-0.8,0-1.3,0.3-1.6,0.6c-0.3,0.3-0.4,0.9-0.4,1.9v7.3
				c0,0.6,0.1,1.4,0.3,2.3c0.1,0.9,0.4,1.5,0.8,2s0.9,0.9,1.5,1.1c0.6,0.3,1.4,0.5,2.3,0.5c1.1,0,2.3-0.3,3.1-0.8
				c0.9-0.5,1.5-1.1,1.9-1.9s0.5-2,0.5-3.8v-6.8c0-1-0.1-1.6-0.4-2c-0.4-0.4-0.9-0.5-1.5-0.5L105.3,312.9L105.3,312.9z"/>
			<path d="M120.7,328.6v0.5h-7.7v-0.5h0.6c0.8,0,1.3-0.3,1.6-0.6c0.3-0.3,0.4-0.9,0.4-1.9v-10.8c0-0.9,0-1.4-0.1-1.6
				c-0.1-0.3-0.3-0.4-0.5-0.5c-0.4-0.3-0.8-0.3-1.3-0.3h-0.6v-0.5h7.7v0.5h-0.6c-0.8,0-1.3,0.3-1.6,0.6c-0.3,0.3-0.4,0.9-0.4,1.9
				v10.8c0,0.9,0,1.4,0.1,1.6c0.1,0.3,0.3,0.4,0.5,0.5c0.4,0.3,0.8,0.3,1.3,0.3H120.7z"/>
			<path d="M134.2,312.1v5.8h-0.5c-0.1-1.1-0.5-2-0.9-2.6c-0.4-0.6-1-1.1-1.8-1.5c-0.8-0.4-1.5-0.6-2.4-0.6c-0.9,0-1.6,0.3-2.3,0.8
				c-0.6,0.5-0.9,1.1-0.9,1.8c0,0.5,0.3,1,0.6,1.4c0.5,0.6,1.9,1.4,3.9,2.5c1.6,0.9,2.8,1.5,3.4,1.9c0.6,0.5,1.1,1,1.4,1.6
				c0.4,0.6,0.5,1.3,0.5,1.9c0,1.3-0.5,2.4-1.6,3.3c-1,0.9-2.4,1.4-4,1.4c-0.5,0-1,0-1.5-0.1c-0.3,0-0.9-0.3-1.8-0.5
				s-1.4-0.4-1.6-0.4c-0.3,0-0.4,0-0.5,0.1c-0.1,0.1-0.3,0.4-0.3,0.8h-0.4v-5.7h0.5c0.3,1.3,0.5,2.1,0.9,2.6c0.4,0.6,1,1.1,1.8,1.5
				c0.8,0.4,1.6,0.6,2.6,0.6c1.1,0,2-0.3,2.6-0.8s1-1.1,1-1.9c0-0.4-0.1-0.9-0.4-1.3c-0.3-0.4-0.6-0.8-1.1-1.1
				c-0.4-0.3-1.3-0.8-2.8-1.5c-1.5-0.8-2.6-1.4-3.3-1.9c-0.6-0.5-1.1-1-1.5-1.5c-0.4-0.6-0.5-1.3-0.5-1.9c0-1.3,0.5-2.3,1.5-3.1
				c1-0.9,2.3-1.3,3.8-1.3c1,0,2,0.3,3,0.6c0.5,0.3,0.9,0.3,1,0.3c0.3,0,0.4-0.1,0.5-0.3c0.1-0.1,0.3-0.4,0.4-0.8h0.5V312.1z"/>
			<path d="M149.6,312.1v5.8h-0.5c-0.1-1.1-0.5-2-0.9-2.6c-0.4-0.6-1-1.1-1.8-1.5c-0.8-0.4-1.5-0.6-2.4-0.6c-0.9,0-1.6,0.3-2.3,0.8
				c-0.6,0.5-0.9,1.1-0.9,1.8c0,0.5,0.3,1,0.6,1.4c0.5,0.6,1.9,1.4,3.9,2.5c1.6,0.9,2.8,1.5,3.4,1.9c0.6,0.5,1.1,1,1.4,1.6
				c0.4,0.6,0.5,1.3,0.5,1.9c0,1.3-0.5,2.4-1.6,3.3c-1,0.9-2.4,1.4-4,1.4c-0.5,0-1,0-1.5-0.1c-0.3,0-0.9-0.3-1.8-0.5
				c-0.9-0.3-1.4-0.4-1.6-0.4c-0.3,0-0.4,0-0.5,0.1c-0.1,0.1-0.3,0.4-0.3,0.8h-0.5v-5.7h0.5c0.3,1.3,0.5,2.1,0.9,2.6
				c0.4,0.6,1,1.1,1.8,1.5c0.8,0.4,1.6,0.6,2.6,0.6c1.1,0,2-0.3,2.6-0.8c0.6-0.5,1-1.1,1-1.9c0-0.4-0.1-0.9-0.4-1.3
				c-0.3-0.4-0.6-0.8-1.1-1.1c-0.4-0.3-1.3-0.8-2.8-1.5c-1.5-0.8-2.6-1.4-3.3-1.9s-1.1-1-1.5-1.5c-0.4-0.6-0.5-1.3-0.5-1.9
				c0-1.3,0.5-2.3,1.5-3.1c1-0.9,2.3-1.3,3.8-1.3c1,0,2,0.3,3,0.6c0.5,0.3,0.9,0.3,1,0.3c0.3,0,0.4-0.1,0.5-0.3
				c0.1-0.1,0.3-0.4,0.4-0.8h0.6V312.1z"/>
			<path d="M158.3,313.4v6.5h3.9c1,0,1.8-0.1,2-0.4c0.5-0.4,0.8-1,0.8-2h0.5v5.8h-0.4c-0.1-0.8-0.3-1.4-0.4-1.5
				c-0.1-0.3-0.4-0.5-0.8-0.6c-0.4-0.1-0.9-0.3-1.6-0.3h-3.9v5.5c0,0.8,0,1.1,0.1,1.4c0.1,0.1,0.3,0.3,0.4,0.4
				c0.1,0.1,0.5,0.1,1,0.1h3c1,0,1.8-0.1,2.3-0.3c0.5-0.1,0.9-0.4,1.4-0.8c0.5-0.5,1.1-1.3,1.6-2.3h0.5l-1.5,4.1h-13.8v-0.5h0.6
				c0.4,0,0.9-0.1,1.3-0.3c0.3-0.1,0.5-0.4,0.6-0.6c0.1-0.3,0.1-0.8,0.1-1.6v-10.8c0-1-0.1-1.8-0.4-2c-0.4-0.4-0.9-0.5-1.6-0.5h-0.6
				v-0.5h13.8l0.3,3.6H167c-0.1-0.9-0.4-1.5-0.6-1.8c-0.3-0.4-0.5-0.6-1-0.8c-0.4-0.1-1-0.1-1.9-0.1L158.3,313.4L158.3,313.4z"/>
		</g>
		<path d="M-50.3,209.7c-1.3,0-1.9-0.1-2.6-0.6c-1.1-0.8-2.3-2.8-2.9-3.9c-1.1-2-2.4-4.1-3.6-5.9c-0.3,0-0.4,0-0.5,0
			c-0.4,0-0.6,0-0.9,0v1.8c0,0.9,0,1.8,0,2.8c0,1.8,0.1,2.6,0.4,3.3c0.4,0.9,0.9,1.3,2,1.4v0.9h-0.8c-0.9,0-2.1,0-3.6,0
			c-1.5,0-2.8,0-3.6,0h-0.8v-0.9c0.9-0.1,1.3-0.3,1.6-0.6s0.6-1,0.6-1.8c0.1-1,0.1-1.6,0.1-4.9v-5.7c0-4.1-0.1-5.2-0.4-6
			c-0.3-0.9-0.9-1.3-2.1-1.4v-0.9c0.6,0.1,1.4,0,2,0c1.8,0,2.3,0,4.4-0.1c1.8-0.1,2.9-0.1,3.6-0.1c2.3,0,3.6,0.4,4.8,1.1
			c1.3,0.9,2.1,2.6,2.1,4.4c0,2.8-1.8,5-4.9,6.2c1.3,1.6,2.3,3.3,3.4,5c1.1,1.8,2.1,3.1,3,4c0.5,0.5,0.8,0.6,1.4,0.9v0.9
			C-48.3,209.6-49.2,209.7-50.3,209.7z M-58.8,188.7c-0.6,0-1.3,0.1-2,0.3c0,2,0,5.5,0,8.3c0.4,0.1,1,0.1,1.5,0.1
			c2.8,0,4.6-1.8,4.6-4.3C-54.8,190.6-56.6,188.7-58.8,188.7z"/>
		<path d="M-39.2,189.1l-1.3-0.8l2.8-4l3.1,0.6L-39.2,189.1z M-33.1,208.9c-0.3,0.4-0.5,0.5-2,0.5c-0.9,0-1.9,0-2.8-0.1
			c-1.4,0-2.6-0.1-4-0.1s-2.6,0-4,0.1v-0.8c1.3-0.1,1.8-0.9,1.9-2c0.1-0.9,0.1-1.8,0.1-3.1v-7.8c0-1.5-0.1-2.1-0.3-2.8
			c-0.3-0.8-0.8-1-1.6-1.1V191h12.9c0,0.8,0,1.6,0,2.4c0,0.6,0,1.3,0,2h-1c-0.3-2.1-1.1-2.8-4.4-2.8c-0.6,0-1.4,0-2.1,0
			c0,1.1-0.1,1.4-0.1,3v3.3c0.4,0,0.8,0,1.3,0c2.9,0,3.8-0.4,3.9-1.9h1c0,0.5,0,1.4,0,2.8c0,1.4,0,2.3,0,2.6h-1
			c-0.1-1.6-0.9-2-3.6-2c-0.5,0-1,0-1.5,0c0,1.8,0,3.5,0,5.3c0,1.1,0.3,1.5,0.9,1.8c0.4,0.1,1,0.1,1.9,0.1c3,0,4-0.6,4.6-2.9
			l1.1,0.3C-32.3,206.8-32.7,208.4-33.1,208.9z"/>
		<path d="M-21.5,201.1c-0.3,0-0.4,0-0.8,0l-0.6-1.4c2.6-0.1,4-1.4,4-3.5c0-2.3-1.5-3.8-3.6-3.8c-0.4,0-0.6,0-1,0.1
			c0,1.8,0,3.4,0,5.2v4.9c0,3.6,0,4.3,0.3,4.9c0.3,0.8,0.8,1.1,1.6,1.1v0.8h-0.6c-0.8,0-1.8,0-3,0c-1.3,0-2.3,0-3,0h-0.6v-0.8
			c1.3-0.1,1.8-0.9,1.9-2c0.1-0.9,0.1-1.4,0.1-4v-6.9c0-1.5-0.1-2.1-0.3-2.8c-0.3-0.8-0.8-1-1.6-1.1v-0.8c0.4,0,0.1,0,1.3,0
			c0.5,0,1.1,0,2,0c1.4,0,2.8-0.1,4.3-0.1c3.9,0,6.3,1.9,6.3,5.2C-15.2,199-17.9,201.1-21.5,201.1z"/>
		<path d="M3.6,192.3c-0.3,0.4-0.5,1-0.5,2.1c0,1.1-0.1,2.1-0.1,3.8c0,0.6,0,2.5,0,4.4c0,1.9-0.3,3.1-1.1,4.3
			c-1.3,1.9-3.4,2.8-6.2,2.8c-1.8,0-3-0.4-4.3-1.1c-1.9-1.3-2.6-2.9-2.6-5.8c0-3,0-4.3,0-5.3c0-1.4,0.1-2.9-0.1-4.3
			c-0.1-1-0.8-1.4-1.9-1.5V191h0.6c0.8,0,1.8,0,3,0c1.4,0,2.4,0,3,0h0.6v0.8c-0.9,0.1-1.3,0.4-1.5,0.8s-0.4,1-0.4,2.1
			c0,1.8-0.1,3.5-0.1,5.2c0,4.8,0.1,5.7,1,6.7c0.6,0.8,1.8,1.3,3.1,1.3c1.9,0,3.6-0.9,4.1-2.8c0.4-1.1,0.4-2,0.4-5.2V197
			c0-3.1-0.1-4.1-0.4-4.6c-0.3-0.5-0.8-0.8-1.4-0.9v-0.8c1.1,0,1.5,0,2.9,0c1.4,0,1.8,0,2.9,0v0.8C4.4,191.8,4,192,3.6,192.3z"/>
		<path d="M20.6,208.1c-1.3,1-2.8,1.4-5.5,1.4c-1.5,0-3-0.1-4.5-0.1c-0.6,0-1.8,0-2.5,0H7.6v-0.8c1.3-0.1,1.8-0.8,1.9-2
			c0.1-0.9,0.1-1.4,0.1-4v-5.3c0-2.5,0-3.6-0.3-4.4s-0.8-1-1.8-1.1V191c1.3,0,2,0,3.8,0c1.6,0,4-0.1,5.7-0.1c2.5,0,4.9,1.3,4.9,4.1
			c0,2.1-1.4,3.5-3.9,4.3c2.9,0.6,4.5,2.3,4.5,5C22.5,205.9,21.8,207.2,20.6,208.1z M14.5,192.3c-0.5,0-1,0-1.5,0
			c0,1.8-0.1,4.9-0.1,6c0.3,0,0.8,0,1.3,0c2.8,0,4.3-1.1,4.3-3.1C18.4,193.5,17.1,192.3,14.5,192.3z M14.7,200.1c-0.5,0-1,0-1.6,0.1
			c0,0.8,0,0.9,0,2.1v1.6c0,1.5,0,2.4,0.3,2.9c0.3,0.8,0.9,1,2,1c2.4,0,3.6-1.3,3.6-3.6C18.9,201.8,17.3,200.1,14.7,200.1z"/>
		<path d="M38.2,209.1c-0.3,0.4-0.6,0.5-2,0.5c-0.6,0-1.4,0-2.1,0c-1.8,0-3.3-0.1-5.2-0.1c-1.4,0-2.4,0-3.3,0.1v-0.8
			c0.8,0,1-0.3,1.4-0.5c0.5-0.6,0.6-1.3,0.6-3.3c0-1.4,0-2.5,0-3.9v-3c0-3.8,0-4.3-0.3-5s-0.8-1-1.8-1.1v-0.8h0.8c0.8,0,1.8,0,3.1,0
			s2.4,0,3.1,0h0.8v0.8c-1.4,0-2,0.8-2.1,2.1c0,0.5-0.1,0.9-0.1,4v4.6c0,3.9,0,4.3,0.4,4.6c0.3,0.3,0.9,0.5,2.1,0.5
			c1.5,0,2.4-0.1,3-0.5c0.8-0.4,1.4-1.3,1.6-2.4l1,0.3C38.9,206.5,38.4,208.6,38.2,209.1z"/>
		<path d="M47.7,209.3c-0.8,0-1.8,0-3,0c-1.4,0-2.3,0-3,0h-0.6v-0.8c1.3-0.1,1.8-0.8,1.9-2c0.1-0.9,0.1-1.4,0.1-4v-4.6
			c0-0.8,0-1.5,0-2.3c0-1.5,0-2.1-0.3-2.8c-0.3-0.8-0.8-1-1.8-1.1V191h0.6c0.8,0,1.8,0,3,0s2.3,0,3,0h0.6v0.8
			c-1.1,0.1-1.8,0.9-1.9,2.1c-0.1,0.8-0.1,1.6-0.1,4v4.6c0,3.6,0,4.3,0.3,4.9c0.3,0.8,0.8,1.1,1.6,1.1v0.8L47.7,209.3z"/>
		<path d="M73.6,214.3c-2.1,0-4.4-0.6-6.7-1.9c-1.3-0.8-3-1.9-4.3-2.9c-0.9,0.1-1.3,0.1-2.1,0.1c-5.5,0-9.3-3.6-9.3-9.2
			c0-5.9,4-9.9,9.9-9.9c5.7,0,9.6,3.6,9.6,9.2c0,3.9-2,7.4-5.2,8.9c1,0.5,2,1,3,1.6c2.8,1.8,4.8,2.4,6.5,2.4c1.1,0,2.1-0.3,3.1-0.8
			l0.4,1C77.1,213.8,75.5,214.3,73.6,214.3z M60.5,192.5c-3.4,0-5.8,2.8-5.8,6.8c0,4.8,2.9,8.5,6.5,8.5c3.4,0,5.8-2.9,5.8-6.9
			C67.1,196.2,64.2,192.5,60.5,192.5z"/>
		<path d="M89.7,192.3c-0.3,0.4-0.5,1-0.5,2.1c0,1.1-0.1,2.1-0.1,3.8c0,0.6,0,2.5,0,4.4c0,1.9-0.3,3.1-1.1,4.3
			c-1.3,1.9-3.4,2.8-6.2,2.8c-1.8,0-3-0.4-4.3-1.1c-1.9-1.3-2.6-2.9-2.6-5.8c0-3,0-4.3,0-5.3c0-1.4,0.1-2.9-0.1-4.3
			c-0.1-1-0.8-1.4-1.9-1.5V191h0.6c0.8,0,1.8,0,3,0c1.4,0,2.4,0,3,0h0.6v0.8c-0.9,0.1-1.3,0.4-1.5,0.8c-0.3,0.4-0.4,1-0.4,2.1
			c0,1.8-0.1,3.5-0.1,5.2c0,4.8,0.1,5.7,1,6.7c0.6,0.8,1.8,1.3,3.1,1.3c1.9,0,3.6-0.9,4.1-2.8c0.4-1.1,0.4-2,0.4-5.2V197
			c0-3.1-0.1-4.1-0.4-4.6c-0.3-0.5-0.8-0.8-1.4-0.9v-0.8c1.1,0,1.5,0,2.9,0c1.4,0,1.8,0,2.9,0v0.8C90.4,191.8,90.1,192,89.7,192.3z"
			/>
		<path d="M106.7,208.9c-0.3,0.4-0.5,0.5-2,0.5c-0.9,0-1.9,0-2.8-0.1c-1.4,0-2.6-0.1-4-0.1c-1.4,0-2.6,0-4,0.1v-0.8
			c1.3-0.1,1.8-0.9,1.9-2c0.1-0.9,0.1-1.8,0.1-3.1v-7.8c0-1.5-0.1-2.1-0.3-2.8c-0.3-0.8-0.8-1-1.6-1.1V191h12.9c0,0.8,0,1.6,0,2.4
			c0,0.6,0,1.3,0,2h-1c-0.3-2.1-1.1-2.8-4.4-2.8c-0.6,0-1.4,0-2.1,0c0,1.1-0.1,1.4-0.1,3v3.3c0.4,0,0.8,0,1.3,0
			c2.9,0,3.8-0.4,3.9-1.9h1c0,0.5,0,1.4,0,2.8c0,1.4,0,2.3,0,2.6h-1c-0.1-1.6-0.9-2-3.6-2c-0.5,0-1,0-1.5,0c0,1.8,0,3.5,0,5.3
			c0,1.1,0.3,1.5,0.9,1.8c0.4,0.1,1,0.1,1.9,0.1c3,0,4-0.6,4.6-2.9l1.1,0.3C107.4,206.8,106.9,208.4,106.7,208.9z"/>
		<path d="M132.2,192.5c0-2.4-1.4-3.4-5.3-3.4c-0.8,0-1.5,0-2.4,0.1c-0.1,2.3-0.1,3.9-0.1,7.5c0.8,0,1.3,0.1,1.8,0.1
			c3.1,0,4-0.5,4.3-2.4h1.3c0,0.9-0.1,1.9-0.1,2.9c0,1.3,0.1,2.5,0.1,3.8h-1.3c-0.3-2-1-2.4-4.5-2.4c-0.6,0-0.9,0-1.5,0v3.8
			c0,0.8,0,1.5,0,2.4c0.1,1.9,0.3,3.4,2.4,3.6v0.9H126c-0.9,0-2.1,0-3.6,0c-1.6,0-2.8,0-3.6,0H118v-0.9c1.5-0.1,2.1-1,2.3-2.5
			c0.1-1,0.1-1.6,0.1-4.9v-8.4c0-1.8-0.1-2.6-0.4-3.3c-0.3-0.9-0.9-1.3-2-1.4v-0.9h15.5c-0.1,0.6-0.1,1.8-0.1,3.1
			c0,1.4,0,1.5,0.1,2.3h-1.3V192.5z"/>
		<path d="M150.8,209.6c-1,0-1.6-0.1-2.1-0.5c-0.9-0.6-1.9-2.3-2.4-3.3c-0.9-1.6-2-3.4-3-4.9c-0.1,0-0.3,0-0.4,0c-0.3,0-0.5,0-0.8,0
			v1.5c0,0.8,0,1.5,0,2.3c0,1.5,0,2.1,0.3,2.8c0.3,0.8,0.8,1.1,1.6,1.1v0.8h-0.6c-0.8,0-1.8,0-3,0c-1.3,0-2.3,0-3,0h-0.6v-0.8
			c0.8,0,1-0.3,1.4-0.5c0.3-0.4,0.5-0.9,0.5-1.5c0.1-0.9,0.1-1.4,0.1-4v-4.6c0-3.4-0.1-4.1-0.3-5c-0.3-0.8-0.8-1-1.8-1.1V191
			c0.5,0,1.1,0,1.6,0c1.4,0,1.9,0,3.6-0.1c1.5,0,2.4-0.1,3-0.1c1.9,0,3,0.3,3.9,0.9c1,0.8,1.8,2.1,1.8,3.6c0,2.3-1.5,4.1-4,5
			c1,1.4,1.9,2.6,2.9,4.1c0.9,1.4,1.8,2.6,2.5,3.3c0.4,0.4,0.6,0.5,1.1,0.8v0.8C152.3,209.6,151.6,209.6,150.8,209.6z M143.6,192.3
			c-0.5,0-1,0.1-1.6,0.3c0,1.6,0,4.6,0,6.9c0.3,0,0.9,0.1,1.3,0.1c2.3,0,3.8-1.4,3.8-3.5C147,193.9,145.5,192.3,143.6,192.3z"/>
		<path d="M170.7,209.3c-0.8,0-1.6,0-3,0c-1.3,0-2.3,0-3,0h-0.6v-0.8c0.9,0,1.4-0.5,1.4-1.3c0-0.3-0.1-0.6-0.4-1.5
			c-0.4-1-0.5-1.8-0.9-2.6h-5.3l-0.5,1.6c-0.4,1.3-0.6,2.1-0.6,2.6c0,0.8,0.4,1.1,1.3,1.3v0.8c-1,0-1.4,0-2.8,0c-1.3,0-1.6,0-2.8,0
			v-0.8c0.4,0,0.5-0.1,0.9-0.4c0.5-0.5,1-1.4,1.9-3.5l2.6-6.7c0.8-1.8,1.8-4.6,2.5-7h1.9c0.3,0.9,0.9,2.3,1.3,3.3l3.9,9.9
			c0.6,1.6,1.1,2.6,1.5,3.3c0.4,0.6,0.8,1,1.4,1.1v0.8L170.7,209.3z M161.7,195.9c-0.8,1.9-1.8,4.3-2.1,5.7h4.1L161.7,195.9z"/>
		<path d="M190.3,192.6c-0.3,0.5-0.4,1-0.4,2.4c-0.1,2.5-0.1,6.4-0.1,8.2v4.3c0,0.6,0.1,1.6,0.1,2h-1.9c-1.8-2.4-5.5-6.9-5.5-6.9
			c-0.5-0.5-3.9-4.8-5.7-6.9c0,0.6,0,0.3,0,2v1.8c0,2.1,0,4.1,0.1,6.2c0,1.1,0.1,1.8,0.5,2.3c0.3,0.5,0.6,0.8,1.5,0.8v0.8
			c-1,0-2,0-2.9,0c-1,0-2,0-3,0v-0.8c1.9,0,1.9-1.6,1.9-3c0-1.1,0-2.1,0-3.9v-5.8c0-2.3-0.1-2.9-0.5-3.5c-0.3-0.5-0.6-0.6-1.5-0.6
			V191c0.9,0,1.3,0,2.4,0c1.1,0,1.5,0,2.4,0c0.4,0.6,0.9,1.1,2.8,3.5c2.8,3.3,5.2,6,7.4,8.9v-6c0-2.8,0-3.5-0.3-4.1
			c-0.3-0.9-0.8-1.4-1.8-1.5V191c1.1,0,1.5,0,2.9,0c1.4,0,1.8,0,2.9,0v0.8C191.2,191.7,190.7,191.8,190.3,192.6z"/>
		<path d="M209.7,208.7c-1.8,0.8-3.4,1-5.5,1l-0.3,1.1c0.1,0,0.4,0,0.5,0c1,0,1.8,0.8,1.8,1.6c0,1.5-1.1,2.5-3,2.5
			c-0.5,0-1-0.1-1.6-0.4l0.4-1.1c0.4,0.1,0.6,0.3,1,0.3c0.8,0,1.3-0.4,1.3-1.1c0-0.5-0.3-0.9-0.8-0.9c-0.3,0-0.4,0.1-0.6,0.3
			l-0.6-0.1l0.5-2.3c-2.4-0.3-4.1-1-5.7-2.5c-1.8-1.8-2.6-4.1-2.6-6.9c0-6,3.9-9.6,10.2-9.6c1.9,0,3.8,0.3,5.4,0.8
			c0,0.6,0,1.3,0,1.9c0,0.5,0,1.5,0,2.1h-1.1c-0.5-2-2-3-4.5-3c-3.9,0-6.3,2.6-6.3,6.9c0,5,2.8,8.5,6.7,8.5c2.3,0,3.9-1.1,4.5-3.4
			l1,0.3C210.1,205.7,209.8,207.3,209.7,208.7z"/>
		<path d="M228.9,209.3c-0.8,0-1.6,0-3,0c-1.3,0-2.3,0-3,0h-0.6v-0.8c0.9,0,1.4-0.5,1.4-1.3c0-0.3-0.1-0.6-0.4-1.5
			c-0.4-1-0.5-1.8-0.9-2.6h-5.3l-0.5,1.6c-0.4,1.3-0.6,2.1-0.6,2.6c0,0.8,0.4,1.1,1.3,1.3v0.8c-1,0-1.4,0-2.8,0c-1.3,0-1.6,0-2.8,0
			v-0.8c0.4,0,0.5-0.1,0.9-0.4c0.5-0.5,1-1.4,1.9-3.5l2.6-6.7c0.8-1.8,1.8-4.6,2.5-7h1.9c0.3,0.9,0.9,2.3,1.3,3.3l3.9,9.9
			c0.6,1.6,1.1,2.6,1.5,3.3c0.4,0.6,0.8,1,1.4,1.1v0.8L228.9,209.3z M219.9,195.9c-0.8,1.9-1.8,4.3-2.1,5.7h4.1L219.9,195.9z"/>
		<path d="M238,209.3c-0.8,0-1.8,0-3,0c-1.4,0-2.3,0-3,0h-0.6v-0.8c1.3-0.1,1.8-0.8,1.9-2c0.1-0.9,0.1-1.4,0.1-4v-4.6
			c0-0.8,0-1.5,0-2.3c0-1.5,0-2.1-0.3-2.8c-0.3-0.8-0.8-1-1.8-1.1V191h0.6c0.8,0,1.8,0,3,0c1.3,0,2.4,0,3,0h0.6v0.8
			c-1.1,0.1-1.8,0.9-1.9,2.1c-0.1,0.8-0.1,1.6-0.1,4v4.6c0,3.6,0,4.3,0.3,4.9c0.3,0.8,0.8,1.1,1.6,1.1v0.8L238,209.3z"/>
		<path d="M246.5,209.7c-1.6,0-2.8-0.3-4.6-0.9c-0.1-1-0.3-2.6-0.5-4l1-0.1c0.6,2.3,2.1,3.4,4.3,3.4c2,0,3.3-1,3.3-2.5
			c0-1.3-0.9-2.1-2.1-2.9l-2.9-1.9c-2-1.3-3.1-2.6-3.1-5c0-3.1,2.4-5.2,6-5.2c1.8,0,3.3,0.4,4.5,1c0,0.6,0,0.9,0,1.8c0,1,0,1.3,0,2
			h-1c-0.4-2-1.6-3.1-3.5-3.1c-1.8,0-3,1.1-3,2.6c0,1.4,0.9,2.3,2.4,3.1l2.4,1.5c2.3,1.5,3.5,2.9,3.5,5
			C253,207.7,250.4,209.7,246.5,209.7z"/>
		<path d="M268.8,208.9c-0.3,0.4-0.5,0.5-2,0.5c-1,0-1.9,0-2.8-0.1c-1.4,0-2.6-0.1-4-0.1s-2.6,0-4,0.1v-0.8c1.3-0.1,1.8-0.9,1.9-2
			c0.1-0.9,0.1-1.8,0.1-3.1v-7.8c0-1.5-0.1-2.1-0.3-2.8c-0.3-0.8-0.8-1-1.6-1.1V191H269c0,0.8,0,1.6,0,2.4c0,0.6,0,1.3,0,2h-1
			c-0.3-2.1-1.1-2.8-4.4-2.8c-0.6,0-1.4,0-2.1,0c0,1.1-0.1,1.4-0.1,3v3.3c0.4,0,0.8,0,1.3,0c2.9,0,3.8-0.4,3.9-1.9h1
			c0,0.5,0,1.4,0,2.8c0,1.4,0,2.3,0,2.6h-1c-0.1-1.6-0.9-2-3.6-2c-0.5,0-1,0-1.5,0c0,1.8,0,3.5,0,5.3c0,1.1,0.3,1.5,0.9,1.8
			c0.4,0.1,1,0.1,1.9,0.1c3,0,4-0.6,4.6-2.9l1.1,0.3C269.5,206.8,269.1,208.4,268.8,208.9z"/>
		<path d="M-57.8,172.1c-0.3,0.4-0.6,0.4-1.6,0.4c-1.3,0-2.6-0.1-3.9-0.1c-1.1,0-2,0-2.6,0c-0.8,0-2.8,0-3.4,0h-0.4l0.1-0.6
			c0.8-0.1,1.3-0.4,1.6-0.9c0.4-0.5,0.8-1.3,1.1-2.8s0.5-2.4,1.1-5.2l0.4-2.1c0.4-2.1,0.6-3.4,0.6-4.1c0-1.1-0.4-1.6-1.6-1.8
			l0.1-0.6c0.1,0,0.3,0,0.4,0c1,0,2,0,3,0c1.5,0,2.6,0,3,0c0.1,0,0.3,0,0.4,0l-0.1,0.6c-0.9,0-1.3,0.3-1.6,0.8c-0.6,0.9-1,2-2,7.2
			l-0.4,1.8c-0.4,2.3-0.6,3-0.8,4c0,0.4-0.1,0.6-0.1,0.9c0,1,0.5,1.4,2.3,1.4c3,0,4.1-0.6,5.2-2.9l0.8,0.3
			C-56.8,170.2-57.5,171.6-57.8,172.1z"/>
		<path d="M-49.8,158.9c-0.9,0-1.4-0.5-1.4-1.3c0-1,0.8-1.6,1.6-1.6c0.8,0,1.3,0.5,1.3,1.3C-48.3,158.3-48.9,158.9-49.8,158.9z
			 M-52.8,172.7c-0.5,0-0.9-0.3-0.9-0.8c0-0.3,0.1-0.6,0.3-1.3c0.4-1.4,0.9-3.4,1.1-4.4c0.4-1.4,0.5-2.4,0.5-2.8s-0.1-0.5-0.5-0.5
			c-0.3,0-0.5,0.1-1,0.3h-0.3l-0.1-0.8c1.5-0.6,2.9-0.9,3.6-0.9c0.4,0,0.6,0.1,0.6,0.5c0,0.4-0.1,1.1-0.6,3l-0.4,1.6
			c-0.6,2.6-0.9,3.5-0.9,4c0,0.4,0.3,0.6,0.6,0.6c0.3,0,0.8-0.1,1.5-0.4v0.8C-50.5,172.4-52.1,172.7-52.8,172.7z"/>
		<path d="M-38,171.5c-1,0.9-2.3,1.3-4.1,1.3c-2.1,0-3.4-0.4-3.4-0.9c0-0.3,0-0.5,0.3-1.6l1.4-6.2c0.5-2,0.8-3.5,1.3-5.8
			c0.3-1.3,0.4-2,0.4-2.4c0-0.4-0.1-0.5-0.5-0.5c-0.3,0-0.8,0.1-1.1,0.3v-0.8l0.4-0.1c1.5-0.5,2.6-0.8,3.3-0.8
			c0.4,0,0.6,0.1,0.6,0.5c0,0.3-0.1,1-0.6,3l-0.8,3.5c-0.3,1.1-0.4,1.6-0.4,2c1.8-1,3.1-1.5,4.5-1.5c1.6,0,2.5,0.9,2.5,2.5
			C-34.6,166.7-36,169.7-38,171.5z M-38,162.8c-0.5,0-1.1,0.3-1.9,0.6c-0.8,0.4-1.4,0.9-1.6,1.3c-0.4,0.5-0.6,1.4-1,3.1
			c-0.4,1.6-0.6,2.8-0.6,3.1c0,0.5,0.6,0.8,1.6,0.8c1.1,0,2-0.5,2.8-1.5c1.1-1.5,1.9-4,1.9-5.8C-36.7,163.4-37.2,162.8-38,162.8z"/>
		<path d="M-28.7,168.1c-0.3,0-0.4,0-0.8,0c-0.1,0.5-0.1,0.9-0.1,1.3c0,1.4,0.5,2.1,1.4,2.1s1.9-0.5,3.5-1.5l0.3,0.9
			c-2,1.3-3.5,1.8-4.9,1.8c-1.6,0-2.6-1-2.6-2.8c0-4.4,3-8.3,6.5-8.3c1.6,0,2.6,0.8,2.6,2.1C-22.5,166.2-25.2,168.1-28.7,168.1z
			 M-25.9,162.7c-1.3,0-2.6,1.8-3.4,4.4h0.3c2.5,0,4.4-1.4,4.4-3C-24.5,163.3-25.2,162.7-25.9,162.7z"/>
		<path d="M-11.8,165.1l-0.9-0.1c0-0.4,0.1-0.8,0.1-1c0-0.5-0.4-0.9-1.1-0.9c-0.4,0-0.8,0.3-1.1,0.6c-1,1.1-1.4,3-2,6l-0.5,2.6
			c-1,0-1.3,0.1-2.4,0.3c0.3-1,0.5-1.9,0.6-2.8l0.6-2.5c0.4-1.8,0.6-2.8,0.6-3.3c0-0.6-0.1-1-0.5-1c-0.1,0-0.4,0-0.6,0.1l-0.6,0.3
			l-0.1-0.8c1.3-0.5,2.8-1,3.5-1c0.3,0,0.4,0.1,0.5,0.4c0.1,0.4,0.1,0.8,0.1,1.1c1.3-1,2.3-1.5,3-1.5c0.5,0,1.1,0.3,1.8,0.8
			C-11.2,163.3-11.6,164.2-11.8,165.1z"/>
		<path d="M-2.7,163.3h-2.3l-1.1,5.5c-0.3,1.4-0.4,1.9-0.4,2c0,0.4,0.1,0.6,0.5,0.6c0.1,0,0.6-0.1,1.3-0.3l0.3-0.1l0.1,0.8
			c-1.4,0.5-2.9,1-3.6,1c-0.6,0-0.9-0.3-0.9-0.8s0.1-1.1,0.4-2c0.3-1,0.4-1.8,0.6-2.8l0.9-4h-1.4l0.3-0.9c1.9-0.4,2.5-1.8,3-3.4
			l1.3-0.3l-0.6,3.1h2.3L-2.7,163.3z"/>
		<path d="M5.6,160.1l-0.9-0.8l3.3-3.8l2.4,0.6L5.6,160.1z M2.6,168.1c-0.3,0-0.4,0-0.8,0c-0.1,0.5-0.1,0.9-0.1,1.3
			c0,1.4,0.5,2.1,1.4,2.1S5,171,6.6,170l0.3,0.9c-2,1.3-3.5,1.8-4.9,1.8c-1.6,0-2.6-1-2.6-2.8c0-4.4,3-8.3,6.5-8.3
			c1.8,0,2.6,0.8,2.6,2.1C8.8,166.2,6.1,168.1,2.6,168.1z M5.4,162.7c-1.3,0-2.6,1.8-3.4,4.4h0.3c2.5,0,4.4-1.4,4.4-3
			C6.8,163.3,6.1,162.7,5.4,162.7z"/>
		<path d="M51.9,152.6l-0.9-0.8l3.3-3.8l2.5,0.6L51.9,152.6z M57,158.4h-0.8c0-0.3,0-0.4,0-0.6c0-1.5-1-2-3.6-2
			c-0.9,0-1.8,0-2.6,0.1c-0.6,2.3-1,4.1-1.4,6.5c0.4,0,0.6,0,1,0c1.8,0,2.5,0,3-0.1c1-0.3,1.6-0.8,1.9-1.9h0.8
			c-0.4,1.6-0.9,3.9-1,5.3h-0.8c0-0.1,0-0.4,0-0.5c0-1.1-0.8-1.5-2.9-1.5c-1.3,0-1.8,0-2.3,0c-0.1,0.6,0,0.1-0.6,3.1
			c-0.3,1.5-0.4,2.5-0.4,2.9c0,0.9,0.5,1.1,2.3,1.1c3.4,0,4.4-0.5,5.5-2.9l0.6,0.3c-0.6,1.8-1.3,3.3-1.6,3.6
			c-0.3,0.3-0.6,0.4-1.8,0.4c-0.9,0-1.9,0-2.9,0c-1.3,0-2.5,0-3.8,0s-2.5,0-3.8,0l0.1-0.6c0.8-0.1,1.3-0.4,1.6-0.9
			c0.4-0.5,0.8-1.3,1.1-2.8c0.4-1.5,0.5-2.1,1.1-5.2l0.4-2.1c0.4-2.1,0.6-3.4,0.6-4.1c0-1.1-0.4-1.6-1.6-1.8l0.1-0.6h12.3
			C57.5,155.7,57.1,157.2,57,158.4z"/>
		<path d="M70.3,163.3h-1.9c0.4,0.6,0.4,1,0.4,1.6c0,2.5-2.1,4.4-4.8,4.4c-0.5,0-0.9,0-1.5-0.3c-0.6,0.4-0.9,0.6-0.9,0.9
			c0,0.3,0.3,0.4,1.5,0.8l2.1,0.6c2.1,0.6,3.3,1.3,3.3,2.9c0,2.9-2.8,5.2-6.4,5.2c-3,0-4.8-1.4-4.8-3.6c0-2.1,1.4-3.1,3.5-3.6
			c-1.4-0.5-1.6-0.8-1.6-1.1c0-0.6,0.8-1.3,2.4-2.3c-0.9-0.6-1.3-1.4-1.3-2.5c0-2.5,2-4.5,4.8-4.5c0.8,0,1.3,0.1,1.8,0.3h3.5
			L70.3,163.3z M65.2,162.7c-1.5,0-2.6,1.5-2.6,3.4c0,1.3,0.8,2.1,1.8,2.1c1.4,0,2.6-1.5,2.6-3.3C66.9,163.6,66.2,162.7,65.2,162.7z
			 M65.6,173.6c-0.9-0.4-2-0.8-3.1-1c-1.9,0.5-3.1,1.9-3.1,3.4c0,1.5,1.3,2.4,3.1,2.4c2.4,0,4.5-1.6,4.5-3.3
			C66.9,174.4,66.6,174,65.6,173.6z"/>
		<path d="M80.4,172.7c-0.5,0-0.6-0.3-0.9-1.6c-2,1.1-3.4,1.6-4.9,1.6c-1.6,0-2.5-0.9-2.5-2.3s0.8-3.4,1.8-5.2
			c1.5-2.3,3.3-3.6,6-3.6c1.3,0,2.3,0.3,3.5,0.5l-0.1,0.4c-1,3.1-1.6,6.5-1.6,7.7c0,0.8,0.1,1.1,0.5,1.1c0.3,0,0.8-0.1,1.5-0.4
			l0.1,0.9C82.3,172.4,80.9,172.7,80.4,172.7z M79.3,162.8c-1.1,0-2.1,0.8-3,2.3c-1,1.6-1.8,3.8-1.8,5.3c0,0.9,0.4,1.3,1.1,1.3
			c1,0,2.8-0.9,3.4-1.5c0.4-0.4,0.6-0.9,0.9-1.9c0.4-1.6,0.9-3.1,1.1-4.9C80.3,162.9,79.6,162.8,79.3,162.8z"/>
		<path d="M92.3,156.9c-0.9,3.6-1.8,7.5-2.6,11.3c-0.3,1.3-0.4,2-0.4,2.5c0,0.4,0.3,0.6,0.6,0.6c0.3,0,0.8-0.1,1.5-0.4v0.8
			c-1.4,0.5-3,1-3.8,1c-0.5,0-0.8-0.3-0.8-0.8c0-0.4,0.1-0.9,0.5-2.5c0.9-3.5,1.8-7.4,2.5-10.8c0.4-1.5,0.5-2.4,0.5-2.6
			c0-0.4-0.1-0.5-0.5-0.5c-0.3,0-0.8,0.1-1.1,0.3V155c1.4-0.5,2.9-0.9,3.6-0.9c0.4,0,0.6,0.1,0.6,0.5
			C92.8,154.9,92.7,155.5,92.3,156.9z"/>
		<path d="M99,158.9c-0.9,0-1.4-0.5-1.4-1.3c0-1,0.8-1.6,1.6-1.6c0.8,0,1.3,0.5,1.3,1.3C100.6,158.3,100,158.9,99,158.9z
			 M96.1,172.7c-0.5,0-0.9-0.3-0.9-0.8c0-0.3,0.1-0.6,0.3-1.3c0.4-1.4,0.9-3.4,1.1-4.4c0.4-1.4,0.5-2.4,0.5-2.8s-0.1-0.5-0.5-0.5
			c-0.3,0-0.5,0.1-1,0.3h-0.3l-0.1-0.8c1.5-0.6,2.9-0.9,3.6-0.9c0.4,0,0.5,0.1,0.5,0.5c0,0.4-0.1,1.1-0.6,3l-0.4,1.6
			c-0.6,2.6-0.9,3.5-0.9,4c0,0.4,0.3,0.6,0.6,0.6c0.3,0,0.8-0.1,1.5-0.4v0.8C98.4,172.4,96.9,172.7,96.1,172.7z"/>
		<path d="M109.7,163.3h-2.3l-1.1,5.5c-0.3,1.4-0.4,1.9-0.4,2c0,0.4,0.1,0.6,0.5,0.6c0.3,0,0.6-0.1,1.3-0.3l0.3-0.1l0.1,0.8
			c-1.4,0.5-2.9,1-3.6,1c-0.5,0-0.9-0.3-0.9-0.8s0.1-1.1,0.4-2c0.3-1,0.4-1.8,0.6-2.8l0.9-4H104l0.3-0.9c1.9-0.4,2.5-1.8,3-3.4
			l1.3-0.3l-0.6,3.1h2.3L109.7,163.3z"/>
		<path d="M118,160.1l-0.9-0.8l3.3-3.8l2.4,0.6L118,160.1z M114.9,168.1c-0.3,0-0.4,0-0.8,0c-0.1,0.5-0.1,0.9-0.1,1.3
			c0,1.4,0.5,2.1,1.4,2.1c0.9,0,1.9-0.5,3.5-1.5l0.3,0.9c-2,1.3-3.5,1.8-4.9,1.8c-1.6,0-2.6-1-2.6-2.8c0-4.4,3-8.3,6.5-8.3
			c1.6,0,2.6,0.8,2.6,2.1C121,166.2,118.3,168.1,114.9,168.1z M117.7,162.7c-1.3,0-2.6,1.8-3.4,4.4h0.3c2.5,0,4.4-1.4,4.4-3
			C119,163.3,118.5,162.7,117.7,162.7z"/>
		<path d="M169,158.4h-0.8c0-0.3,0-0.5,0-0.6c0-0.5-0.3-1-0.5-1.3c-0.5-0.5-1.5-0.6-3.5-0.6c-0.6,0-1.3,0-2,0
			c-0.5,2.3-0.9,4.4-1.4,6.7c0.5,0,1,0,1.5,0c3,0,3.6-0.3,4.1-2h0.8c-0.4,1.8-0.8,3.5-1,5.3h-0.8c0-0.3,0-0.4,0-0.5
			c0-0.5-0.3-0.9-0.5-1.1c-0.5-0.4-1-0.4-2.6-0.4c-0.9,0-1.1,0-1.8,0l-0.4,1.8c-0.5,2.6-0.8,3.8-0.8,4.5c0,1.1,0.5,1.6,1.6,1.8
			l-0.1,0.6h-0.4c-0.3,0-1.4,0-2.4,0c-1.1,0-3,0-3.4,0h-0.5l0.1-0.6c0.8-0.1,1.3-0.4,1.6-0.9c0.4-0.5,0.8-1.3,1.1-2.8
			c0.4-1.5,0.5-2.4,1.1-5.2l0.4-2.1c0.4-2.1,0.6-3.4,0.6-4.1c0-1.1-0.4-1.6-1.6-1.8l0.1-0.6h11.9C169.5,155.7,169.1,157,169,158.4z"
			/>
		<path d="M178.2,165.1l-0.9-0.1c0-0.4,0.1-0.8,0.1-1c0-0.5-0.4-0.9-1.1-0.9c-0.4,0-0.8,0.3-1.1,0.6c-1,1.1-1.4,3-2,6l-0.5,2.6
			c-1,0-1.3,0.1-2.4,0.3c0.3-1,0.5-1.9,0.6-2.8l0.6-2.5c0.4-1.8,0.6-2.8,0.6-3.3c0-0.6-0.1-1-0.5-1c-0.1,0-0.4,0-0.6,0.1l-0.6,0.3
			l-0.1-0.8c1.4-0.5,2.9-1,3.5-1c0.3,0,0.4,0.1,0.5,0.4c0.1,0.4,0.1,0.8,0.1,1.1c1.3-1,2.3-1.5,3-1.5c0.5,0,1.1,0.3,1.8,0.8
			C178.7,163.3,178.4,164.2,178.2,165.1z"/>
		<path d="M188.7,172.7c-0.5,0-0.6-0.3-0.9-1.6c-2,1.1-3.4,1.6-4.9,1.6c-1.6,0-2.5-0.9-2.5-2.3s0.8-3.4,1.8-5.2
			c1.5-2.3,3.3-3.6,6-3.6c1.3,0,2.3,0.3,3.5,0.5l-0.1,0.4c-1,3.1-1.6,6.5-1.6,7.7c0,0.8,0.1,1.1,0.5,1.1c0.3,0,0.8-0.1,1.5-0.4
			l0.1,0.9C190.6,172.4,189.2,172.7,188.7,172.7z M187.6,162.8c-1.1,0-2.1,0.8-3,2.3c-1,1.6-1.8,3.8-1.8,5.3c0,0.9,0.4,1.3,1.1,1.3
			c1,0,2.8-0.9,3.4-1.5c0.4-0.4,0.6-0.9,0.9-1.9c0.4-1.6,0.9-3.1,1.1-4.9C188.6,162.9,188,162.8,187.6,162.8z"/>
		<path d="M201.7,163.3h-2.3l-1.1,5.5c-0.3,1.4-0.4,1.9-0.4,2c0,0.4,0.3,0.6,0.5,0.6c0.3,0,0.6-0.1,1.3-0.3l0.3-0.1l0.1,0.8
			c-1.4,0.5-2.9,1-3.6,1c-0.5,0-0.9-0.3-0.9-0.8s0.1-1.1,0.4-2c0.3-1,0.4-1.8,0.6-2.8l0.9-4H196l0.3-0.9c1.9-0.4,2.4-1.8,3-3.4
			l1.3-0.3l-0.6,3.1h2.3L201.7,163.3z"/>
		<path d="M206.9,168.1c-0.3,0-0.4,0-0.8,0c-0.1,0.5-0.1,0.9-0.1,1.3c0,1.4,0.5,2.1,1.4,2.1c0.9,0,1.9-0.5,3.5-1.5l0.3,0.9
			c-2,1.3-3.5,1.8-4.9,1.8c-1.6,0-2.6-1-2.6-2.8c0-4.4,3-8.3,6.5-8.3c1.6,0,2.6,0.8,2.6,2.1C213,166.2,210.3,168.1,206.9,168.1z
			 M209.7,162.7c-1.3,0-2.6,1.8-3.4,4.4h0.3c2.5,0,4.4-1.4,4.4-3C211,163.3,210.3,162.7,209.7,162.7z"/>
		<path d="M223.8,165.1l-0.9-0.1c0-0.4,0.1-0.8,0.1-1c0-0.5-0.4-0.9-1.1-0.9c-0.4,0-0.8,0.3-1.1,0.6c-1,1.1-1.4,3-2,6l-0.5,2.6
			c-1,0-1.3,0.1-2.4,0.3c0.3-1,0.5-1.9,0.6-2.8l0.6-2.5c0.4-1.8,0.6-2.8,0.6-3.3c0-0.6-0.1-1-0.5-1c-0.1,0-0.4,0-0.6,0.1l-0.6,0.3
			l-0.1-0.8c1.4-0.5,2.8-1,3.5-1c0.3,0,0.4,0.1,0.5,0.4c0.1,0.4,0.1,0.8,0.1,1.1c1.3-1,2.3-1.5,3-1.5c0.5,0,1.1,0.3,1.8,0.8
			C224.3,163.3,224,164.2,223.8,165.1z"/>
		<path d="M234.6,172.7c-0.5,0-0.9-0.4-0.9-0.8s0.1-0.9,0.4-2.3l0.3-1.1c0.8-3.4,1-4.5,1-4.9c0-0.4-0.3-0.6-0.6-0.6
			c-0.5,0-1.3,0.3-2,0.8c-0.9,0.5-1.5,1-1.9,1.5c-0.3,0.4-0.4,1.1-0.8,2.5c-0.4,2-0.8,3.3-0.9,4.5c-1,0.1-1.4,0.1-2.4,0.3
			c0.5-2,1-3.6,1.4-5.5c0.4-1.9,0.5-2.6,0.5-3.1c0-0.6-0.1-0.9-0.6-0.9c-0.3,0-0.6,0.1-1.4,0.4v-0.8c1.3-0.5,2.6-0.9,3.4-0.9
			c0.6,0,0.8,0.4,0.8,1.6v0.3c2-1.1,4.1-1.9,5.7-1.9c0.9,0,1.3,0.3,1.3,0.8c0,0.5-0.1,1.5-0.8,3.6c-0.4,1.3-0.6,2.5-0.8,3.1
			c-0.1,0.8-0.3,1.3-0.3,1.5c0,0.4,0.3,0.6,0.6,0.6c0.3,0,0.8-0.1,1.4-0.4l0.1,0.8C236.7,172.4,235.1,172.7,234.6,172.7z"/>
		<path d="M245.9,158.9c-0.9,0-1.4-0.5-1.4-1.3c0-1,0.8-1.6,1.6-1.6c0.8,0,1.4,0.5,1.4,1.3C247.5,158.3,246.8,158.9,245.9,158.9z
			 M242.9,172.7c-0.5,0-0.9-0.3-0.9-0.8c0-0.3,0.1-0.6,0.3-1.3c0.4-1.4,0.9-3.4,1.1-4.4c0.4-1.4,0.5-2.4,0.5-2.8s-0.1-0.5-0.5-0.5
			c-0.3,0-0.5,0.1-1,0.3h-0.3l-0.1-0.8c1.5-0.6,2.9-0.9,3.6-0.9c0.4,0,0.5,0.1,0.5,0.5c0,0.4-0.1,1.1-0.6,3l-0.4,1.6
			c-0.6,2.6-0.9,3.5-0.9,4c0,0.4,0.3,0.6,0.6,0.6c0.3,0,0.8-0.1,1.5-0.4v0.8C245.3,172.4,243.6,172.7,242.9,172.7z"/>
		<path d="M256.4,163.3h-2.3l-1.1,5.5c-0.3,1.4-0.4,1.9-0.4,2c0,0.4,0.3,0.6,0.5,0.6c0.3,0,0.6-0.1,1.3-0.3l0.3-0.1l0.1,0.8
			c-1.4,0.5-2.9,1-3.6,1c-0.6,0-0.9-0.3-0.9-0.8s0.1-1.1,0.4-2c0.3-1,0.4-1.8,0.6-2.8l0.9-4h-1.4l0.3-0.9c1.9-0.4,2.4-1.8,3-3.4
			l1.3-0.3l-0.6,3.1h2.3L256.4,163.3z"/>
		<path d="M264.7,160.1l-0.9-0.8l3.3-3.8l2.4,0.6L264.7,160.1z M261.7,168.1c-0.3,0-0.4,0-0.8,0c-0.1,0.5-0.1,0.9-0.1,1.3
			c0,1.4,0.5,2.1,1.4,2.1s1.9-0.5,3.5-1.5l0.3,0.9c-2,1.3-3.5,1.8-4.9,1.8c-1.6,0-2.6-1-2.6-2.8c0-4.4,3-8.3,6.5-8.3
			c1.8,0,2.6,0.8,2.6,2.1C267.9,166.2,265.2,168.1,261.7,168.1z M264.5,162.7c-1.3,0-2.6,1.8-3.4,4.4h0.3c2.5,0,4.4-1.4,4.4-3
			C265.9,163.3,265.2,162.7,264.5,162.7z"/>
		<circle cx="138.4" cy="164.5" r="3.3"/>
		<circle cx="26.2" cy="164.5" r="3.3"/>
		<g>
			<g>
				<defs>
					<rect id="SVGID_1_" x="-67.5" y="26.1" width="336.3" height="112.8"/>
				</defs>
				<clipPath id="SVGID_2_">
					<use xlink:href="#SVGID_1_"  overflow="visible"/>
				</clipPath>
				<rect x="-70.7" y="20.9" clip-path="url(#SVGID_2_)" fill="#FFFFFF" width="343.3" height="121"/>
			</g>
			<g>
				<defs>
					<rect id="SVGID_3_" x="-67.5" y="26.1" width="336.3" height="112.8"/>
				</defs>
				<clipPath id="SVGID_4_">
					<use xlink:href="#SVGID_3_"  overflow="visible"/>
				</clipPath>
				<path clip-path="url(#SVGID_4_)" fill="#1E4E9C" d="M32.9,96.2c-3,0.9-6.2,1-9,2.5c6.7-0.3,13.3,0.8,19.7,2.8
					c2.3,0.8,4.4,1.8,6.4,3.1c1,0.8,1.5,1.5,2.5,2c1.3,0.8,3.1,0.8,4.4,0.3c0.3,0,1,0,1.3,0c3.9-1,7.9-2,10.6-4.9
					c0,0.3,0.3,0.3,0.5,0.3c-0.8,2-0.8,4.4-2.3,6.2c0,0.3-0.3,0.8,0.3,1c0.3,0,0.3,0,0.5,0c-0.3,0-0.5,0-0.5,0.3c0,0.5,0.8,0,1,0.5
					c-1.3,0.3-2.5,0.5-3.4,1.5c0,0.3,0.5,0.3,0.8,0.3c-0.5,0.5-1.3,0.3-1.5,0.8c0,0,0.3,0.3,0.5,0.3c-0.3,0-0.5,0-0.5,0.3
					c0,0.3,0,0.5,0,0.8c-0.8,0-1,0.5-1.5,0.8c1,0.8,1.8,0,2.8,0c-2.8,1-5.2,2.5-7.9,3.4c-0.5,0,0,0.8-0.5,0.8c0.8,0.5,1.3-0.3,2-0.3
					c-3.6,2-7.2,3.9-11.1,6.2c0,0-0.5,0.5-0.5,1c-0.3,0-0.8,0-1,0c-0.5,0.3-0.3,1-0.8,1.5c1.3,0.8,2.8-1,3.6,0c0.3,0-0.5,0.3-1,0.3
					c-0.3,0-0.3,0.5-0.5,0.5s-0.5,0-0.8,0c-0.5,0.5-1,0.8-1,1.5c-0.5,0-1,0-1.3,0.5c5.7-0.8,11.6-0.3,17-3.1c4.1-2,7.9-4.9,11.3-8.4
					c0,0,0.3,0.3,0.3,0.5c-0.8,2.5-2.3,4.4-4.4,5.9c-1.5,0.8-2.5,2-3.9,2.5c-0.8,0.5-1.5,1-2.3,1.5c-9.6,3.4-20.9,1.8-29,8.2
					c0-0.3-0.3-0.3-0.5-0.3c-0.5,0.5-1.3,0.8-1.5,1.3c0,0.5,0.8,0.3,1,0.3c1.5-1,3.1-1.8,4.9-2.3c-2,1-4.1,2.5-6.2,3.1
					c-4.4,0.8-8.4,0.5-12.8,0c2.5-1.5,5.2-3.4,7.9-4.9c-0.8-0.5-1.5-0.5-2.3-0.5c-1.3,0.3-2.8-0.5-4.1,0c-3.9,1.8-9,1.3-11.1,5.4
					c-25.6,0.5-51.6,0-77.3,0c0.5-28,0-55.8,0.8-83.7c0.3-10.1-0.3-20-0.3-30c6.9-1.3,13.8-0.5,20.9-0.3c44.5,0,88.6-0.3,133.1,0
					c-3.1,1.5-6.7,2.8-9,5.7c-2,2.5-4.1,5.2-4.9,8.2c-3.4,2-5.4,5.2-7.2,8.2c-2.3,4.4-5.7,8.2-5.2,13.1c0.5,4.1,1.5,7.9,2.3,12.3
					c0.3,1.5,0.5,2.8,1,4.4c0.5,1.5,0,3.4,0.8,4.6c0.5,0.8,0.3,1.8,1.3,2.3c0,0.3,0,0.8,0,1c0.3,0.3,0.3,0.5,0.8,0.5
					c0,0.3,0,0.8,0,1c2,2.5,4.6,4.9,5.9,7.7c0.5,1.5-2.5,0.8-3.9,0.3c-2.5-1.3-4.1-3.4-6.2-5.2c0,0-0.3,0.3-0.3,0.5
					c1,1.8,4.9,4.1,2.8,5.4c-1,0.5-2.3-0.8-3.4,0.3c-0.3,0.5,0,1,0,1.5c-1.5-1-3.1-0.5-4.6-1c-1-0.3-1.3-2.3-2.5-2.3
					c-3.4-0.8-6.4-1.5-9.8-1.8c-4.6-0.5-9-1.3-13.6-0.5c-4.1,0.3-7.2,3.4-9.8,6.4c0,0.3,0,0.8,0,0.8c1.8,0.3,2.5-1.3,4.1-1.8
					c2.5-0.5,4.9-1.5,7.4-2C36,94,39.6,93,43.2,93.2c0.8,0,1.8-0.3,2.5,0C41.3,93.3,37.3,94.8,32.9,96.2z"/>
			</g>
			<g>
				<defs>
					<rect id="SVGID_5_" x="-67.5" y="26.1" width="336.3" height="112.8"/>
				</defs>
				<clipPath id="SVGID_6_">
					<use xlink:href="#SVGID_5_"  overflow="visible"/>
				</clipPath>
				<path clip-path="url(#SVGID_6_)" fill="#FFFFFF" d="M18.4,108.5c-0.8,0.3-1.5,0.8-1.3,1.3c0.8,1,2.3-0.3,3.6-0.3
					c-1.5,0.5-3.4,0.3-4.6,1.5c1,0.8,2,0.3,3.1,0.3c0,0.5,0.5,0.5,0.8,0.8c-1.3,0.5-2.3,1.5-2.5,2.3c-0.5,1.3-1.8,1.8-2.5,2.8
					c0,0.3,0,0.5,0,0.8c-2.5,2.3-5.4,3.9-7.4,6.7c0.3,0,0.3,0.3,0.3,0.5c-0.5,0.8-1.5,1-1.8,1.8c0,0.3,0,0.5,0.3,0.5
					c3.1-1,5.4-3.4,8.2-4.4c2-0.5,3.6-1.8,5.4-2.3c1.3-0.3,2.8-0.8,4.1-1c0,0.3,0,0.5,0.3,0.5c0.8,0,1.3,0,2,0
					c-0.3,0.5-1.3,0.3-1,0.5c0.8,0.8,2.3,0.5,3.4,0c0.8-0.5,1.5-0.5,2.5-0.5c0.3,0,0.3-0.5,0.3-0.8c0.8,0.3,1.3,0.3,2,0.3
					c6.2-1.3,12.1-2.5,17.7-5.4c-6.7-5.2-15.2-6.9-23.1-9.3c0.8,0,1.5,0.8,2.3,0c-1.3-1-2.8-0.5-4.1-1.3c0.3,0,0.8,0.3,1-0.3
					c-2-1-4.1-1-6.2-1.5c1.3-0.3,2-1.3,2-2.5c0-0.3-0.5-0.3-0.8-0.3c-3.1,1.5-5.2,4.4-6.4,7.7c1.8,1,3.9,0.3,5.7,0.5
					C20.8,108.3,19.6,108.3,18.4,108.5z"/>
			</g>
			<g>
				<defs>
					<rect id="SVGID_7_" x="-67.5" y="26.1" width="336.3" height="112.8"/>
				</defs>
				<clipPath id="SVGID_8_">
					<use xlink:href="#SVGID_7_"  overflow="visible"/>
				</clipPath>
				<path clip-path="url(#SVGID_8_)" fill="#FFFFFF" d="M8,98.5c-2.6,2.8-5.4,5.4-8.7,7.2c-2.3,4.6-4.9,8.7-8.2,13.1
					c0,0.3,0.3,0.5,0.3,0.5c6.2-6.9,11.8-12.8,19.7-17.7c0.5-0.3-0.8,0.8,0.3,0.5c3.4-0.8,4.4-4.1,5.9-6.7c2-3.4,5.7-4.6,8.2-7.4
					c0,0.3,0,0.5-0.3,0.8c0.3,0.3,0.5,0.3,0.8,0.3c1-0.8,2.3-0.5,3.1-1.5c-2-0.8-4.6-1-6.7-0.3C16.9,89.7,12.3,93.8,8,98.5z"/>
			</g>
			<g>
				<defs>
					<rect id="SVGID_9_" x="-67.5" y="26.1" width="336.3" height="112.8"/>
				</defs>
				<clipPath id="SVGID_10_">
					<use xlink:href="#SVGID_9_"  overflow="visible"/>
				</clipPath>
				<path clip-path="url(#SVGID_10_)" fill="#FFFFFF" d="M11.8,103.4c0.3-0.5,0.5-0.5,0.8-1c0-0.3,0-0.5-0.3-0.5
					c-1,0.3-1.8,1.3-2,2.3c0,0.3,0.3,0.3,0.5,0.3C11.3,104.1,11.5,103.9,11.8,103.4z"/>
			</g>
			<g>
				<defs>
					<rect id="SVGID_11_" x="-67.5" y="26.1" width="336.3" height="112.8"/>
				</defs>
				<clipPath id="SVGID_12_">
					<use xlink:href="#SVGID_11_"  overflow="visible"/>
				</clipPath>
				<path clip-path="url(#SVGID_12_)" fill="#FFFFFF" d="M32.4,122.9c-1,0.5-2.8,0.5-3.1,1.8c-0.3,0.5,0.8,0.3,1.3,0.3
					c1.8-0.8,3.9,0,5.4-1.5c-0.5-0.5-1.3-0.3-1.8-1C33.6,122.1,32.9,122.6,32.4,122.9z"/>
			</g>
			<g>
				<defs>
					<rect id="SVGID_13_" x="-67.5" y="26.1" width="336.3" height="112.8"/>
				</defs>
				<clipPath id="SVGID_14_">
					<use xlink:href="#SVGID_13_"  overflow="visible"/>
				</clipPath>
				<path clip-path="url(#SVGID_14_)" fill="#1E4E9C" d="M60.4,136.7c1.6-0.4,3.1-1.3,4.6-1.8c0,0.3,0,0.3,0,0.5
					c3.9-1.5,6.7-4.9,10.6-6.2c0.3,0,0.8,0.5,1.3,0.3c2.3-2,4.9-4.4,8.2-3.9c0,0.3,0,0.5,0.3,0.5c0.3,0,0.5,0,0.5-0.3
					c-1,0.8-2,1.5-3.1,2.3c-0.3,0.3,0,0.5,0.3,0.5c1.3-0.5,2-1.5,3.4-2c-0.3,0.3-0.3,0.8-0.5,1c-4.9,3.6-8.4,7.7-12.3,12.1
					c-2.5,0-5.4,0-7.9,0c0-0.3,0-0.5-0.3-0.5c-9,0.8-17.7,0.5-26.8,0.5c5.2-0.8,10.3-2.3,15.5-2.8C56,137.1,58,137.3,60.4,136.7z"/>
			</g>
			<g>
				<defs>
					<rect id="SVGID_15_" x="-67.5" y="26.1" width="336.3" height="112.8"/>
				</defs>
				<clipPath id="SVGID_16_">
					<use xlink:href="#SVGID_15_"  overflow="visible"/>
				</clipPath>
				<path clip-path="url(#SVGID_16_)" fill="#EB2D2E" d="M161.6,123.6c0.6-1.9,1.3-3.9,0.3-5.7c-1.5-2.3,1.5-3.1,2.5-4.6
					c0.8-1.3-0.5-2-0.8-3.4c-0.3-0.5-1.3-0.3-1.8-1c1.8-0.8,4.6-2.3,3.4-4.6c-0.8-1.3-2-3.4-0.5-4.6c1.8-1,4.6-0.8,5.4-2.5
					c1.3-3.1-1.5-5.7-3.1-8.2c-0.8-1.5-1.8-2.5-2.8-4.1c-1-1.8-2.3-3.4-2.8-5.4c-0.8-2,0.3-3.9,0.3-5.9c0.3-3.9-0.8-7.7-1.8-11.6
					c-0.8-1.8-1-3.9-1.8-5.7c-0.3-1-0.5-2-1.3-3.1c-0.3-0.5-0.3-1.3,0-1.8c1-0.8,2-1.5,3.1-2.5c0.8-1.3,0.3-3.1-1-3.9
					c-1.8-0.8-1.5,1.8-2.8,2.3c-0.3,0-0.5,0-0.8,0c-0.3-0.8,0.3-1,0.8-1.5c0-0.3,0-0.8-0.3-0.8c-1,0-2-0.3-2.3-0.8
					c-2.5-3.6-6.2-5.4-10.1-6.9c1,0.3,2,0.5,3.1,0.5c1.8,0.3,3.9,0.3,5.4-0.5c1.3-0.5,1.5-2.5,2-3.9c0.5-1-0.3-2.5-0.8-3.4
					c-1.3-2-3.4-3.4-5.4-4.4c40.6,0,81.2,0,121.8,0c0.3,37.9-0.3,76-0.5,114c-48,0.8-96,0-144.1,0c1.5-5.2,4.4-10.1,9-13.3
					c1-0.5,2.3-0.8,3.6-1c4.4,0,8.7,1.3,13.1,1.8c0.5,0,1,0.3,1.5,0.5c1.5,0.3,3.4,0.3,4.9-0.3C158.7,127,160.8,126,161.6,123.6z"/>
			</g>
			<g>
				<defs>
					<rect id="SVGID_17_" x="-67.5" y="26.1" width="336.3" height="112.8"/>
				</defs>
				<clipPath id="SVGID_18_">
					<use xlink:href="#SVGID_17_"  overflow="visible"/>
				</clipPath>
				<path clip-path="url(#SVGID_18_)" fill="#899097" d="M151.8,73.1c-1.5-0.4-2.8,0-4.4,0c-2,0.5-3.9,0.8-5.7,1.5
					c1.5-1,3.1-2,4.9-2.5c1.3-0.3,2.5-1,3.9-1c1.5-0.3,3.1-0.8,4.4-0.3c1.3,0.5,3.4,0.5,3.6,1.3c0.5,1.5-0.8,3.1-2.3,4.1
					c-0.3,0.5,0.8,0.8,0.8,1.3c-0.3,0.5-1,0.8-1.5,0.8c-0.5,0.3-1,1-1.5,1.5c0.5,0,0,0.8,0.5,0.8c-1,1.3,0.5,3.9-1,4.4
					c-1.8,0.5-3.9,0.5-5.9,0c1-0.3,2.3,0.3,3.1-0.8c0-0.3,0-0.8,0-1c0-0.3-0.3-0.3-0.5-0.3c-0.3,0.3-0.5,0.3-0.5,0.3
					c0-0.5-0.5-1-0.8-1c-1.5,0.3-2.8-0.5-3.9-1.5c0.8-0.3,1.5-0.5,2.3-0.3c0.8,0,0.5-1.3,1.3-1.8c0.3,0,0.5,0,0.8,0
					c1.5-2,4.6-2.5,5.2-4.6C154.4,73.3,152.8,73.3,151.8,73.1z"/>
			</g>
		</g>
		<line fill="none" stroke="#000000" x1="-81.1" y1="226" x2="283.1" y2="226"/>
	</g>
</g>
<g id="Calque_2">
</g>
</svg>
