<?xml version="1.0" encoding="utf-8"?>
<!-- Generator: Adobe Illustrator 19.1.0, SVG Export Plug-In . SVG Version: 6.00 Build 0)  -->
<!DOCTYPE svg PUBLIC "-//W3C//DTD SVG 1.1//EN" "http://www.w3.org/Graphics/SVG/1.1/DTD/svg11.dtd">
<svg version="1.1" id="Layer_1" xmlns="http://www.w3.org/2000/svg" xmlns:xlink="http://www.w3.org/1999/xlink" x="0px" y="0px"
	 viewBox="0 0 200 100" enable-background="new 0 0 200 100" xml:space="preserve">
<path fill="#231F20" d="M70.4,41.8v-9.6h1.3v4.8l4.8-4.8h1.7l-4,3.9l4.2,5.7h-1.7l-3.4-4.9l-1.6,1.5v3.3H70.4z M83.9,40.9
	c-0.4,0.4-0.9,0.6-1.3,0.8c-0.4,0.2-0.8,0.2-1.3,0.2c-0.8,0-1.4-0.2-1.8-0.6C79.2,41,79,40.5,79,39.9c0-0.3,0.1-0.7,0.2-0.9
	c0.2-0.3,0.4-0.5,0.6-0.7c0.3-0.2,0.5-0.3,0.9-0.4c0.2-0.1,0.6-0.1,1.1-0.2c1-0.1,1.7-0.2,2.1-0.4c0-0.2,0-0.3,0-0.3
	c0-0.5-0.1-0.8-0.3-1c-0.3-0.3-0.8-0.4-1.3-0.4c-0.6,0-1,0.1-1.2,0.3c-0.3,0.2-0.5,0.5-0.6,1l-1.2-0.2c0.1-0.5,0.3-0.9,0.5-1.2
	c0.2-0.3,0.6-0.5,1-0.7c0.5-0.2,1-0.2,1.6-0.2c0.6,0,1.1,0.1,1.5,0.2c0.4,0.1,0.6,0.3,0.8,0.5c0.2,0.2,0.3,0.5,0.4,0.8
	c0,0.2,0.1,0.6,0.1,1.1v1.6c0,1.1,0,1.8,0.1,2.1c0.1,0.3,0.2,0.6,0.3,0.8h-1.2C84,41.5,83.9,41.2,83.9,40.9z M83.8,38.3
	c-0.4,0.2-1.1,0.3-1.9,0.4c-0.5,0.1-0.8,0.1-1,0.2c-0.2,0.1-0.4,0.2-0.5,0.4c-0.1,0.2-0.2,0.4-0.2,0.6c0,0.3,0.1,0.6,0.4,0.8
	c0.2,0.2,0.6,0.3,1,0.3c0.5,0,0.9-0.1,1.2-0.3c0.4-0.2,0.6-0.5,0.8-0.8c0.1-0.3,0.2-0.7,0.2-1.2V38.3z M86.9,41.8v-7H88v1
	c0.5-0.8,1.3-1.1,2.2-1.1c0.4,0,0.8,0.1,1.2,0.2c0.4,0.2,0.6,0.3,0.8,0.6c0.2,0.2,0.3,0.5,0.4,0.9c0,0.2,0.1,0.6,0.1,1.1v4.3h-1.2
	v-4.2c0-0.5,0-0.8-0.1-1.1c-0.1-0.2-0.3-0.4-0.5-0.6c-0.2-0.1-0.5-0.2-0.8-0.2c-0.5,0-0.9,0.2-1.3,0.5c-0.4,0.3-0.5,0.9-0.5,1.8v3.8
	H86.9z M97,40.7l0.2,1c-0.3,0.1-0.6,0.1-0.9,0.1c-0.4,0-0.8-0.1-1-0.2c-0.2-0.1-0.4-0.3-0.5-0.5c-0.1-0.2-0.1-0.7-0.1-1.4v-4h-0.9
	v-0.9h0.9v-1.7l1.2-0.7v2.4H97v0.9h-1.2v4.1c0,0.3,0,0.6,0.1,0.7c0,0.1,0.1,0.2,0.2,0.2c0.1,0.1,0.2,0.1,0.4,0.1
	C96.6,40.7,96.8,40.7,97,40.7z M97.8,38.3c0-1.3,0.4-2.2,1.1-2.9c0.6-0.5,1.3-0.8,2.2-0.8c1,0,1.7,0.3,2.4,0.9
	c0.6,0.6,0.9,1.5,0.9,2.6c0,0.9-0.1,1.6-0.4,2.1c-0.3,0.5-0.7,0.9-1.2,1.2c-0.5,0.3-1.1,0.4-1.7,0.4c-1,0-1.8-0.3-2.4-0.9
	C98.1,40.4,97.8,39.4,97.8,38.3z M99,38.3c0,0.9,0.2,1.6,0.6,2c0.4,0.4,0.9,0.7,1.5,0.7c0.6,0,1.1-0.2,1.5-0.7
	c0.4-0.4,0.6-1.1,0.6-2c0-0.9-0.2-1.5-0.6-2c-0.4-0.4-0.9-0.7-1.5-0.7c-0.6,0-1.1,0.2-1.5,0.7C99.2,36.7,99,37.4,99,38.3z
	 M105.8,41.8v-7h1.1v1c0.5-0.8,1.3-1.1,2.2-1.1c0.4,0,0.8,0.1,1.2,0.2c0.4,0.2,0.6,0.3,0.8,0.6c0.2,0.2,0.3,0.5,0.4,0.9
	c0,0.2,0.1,0.6,0.1,1.1v4.3h-1.2v-4.2c0-0.5,0-0.8-0.1-1.1c-0.1-0.2-0.3-0.4-0.5-0.6c-0.2-0.1-0.5-0.2-0.8-0.2
	c-0.5,0-0.9,0.2-1.3,0.5c-0.4,0.3-0.5,0.9-0.5,1.8v3.8H105.8z M117.2,41.8v-9.6h3.6c0.7,0,1.3,0.1,1.8,0.3c0.4,0.2,0.8,0.5,1,0.9
	c0.3,0.4,0.4,0.8,0.4,1.3c0,0.4-0.1,0.8-0.3,1.2c-0.2,0.4-0.6,0.7-1,0.9c0.6,0.2,1,0.5,1.3,0.9c0.3,0.4,0.5,0.9,0.5,1.5
	c0,0.5-0.1,0.9-0.3,1.3c-0.2,0.4-0.4,0.7-0.7,0.9c-0.3,0.2-0.6,0.4-1.1,0.5c-0.4,0.1-0.9,0.2-1.6,0.2H117.2z M118.5,36.2h2.1
	c0.6,0,1,0,1.2-0.1c0.3-0.1,0.6-0.3,0.7-0.5c0.2-0.2,0.2-0.5,0.2-0.8c0-0.3-0.1-0.6-0.2-0.8c-0.2-0.2-0.4-0.4-0.7-0.5
	c-0.3-0.1-0.8-0.1-1.5-0.1h-1.9V36.2z M118.5,40.6h2.4c0.4,0,0.7,0,0.9,0c0.3-0.1,0.5-0.1,0.7-0.3c0.2-0.1,0.4-0.3,0.5-0.5
	c0.1-0.2,0.2-0.5,0.2-0.8c0-0.4-0.1-0.7-0.3-0.9c-0.2-0.3-0.4-0.5-0.8-0.6c-0.3-0.1-0.8-0.2-1.4-0.2h-2.2V40.6z M130.7,40.9
	c-0.4,0.4-0.9,0.6-1.3,0.8c-0.4,0.2-0.8,0.2-1.3,0.2c-0.8,0-1.4-0.2-1.8-0.6c-0.4-0.4-0.6-0.9-0.6-1.4c0-0.3,0.1-0.7,0.2-0.9
	c0.2-0.3,0.4-0.5,0.6-0.7c0.3-0.2,0.5-0.3,0.9-0.4c0.2-0.1,0.6-0.1,1.1-0.2c1-0.1,1.7-0.2,2.1-0.4c0-0.2,0-0.3,0-0.3
	c0-0.5-0.1-0.8-0.3-1c-0.3-0.3-0.8-0.4-1.3-0.4c-0.6,0-1,0.1-1.2,0.3c-0.3,0.2-0.5,0.5-0.6,1l-1.2-0.2c0.1-0.5,0.3-0.9,0.5-1.2
	c0.2-0.3,0.6-0.5,1-0.7c0.5-0.2,1-0.2,1.6-0.2c0.6,0,1.1,0.1,1.5,0.2c0.4,0.1,0.6,0.3,0.8,0.5c0.2,0.2,0.3,0.5,0.4,0.8
	c0,0.2,0.1,0.6,0.1,1.1v1.6c0,1.1,0,1.8,0.1,2.1c0.1,0.3,0.2,0.6,0.3,0.8h-1.2C130.8,41.5,130.7,41.2,130.7,40.9z M130.6,38.3
	c-0.4,0.2-1.1,0.3-1.9,0.4c-0.5,0.1-0.8,0.1-1,0.2c-0.2,0.1-0.4,0.2-0.5,0.4c-0.1,0.2-0.2,0.4-0.2,0.6c0,0.3,0.1,0.6,0.4,0.8
	c0.2,0.2,0.6,0.3,1,0.3c0.5,0,0.9-0.1,1.2-0.3c0.4-0.2,0.6-0.5,0.8-0.8c0.1-0.3,0.2-0.7,0.2-1.2V38.3z M133.2,39.7l1.2-0.2
	c0.1,0.5,0.2,0.8,0.5,1.1c0.3,0.2,0.7,0.4,1.3,0.4c0.5,0,0.9-0.1,1.2-0.3c0.3-0.2,0.4-0.5,0.4-0.8c0-0.3-0.1-0.5-0.3-0.6
	c-0.2-0.1-0.6-0.2-1.2-0.4c-0.9-0.2-1.5-0.4-1.8-0.6c-0.3-0.2-0.6-0.4-0.8-0.7c-0.2-0.3-0.3-0.6-0.3-0.9c0-0.3,0.1-0.6,0.2-0.9
	c0.1-0.3,0.3-0.5,0.6-0.7c0.2-0.1,0.4-0.3,0.8-0.3c0.3-0.1,0.7-0.1,1-0.1c0.5,0,1,0.1,1.4,0.2c0.4,0.2,0.7,0.4,0.9,0.6
	c0.2,0.3,0.3,0.6,0.4,1.1l-1.2,0.2c-0.1-0.4-0.2-0.6-0.5-0.8c-0.3-0.2-0.6-0.3-1.1-0.3c-0.5,0-0.9,0.1-1.2,0.3
	c-0.2,0.2-0.3,0.4-0.3,0.6c0,0.2,0,0.3,0.1,0.4c0.1,0.1,0.2,0.2,0.5,0.3c0.1,0,0.5,0.1,1,0.3c0.8,0.2,1.4,0.4,1.8,0.5
	c0.3,0.1,0.6,0.3,0.8,0.6c0.2,0.3,0.3,0.6,0.3,1c0,0.4-0.1,0.8-0.3,1.1c-0.2,0.3-0.6,0.6-1,0.8c-0.4,0.2-0.9,0.3-1.5,0.3
	c-0.9,0-1.6-0.2-2.1-0.6S133.3,40.4,133.2,39.7z M145.2,39.5l1.2,0.2c-0.2,0.7-0.5,1.3-1.1,1.7c-0.5,0.4-1.2,0.6-2,0.6
	c-1,0-1.8-0.3-2.4-0.9c-0.6-0.6-0.9-1.5-0.9-2.6c0-1.2,0.3-2.1,0.9-2.7c0.6-0.6,1.4-1,2.4-1c0.9,0,1.7,0.3,2.3,1
	c0.6,0.6,0.9,1.5,0.9,2.7c0,0.1,0,0.2,0,0.3h-5.2c0,0.8,0.3,1.4,0.7,1.8c0.4,0.4,0.9,0.6,1.5,0.6c0.4,0,0.8-0.1,1.1-0.3
	C144.8,40.4,145,40,145.2,39.5z M141.3,37.6h3.9c-0.1-0.6-0.2-1-0.4-1.3c-0.4-0.5-0.9-0.7-1.5-0.7c-0.5,0-1,0.2-1.4,0.5
	C141.6,36.5,141.4,37,141.3,37.6z M148,41.8v-9.6h1.2v9.6H148z M150.6,38.9v-1.2h3.6v1.2H150.6z M155.3,38.7l1.2-0.1
	c0.1,0.5,0.2,0.9,0.4,1.2c0.2,0.3,0.5,0.6,1,0.7c0.4,0.2,0.9,0.3,1.5,0.3c0.5,0,0.9-0.1,1.3-0.2c0.4-0.1,0.6-0.3,0.8-0.6
	c0.2-0.3,0.3-0.5,0.3-0.8c0-0.3-0.1-0.6-0.3-0.8c-0.2-0.2-0.5-0.4-0.9-0.6c-0.3-0.1-0.8-0.3-1.7-0.5c-0.9-0.2-1.5-0.4-1.9-0.6
	c-0.5-0.2-0.8-0.5-1-0.9c-0.2-0.4-0.3-0.8-0.3-1.2c0-0.5,0.1-0.9,0.4-1.4c0.3-0.4,0.7-0.7,1.2-1c0.5-0.2,1.1-0.3,1.8-0.3
	c0.7,0,1.3,0.1,1.9,0.3c0.5,0.2,1,0.6,1.3,1c0.3,0.4,0.5,1,0.5,1.5l-1.2,0.1c-0.1-0.6-0.3-1.1-0.7-1.4c-0.4-0.3-0.9-0.5-1.7-0.5
	c-0.8,0-1.3,0.1-1.7,0.4c-0.4,0.3-0.5,0.6-0.5,1c0,0.3,0.1,0.6,0.4,0.9c0.2,0.2,0.9,0.5,1.9,0.7c1,0.2,1.7,0.4,2.1,0.6
	c0.6,0.3,1,0.6,1.2,1c0.3,0.4,0.4,0.9,0.4,1.4c0,0.5-0.1,1-0.4,1.4c-0.3,0.5-0.7,0.8-1.3,1.1c-0.5,0.3-1.2,0.4-1.9,0.4
	c-0.9,0-1.6-0.1-2.2-0.4s-1.1-0.6-1.4-1.1C155.5,39.9,155.3,39.3,155.3,38.7z M167.2,40.7l0.2,1c-0.3,0.1-0.6,0.1-0.9,0.1
	c-0.4,0-0.8-0.1-1-0.2c-0.2-0.1-0.4-0.3-0.5-0.5c-0.1-0.2-0.1-0.7-0.1-1.4v-4h-0.9v-0.9h0.9v-1.7l1.2-0.7v2.4h1.2v0.9H166v4.1
	c0,0.3,0,0.6,0.1,0.7c0,0.1,0.1,0.2,0.2,0.2c0.1,0.1,0.2,0.1,0.4,0.1C166.8,40.7,167,40.7,167.2,40.7z M173,40.9
	c-0.4,0.4-0.9,0.6-1.3,0.8c-0.4,0.2-0.8,0.2-1.3,0.2c-0.8,0-1.4-0.2-1.8-0.6c-0.4-0.4-0.6-0.9-0.6-1.4c0-0.3,0.1-0.7,0.2-0.9
	c0.2-0.3,0.4-0.5,0.6-0.7c0.3-0.2,0.5-0.3,0.9-0.4c0.2-0.1,0.6-0.1,1.1-0.2c1-0.1,1.7-0.2,2.1-0.4c0-0.2,0-0.3,0-0.3
	c0-0.5-0.1-0.8-0.3-1c-0.3-0.3-0.8-0.4-1.3-0.4c-0.6,0-1,0.1-1.2,0.3c-0.3,0.2-0.5,0.5-0.6,1l-1.2-0.2c0.1-0.5,0.3-0.9,0.5-1.2
	c0.2-0.3,0.6-0.5,1-0.7c0.5-0.2,1-0.2,1.6-0.2c0.6,0,1.1,0.1,1.5,0.2c0.4,0.1,0.6,0.3,0.8,0.5c0.2,0.2,0.3,0.5,0.4,0.8
	c0,0.2,0.1,0.6,0.1,1.1v1.6c0,1.1,0,1.8,0.1,2.1c0.1,0.3,0.2,0.6,0.3,0.8h-1.2C173.1,41.5,173,41.2,173,40.9z M172.9,38.3
	c-0.4,0.2-1.1,0.3-1.9,0.4c-0.5,0.1-0.8,0.1-1,0.2c-0.2,0.1-0.4,0.2-0.5,0.4c-0.1,0.2-0.2,0.4-0.2,0.6c0,0.3,0.1,0.6,0.4,0.8
	c0.2,0.2,0.6,0.3,1,0.3c0.5,0,0.9-0.1,1.2-0.3c0.4-0.2,0.6-0.5,0.8-0.8c0.1-0.3,0.2-0.7,0.2-1.2V38.3z M180.5,41.8v-0.9
	c-0.4,0.7-1.1,1-2,1c-0.6,0-1.1-0.2-1.5-0.5c-0.5-0.3-0.8-0.7-1.1-1.3c-0.3-0.5-0.4-1.2-0.4-1.9c0-0.7,0.1-1.3,0.3-1.9
	c0.2-0.6,0.6-1,1-1.3s1-0.5,1.6-0.5c0.4,0,0.8,0.1,1.1,0.3c0.3,0.2,0.6,0.4,0.8,0.7v-3.5h1.2v9.6H180.5z M176.7,38.3
	c0,0.9,0.2,1.6,0.6,2c0.4,0.4,0.8,0.7,1.3,0.7c0.5,0,1-0.2,1.3-0.6c0.4-0.4,0.5-1.1,0.5-1.9c0-1-0.2-1.7-0.6-2.1
	c-0.4-0.4-0.8-0.7-1.4-0.7c-0.5,0-1,0.2-1.3,0.6C176.9,36.7,176.7,37.4,176.7,38.3z M186.1,40.7l0.2,1c-0.3,0.1-0.6,0.1-0.9,0.1
	c-0.4,0-0.8-0.1-1-0.2c-0.2-0.1-0.4-0.3-0.5-0.5c-0.1-0.2-0.1-0.7-0.1-1.4v-4h-0.9v-0.9h0.9v-1.7l1.2-0.7v2.4h1.2v0.9h-1.2v4.1
	c0,0.3,0,0.6,0.1,0.7c0,0.1,0.1,0.2,0.2,0.2c0.1,0.1,0.2,0.1,0.4,0.1C185.7,40.7,185.8,40.7,186.1,40.7z M23.5,32.3 M23.5,32.4
	 M70.4,74.6V61.4h2.7v5.9l5.4-5.9h3.6l-5,5.2l5.3,8.1h-3.5l-3.6-6.2l-2.2,2.2v4H70.4z M90.2,74.6v-1.4c-0.3,0.5-0.8,0.9-1.4,1.2
	c-0.6,0.3-1.2,0.4-1.8,0.4c-0.6,0-1.2-0.1-1.7-0.4c-0.5-0.3-0.9-0.7-1.1-1.2c-0.2-0.5-0.3-1.2-0.3-2.1V65h2.5v4.4
	c0,1.3,0,2.2,0.1,2.5c0.1,0.3,0.3,0.5,0.5,0.7s0.6,0.3,0.9,0.3c0.4,0,0.8-0.1,1.2-0.4c0.3-0.2,0.6-0.5,0.7-0.9
	c0.1-0.4,0.2-1.2,0.2-2.6v-4h2.5v9.6H90.2z M95.3,74.6V61.4h2.5v13.2H95.3z M105,65v2h-1.7v3.9c0,0.8,0,1.2,0,1.4
	c0,0.1,0.1,0.2,0.2,0.3c0.1,0.1,0.3,0.1,0.4,0.1c0.2,0,0.6-0.1,1-0.2l0.2,2c-0.6,0.3-1.3,0.4-2,0.4c-0.5,0-0.9-0.1-1.2-0.2
	c-0.4-0.2-0.6-0.4-0.8-0.6c-0.2-0.2-0.3-0.6-0.4-1c-0.1-0.3-0.1-0.9-0.1-1.8V67h-1.2v-2h1.2v-1.9l2.5-1.5V65H105z M113.3,74.6v-1.4
	c-0.3,0.5-0.8,0.9-1.4,1.2c-0.6,0.3-1.2,0.4-1.8,0.4c-0.6,0-1.2-0.1-1.7-0.4c-0.5-0.3-0.9-0.7-1.1-1.2c-0.2-0.5-0.3-1.2-0.3-2.1V65
	h2.5v4.4c0,1.3,0,2.2,0.1,2.5c0.1,0.3,0.3,0.5,0.5,0.7s0.6,0.3,0.9,0.3c0.4,0,0.8-0.1,1.2-0.4c0.3-0.2,0.6-0.5,0.7-0.9
	c0.1-0.4,0.2-1.2,0.2-2.6v-4h2.5v9.6H113.3z M120.9,74.6h-2.5V65h2.4v1.4c0.4-0.6,0.8-1.1,1.1-1.3c0.3-0.2,0.7-0.3,1.1-0.3
	c0.6,0,1.1,0.2,1.7,0.5l-0.8,2.2c-0.4-0.3-0.8-0.4-1.2-0.4c-0.4,0-0.7,0.1-0.9,0.3c-0.2,0.2-0.4,0.5-0.6,1.1
	c-0.1,0.5-0.2,1.6-0.2,3.2V74.6z M24.9,54.8c-1.2,0-1.1,1.6,0,1.6h16.3c1.1,0,1.1-1.6,0-1.6H24.9z M25.6,49.2c-1.2,0-1.1,1.6,0,1.6
	h14.6c1.1,0,1.1-1.6,0-1.6H25.6z M23.8,51.5c-1.8,0-1.9,2.6,0,2.6h18.1c1.8,0,1.8-2.6,0-2.6H23.8z M21.3,79.7l6.9-5.1l4.5,5.2
	l4.5-5.2l6.9,5.2l-4.1-22.6H25.5L21.3,79.7z M23.3,40.7c-0.5-0.1-0.9-0.2-0.9-0.2c-2.2,0-2,2-2,2c0.1-0.2,0.5-0.3,0.5-0.3
	c0.8,0,0.8,0.6,0.8,0.6c0,0.8-1,0.8-1,0.8c-1.6,0-1.5-2-1.5-2s0.2-3,3.7-2.8c0,0,4.5-0.3,4.8,5.6c0,0-0.1,2.6-0.6,3.8h11.6
	c0.1-5.2-2.6-9.9-2.6-9.9c-4.1-6.9-11.6-6.5-11.6-6.5c-11.2,0.4-10.8,8.7-10.8,8.7c-0.2,7,6.7,6.8,6.7,6.8c4.7-0.1,4.7-4,4.7-4
	C25.2,41.1,23.3,40.7,23.3,40.7 M56.1,91.7h2.4V8.3h-2.4V91.7z M23.5,32.4"/>
</svg>
