<?xml version="1.0" encoding="utf-8"?>
<!-- Generator: Adobe Illustrator 19.0.1, SVG Export Plug-In . SVG Version: 6.00 Build 0)  -->
<!DOCTYPE svg PUBLIC "-//W3C//DTD SVG 1.1//EN" "http://www.w3.org/Graphics/SVG/1.1/DTD/svg11.dtd">
<svg version="1.1" id="Layer_1" xmlns="http://www.w3.org/2000/svg" xmlns:xlink="http://www.w3.org/1999/xlink" x="0px" y="0px"
	 viewBox="-27 120 257 161" enable-background="new -27 120 257 161" xml:space="preserve">
<g>
	<g>
		<g>
			<path fill="#3C3C3B" d="M-10.1,255.1c-1.5,0-2.7,0.6-3.6,1.9c-0.9,1.2-1.3,3-1.3,5.2c0,4.6,1.8,6.9,5.3,6.9c1,0,2.1-0.1,3.1-0.4
				s2-0.6,3-1.1v5.5c-2,0.9-4.2,1.3-6.8,1.3c-3.6,0-6.4-1-8.3-3.1c-1.9-2.1-2.9-5.1-2.9-9.1c0-2.5,0.5-4.7,1.4-6.5
				c1-1.8,2.3-3.4,4-4.3c1.8-1,3.8-1.5,6.2-1.5c2.6,0,5.1,0.5,7.4,1.7l-2,5.1c-0.9-0.4-1.8-0.8-2.7-1C-8.2,255.3-9,255.1-10.1,255.1
				z"/>
			<path fill="#3C3C3B" d="M15.6,274.1l-1.2-4.5H6.8l-1.2,4.5h-7.1l7.8-24h8.6l7.9,24H15.6z M13.2,264.3l-1-3.9
				c-0.3-0.9-0.5-2-0.9-3.4c-0.3-1.4-0.5-2.4-0.7-3c-0.1,0.5-0.3,1.5-0.5,2.7c-0.3,1.3-1,3.8-1.9,7.5L13.2,264.3L13.2,264.3z"/>
			<path fill="#3C3C3B" d="M31.8,265.3v8.7h-6.4v-23.9h7.9c6.5,0,9.8,2.3,9.8,7c0,2.8-1.4,4.9-4,6.4l7,10.4h-7.3l-5.1-8.7
				L31.8,265.3L31.8,265.3z M31.8,260.5H33c2.3,0,3.4-1,3.4-3c0-1.6-1.1-2.5-3.4-2.5h-1.3V260.5z"/>
			<path fill="#3C3C3B" d="M57.6,260.1H68v12.9c-2.8,1-5.9,1.4-9.2,1.4c-3.7,0-6.6-1.1-8.5-3.2c-2-2.1-3-5.2-3-9.2
				c0-3.8,1.1-6.8,3.3-9c2.2-2.1,5.3-3.2,9.2-3.2c1.5,0,2.9,0.1,4.2,0.4c1.4,0.3,2.5,0.6,3.5,1.1l-2.1,5.1c-1.7-0.8-3.6-1.3-5.7-1.3
				c-1.9,0-3.4,0.6-4.4,1.8c-1,1.2-1.6,3-1.6,5.3c0,2.3,0.5,4,1.4,5.1c1,1.2,2.3,1.8,4,1.8c1,0,1.8-0.1,2.7-0.3V265h-4.2L57.6,260.1
				L57.6,260.1z"/>
			<path fill="#3C3C3B" d="M95.2,262c0,4-1,7.1-2.9,9.2c-2,2.1-4.9,3.1-8.7,3.1c-3.8,0-6.6-1-8.6-3.1c-2-2.1-3-5.2-3-9.2
				c0-4,1-7,3-9.1c2-2.1,4.9-3.1,8.7-3.1c3.8,0,6.7,1,8.7,3.1C94.2,255,95.2,258,95.2,262z M78.7,262c0,4.7,1.6,6.9,4.9,6.9
				c1.6,0,2.9-0.5,3.6-1.7c0.8-1.1,1.2-2.9,1.2-5.3s-0.4-4.2-1.2-5.3c-0.8-1.2-2-1.7-3.6-1.7C80.3,255.1,78.7,257.4,78.7,262z"/>
		</g>
		<g>
			<path fill="#3C3C3B" d="M131.9,273.9v-15.5c0-1.9-0.4-3.3-1.2-4.2c-0.8-1-2.1-1.4-3.8-1.4c-2.3,0-3.9,0.6-5,1.9
				c-1.1,1.3-1.6,3.3-1.6,6v13.3h-3.6v-15.5c0-1.9-0.4-3.3-1.2-4.2c-0.8-1-2.1-1.4-3.8-1.4c-2.3,0-3.9,0.7-4.9,2.1
				c-1,1.4-1.6,3.6-1.6,6.6v12.4h-3.6v-23.8h2.9l0.6,3.3h0.2c0.7-1.2,1.6-2.1,2.9-2.7s2.6-1,4.2-1c3.7,0,6.2,1.4,7.3,4h0.2
				c0.7-1.2,1.7-2.3,3.1-2.9c1.4-0.8,2.9-1.1,4.6-1.1c2.7,0,4.7,0.7,6,2.1c1.4,1.4,2,3.6,2,6.6v15.5L131.9,273.9L131.9,273.9z"/>
			<path fill="#3C3C3B" d="M153,274.4c-3.5,0-6.3-1.1-8.3-3.2c-2.1-2.1-3.1-5.1-3.1-8.9c0-3.8,1-6.9,2.8-9.2
				c1.9-2.3,4.4-3.4,7.6-3.4c3,0,5.3,1,7,2.9c1.7,2,2.6,4.5,2.6,7.7v2.3h-16.4c0.1,2.8,0.8,4.9,2.1,6.4c1.4,1.4,3.2,2.2,5.7,2.2
				c2.5,0,5.1-0.5,7.6-1.6v3.2c-1.3,0.5-2.5,1-3.6,1.2C155.9,274.3,154.6,274.4,153,274.4z M152,252.7c-1.9,0-3.4,0.6-4.6,1.8
				s-1.8,2.9-2,5.2h12.4c0-2.3-0.5-4-1.5-5.2C155.3,253.4,153.9,252.7,152,252.7z"/>
			<path fill="#3C3C3B" d="M184,270.7h-0.2c-1.6,2.4-4.2,3.6-7.5,3.6c-3.1,0-5.5-1.1-7.2-3.2s-2.6-5.1-2.6-9.1c0-3.9,0.9-7,2.6-9.2
				c1.7-2.2,4.2-3.3,7.2-3.3c3.2,0,5.7,1.2,7.4,3.5h0.3l-0.1-1.7l-0.1-1.6V240h3.6v33.8h-2.9L184,270.7z M176.8,271.3
				c2.5,0,4.2-0.7,5.3-2c1.1-1.4,1.6-3.5,1.6-6.5v-0.8c0-3.4-0.5-5.7-1.7-7.2c-1.1-1.4-2.9-2.2-5.4-2.2c-2.1,0-3.8,0.8-4.9,2.5
				s-1.7,4-1.7,7s0.5,5.3,1.6,6.9C173.1,270.6,174.7,271.3,176.8,271.3z"/>
			<path fill="#3C3C3B" d="M194.8,243.7c0-0.8,0.2-1.4,0.6-1.8c0.4-0.4,0.9-0.5,1.5-0.5c0.5,0,1.1,0.2,1.5,0.6s0.6,1,0.6,1.8
				c0,0.8-0.2,1.4-0.6,1.8c-0.4,0.4-0.9,0.6-1.5,0.6c-0.6,0-1.1-0.2-1.5-0.6C195,245.2,194.8,244.5,194.8,243.7z M198.7,273.9H195
				v-23.8h3.6V273.9z"/>
			<path fill="#3C3C3B" d="M221,273.9l-0.7-3.4h-0.2c-1.2,1.5-2.4,2.5-3.6,3c-1.2,0.5-2.7,0.8-4.4,0.8c-2.3,0-4.2-0.6-5.5-1.8
				c-1.4-1.2-2-2.9-2-5.2c0-4.8,3.8-7.3,11.5-7.5l4-0.1v-1.5c0-1.8-0.4-3.2-1.2-4.1c-0.8-0.9-2.1-1.4-3.8-1.4c-2,0-4.2,0.6-6.7,1.8
				l-1.1-2.7c1.2-0.6,2.5-1.2,3.8-1.5c1.4-0.3,2.8-0.5,4.2-0.5c2.8,0,4.9,0.6,6.3,1.9c1.4,1.2,2.1,3.3,2.1,6.1V274L221,273.9
				L221,273.9z M212.8,271.4c2.3,0,4-0.6,5.3-1.8c1.3-1.2,1.9-2.9,1.9-5.2v-2.1l-3.6,0.1c-2.9,0.1-4.9,0.5-6.2,1.4s-1.9,2-1.9,3.7
				c0,1.3,0.4,2.3,1.2,2.9C210.3,271.1,211.4,271.4,212.8,271.4z"/>
		</g>
	</g>
	<g>
		<g>
			<g>
				<path fill="#3FB4FF" d="M83.1,150c0,6.7-5.4,12-12,12c-6.7,0-12-5.4-12-12c0-6.7,5.4-12,12-12C77.6,138,83.1,143.4,83.1,150z"/>
			</g>
			<g>
				<path fill="#3FB4FF" d="M112,150c0,6.7-5.4,12-12,12c-6.7,0-12-5.4-12-12c0-6.7,5.4-12,12-12C106.6,138,112,143.4,112,150z"/>
			</g>
			<g>
				<path fill="#3FB4FF" d="M141,150c0,6.7-5.4,12-12,12c-6.7,0-12-5.4-12-12c0-6.7,5.4-12,12-12C135.6,138,141,143.4,141,150z"/>
			</g>
		</g>
		<g>
			<g>
				<path fill="#3FB4FF" d="M83.1,179c0,6.7-5.4,12-12,12c-6.7,0-12-5.4-12-12s5.4-12,12-12C77.6,166.9,83.1,172.4,83.1,179z"/>
			</g>
			<g>
				<path fill="#3FB4FF" d="M112,179c0,6.7-5.4,12-12,12c-6.7,0-12-5.4-12-12s5.4-12,12-12C106.6,166.9,112,172.4,112,179z"/>
			</g>
			<g>
				<path fill="#3FB4FF" d="M141,179c0,6.7-5.4,12-12,12c-6.7,0-12-5.4-12-12s5.4-12,12-12C135.6,166.9,141,172.4,141,179z"/>
			</g>
		</g>
		<g>
			<g>
				<path fill="#3FB4FF" d="M83.1,207.9c0,6.7-5.4,12-12,12c-6.7,0-12-5.4-12-12c0-6.7,5.4-12,12-12
					C77.6,195.9,83.1,201.3,83.1,207.9z"/>
			</g>
			<g>
				<path fill="#3FB4FF" d="M112,207.9c0,6.7-5.4,12-12,12c-6.7,0-12-5.4-12-12c0-6.7,5.4-12,12-12C106.6,195.9,112,201.3,112,207.9
					z"/>
			</g>
			<g>
				<path fill="#3FB4FF" d="M141,207.9c0,6.7-5.4,12-12,12c-6.7,0-12-5.4-12-12c0-6.7,5.4-12,12-12C135.6,195.9,141,201.3,141,207.9
					z"/>
			</g>
		</g>
	</g>
</g>
</svg>
