<?xml version="1.0" encoding="utf-8"?>
<!-- Generator: Adobe Illustrator 19.0.1, SVG Export Plug-In . SVG Version: 6.00 Build 0)  -->
<!DOCTYPE svg PUBLIC "-//W3C//DTD SVG 1.1//EN" "http://www.w3.org/Graphics/SVG/1.1/DTD/svg11.dtd">
<svg version="1.1" id="Ebene_1" xmlns="http://www.w3.org/2000/svg" xmlns:xlink="http://www.w3.org/1999/xlink" x="0px" y="0px"
	 viewBox="-402 1415.8 200 170" enable-background="new -402 1415.8 200 170" xml:space="preserve" width="200" height="170">
<rect x="1348.7" y="1130.5" fill="#FFFFFF" width="3071.4" height="3107.4"/>
<rect x="1338.5" y="-2269.4" fill="#FFFFFF" width="3071.4" height="3107.4"/>
<rect x="-5278.2" y="-2225.1" fill="#FFFFFF" width="3071.4" height="3107.4"/>
<g>
	<path fill="#AAAD00" d="M271.1,1475.2l-33.9-19.6l-5.5,25.9l39-4.1C270.8,1476.7,271,1476,271.1,1475.2z"/>
	<path fill="#D4D700" d="M271.1,1475.2c0.4-2.5,0.1-5.1-0.9-7.3l-10-22.5l-10-22.5c-2.2-5-8.6-8.7-14.1-8.1l-24.5,2.6l-24.5,2.6
		c-2.4,0.3-4.8,1.3-6.8,2.9L271.1,1475.2z"/>
	<path fill="#A7A8AA" d="M230.2,1516.7l18.3-16.5l18.3-16.5c1.8-1.6,3.1-3.9,3.8-6.3l-104.3,11c1.2,2.3,2.9,4.2,5,5.4l42.7,24.7
		C218.8,1521.2,226.1,1520.4,230.2,1516.7z"/>
	<path fill="#D9DADB" d="M205,1484.3l-26.9-59.5c-1.5,1.7-2.7,3.8-3.1,5.9l-5.1,24.1l-5.1,24.1c-0.6,3,0,6.5,1.6,9.4L205,1484.3z"/>
	<path fill="#373739" d="M214.2,1442.3l-33.9-19.6c-0.8,0.6-1.5,1.3-2.1,2c0,0,0,0,0,0l16.1,35.6L214.2,1442.3z"/>
</g>
<path fill="#373739" d="M-332.1,1424.8L-332.1,1424.8L-332.1,1424.8z"/>
<path d="M-5149.2-2106.8V772.4h2834.6v-2879.2H-5149.2z M-3965.1-461.3l445.2-46.8l92-432.8l567,327.4c-1.7,12.6-4.5,25-8,37.3
	l-0.3,0c-11.8,41-33.5,78.7-63.2,105.5l-306.1,275.6l-306.1,275.6c-68.5,61.7-189.9,74.5-269.8,28.4l-713.4-411.8
	c-34.8-20.1-63.8-52.6-83.9-90.3l646.2-67.9l0-0.1l-646.3,67.9c-26.1-48.9-37.2-106.6-26.4-157.5l85.6-402.9l85.6-402.8
	c7.6-35.6,26.4-69.8,52-98.9l0,0.1c0.2-0.2,0.4-0.4,0.6-0.7c10.8-12.2,22.8-23.6,35.7-33.7l567,327.3l-334.5,301.1l180.9,399.9l0,0
	 M-2861.2-613.8l-1517.4-876.1c33.7-26.3,73.5-44.1,113.4-48.3l409.6-43l409.6-43.1c91.7-9.6,197.5,51.4,235,135.7l167.5,376.2
	l167.5,376.3C-2859.7-699.5-2855.3-656.1-2861.2-613.8z"/>
<g opacity="0.9">
	<path fill="#E2001A" d="M-4521.9-301.4c-81-46.8-131.4-159.9-112-251.4l169.9-799.8c19.4-91.5,111.5-174.4,204.5-184.2l813.2-85.6
		c93-9.8,200.3,52.1,238.3,137.6l332.7,746.9c38.1,85.5,12.3,206.6-57.2,269.2l-607.6,547.2c-69.5,62.6-192.7,75.6-273.7,28.8
		L-4521.9-301.4z"/>
</g>
<polygon fill="#D4D700" points="-4428.6,-1518.9 -2806.1,-582.4 -3277.2,-1640.1 "/>
<polygon fill="#AAAD00" points="-3277.2,-1640.1 -3666.5,192.4 -2806.1,-582.4 "/>
<polygon fill="#A7A8AA" points="-4669.2,-386.4 -3666.5,192.4 -2806.1,-582.4 "/>
<polygon fill="#D9DADB" points="-3666.5,192.4 -4669.2,-386.4 -4428.6,-1518.9 "/>
<polygon fill="#373739" points="-4669.2,-386.4 -4428.6,-1518.9 -3277.2,-1640.1 "/>
<rect x="-1885.5" y="-2216.9" fill="#FFFFFF" width="3071.4" height="3107.4"/>
<g opacity="0.9">
	<path fill="#E2001A" d="M-1129.1-293.2c-81-46.8-131.4-159.9-112-251.4l169.9-799.8c19.4-91.5,111.5-174.4,204.5-184.2l813.2-85.6
		c93-9.8,200.3,52.1,238.3,137.6l332.7,746.9c38.1,85.5,12.3,206.6-57.2,269.2L-147.3,86.7c-69.5,62.6-192.7,75.6-273.7,28.8
		L-1129.1-293.2z"/>
</g>
<polygon fill="#D4D700" points="-1035.9,-1510.7 586.6,-574.3 115.6,-1631.9 "/>
<polygon fill="#D4D700" points="-1035.9,-1510.7 586.6,-574.3 115.6,-1631.9 "/>
<polygon fill="#AAAD00" points="115.6,-1631.9 -273.7,200.6 586.6,-574.3 "/>
<polygon fill="#A7A8AA" points="-1276.4,-378.2 -273.7,200.6 586.6,-574.3 "/>
<polygon fill="#D9DADB" points="-273.7,200.6 -1276.4,-378.2 -1035.9,-1510.7 "/>
<polygon fill="#373739" points="-1276.4,-378.2 -1035.9,-1510.7 115.6,-1631.9 "/>
<path fill="#373739" d="M115.6-1631.9l-1151.4,121.2l-240.6,1132.5l1002.7,578.8l860.3-774.8L115.6-1631.9z M-564.8-453.1
	l-179.9-404l328.6-296l383,221.1L-125-499.4L-564.8-453.1z"/>
<g opacity="0.9">
	<path fill="#E2007A" d="M-1129.1-293.2c-81-46.8-131.4-159.9-112-251.4l169.9-799.8c19.4-91.5,111.5-174.4,204.5-184.2l813.2-85.6
		c93-9.8,200.3,52.1,238.3,137.6l332.7,746.9c38.1,85.5,12.3,206.6-57.2,269.2L-147.3,86.7c-69.5,62.6-192.7,75.6-273.7,28.8
		L-1129.1-293.2z"/>
</g>
<polygon fill="#CBBB9D" points="-564.8,-453.1 -125,-499.4 -33.1,-932 -416.1,-1153 -744.7,-857.1 "/>
<path fill="#009EE0" d="M517.4-729.6l-332.7-746.9c-38.1-85.5-145.3-147.4-238.3-137.6l-813.2,85.6c-93,9.8-185,92.7-204.5,184.2
	l-169.9,799.8c-19.4,91.5,30.9,204.6,112,251.4L-421,115.5c81,46.8,204.2,33.8,273.7-28.8l607.6-547.2
	C529.8-523,555.5-644.2,517.4-729.6z M-125-499.4l-439.8,46.3l-179.9-404l328.6-296l383,221.1L-125-499.4z"/>
<path fill="#009EE0" d="M6547.4,6137.3l-332.6-746.9c-38.1-85.5-145.3-147.4-238.3-137.6l-813.2,85.6c-93,9.8-185,92.7-204.5,184.2
	l-169.9,799.8c-19.4,91.5,30.9,204.6,112,251.4l708.1,408.7c81,46.8,204.2,33.8,273.7-28.8l607.6-547.2
	C6559.8,6343.9,6585.5,6222.7,6547.4,6137.3z M5905,6367.5l-439.8,46.3l-179.9-404l328.6-296l383,221.1L5905,6367.5z"/>
<polygon fill="#A7A8AA" points="1952.8,-430.6 2955.6,148.2 3815.9,-626.7 "/>
<g>
	<polygon fill="#D9DADB" points="2484.6,-909.5 2813.2,-1205.4 2193.4,-1563.1 1952.8,-430.6 2955.6,148.2 	"/>
	<polygon fill="#D4D700" points="3815.9,-626.7 3344.9,-1684.3 3344.9,-1684.3 3344.9,-1684.3 2193.4,-1563.1 2193.4,-1563.1
		2484.6,-909.5 2813.2,-1205.4 3196.2,-984.4 3104.3,-551.8 3815.9,-626.7 3815.9,-626.7 	"/>
	<polygon fill="#AAAD00" points="3196.2,-984.4 2955.6,148.2 3815.9,-626.7 	"/>
	<polygon fill="#A7A8AA" points="1952.8,-430.6 2955.6,148.2 3815.9,-626.7 	"/>
	<polygon fill="#373739" points="2813.2,-1205.4 2193.4,-1563.1 2484.6,-909.5 	"/>
</g>
<path fill="#009EE0" d="M3746.7-782l-332.6-746.9c-38.1-85.5-145.3-147.4-238.3-137.6l-813.2,85.6c-93,9.8-185,92.7-204.5,184.2
	L1988.2-597c-19.4,91.5,30.9,204.6,112,251.4l708.1,408.7c81,46.8,204.2,33.8,273.7-28.8l607.6-547.2
	C3759-575.4,3784.8-696.6,3746.7-782z M3104.3-551.8l-439.8,46.3l-179.9-404l328.6-296l383,221.1L3104.3-551.8z"/>
<rect x="1338.5" y="4539.8" fill="#FFFFFF" width="3071.4" height="3107.4"/>
<path fill="#009EE0" d="M3746.7,6027.2l-332.6-746.9c-38.1-85.5-145.3-147.4-238.3-137.6l-813.2,85.6c-93,9.8-185,92.7-204.5,184.2
	l-169.9,799.8c-19.4,91.5,30.9,204.6,112,251.4l708.1,408.7c81,46.8,204.2,33.8,273.7-28.8l607.6-547.2
	C3759,6233.8,3784.8,6112.6,3746.7,6027.2z M3104.3,6257.4l-439.8,46.3l-179.9-404l328.6-296l383,221.1L3104.3,6257.4z"/>
<path fill="#D9DADB" d="M2664.5,6303.7L2664.5,6303.7l-179.9-404l328.6-296l0,0h0l-565.6-326.5c-44.4,34.6-78.5,83.5-89.5,135.1
	l-169.9,799.8c-19.4,91.5,30.9,204.6,112,251.4l200.3,115.6l507.9,293.2c35.3,20.3,78.5,29.4,121.8,27.9L2664.5,6303.7z"/>
<path fill="#D4D700" d="M3414.1,5280.3c-38.1-85.5-145.3-147.4-238.3-137.6l-406.6,42.8l-406.7,42.8
	c-52.5,5.5-104.7,34.4-143.6,74.9l265.7,596.6l328.6-296l0,0l0,0l383,221.1l-91.9,432.6l649.5-68.3c15.6-54,14.4-113.7-7.1-161.9
	L3414.1,5280.3z"/>
<path fill="#A7A8AA" d="M3146.4,6785.6l543.2-489.2c30.3-27.3,52.2-65.6,64.2-107.3l-649.5,68.3l0,0l-121.7,12.8L2015,6372
	c20.4,38.3,49.9,71.2,85.2,91.6l200.3,115.6l507.9,293.2c81,46.7,204.1,33.8,273.6-28.8L3146.4,6785.6z"/>
<path fill="#373739" d="M2484.6,5899.7l328.6-296l0,0h0l-565.6-326.5c-10.2,7.9-19.8,16.6-28.7,25.8L2484.6,5899.7z"/>
<path fill="#AAAD00" d="M3082,6843.5l64.4-58l543.2-489.2c39.2-35.3,64.5-89.3,72.3-145.1l-565.6-326.5l-91.9,432.6l0,0
	l-135.7,638.8C3011.3,6888.6,3051.7,6870.8,3082,6843.5z"/>
<path fill="#A7A8AA" d="M3689.5,6296.4c30.3-27.3,52.2-65.6,64.2-107.3l-649.5,68.3l0,0l-23.5,2.5L2015,6372
	c20.4,38.3,49.9,71.2,85.1,91.6l708.2,408.8c81,46.7,204.1,33.7,273.6-28.9L3689.5,6296.4z"/>
<rect x="2493.4" y="5886.4" transform="matrix(-0.8664 -0.4993 0.4993 -0.8664 2921.4592 13010.5195)" fill="#E2001A" width="1415" height="456.3"/>
<rect x="1938.8" y="6291.7" transform="matrix(-0.9945 0.1043 -0.1043 -0.9945 6565.6328 12937.6221)" fill="#172983" width="2011.5" height="697.5"/>
<rect x="2385.7" y="5091.1" transform="matrix(-0.9133 0.4072 -0.4072 -0.9133 7255.8286 9632.5225)" fill="#39A9DC" width="434.4" height="994.6"/>
<rect x="-1937.7" y="4467.4" fill="#FFFFFF" width="3071.4" height="3107.4"/>
<g>
	<path fill="#D9DADB" d="M2674.7,2894.3L2674.7,2894.3l-179.9-404l328.6-296l0,0h0l-565.6-326.5c-44.4,34.6-78.5,83.5-89.5,135.1
		l-169.9,799.8c-19.4,91.5,30.9,204.6,112,251.4l200.3,115.6l507.9,293.2c35.3,20.3,78.5,29.4,121.8,27.9L2674.7,2894.3z"/>
	<path fill="#D4D700" d="M3424.3,1870.9c-38.1-85.5-145.3-147.4-238.3-137.6l-406.6,42.8l-406.7,42.8
		c-52.5,5.5-104.7,34.4-143.6,74.9l265.7,596.6l328.6-296l0,0l0,0l383,221.1l-91.9,432.6l649.5-68.3c15.6-54,14.4-113.7-7.1-161.9
		L3424.3,1870.9z"/>
	<path fill="#373739" d="M2494.8,2490.3l328.6-296l0,0h0l-565.6-326.5c-10.2,7.9-19.8,16.6-28.7,25.8L2494.8,2490.3z"/>
	<path fill="#AAAD00" d="M3092.2,3434.2l64.4-58l543.2-489.2c39.2-35.3,64.5-89.3,72.3-145.1l-565.6-326.5l-91.9,432.6l0,0
		l-135.7,638.8C3021.5,3479.3,3061.9,3461.4,3092.2,3434.2z"/>
	<path fill="#A7A8AA" d="M3156.6,3376.2l543.2-489.2c30.3-27.3,52.2-65.6,64.2-107.3l-649.5,68.3l0,0l-121.7,12.8l-967.6,101.8
		c20.4,38.3,49.9,71.2,85.2,91.6l200.3,115.6l507.9,293.2c81,46.7,204.1,33.8,273.6-28.8L3156.6,3376.2z"/>
</g>
<g>
	<path fill="#D4D700" d="M-479,5545.7l16-14.4l0,0l0,0l383,221.1l-4.4,20.7l566.3,326.3c10.8-49.2,7.8-101.5-11.4-144.7
		l-332.7-746.9c-38.1-85.5-145.3-147.4-238.3-137.6L-507,5113l-406.7,42.8c-47.4,5-94.6,29-132,63.4L-479,5545.7z"/>
	<path fill="#D9DADB" d="M-605,6246.3l-6.7-15.1h0l-179.9-404l13.8-12.5l-266.2-597.1c-36.8,33.3-64.4,76.7-74.1,122.2l-169.9,799.8
		c-12.1,56.9,2.8,122.1,35.3,174.5L-605,6246.3z"/>
	<path fill="#373739" d="M-791.6,5827.2l328.6-296l0,0h0l-565.6-326.5c-10.2,7.9-19.8,16.6-28.7,25.8L-791.6,5827.2z"/>
	<path fill="#AAAD00" d="M472.1,6133.4c6.4-17.6,10.9-36,13.5-54.6L-80,5752.3l-91.9,432.6l-3.5,16.3L472.1,6133.4z"/>
	<path fill="#A7A8AA" d="M-129.8,6713.1l543.2-489.2c30.3-27.3,52.2-65.6,64.2-107.3l-649.5,68.3l0,0l-121.7,12.8l-967.6,101.8
		c20.4,38.3,49.9,71.2,85.2,91.6l200.3,115.6l507.9,293.2c81,46.7,204.1,33.8,273.6-28.8L-129.8,6713.1z"/>
</g>
<g>
	<g>
		<path fill="#373739" d="M-399.4,1556.7h3l0.4-4.8l4.2-0.3l-0.4,5h5.7l-0.3,3.3h-5.7l-0.6,6.7c-0.1,1.3-0.4,3.7-0.4,5.2
			c0,1.3,0.4,2.3,1.9,2.3c1.3,0,2.9-0.4,4-1.1l-0.3,3.5c-1.2,0.6-2.8,1-4.6,1c-4.3,0-5.2-2.4-5.2-5.2c0-0.5,0.2-2.7,0.4-5.3l0.6-7.1
			h-3L-399.4,1556.7z"/>
		<path fill="#373739" d="M-361.1,1577.4h-6.5c0.2-2.2,0.5-4.9,1.3-9.1h-0.1c-1.2,4.3-3.4,9.4-8.3,9.4c-4.3,0-5.4-3.6-5.4-7.7
			c0-4.1,1.8-13.6,11.4-13.6c1.9,0,3.6,0.4,5.2,0.9h1.7c-0.2,0.8-0.6,3.4-0.7,5l-1,11.9h2.8L-361.1,1577.4z M-373.8,1573.9
			c3.8,0,7.3-10.7,7.3-13.9c-0.6-0.2-1.5-0.4-2.6-0.4c-5.4,0-6.8,7-6.8,10.5C-375.9,1572.3-375.3,1573.9-373.8,1573.9z"/>
		<path fill="#373739" d="M-352.8,1546.8h7.5l-0.9,10.1c-0.2,1.9-0.7,4.5-1,6.3h0.1c0.9-2.7,3.4-7,8.4-7c2.9,0,4.5,2.1,4.5,4.3
			c0,4.5-4.4,6.7-8.1,8c0.4,0.3,1,0.9,1.2,1.2l3.6,4.3h2.8l-0.3,3.3h-5.4l-6.8-8.3c-0.5,2.8-1,6.2-1.2,8.3h-4
			c0.4-2.7,0.7-5.4,0.9-8.2l1.6-19.1h-3.4L-352.8,1546.8z M-340.3,1560.1c-2.3,0-5.6,3-6.5,8c1.5-0.4,8.2-2.6,8.2-6.2
			C-338.6,1560.8-339.3,1560.1-340.3,1560.1z"/>
		<path fill="#373739" d="M-326.2,1556.7h3l0.4-4.8l4.2-0.3l-0.4,5h5.7l-0.3,3.3h-5.7l-0.6,6.7c-0.1,1.3-0.4,3.7-0.4,5.2
			c0,1.3,0.4,2.3,1.9,2.3c1.3,0,2.9-0.4,4-1.1l-0.3,3.5c-1.2,0.6-2.8,1-4.6,1c-4.3,0-5.2-2.4-5.2-5.2c0-0.5,0.2-2.7,0.4-5.3l0.6-7.1
			h-3L-326.2,1556.7z"/>
		<path fill="#373739" d="M-306,1556.7h7.4l-0.4,3.7c-0.3,2.6-0.7,7.8-0.7,9.1c0,2.3,0.4,4.5,2.1,4.5c2.8,0,5.5-5,6.2-15.6l0.1-1.7
			h4.2l-0.6,6.2c-0.2,2-0.3,4.1-0.3,5.4c0,4.3,0.7,5.7,2.3,5.7c3,0,5.5-6.8,5.7-14.1h-2.8l0.3-3.3h6.7c-0.2,10.7-3.3,21.1-10.7,21.1
			c-4.3,0-4.8-4.5-4.8-7.4h-0.1c-0.3,2.1-2.2,7.4-7.2,7.4c-4.5,0-5.4-3.7-5.4-8c0-3.3,0.4-6.6,0.6-9.8h-3L-306,1556.7z"/>
		<path fill="#373739" d="M-253.7,1576.4c-1,0.6-3.7,1.4-6.7,1.4c-5.3,0-8.1-3.3-8.1-8.5c0-5.8,2.9-12.9,10.8-12.9
			c3,0,5.9,1.5,5.9,4.8c0,6.6-9.1,8-12.3,8.3c0,2.9,1.2,4.9,5.1,4.9c1.6,0,4-0.7,5.8-1.7L-253.7,1576.4z M-258.4,1559.6
			c-3.9,0-5.3,4.1-5.6,7c3.9-0.7,8.1-1.8,8.1-5C-256,1560.6-256.7,1559.6-258.4,1559.6z"/>
		<path fill="#373739" d="M-244.1,1556.7h6.8c-0.2,2.7-0.6,5.4-0.9,8h0.1c1.1-4.3,2.9-8.4,7.1-8.4c0.8,0,1.5,0.1,1.9,0.2l-0.6,4
			c-0.3-0.1-0.8-0.2-1.2-0.2c-5.4,0-7.1,9.8-7.7,15.7l-0.1,1.4h-4.2c0.3-2.2,0.6-5.2,0.7-7.2l0.8-10.2h-3L-244.1,1556.7z"/>
		<path fill="#373739" d="M-222.9,1546.8h7.5l-0.9,10.1c-0.2,1.9-0.7,4.5-1,6.3h0.1c0.9-2.7,3.4-7,8.4-7c2.9,0,4.5,2.1,4.5,4.3
			c0,4.5-4.4,6.7-8.1,8c0.4,0.3,1,0.9,1.2,1.2l3.6,4.3h2.8l-0.3,3.3h-5.4l-6.8-8.3c-0.5,2.8-1,6.2-1.2,8.3h-4
			c0.4-2.7,0.7-5.4,0.9-8.2l1.6-19.1h-3.4L-222.9,1546.8z M-210.4,1560.1c-2.3,0-5.6,3-6.5,8c1.5-0.4,8.2-2.6,8.2-6.2
			C-208.7,1560.8-209.4,1560.1-210.4,1560.1z"/>
	</g>
	<g>
		<path fill="#D4D700" d="M-306,1449.4l0.9-0.8h0l0,0l20.5,11.8l-0.2,1.1l30.3,17.5c0.6-2.6,0.4-5.4-0.6-7.8l-17.8-40
			c-2-4.6-7.8-7.9-12.8-7.4l-21.8,2.3l-21.8,2.3c-2.5,0.3-5.1,1.6-7.1,3.4L-306,1449.4z"/>
		<path fill="#D9DADB" d="M-312.7,1486.9l-0.4-0.8l0,0l-9.6-21.6l0.7-0.7l-14.3-32c-2,1.8-3.5,4.1-4,6.5l-9.1,42.8
			c-0.6,3,0.2,6.5,1.9,9.3L-312.7,1486.9z"/>
		<path fill="#373739" d="M-322.7,1464.5l17.6-15.9l0,0h0l-30.3-17.5c-0.5,0.4-1.1,0.9-1.5,1.4L-322.7,1464.5z"/>
		<path fill="#AAAD00" d="M-255,1480.9c0.3-0.9,0.6-1.9,0.7-2.9l-30.3-17.5l-4.9,23.2l-0.2,0.9L-255,1480.9z"/>
		<path fill="#A7A8AA" d="M-287.3,1511.9l29.1-26.2c1.6-1.5,2.8-3.5,3.4-5.7l-34.8,3.7l0,0l-6.5,0.7l-51.8,5.5
			c1.1,2,2.7,3.8,4.6,4.9l10.7,6.2l27.2,15.7c4.3,2.5,10.9,1.8,14.7-1.5L-287.3,1511.9z"/>
	</g>
</g>
</svg>
