<?xml version="1.0" encoding="utf-8"?>
<svg xmlns="http://www.w3.org/2000/svg" viewBox="0 0 800 360">
    <defs>
        <style>.cls-1{fill:#300033;}.cls-2{fill:none;}.cls-3{fill:#002395;}.cls-4{fill:#ed2939;}.cls-5{fill:#fff;}</style>
    </defs>
    <title>header</title>
    <g id="Layer_1" data-name="Layer 1">
        <rect class="cls-1" y="243.34" width="800" height="8.64"/>
        <g id="_Group_" data-name="&lt;Group&gt;">
            <g id="_Group_2" data-name="&lt;Group&gt;">
                <path id="_Path_" data-name="&lt;Path&gt;" class="cls-2"
                      d="M325.12,202.61a15.76,15.76,0,0,0-11.1-4.55,15,15,0,0,0-6,1.22,15.66,15.66,0,0,0-8.28,8.28,15.53,15.53,0,0,0,0,12.06,15.66,15.66,0,0,0,8.28,8.28,15,15,0,0,0,6,1.22,15.75,15.75,0,0,0,11.1-4.55,15.74,15.74,0,0,0,3.34-4.94,15.53,15.53,0,0,0,0-12.06A15.77,15.77,0,0,0,325.12,202.61Z"/>
                <path id="_Compound_Path_" data-name="&lt;Compound Path&gt;" class="cls-3"
                      d="M332.19,195.54A25.75,25.75,0,0,0,314,188.06a25,25,0,0,0-10,2,25.65,25.65,0,0,0-13.49,13.49,25.51,25.51,0,0,0,0,20A25.65,25.65,0,0,0,304,237.07a25,25,0,0,0,10,2,25.58,25.58,0,0,0,23.61-15.53,25.51,25.51,0,0,0,0-20A25.78,25.78,0,0,0,332.19,195.54Zm-3.73,24.07a15.74,15.74,0,0,1-3.34,4.94,15.75,15.75,0,0,1-11.1,4.55,15,15,0,0,1-6-1.22,15.66,15.66,0,0,1-8.28-8.28,15.53,15.53,0,0,1,0-12.06,15.66,15.66,0,0,1,8.28-8.28,15,15,0,0,1,6-1.22,15.76,15.76,0,0,1,11.1,4.55,15.77,15.77,0,0,1,3.34,4.94,15.53,15.53,0,0,1,0,12.06Z"/>
                <path id="_Compound_Path_2" data-name="&lt;Compound Path&gt;" class="cls-4"
                      d="M357.51,195.36a48.15,48.15,0,0,0-10.07-14.82,47,47,0,0,0-14.88-10,47.21,47.21,0,0,0-36.44,0,46.65,46.65,0,0,0-24.89,24.89,46.9,46.9,0,0,0,0,36.31,47,47,0,0,0,10,14.88,47.89,47.89,0,0,0,14.88,10.07,44.93,44.93,0,0,0,18.15,3.72,46.06,46.06,0,0,0,18.22-3.66,46.82,46.82,0,0,0,14.95-10,47.91,47.91,0,0,0,10.07-14.88,46.62,46.62,0,0,0,0-36.5Zm-9.16,32.51a37.66,37.66,0,0,1-8,11.81,37.11,37.11,0,0,1-11.79,7.88,35.85,35.85,0,0,1-14.3,2.86,34.72,34.72,0,0,1-14.16-2.89,38.13,38.13,0,0,1-11.81-8,36.76,36.76,0,0,1-7.89-11.75,36.91,36.91,0,0,1,0-28.43,37.27,37.27,0,0,1,7.89-11.75,36.75,36.75,0,0,1,11.75-7.89,37.22,37.22,0,0,1,28.56,0,37.28,37.28,0,0,1,11.75,7.89,37.88,37.88,0,0,1,8,11.77,34.59,34.59,0,0,1,2.88,14.19A35,35,0,0,1,348.35,227.87Z"/>
                <path id="_Compound_Path_3" data-name="&lt;Compound Path&gt;" class="cls-5"
                      d="M340.37,187.61a37.28,37.28,0,0,0-11.75-7.89,37.22,37.22,0,0,0-28.56,0,36.75,36.75,0,0,0-11.75,7.89,37.27,37.27,0,0,0-7.89,11.75,36.91,36.91,0,0,0,0,28.43,36.76,36.76,0,0,0,7.89,11.75,38.13,38.13,0,0,0,11.81,8,34.72,34.72,0,0,0,14.16,2.89,35.85,35.85,0,0,0,14.3-2.86,37.11,37.11,0,0,0,11.79-7.88,37.66,37.66,0,0,0,8-11.81,35,35,0,0,0,2.89-14.29,34.59,34.59,0,0,0-2.88-14.19A37.88,37.88,0,0,0,340.37,187.61Zm-2.74,36A25.66,25.66,0,0,1,314,239.1a25,25,0,0,1-10-2,25.65,25.65,0,0,1-13.49-13.48,25.51,25.51,0,0,1,0-20A25.65,25.65,0,0,1,304,190.1a25,25,0,0,1,10-2,25.58,25.58,0,0,1,23.61,15.53,25.51,25.51,0,0,1,0,20Z"/>
            </g>
            <path id="_Compound_Path_4" data-name="&lt;Compound Path&gt;" class="cls-1"
                  d="M158.48,245.37V181.92H202.6v17H180.08v7.17H200v15.16H180.08v24.15Z"/>
            <path id="_Compound_Path_5" data-name="&lt;Compound Path&gt;" class="cls-1"
                  d="M211.76,245.37V181.92h28.14q10.89,0,17.07,5.17t6.17,14.25a17,17,0,0,1-2.45,8.9,15.66,15.66,0,0,1-7.44,6.26l13.07,28.87h-24l-9.71-26.14v26.14Zm20.88-38.58A33.45,33.45,0,0,0,236,207a13.21,13.21,0,0,0,3.54-.36,6,6,0,0,0,2.77-1.5,4.33,4.33,0,0,0,1.13-3.27,4.26,4.26,0,0,0-1-3.13,5.3,5.3,0,0,0-2.59-1.41,14,14,0,0,0-3.49-.32q-2,0-3.68.14Z"/>
            <path id="_Compound_Path_6" data-name="&lt;Compound Path&gt;" class="cls-1"
                  d="M368.37,245.37V181.92H388.7l14.89,29.23V181.92h21.33v63.46H404.14l-14.8-29v29Z"/>
            <path id="_Compound_Path_7" data-name="&lt;Compound Path&gt;" class="cls-1" d="M446.07,245.37V198.89H433.73v-17h46.66v17H468v46.48Z"/>
            <path id="_Compound_Path_8" data-name="&lt;Compound Path&gt;" class="cls-1"
                  d="M480.57,245.37l18.16-63.46h25.06l18.07,63.46h-21.7l-2.63-11.53h-14l-2.9,11.53Zm25.24-26.78h9.35l-4.54-19.79Z"/>
            <path id="_Compound_Path_9" data-name="&lt;Compound Path&gt;" class="cls-1" d="M548.47,245.37V181.92H569.9v46.75h17.52v16.7Z"/>
            <path id="_Compound_Path_10" data-name="&lt;Compound Path&gt;" class="cls-1"
                  d="M596.49,245.37V181.92h45v17H618.19v7.35h20.7V221.5h-20.7v7.17h23.33v16.7Z"/>
            <path id="_Compound_Path_11" data-name="&lt;Compound Path&gt;" class="cls-1"
                  d="M505.81,175.84H495l10.53-13.62h10.26l10.44,13.62H515.52l-4.81-6.9Z"/>
        </g>
        <g id="Layer_1-2" data-name="Layer 1">
            <path class="cls-1"
                  d="M515.78,70.46a2.52,2.52,0,0,0-3.41,1.06,20.28,20.28,0,0,1-36.09-.36,2.52,2.52,0,0,0-4.51,2.26,25.32,25.32,0,0,0,45.05.44A2.49,2.49,0,0,0,515.78,70.46Z"/>
            <circle class="cls-1" cx="484.32" cy="59.63" r="4.97"/>
            <circle class="cls-1" cx="504.41" cy="59.63" r="4.97"/>
            <path class="cls-1"
                  d="M494.42,107.2a37.37,37.37,0,1,1,26.41-10.95A37.06,37.06,0,0,1,494.42,107.2Zm0-66.87a29.51,29.51,0,1,0,29.51,29.51A29.55,29.55,0,0,0,494.42,40.33Z"/>
        </g>
        <g id="_Group_3" data-name="&lt;Group&gt;">
            <g id="_Group_4" data-name="&lt;Group&gt;">
                <path id="_Compound_Path_12" data-name="&lt;Compound Path&gt;" class="cls-1"
                      d="M415.85,34.54c1,0,2.16.06,3.36.17,7.26.71,15.66,7.36,16.68,20.09V59c-1,12.19-10.16,27.23-37.05,46.1-26.9-18.87-36.1-33.9-37.05-46.1V54.81c1-12.74,9.42-19.38,16.68-20.09,1.19-.12,2.31-.17,3.36-.17,8.39,0,12.41,3.63,17,9.12,4.61-5.49,8.63-9.12,17-9.12"/>
            </g>
        </g>
        <g id="Layer_1-3" data-name="Layer 1">
            <path class="cls-1"
                  d="M342.43,40.51A4.55,4.55,0,0,0,338,36H294.84a4.51,4.51,0,0,0-4.36,4.52V52.9s0,0,0,.19h0V76a14.85,14.85,0,1,0,7.45,12.87c0-.4,0-.81,0-1.19V57.28h36.94V76a14.84,14.84,0,1,0,7.37,12.86v0h0V53.57h0a3.62,3.62,0,0,0,.13-.68V40.51Z"/>
        </g>
        <g id="_Group_5" data-name="&lt;Group&gt;">
            <path id="_Compound_Path_13" data-name="&lt;Compound Path&gt;" class="cls-1"
                  d="M162.86,285.16a24.29,24.29,0,0,1-3.21.27q-.44,0-.43-.33a2.28,2.28,0,0,1,1.05-1.62A9.5,9.5,0,0,1,163.7,282a55.5,55.5,0,0,1,2.44-7,8.26,8.26,0,0,0-5.49,2.21q-.54.54-.87.84a1,1,0,0,1-.59.3q-.25,0-.49-.4a2.12,2.12,0,0,1-.23-1.07q0-2.58,3.48-4.18a19.75,19.75,0,0,1,8.5-1.57l10,.17q.9,0,.9.7a2,2,0,0,1-.27.72,7.83,7.83,0,0,0-.47,1.12,1.79,1.79,0,0,1-1.87,1.2h-1.07l-4.45,0h-2.58a45.76,45.76,0,0,1-1.61,6.22l6.12.1c.36,0,.54.21.54.64a2.67,2.67,0,0,1-.17.7q-.17.5-.3,1-.27,1.1-1.14,1.1l-5.09-.23h-.43l-.47,0a41,41,0,0,0-1.74,10.1q0,2-3.85,2a.91.91,0,0,1-1-.85,13.55,13.55,0,0,1-.15-2.26A35,35,0,0,1,162.86,285.16Z"/>
            <path id="_Compound_Path_14" data-name="&lt;Compound Path&gt;" class="cls-1"
                  d="M184.51,292.52a7.75,7.75,0,0,0,5.05-2.07A14.07,14.07,0,0,0,191,289q.57-.65.87-.65.47,0,.47.94a5.31,5.31,0,0,1-.5,2.09,7,7,0,0,1-1.67,2.26,11.06,11.06,0,0,1-7.9,2.71q-4,0-5.42-2.88a6.59,6.59,0,0,1-.5-2.88,11.38,11.38,0,0,1,.74-3.9,11.65,11.65,0,0,1,2-3.5,8.94,8.94,0,0,1,2.83-2.29,7.44,7.44,0,0,1,3.43-.82,4,4,0,0,1,2.81.9,3,3,0,0,1,1,2.34,3.72,3.72,0,0,1-.72,2.36,5.89,5.89,0,0,1-1.86,1.54,17,17,0,0,1-2.53,1.1q-1.39.49-2.73,1.09v.84a1.83,1.83,0,0,0,1,1.71A5,5,0,0,0,184.51,292.52Zm-.57-9.44q-1.74,0-2.41,4,.7-.47,1.32-.84t1.09-.7a2.18,2.18,0,0,0,1-1.67Q185,283.09,183.94,283.09Z"/>
            <path id="_Compound_Path_15" data-name="&lt;Compound Path&gt;" class="cls-1"
                  d="M198.33,280a5.37,5.37,0,0,1,3.35.84,2.9,2.9,0,0,1,1.1,2.44,4,4,0,0,1-1,2.71,5.21,5.21,0,0,1-2.33,1.59,22.66,22.66,0,0,1,1.76,2,3.55,3.55,0,0,1,.79,2.17,4,4,0,0,1-1.77,3.46,8.61,8.61,0,0,1-4.94,1.22,7.5,7.5,0,0,1-4.73-1.25,3.61,3.61,0,0,1-1.57-2.84,5.5,5.5,0,0,1,.79-2.89q.79-1.3,1.69-1.3a.83.83,0,0,1,.77.38,16.64,16.64,0,0,1,.87,2.23,3.8,3.8,0,0,0,.77,1.27,5,5,0,0,0,3.91,1.37,5.5,5.5,0,0,0-1.29-2.19q-.89-.92-1.76-1.79a12.65,12.65,0,0,1-1.54-1.86,4,4,0,0,1-.67-2.33,4.86,4.86,0,0,1,1.81-3.91A6.3,6.3,0,0,1,198.33,280Zm-.13,6.21a4,4,0,0,0,1.34-2.31,1,1,0,0,0-1.1-1,3.83,3.83,0,0,0-1,.13l-.79.2A4.91,4.91,0,0,0,198.19,286.17Z"/>
            <path id="_Compound_Path_16" data-name="&lt;Compound Path&gt;" class="cls-1"
                  d="M205.6,294.35a8,8,0,0,1-.55-2.07,25.31,25.31,0,0,1-.17-3.33,28.55,28.55,0,0,1,.8-5.79h-1.51q-.4,0-.4-.33a4.84,4.84,0,0,1,.15-1.32,3.43,3.43,0,0,1,.72-1.19h.8q.47,0,1,0,1.61-5.15,3.28-5.15,1.34,0,1.87,1.71.13.47.3,1l-1.37,2.41,3,.07q.62,0,.67.12a.94.94,0,0,1,.05.35,5.23,5.23,0,0,1-.28,1.51q-.28.9-.65.87l-3.35-.17a41.3,41.3,0,0,0-.7,6.76q0,2.68.77,2.68a5.73,5.73,0,0,0,2.31-1.05,9.12,9.12,0,0,0,2.41-2q.74-1,1.2-1t.47,1.14a4.15,4.15,0,0,1-.8,2.33,10,10,0,0,1-2,2.17,11.41,11.41,0,0,1-2.71,1.62,6.78,6.78,0,0,1-2.59.64,2.47,2.47,0,0,1-1.69-.52A3.92,3.92,0,0,1,205.6,294.35Z"/>
            <path id="_Compound_Path_17" data-name="&lt;Compound Path&gt;" class="cls-1"
                  d="M218.73,296.27q-3.35,0-3.35-6.26a21.42,21.42,0,0,1,.84-6.19q1.31-4.28,2.94-4.28,1,0,1.54,1.3a4.29,4.29,0,0,1,.44,2,24.26,24.26,0,0,1-.8,4.72,21.55,21.55,0,0,0-.77,3.65,1.15,1.15,0,0,0,.35,1,1.34,1.34,0,0,0,.84.27,2.1,2.1,0,0,0,1.22-.64q.74-.63,1.47-1.39l1.35-1.39q.62-.64.85-.64.47,0,.47,1.14a6.36,6.36,0,0,1-2.36,4.57A7.12,7.12,0,0,1,218.73,296.27Zm1.37-19.44a5,5,0,0,1-.9-2.88,6,6,0,0,1,.49-2.56,6.49,6.49,0,0,1,.92-1.51,1.31,1.31,0,0,1,1-.48q.94,0,1.71,1.39a5.08,5.08,0,0,1,.77,2.33,3.31,3.31,0,0,1-1.22,2.73A4.28,4.28,0,0,1,220.1,276.83Z"/>
            <path id="_Compound_Path_18" data-name="&lt;Compound Path&gt;" class="cls-1"
                  d="M229.74,281.45a19,19,0,0,1-.8,5.09q.07,1.07.07,2.07a9.84,9.84,0,0,0,.13,1.74,2.59,2.59,0,0,0,1.27,1.64q.67,0,1.47-1.15a25.47,25.47,0,0,0,1.64-2.76,11.54,11.54,0,0,1-.4-2.91,6.49,6.49,0,0,1,.74-3.51,3,3,0,0,1,2.74-1.41,2.39,2.39,0,0,1,2.44,1.41,3,3,0,0,1,.23,1.2,5.66,5.66,0,0,1-.6,2.46,30.55,30.55,0,0,1-1.94,3.3q.6,1.77,1.81,1.77a3.72,3.72,0,0,0,2.54-1l.69-.7a.82.82,0,0,1,.59-.3q.47,0,.47,1.1a3.65,3.65,0,0,1-1.19,3,4.63,4.63,0,0,1-3,1,4.35,4.35,0,0,1-3.78-2.07q-3.91,5.09-6.56,5.09-1,0-2-2.94a38.06,38.06,0,0,1-1.54-8q-.4-3.18.47-4.55a3.28,3.28,0,0,1,2.88-1.07,1.58,1.58,0,0,1,1.24.49A1.55,1.55,0,0,1,229.74,281.45Z"/>
            <path id="_Compound_Path_19" data-name="&lt;Compound Path&gt;" class="cls-1"
                  d="M261.86,288.27q.6,0,.6,1.54a4.18,4.18,0,0,1-.7,2,9,9,0,0,1-1.82,2.17,10.3,10.3,0,0,1-2.49,1.62,6.34,6.34,0,0,1-2.68.64q-1.77,0-2.38-3.11a7.3,7.3,0,0,1-2.28,2.36,6.78,6.78,0,0,1-3.76.92,5.07,5.07,0,0,1-3.8-1.47,4.81,4.81,0,0,1-1.41-3.58,11.25,11.25,0,0,1,3.78-9,8.88,8.88,0,0,1,3-1.81,9.74,9.74,0,0,1,2.93-.44,5.17,5.17,0,0,1,2.51.54q.47-1,1.07-1a3.18,3.18,0,0,1,2.22,1,2.83,2.83,0,0,1,1.05,1.92,23.69,23.69,0,0,1-1.37,2.64,26.67,26.67,0,0,0-.27,4.32q0,2.78.7,2.78.87,0,4.22-3.48Q261.59,288.27,261.86,288.27Zm-15.79,2q0,2.58,1.91,2.58a4,4,0,0,0,3.38-2.17,6.78,6.78,0,0,0,.77-1.81,26.78,26.78,0,0,1,.67-6.42,8.83,8.83,0,0,0-4.72,2.61A7.2,7.2,0,0,0,246.07,290.28Z"/>
            <path id="_Compound_Path_20" data-name="&lt;Compound Path&gt;" class="cls-1"
                  d="M268.25,296.27q-4.78,0-6.52-3.58a7.46,7.46,0,0,1-.6-3.2,27,27,0,0,1,.33-4.1,25.88,25.88,0,0,1,2.58-8,15.27,15.27,0,0,1,2.17-3.21,7.69,7.69,0,0,1,5.89-2.91,3.13,3.13,0,0,1,2.26.79,3,3,0,0,1,.82,2.26,5.83,5.83,0,0,1-.87,3,21.55,21.55,0,0,1-2.23,3.08q-1.35,1.59-3,3.33t-3.21,3.78v1.34a4,4,0,0,0,.8,2.74,2.48,2.48,0,0,0,1.87.87,6.37,6.37,0,0,0,5.09-2.84q.9-1.17,1.37-1.17t.47,1.14a5,5,0,0,1-.62,2.33,8.76,8.76,0,0,1-3.93,3.8A6,6,0,0,1,268.25,296.27Zm1.81-18a12.21,12.21,0,0,0,1.1-1.57,2.9,2.9,0,0,0,.4-1.46q0-.75-.54-.75-1.17,0-2.59,2.41a19.14,19.14,0,0,0-2.12,6.32,35.08,35.08,0,0,1,2.09-2.91Z"/>
            <path id="_Compound_Path_21" data-name="&lt;Compound Path&gt;" class="cls-1"
                  d="M287.52,279.14q0-.6.43-.6a3.64,3.64,0,0,1,1.37.28,8.78,8.78,0,0,0,1.51.45q2.68-5.72,6.16-7.46a5.34,5.34,0,0,1,2.41-.6,3.7,3.7,0,0,1,3,1.07,4.31,4.31,0,0,1,.79,2.68,5.7,5.7,0,0,1-2.68,4.9,12.45,12.45,0,0,1-6.46,2,31.87,31.87,0,0,0-1.51,5.49,9.43,9.43,0,0,1,3.35-.5,6.62,6.62,0,0,0,.94,3,1.87,1.87,0,0,0,1.49.9,2.27,2.27,0,0,0,1.37-.4,5.36,5.36,0,0,0,1-.9q.42-.5.7-.9t.55-.4q.57,0,.57,1a5.35,5.35,0,0,1-1,3.33,3.62,3.62,0,0,1-3.08,1.32q-3.25,0-4.62-1.71.74,7.36.74,8.77a4,4,0,0,1-1.57,3.58,5.72,5.72,0,0,1-3.33.9,3.56,3.56,0,0,1-2.81-.92,3.26,3.26,0,0,1-.79-2.19A59.41,59.41,0,0,1,288.36,286a44.64,44.64,0,0,1,1.67-4.88Q287.52,280,287.52,279.14Zm4.08,23a2.74,2.74,0,0,0,.33-1.32,59.73,59.73,0,0,0-.64-7.09,46.29,46.29,0,0,0-1.14,6.86q-.07.74-.07.9,0,1.27.77,1.27Q291.27,302.76,291.6,302.14Zm7.53-27.62q-.67,0-1.82,1.27a15.65,15.65,0,0,0-2.36,3.88,19.58,19.58,0,0,0,3.21-1.64,3.19,3.19,0,0,0,1.57-2.64Q299.73,274.52,299.13,274.52Z"/>
            <path id="_Compound_Path_22" data-name="&lt;Compound Path&gt;" class="cls-1"
                  d="M311.57,282.05q0-2.24,3.48-2.24.87,0,1.09.57a5.19,5.19,0,0,1,.22,1.74,27.26,27.26,0,0,1-.74,5.09,24.42,24.42,0,0,0-.7,4.65q0,.57.37.57a2.1,2.1,0,0,0,1.24-.64q.74-.63,1.47-1.39l1.36-1.39q.62-.64.85-.64.47,0,.47,1.14a6.26,6.26,0,0,1-2.31,4.52q-3.88,2.28-4.92,2.27a.38.38,0,0,1-.17,0,1.94,1.94,0,0,1-1.79-.84,4.93,4.93,0,0,1-.65-2.11,6.56,6.56,0,0,1-1.84,2.12,4.32,4.32,0,0,1-2.68.89,7,7,0,0,1-4.07-1,3.41,3.41,0,0,1-1.42-3,5,5,0,0,1,.25-1.61,12.86,12.86,0,0,1,.82-1.81l1-8.23a4.78,4.78,0,0,1,3-.8q1.54,0,1.74,2a8.59,8.59,0,0,1-.15,2.93q-.32,1.29-.85,3.25a13.32,13.32,0,0,0-.54,3.46q0,1.2,1.51,1.2t2.84-2.88a18.3,18.3,0,0,0,1.27-4.92q0-.27-.05-.69l0-.82q0-.4,0-.8Zm-3.25-6.77a4.19,4.19,0,0,1-2.41.75q-1.3,0-1.32-1.44a3.87,3.87,0,0,1,.92-2.58,2.68,2.68,0,0,1,2.07-1.14q1.3,0,2.38,2.38A4.51,4.51,0,0,1,308.33,275.28Zm8.13-3Q315,276,313,276a1.59,1.59,0,0,1-1.22-.48,1.56,1.56,0,0,1-.45-1.09,3.75,3.75,0,0,1,.7-2.39,2.08,2.08,0,0,1,1.67-.89A3.38,3.38,0,0,1,316.46,272.28Z"/>
            <path id="_Compound_Path_23" data-name="&lt;Compound Path&gt;" class="cls-1"
                  d="M323.89,290.55l.2,4.08a1.81,1.81,0,0,1-.84,1.44,3.68,3.68,0,0,1-2.28.64,1.16,1.16,0,0,1-1.15-.87,7.79,7.79,0,0,1-.32-2.54,33.4,33.4,0,0,1,.35-5.5,14.44,14.44,0,0,1,1.39-4,4,4,0,0,1-1.54-2.54q0-2.24,2.41-2.24a2.67,2.67,0,0,1,2.17,1.3,5.9,5.9,0,0,1,1,2.11,3.51,3.51,0,0,0,1.17.17,5.14,5.14,0,0,0,2.24-.64l.87-.44a1.62,1.62,0,0,1,.7-.2q1,0,1.94,2.84-.3,1.3-.65,2.51t-.82,2.91a12.22,12.22,0,0,0-.48,2.29q0,.59.35.59a2.1,2.1,0,0,0,1.24-.64q.74-.63,1.47-1.39l1.36-1.39q.62-.64.85-.64.47,0,.47,1.14a6.81,6.81,0,0,1-2,4.55,6,6,0,0,1-4.63,2.21A2.54,2.54,0,0,1,327,295a5.8,5.8,0,0,1-.8-3,14.69,14.69,0,0,1,1.57-6.66,4.34,4.34,0,0,1-1.66.3,9,9,0,0,1-1.32-.07l-.6,2.56A10.56,10.56,0,0,0,323.89,290.55Z"/>
            <path id="_Compound_Path_24" data-name="&lt;Compound Path&gt;" class="cls-1"
                  d="M348.31,279.14q0-.6.43-.6a3.64,3.64,0,0,1,1.37.28,8.78,8.78,0,0,0,1.51.45q2.68-5.72,6.16-7.46a5.34,5.34,0,0,1,2.41-.6,3.7,3.7,0,0,1,3,1.07A4.31,4.31,0,0,1,364,275a5.7,5.7,0,0,1-2.68,4.9,12.45,12.45,0,0,1-6.46,2,31.87,31.87,0,0,0-1.51,5.49,9.43,9.43,0,0,1,3.35-.5,6.62,6.62,0,0,0,.94,3,1.87,1.87,0,0,0,1.49.9,2.27,2.27,0,0,0,1.37-.4,5.36,5.36,0,0,0,1-.9q.42-.5.7-.9t.55-.4q.57,0,.57,1a5.35,5.35,0,0,1-1,3.33,3.62,3.62,0,0,1-3.08,1.32q-3.25,0-4.62-1.71.74,7.36.74,8.77a4,4,0,0,1-1.57,3.58,5.72,5.72,0,0,1-3.33.9,3.56,3.56,0,0,1-2.81-.92,3.26,3.26,0,0,1-.79-2.19A59.41,59.41,0,0,1,349.15,286a44.64,44.64,0,0,1,1.67-4.88Q348.31,280,348.31,279.14Zm4.08,23a2.74,2.74,0,0,0,.33-1.32,59.73,59.73,0,0,0-.64-7.09,46.29,46.29,0,0,0-1.14,6.86q-.07.74-.07.9,0,1.27.77,1.27Q352.06,302.76,352.39,302.14Zm7.53-27.62q-.67,0-1.82,1.27a15.65,15.65,0,0,0-2.36,3.88,19.58,19.58,0,0,0,3.21-1.64,3.19,3.19,0,0,0,1.57-2.64Q360.52,274.52,359.92,274.52Z"/>
            <path id="_Compound_Path_25" data-name="&lt;Compound Path&gt;" class="cls-1"
                  d="M366.51,290.55l.2,4.08a1.81,1.81,0,0,1-.84,1.44,3.68,3.68,0,0,1-2.28.64,1.16,1.16,0,0,1-1.15-.87,7.79,7.79,0,0,1-.32-2.54,33.4,33.4,0,0,1,.35-5.5,14.44,14.44,0,0,1,1.39-4,4,4,0,0,1-1.54-2.54q0-2.24,2.41-2.24a2.67,2.67,0,0,1,2.17,1.3,5.9,5.9,0,0,1,1,2.11,3.51,3.51,0,0,0,1.17.17,5.14,5.14,0,0,0,2.24-.64l.87-.44a1.62,1.62,0,0,1,.7-.2q1,0,1.94,2.84-.3,1.3-.65,2.51t-.82,2.91a12.22,12.22,0,0,0-.48,2.29q0,.59.35.59a2.1,2.1,0,0,0,1.24-.64q.74-.63,1.47-1.39l1.36-1.39q.62-.64.85-.64.47,0,.47,1.14a6.81,6.81,0,0,1-2,4.55,6,6,0,0,1-4.63,2.21,2.54,2.54,0,0,1-2.31-1.24,5.8,5.8,0,0,1-.8-3,14.69,14.69,0,0,1,1.57-6.66,4.34,4.34,0,0,1-1.66.3,9,9,0,0,1-1.32-.07l-.6,2.56A10.56,10.56,0,0,0,366.51,290.55Z"/>
            <path id="_Compound_Path_26" data-name="&lt;Compound Path&gt;" class="cls-1"
                  d="M397.46,288.27q.6,0,.6,1.54a4.18,4.18,0,0,1-.7,2,9,9,0,0,1-1.82,2.17,10.3,10.3,0,0,1-2.49,1.62,6.34,6.34,0,0,1-2.68.64q-1.77,0-2.38-3.11a7.3,7.3,0,0,1-2.28,2.36,6.78,6.78,0,0,1-3.76.92,5.07,5.07,0,0,1-3.8-1.47,4.81,4.81,0,0,1-1.41-3.58,11.25,11.25,0,0,1,3.78-9,8.88,8.88,0,0,1,3-1.81,9.74,9.74,0,0,1,2.93-.44,5.17,5.17,0,0,1,2.51.54q.47-1,1.07-1a3.18,3.18,0,0,1,2.22,1,2.83,2.83,0,0,1,1.05,1.92,23.69,23.69,0,0,1-1.37,2.64,26.67,26.67,0,0,0-.27,4.32q0,2.78.7,2.78.87,0,4.22-3.48Q397.19,288.27,397.46,288.27Zm-15.79,2q0,2.58,1.91,2.58a4,4,0,0,0,3.38-2.17,6.78,6.78,0,0,0,.77-1.81,26.78,26.78,0,0,1,.67-6.42,8.83,8.83,0,0,0-4.72,2.61A7.2,7.2,0,0,0,381.67,290.28Z"/>
            <path id="_Compound_Path_27" data-name="&lt;Compound Path&gt;" class="cls-1"
                  d="M400.84,279.48q1.2,0,2.28,2.31a5.88,5.88,0,0,1,7.39-.62,3.61,3.61,0,0,1,1.17,2.88,15.24,15.24,0,0,1-.49,3.76q-.49,1.91-.7,2.73a5.48,5.48,0,0,0-.22,1.35q0,.54.37.54a2.1,2.1,0,0,0,1.24-.64q.74-.63,1.47-1.39L414.7,289q.62-.64.85-.64.47,0,.47,1.14a6.26,6.26,0,0,1-2.31,4.52q-3.88,2.28-5,2.27a.19.19,0,0,1-.13,0q-2.68,0-2.68-4.28a15.21,15.21,0,0,1,.35-3.38q.35-1.54.52-2.24a6.19,6.19,0,0,0,.17-1.44q0-1.2-1.39-1.2T403,285.78a13,13,0,0,0-1.69,4.27v.23a8.34,8.34,0,0,0,.35,2.34,7.2,7.2,0,0,1,.35,1.67q0,1.14-2.84,2.24a2.19,2.19,0,0,1-.77.17,1.16,1.16,0,0,1-1.15-.87,8.48,8.48,0,0,1-.32-2.71,44.65,44.65,0,0,1,.37-6.86,14.86,14.86,0,0,1,2.27-5.86A1.65,1.65,0,0,1,400.84,279.48Z"/>
            <path id="_Compound_Path_28" data-name="&lt;Compound Path&gt;" class="cls-1"
                  d="M424.12,288.84q.9,3.58,3,3.58a3,3,0,0,0,1.87-.64,10.54,10.54,0,0,0,1.51-1.39q.67-.75,1.17-1.39t.94-.64q.43,0,.43,1.14a6.5,6.5,0,0,1-2.21,4.58,6.77,6.77,0,0,1-4.93,2.19q-2.73,0-4.87-4.8-.6-1.34-1.14-2.71l-.23,4.58a11.71,11.71,0,0,1-.07,1.25,1.47,1.47,0,0,1-.57,1,4.23,4.23,0,0,1-2.64,1q-1.57,0-1.57-3.25a46.51,46.51,0,0,1,1.1-9.8,49.63,49.63,0,0,1,2.16-7.71,22.2,22.2,0,0,1,1.64-3.46,3.84,3.84,0,0,1,.92-1.07,1.43,1.43,0,0,1,.75-.2,1.38,1.38,0,0,1,.89.42,6,6,0,0,1,1,1.27,3.28,3.28,0,0,1,.55,1.67,4.43,4.43,0,0,1-.27,1.61,8.17,8.17,0,0,1-.75,1.54q-.47.75-1,1.54t-1.14,1.69l-.33,2.81a6.12,6.12,0,0,1,3.45-3.28,5.32,5.32,0,0,1,1.87-.3,4.76,4.76,0,0,1,3.28,1,3.82,3.82,0,0,1,1.14,3,4,4,0,0,1-2,3.35A6.72,6.72,0,0,1,424.12,288.84Zm1.27-3.91q0-1.2-1.37-1.2t-3,2.64a11.55,11.55,0,0,0-.8,1.57q3.48-.2,4.75-1.87A1.86,1.86,0,0,0,425.39,284.93Z"/>
            <path id="_Compound_Path_29" data-name="&lt;Compound Path&gt;" class="cls-1"
                  d="M444.93,293.33a8.06,8.06,0,0,1-6.34,3.11q-3.7,0-5.54-1.89a6.36,6.36,0,0,1-1.81-4.7,9.88,9.88,0,0,1,2.51-6.86,8.46,8.46,0,0,1,6.66-2.88,8,8,0,0,1,3,.47q2,.8,2,1.51,0,.54-2.76.55a6.27,6.27,0,0,0-4.62,1.91,6.53,6.53,0,0,0-1.86,4.77,3.71,3.71,0,0,0,.89,2.53,3.14,3.14,0,0,0,2.51,1,5,5,0,0,0,2.69-.67,5.27,5.27,0,0,1-2.38-4.65,4.14,4.14,0,0,1,1.15-2.93,4,4,0,0,1,3-1.34,3.12,3.12,0,0,1,2.66,1,4.22,4.22,0,0,1,.8,2.66,8.76,8.76,0,0,1-.77,3.43h.2a3.72,3.72,0,0,0,2.54-1l.69-.7a.82.82,0,0,1,.59-.3q.47,0,.47,1.1a3.79,3.79,0,0,1-1.2,3.06,4,4,0,0,1-2.66,1A12.81,12.81,0,0,1,444.93,293.33Zm-.3-3.88a5.47,5.47,0,0,0,.57-2.34q0-1.14-.74-1.14-.3,0-.5.43a2,2,0,0,0-.2.84A3,3,0,0,0,444.63,289.45Z"/>
            <path id="_Compound_Path_30" data-name="&lt;Compound Path&gt;" class="cls-1"
                  d="M455.91,282.15a5.66,5.66,0,0,1,4.45-2q3.88,0,4.92,3.15a6.76,6.76,0,0,1,.3,2.07,9,9,0,0,1-1.66,5,8.32,8.32,0,0,1-4,3.35h.4a8.48,8.48,0,0,0,5-1.81,11.29,11.29,0,0,0,2.53-2.36q.92-1.22,1.39-1.22t.47,1.07a5.91,5.91,0,0,1-1.61,3.78,9.47,9.47,0,0,1-6.16,3.21,15.44,15.44,0,0,1-3.85.1,6.61,6.61,0,0,1-1.74-.5,2.15,2.15,0,0,1-1.3-2,3,3,0,0,1,.3-1.34,4.55,4.55,0,0,0,4-2,8.7,8.7,0,0,0,1.37-5,1.91,1.91,0,0,0-.54-1.32,1.84,1.84,0,0,0-1.42-.59,3.31,3.31,0,0,0-1.92.77,5.74,5.74,0,0,0-1.66,1.92q-.62,1.15-1.12,2.27a12.2,12.2,0,0,0-.8,2.83q-.54,3.08-1.22,7.78a50.7,50.7,0,0,1-.85,5.05,2.11,2.11,0,0,1-.5.65,1,1,0,0,1-.7.3,1.56,1.56,0,0,1-1.1-.4,5,5,0,0,1-1.41-1.59,4.23,4.23,0,0,1-.2-1.42,53.85,53.85,0,0,1,1.1-9.2,59.65,59.65,0,0,1,3.81-12.31,1.43,1.43,0,0,1,1.42-.94q1,0,2,1.81A3.51,3.51,0,0,1,455.91,282.15Z"/>
            <path id="_Compound_Path_31" data-name="&lt;Compound Path&gt;" class="cls-1"
                  d="M479.12,284.93q0-1.2-1.42-1.2t-2.79,2.19a11.55,11.55,0,0,0-1.71,4.47l.13,1.54q.07.77.07,1.51a2.49,2.49,0,0,1-1.17,2.41l-1,.57a2.29,2.29,0,0,1-1.12.27q-.64,0-1.12-.85a5.58,5.58,0,0,1-.49-2.66,45.64,45.64,0,0,1,.74-8.77,47.09,47.09,0,0,1,4.52-12.31,1.45,1.45,0,0,1,1.37-.89q.9,0,1.47,1.25a5,5,0,0,1,.55,2.07,5.7,5.7,0,0,1-.27,1.62,10.23,10.23,0,0,1-.64,1.54q-.38.75-.87,1.54t-1,1.69l-.5,2.41a6.39,6.39,0,0,1,3.51-2.91,5.58,5.58,0,0,1,1.77-.27,5.11,5.11,0,0,1,3.45,1,3.61,3.61,0,0,1,1.17,2.88,15.24,15.24,0,0,1-.49,3.76q-.49,1.91-.7,2.73a5.48,5.48,0,0,0-.22,1.35q0,.54.37.54a2.1,2.1,0,0,0,1.24-.64q.74-.63,1.47-1.39l1.36-1.39q.62-.64.85-.64.47,0,.47,1.14a6.26,6.26,0,0,1-2.31,4.52q-3.88,2.28-5,2.27a.19.19,0,0,1-.13,0q-2.68,0-2.68-4.28a15.19,15.19,0,0,1,.35-3.38q.35-1.54.52-2.24A6.21,6.21,0,0,0,479.12,284.93Z"/>
            <path id="_Compound_Path_32" data-name="&lt;Compound Path&gt;" class="cls-1"
                  d="M500,293.33a8.06,8.06,0,0,1-6.34,3.11q-3.7,0-5.54-1.89a6.36,6.36,0,0,1-1.81-4.7,9.88,9.88,0,0,1,2.51-6.86,8.46,8.46,0,0,1,6.66-2.88,8,8,0,0,1,3,.47q2,.8,2,1.51,0,.54-2.76.55a6.27,6.27,0,0,0-4.62,1.91,6.53,6.53,0,0,0-1.86,4.77,3.71,3.71,0,0,0,.89,2.53,3.14,3.14,0,0,0,2.51,1,5,5,0,0,0,2.69-.67,5.27,5.27,0,0,1-2.38-4.65,4.14,4.14,0,0,1,1.15-2.93,4,4,0,0,1,3-1.34,3.12,3.12,0,0,1,2.66,1,4.22,4.22,0,0,1,.8,2.66,8.76,8.76,0,0,1-.77,3.43h.2a3.72,3.72,0,0,0,2.54-1l.69-.7a.82.82,0,0,1,.59-.3q.47,0,.47,1.1a3.79,3.79,0,0,1-1.2,3.06,4,4,0,0,1-2.66,1A12.81,12.81,0,0,1,500,293.33Zm-.3-3.88a5.47,5.47,0,0,0,.57-2.34q0-1.14-.74-1.14-.3,0-.5.43a2,2,0,0,0-.2.84A3,3,0,0,0,499.7,289.45Z"/>
            <path id="_Compound_Path_33" data-name="&lt;Compound Path&gt;" class="cls-1"
                  d="M509.1,279.48q1.2,0,2.28,2.31a5.88,5.88,0,0,1,7.39-.62,3.61,3.61,0,0,1,1.17,2.88,15.24,15.24,0,0,1-.49,3.76q-.49,1.91-.7,2.73a5.48,5.48,0,0,0-.22,1.35q0,.54.37.54a2.1,2.1,0,0,0,1.24-.64q.74-.63,1.47-1.39L523,289q.62-.64.85-.64.47,0,.47,1.14A6.26,6.26,0,0,1,522,294q-3.88,2.28-5,2.27a.19.19,0,0,1-.13,0q-2.68,0-2.68-4.28a15.21,15.21,0,0,1,.35-3.38q.35-1.54.52-2.24a6.19,6.19,0,0,0,.17-1.44q0-1.2-1.39-1.2t-2.64,2.06a13,13,0,0,0-1.69,4.27v.23a8.34,8.34,0,0,0,.35,2.34,7.2,7.2,0,0,1,.35,1.67q0,1.14-2.84,2.24a2.19,2.19,0,0,1-.77.17,1.16,1.16,0,0,1-1.15-.87,8.48,8.48,0,0,1-.32-2.71,44.65,44.65,0,0,1,.37-6.86,14.86,14.86,0,0,1,2.27-5.86A1.65,1.65,0,0,1,509.1,279.48Z"/>
            <path id="_Compound_Path_34" data-name="&lt;Compound Path&gt;" class="cls-1"
                  d="M530.41,292.52a7.75,7.75,0,0,0,5.05-2.07,14.07,14.07,0,0,0,1.47-1.42q.57-.65.87-.65.47,0,.47.94a5.31,5.31,0,0,1-.5,2.09,7,7,0,0,1-1.67,2.26,11.06,11.06,0,0,1-7.9,2.71q-4,0-5.42-2.88a6.59,6.59,0,0,1-.5-2.88,11.38,11.38,0,0,1,.74-3.9,11.65,11.65,0,0,1,2-3.5,8.94,8.94,0,0,1,2.83-2.29,7.44,7.44,0,0,1,3.43-.82,4,4,0,0,1,2.81.9,3,3,0,0,1,1,2.34,3.72,3.72,0,0,1-.72,2.36,5.89,5.89,0,0,1-1.86,1.54,17,17,0,0,1-2.53,1.1q-1.39.49-2.73,1.09v.84a1.83,1.83,0,0,0,1,1.71A5,5,0,0,0,530.41,292.52Zm-.57-9.44q-1.74,0-2.41,4,.7-.47,1.32-.84t1.09-.7a2.18,2.18,0,0,0,1-1.67Q530.88,283.09,529.84,283.09Z"/>
            <path id="_Compound_Path_35" data-name="&lt;Compound Path&gt;" class="cls-1"
                  d="M582.91,288.27q.57,0,.57,1.54a4.18,4.18,0,0,1-.7,2,9,9,0,0,1-1.82,2.17,10.3,10.3,0,0,1-2.49,1.62,6.8,6.8,0,0,1-2.89.64,3,3,0,0,1-2.38-1,3.29,3.29,0,0,1-.85-2.21,11.07,11.07,0,0,1,.4-2.76q.4-1.54.87-3.21a29,29,0,0,0,1.3-6.26,2.81,2.81,0,0,0-.2-1.19.77.77,0,0,0-.77-.42,3.13,3.13,0,0,0-2.14,1.2,14.29,14.29,0,0,0-2.14,3.08,18.9,18.9,0,0,0-2.44,8.36l.13.94a7.13,7.13,0,0,1,.07,1,2.55,2.55,0,0,1-1.05,2,3.57,3.57,0,0,1-2.36.89,1.2,1.2,0,0,1-1.14-.75,4.2,4.2,0,0,1-.37-1.86,12.63,12.63,0,0,1,.5-3q.5-1.91,1.1-4a36,36,0,0,0,1.64-8.43,5.64,5.64,0,0,0-.35-2.21,1.34,1.34,0,0,0-1.36-.8q-1.81,0-3.58,2.58a26.2,26.2,0,0,0-3.18,8q-.37,1.41-.57,2.44l0,.64a26.21,26.21,0,0,1,.64,4,2.62,2.62,0,0,1-1.37,2.61l-1.22.57a3,3,0,0,1-1.25.27q-1.67,0-1.67-3.2a83.27,83.27,0,0,1,1.77-12.5q.63-3.35.64-3.75,0-2.71-1.37-2.71a1.46,1.46,0,0,0-.85.27q-.38.27-.77.57t-.79.57a1.62,1.62,0,0,1-.92.27q-.52,0-.52-.9a3.52,3.52,0,0,1,1.71-3,6.54,6.54,0,0,1,4-1.2,3.2,3.2,0,0,1,3.55,2.81q.13.84.2,1.77,2.48-4.65,6.26-4.65,4.12,0,4.72,3.95a12.26,12.26,0,0,1,.17,2.44v.27a6.28,6.28,0,0,1,5.15-3q4.22,0,4.22,5.09a23.34,23.34,0,0,1-.69,5.17q-.69,3-1,4.25a9,9,0,0,0-.32,2q0,1.27.89,1.27t4.23-3.48Q582.64,288.27,582.91,288.27Z"/>
            <path id="_Compound_Path_36" data-name="&lt;Compound Path&gt;" class="cls-1"
                  d="M592.21,282.05q0-2.24,3.48-2.24.87,0,1.09.57a5.19,5.19,0,0,1,.22,1.74,27.26,27.26,0,0,1-.74,5.09,24.42,24.42,0,0,0-.7,4.65q0,.57.37.57a2.1,2.1,0,0,0,1.24-.64q.74-.63,1.47-1.39L600,289q.62-.64.85-.64.47,0,.47,1.14A6.26,6.26,0,0,1,599,294q-3.88,2.28-4.92,2.27a.38.38,0,0,1-.17,0,1.94,1.94,0,0,1-1.79-.84,4.93,4.93,0,0,1-.65-2.11,6.56,6.56,0,0,1-1.84,2.12,4.32,4.32,0,0,1-2.68.89,7,7,0,0,1-4.07-1,3.41,3.41,0,0,1-1.42-3,5,5,0,0,1,.25-1.61,12.86,12.86,0,0,1,.82-1.81l1-8.23a4.78,4.78,0,0,1,3-.8q1.54,0,1.74,2a8.59,8.59,0,0,1-.15,2.93q-.32,1.29-.85,3.25a13.32,13.32,0,0,0-.54,3.46q0,1.2,1.51,1.2t2.84-2.88a18.3,18.3,0,0,0,1.27-4.92q0-.27-.05-.69l0-.82q0-.4,0-.8Z"/>
            <path id="_Compound_Path_37" data-name="&lt;Compound Path&gt;" class="cls-1"
                  d="M607.26,280a5.37,5.37,0,0,1,3.35.84,2.9,2.9,0,0,1,1.1,2.44,4,4,0,0,1-1,2.71,5.21,5.21,0,0,1-2.33,1.59,22.66,22.66,0,0,1,1.76,2,3.55,3.55,0,0,1,.79,2.17,4,4,0,0,1-1.77,3.46,8.61,8.61,0,0,1-4.94,1.22,7.5,7.5,0,0,1-4.73-1.25,3.61,3.61,0,0,1-1.57-2.84,5.5,5.5,0,0,1,.79-2.89q.79-1.3,1.69-1.3a.83.83,0,0,1,.77.38,16.64,16.64,0,0,1,.87,2.23,3.8,3.8,0,0,0,.77,1.27,5,5,0,0,0,3.91,1.37,5.5,5.5,0,0,0-1.29-2.19q-.89-.92-1.76-1.79a12.65,12.65,0,0,1-1.54-1.86,4,4,0,0,1-.67-2.33,4.86,4.86,0,0,1,1.81-3.91A6.3,6.3,0,0,1,607.26,280Zm-.13,6.21a4,4,0,0,0,1.34-2.31,1,1,0,0,0-1.1-1,3.83,3.83,0,0,0-1,.13l-.79.2A4.91,4.91,0,0,0,607.13,286.17Z"/>
            <path id="_Compound_Path_38" data-name="&lt;Compound Path&gt;" class="cls-1"
                  d="M617.07,296.27q-3.35,0-3.35-6.26a21.42,21.42,0,0,1,.84-6.19q1.31-4.28,2.94-4.28,1,0,1.54,1.3a4.29,4.29,0,0,1,.44,2,24.26,24.26,0,0,1-.8,4.72,21.55,21.55,0,0,0-.77,3.65,1.15,1.15,0,0,0,.35,1,1.34,1.34,0,0,0,.84.27,2.1,2.1,0,0,0,1.22-.64q.74-.63,1.47-1.39l1.35-1.39q.62-.64.85-.64.47,0,.47,1.14a6.36,6.36,0,0,1-2.36,4.57A7.12,7.12,0,0,1,617.07,296.27Zm1.37-19.44a5,5,0,0,1-.9-2.88,6,6,0,0,1,.49-2.56,6.49,6.49,0,0,1,.92-1.51,1.31,1.31,0,0,1,1-.48q.94,0,1.71,1.39a5.08,5.08,0,0,1,.77,2.33,3.31,3.31,0,0,1-1.22,2.73A4.28,4.28,0,0,1,618.44,276.83Z"/>
            <path id="_Compound_Path_39" data-name="&lt;Compound Path&gt;" class="cls-1"
                  d="M632.56,288.84q.9,3.58,3,3.58a3,3,0,0,0,1.87-.64A10.54,10.54,0,0,0,639,290.4q.67-.75,1.17-1.39t.94-.64q.43,0,.43,1.14a6.5,6.5,0,0,1-2.21,4.58,6.77,6.77,0,0,1-4.93,2.19q-2.73,0-4.87-4.8-.6-1.34-1.14-2.71l-.23,4.58a11.71,11.71,0,0,1-.07,1.25,1.47,1.47,0,0,1-.57,1,4.23,4.23,0,0,1-2.64,1q-1.57,0-1.57-3.25a46.51,46.51,0,0,1,1.1-9.8,49.63,49.63,0,0,1,2.16-7.71,22.2,22.2,0,0,1,1.64-3.46,3.84,3.84,0,0,1,.92-1.07,1.43,1.43,0,0,1,.75-.2,1.38,1.38,0,0,1,.89.42,6,6,0,0,1,1,1.27,3.28,3.28,0,0,1,.55,1.67,4.43,4.43,0,0,1-.27,1.61,8.17,8.17,0,0,1-.75,1.54q-.47.75-1,1.54t-1.14,1.69l-.33,2.81a6.12,6.12,0,0,1,3.45-3.28,5.32,5.32,0,0,1,1.87-.3,4.76,4.76,0,0,1,3.28,1,3.82,3.82,0,0,1,1.14,3,4,4,0,0,1-2,3.35A6.72,6.72,0,0,1,632.56,288.84Zm1.27-3.91q0-1.2-1.37-1.2t-3,2.64a11.55,11.55,0,0,0-.8,1.57q3.48-.2,4.75-1.87A1.86,1.86,0,0,0,633.83,284.93Z"/>
        </g>
    </g>
</svg>
