<?xml version="1.0" encoding="utf-8"?>
<!-- Generator: Adobe Illustrator 19.0.1, SVG Export Plug-In . SVG Version: 6.00 Build 0)  -->
<!DOCTYPE svg PUBLIC "-//W3C//DTD SVG 1.1//EN" "http://www.w3.org/Graphics/SVG/1.1/DTD/svg11.dtd">
<svg version="1.1" xmlns="http://www.w3.org/2000/svg" xmlns:xlink="http://www.w3.org/1999/xlink" x="0px" y="0px"
	 viewBox="0 0 2000 690" width="2000" height="690" enable-background="new 0 0 2000 690" xml:space="preserve">
<g id="Layer_2">
	<g id="XMLID_387_">
		<g id="XMLID_549_">
			<path id="XMLID_550_" fill="#FFBD37" d="M672.9,139.3c-0.3,0-0.6,0.1-0.9,0.2l-6.8,2.6c-0.5-0.4-1.1-0.7-1.6-1l-31.2-11.3
				c-0.5-0.2-0.9-0.2-1.3-0.2c-1.6,0-2.8,1.2-2.8,3.1v30.8c0,1.9,1.1,3.1,2.7,3.1c0.4,0,0.9-0.1,1.4-0.3l19.9-7.6
				c0.2,0.5,0.4,1.1,0.8,1.7c0.9,1.5,2.9,3.1,5.8,3.1c0,0,0.1,0,0.1,0c0.1,0,0.2,0,0.2,0c0,0.1,0.1,0.2,0.1,0.3l4.4,8.3
				c0.4,0.7,1.3,0.8,1.9,0.2l5.3-4.9c0.6-0.5,0.7-1.5,0.3-2.2l-2-3.9c-0.3-0.8-0.6-2-0.7-2.8l-0.5-3.4c0-0.6,0-1.5,0-2l4.1,1.6
				c0.3,0.1,0.6,0.2,0.9,0.2c1,0,1.8-0.8,1.8-2v-11.4C674.7,140.1,674,139.3,672.9,139.3z M632.6,134.6l29.5,10.7
				c0.1,0.1,0.3,0.2,0.4,0.3c0,0.2,0,0.3,0,0.5v2c0,0.5,0.1,1,0.4,1.5c-0.2,0.3-0.5,0.6-0.8,0.7l-29.5,11.2V134.6z M655.5,158.9
				c-0.3-0.4-0.4-0.8-0.5-1.1l3-1.1l0.5,4C656.8,160.5,656.1,159.7,655.5,158.9z"/>
		</g>
		<g id="XMLID_528_">
			<radialGradient id="XMLID_730_" cx="786.8927" cy="345" r="324.6145" gradientUnits="userSpaceOnUse">
				<stop  offset="0" style="stop-color:#FFD787"/>
				<stop  offset="1" style="stop-color:#FFBD37"/>
			</radialGradient>
			<path id="XMLID_529_" fill-rule="evenodd" clip-rule="evenodd" fill="url(#XMLID_730_)" d="M1136.3,304.2c10.8,2,9.4-14.7,0-9.3
				C1137,300,1134.5,300.6,1136.3,304.2z M1061.8,299.5c-1.6,5-1.9,10-9.2,7c1.5,6-2.9,11.7-6.5,16.4c2.3,8.5,0.4,13.6-2.6,19.9
				c11,2.6,14.1,12.3,19.6,19.9c6.3-2,11.6-0.6,13.1,4.7c12.8,1.6,17.9-7,30.1-2.3c2.9-11.8,15.1-15.3,20.9-24.5
				c-2.9-0.9-5.2-2.3-5.2-5.8c0.8-3.2,5.5-2.9,5.2-7c-6.2-1.6-7.8-7.7-5.2-14c-9.1-3.6-15.2-9.8-19.6-17.5
				c-6.2,6.1-15.5-0.5-19.6-3.5C1074.1,294.8,1072.2,300.5,1061.8,299.5z M1099.7,498.1c-3.7,10.9,4.9,20.5,17,21
				c2.1-9.4-4.1-20.1-14.4-22.2C1102,497.8,1101.2,498.3,1099.7,498.1z M1048.7,603.2c4.8,0.3,5,1.6,9.2,0c0-6.5,7-9.8,9.2-16.4
				c2.1-6.3-1.2-14.3,5.2-18.7c-5-2.1-6.3-7.1-3.9-12.8c-10.9-1.6-10.1-13.5-23.5-12.9c0.1-2-0.3-3.6-1.3-4.7
				c-4-0.9-2.5,3.2-6.5,2.3c-3.6-1-3.1-5.8-7.9-5.8c-2.7,6.9-12.8,7.2-20.9,9.3c-3,7-11.8,9-14.4,16.4c-3.9-9.4-9.5-17.2-23.5-17.5
				c-14.1,25.3,33.7,26.8,26.2,53.7c13.7,5.3,25.8,18.2,43.2,10.5c3.2,1.5,3,5.9,7.9,5.8C1048.2,609.8,1045.7,604.1,1048.7,603.2z
				 M906.1,169.8c1.7-6.7,4.7-12.1,6.5-18.7C904.6,151.4,904.9,165.2,906.1,169.8z M798.8,620.7c-4.7,3.2-2.7,12.8,3.9,12.9
				C809.5,630.9,806.3,620.6,798.8,620.7z M577.7,220.1c0.8-5-4.3-4.8-3.9-9.3c2.1-5.5,9.9-5.9,15.7-8.2c1-4.8-4.2-4-2.6-9.4
				c1.8-3.5,5.9-4.8,9.2-7c-2.4-10.7,4.5-13.1,7.8-18.7c-2.1-2-6-2.4-6.5-5.8c5.2-11.2-11.2-12.5-5.2-24.5
				c-14.9-3.9-23.4-14.2-22.2-29.2c-7.9-0.4-6,7.9-11.8,9.3c-11.4,2-14.2-3.7-22.2-4.7c-7.3,3.9-18.1,6.8-31.4,8.2
				c0.2,6-5.1,7.1-9.2,9.3c0.9,6.2-0.8,10.2-5.2,11.7c-7.1,1.3-8.7-2.4-14.4-2.3c3,5.5,7.3,9.9,7.8,17.5c-4.2,5.2-10.5,8.6-7.8,19.9
				c4.1,0.6,6.5,2.8,7.8,5.8c-1.7,3.6-7.8,3.1-7.8,8.2c2.6,3.9,14.8-1.9,15.7,5.8c0.3,4.9-6.4,3.6-5.2,9.3c6,1.3,8.4,1.3,14.4,0
				c5.3,7.7-6.5,9.4-3.9,14c5.6,0,4.8-5.8,10.5-5.8c8.1,5.3,23.5-1.7,30.1,5.8c2.9,5.2-4,22,2.6,29.2
				C532.6,225.8,555.8,207.2,577.7,220.1z M580.3,485.2c-9.5,5.8-3,15.1-5.2,28C583.6,510,582.3,494.3,580.3,485.2z M528,249.3
				c-1.7,8.2-2.9,16.9-3.9,25.7C530.2,271.4,530,256.1,528,249.3z M491.4,72.9c9.8-4.5,2.1-15.4-5.2-16.4c-9.2-1.2-11.6,8-19.6,8.2
				c-5.6,15.4,15.5,14.2,23.5,21c1.9-0.6,3.3-1.7,5.2-2.3C496.2,77.9,493.4,75.7,491.4,72.9z M471.7,477.1
				c-7.4,0.3-8.1,11.8-7.9,15.2C469.9,490.2,470.2,483.1,471.7,477.1z M429.9,437.3c11.3-2.4,21.2-6,28.8-11.7
				C447.2,427.9,437.8,431.9,429.9,437.3z M950.6,554.2h5.2c2.4-6.5,1.4-5.5-2.6-11.7c3.7-4.4,0.9-7.5,3.9-11.7
				c-5.6-2-9.8-5.3-7.9-14c-10.8-4.1-18.8-15.2-32.7-15.2c-7.3,0-14.6,6.8-20.9,2.3c22.8-19.3-1.3-65.1,6.5-88.8
				c10.2,3,18.7,7.5,28.8,10.5c1.3,4.3,7,9.5,13.1,5.8c-6-15.7-30-15.3-35.3-31.5c7.9-6.3,10.2-13.4,18.3-21
				c19.2-0.8,28.6-9,40.6-15.2c4.9-2.5,11.9-1.6,11.8-8.2c-1.9-0.7-3.2-1.8-3.9-3.5c-7.6-0.9-9.4,3.2-17,2.3
				c-7.3-12,2-32.3,9.2-45.6c-8.1-1.4-10.1,2.6-17,2.3c-6.9-12.2,3.1-19.9-2.6-31.5c4.6-6.4,13.6-8.9,15.7-17.5
				c7.4-7.8,22.3-8.9,27.5-18.7c-8.9-0.3-9.9,3.6-15.7,7c-6.6,3.9-17.9,7.6-23.6,11.7c-7.3,5.3-9.8,12.1-17,11.7
				c-9.9-0.6-10.4-10.9-15.7-18.7c-36.2-7.3-25.1-44.2-15.7-70.1c-8.8,15.1-12.4,34.9-23.5,47.9c-7.8-8.7-16.1-16.8-27.5-22.2
				c0.6-6.9,6.9-8.6,5.2-17.5c-7.2-1-5.1,6.3-9.2,8.2c-4.7-18.1,13-25.5,9.2-45.6c1.9-0.3,2.2-1.9,3.9-2.3c4.8-0.8,5,2.5,9.1,2.3
				c4.3-5.2,10.6-9.2,18.3-8.2c4.3-8.3,9.9-15.3,22.2-16.4c1.2-5.7-6.9-3.2-5.2-9.3c10.9-3.1,3.6-8.9,7.9-17.5
				c-2-1.4-5.4-1.5-6.5-3.5c3.2-12.6-7.6-12.7-10.5-19.9c3.3-7.9,10.5-11.7,6.5-21c-7,0.3-2.5,11-7.8,12.8
				c-12.2-4.3-25.8-7.3-36.6-12.8c-3.4,4.8-11.1,7.7-19.6,4.7c-7.5,7.2-16.2,14.6-24.9,17.5c-0.9,4.3,2.8,4.5,2.6,8.2
				c-2.9,3.7-5.8,7.3-11.8,8.2c6.9,11.4,6.2,24,9.2,36.2c1.7,1.9,7.4,0.4,9.2,2.3c0.3,3.6,1.3,6.6,2.6,9.3c1.7,3,6.4-1.1,6.5,1.2
				c-2.4,16,0.2,41.2-11.8,53.7c-14.1,3.7-28,6.3-41.9,0c-1.6-2,1-7.8,0-12.9c1-3,6.5-2,6.5-5.8c-4.2-20.4-15.4-34.5-35.3-40.9
				c-6.9,1.2-14,2.3-22.2,2.3c-12.9,5.6-18.2,18-28.8,25.7c5.3,2.4,4.5,11.2,1.3,15.2c7.5,13.1,15.3,26,32.7,30.4
				c0,17.5-19,18.1-26.2,29.2c-19.5-3.2-36.7-8.5-55-12.9c7.7,8.6,23.7,11.8,41.9,14c1.5,4.9,4.8,8.2,6.5,12.9
				c-3.2,2.9-4.2,7.9-10.5,8.2c-4.9,0.1-4.8-4.3-9.2-4.7c1.7,13.6,3.1,35.4-20.9,33.9c-2.3,6.7,5.5,4.4,5.2,9.3
				c-9.1,11.1-46.3,13.5-58.9,7c9.8-7,25.2-6.1,23.5-19.9c-1.6-13.7-23.7-16.3-36.6-7c-4.4,11.9-13,22.6,2.6,29.2
				c-12.2,12.4-41.8,4.6-49.7-7c-1.2-4.8-2.5-9.5-7.8-10.5c-0.3,0.9-1.1,1.4-2.6,1.2c-2.7,4.2-0.7,12.6-1.3,18.7
				c-6.5,3.2-11.4,7.8-20.9,8.2c-4.2-3.3-7.9-13.2-14.4-10.5c6.7,3.1,8.6,15.8,3.9,22.2c-4.7,0.5-8.8,1.5-13.1,2.3
				c-3.5,8.4-12,15.1-9.2,25.7c-4,3-13.1,1.6-15.7,5.8c-0.6,6.8,8.7,4.7,7.9,11.7c-3.9,2.7-15.3-1.2-14.4,5.8
				c1.7,4.7,11,2.6,14.4,5.8c2.9,9.8-0.2,15.5,0,24.5c-2,1.4-5.4,1.4-6.5,3.5c2.3,0.7,5.4-3.4,6.5,0c-0.2,4.9-5.5,5.2-3.9,11.7
				c5.6-0.1,9.6-2.3,14.4,0c1.5,22.4,25.7,24.6,39.2,36.2c2.9,14.3-6.4,23.8-5.2,32.7c2.8-4.1,2.8-10.8,7.9-12.9
				c3.5,2.5,4.9,8.5,10.5,5.8c0.5-7.4-4.8-9.7-7.8-14c2.8-3.7,1.4-11.2,6.5-12.8c9.8-1.3,12.2,3.9,17,7c6.4-0.9,9.4-4.9,17-4.7
				c5.2,0.8,2.7,8.5,9.2,8.2c5.3-0.3,2.8-7.6,5.2-10.5c9.6-1.5,10.6,0.6,19.6,1.2c2.5-7.9,6-14.9,18.3-14c1.5-9.2,4.3-17.2,17-16.4
				c3.3-2.1,2.8-7.7,6.5-9.3c0.4,1.3,5.7,4,6.5,1.2c-7.9-2.6-2.1-16.1,1.3-19.9c-1-4.6-7.1-4.5-6.5-10.5c2.5-0.5,3.3-2.5,6.5-2.3
				c6.2,8.1,3.5,24.1,9.2,32.7c14-0.1,27.9-6,41.9,1.2c0,1.2,1.1,1.4,1.3,2.3c-2.2,1.9-3.3,4.9-2.6,9.3
				c-16.3,10.2-16.6,28.1-27.5,42.1c15.2-7.5,14.3-39.4,47.1-35c2-7.6-11.8-6-7.8-11.7c10.6,2.6,12.6,12.9,20.9,17.5
				c9.2,28.2-19.7,46.6-9.2,73.6c36.1,7.9,28.7-50.4,54.9-52.6c16.3-1.3,11.3,11.8,15.7,21c10.4-2.8,2.3-16.7,9.2-21
				c11.5-0.5,11.2,9.4,15.7,15.2c12.8-1.9,13.7,7.2,22.2,11.7c6.9-2.8,4.8-13.6,13.1-15.2c10.4,6.4,32.5,15.5,20.9,30.4
				c6,6.7-0.2,11.3-5.2,16.4c5.8,4.2,2.8,8.8,1.3,15.2c11.3,7.8,19.9,26.6,39.3,19.9c5.2,0.4,5.9,4.8,11.8,4.7
				C931.8,567.8,947.7,566.8,950.6,554.2z M651,369.6c1.3,3.6,0.4,10.9-6.5,10.5C641.3,375.8,646,370.3,651,369.6z M713.8,446.7
				c-2.2,5.5-10.5,5.4-15.7,8.2C699.7,449.1,707,440.6,713.8,446.7z M644.4,292.5c-6.2-8.9-15.7-21-23.6-24.5
				C628.3,276.5,633.9,286.7,644.4,292.5z M538.5,251.6c2.4,2.4-2.8,17.3,3.9,19.9C542.4,264.4,543.1,250.6,538.5,251.6z"/>
		</g>
		<g id="XMLID_523_">
			<g id="XMLID_524_">
				<path id="XMLID_525_" fill="#FFBD37" d="M1386.9,550.1c0.9,0,1.8,0,2.8,0.1c6.1,0.6,13.1,6.2,14,16.8v3.5
					c-0.8,10.2-8.5,22.8-31,38.6c-22.5-15.8-30.2-28.4-31-38.6v-3.5c0.9-10.7,7.9-16.2,13.9-16.8c1-0.1,1.9-0.1,2.8-0.1
					c7,0,10.4,3,14.2,7.6C1376.5,553.1,1379.9,550.1,1386.9,550.1 M1386.9,556.9c-4,0-5.7,1.2-9,5.2l-5.2,6.2l-5.2-6.2
					c-3.3-4-5-5.2-9-5.2c-0.7,0-1.4,0-2.1,0.1c-2.8,0.3-7.2,3.3-7.8,10.4v3c0.8,8.9,9,19.1,24.2,30.5c15.3-11.3,23.4-21.6,24.2-30.5
					v-3c-0.7-7.1-5-10.1-7.8-10.4C1388.3,556.9,1387.6,556.9,1386.9,556.9L1386.9,556.9z"/>
			</g>
		</g>
		<g id="XMLID_521_">
			<path id="XMLID_522_" fill="#FFBD37" d="M306.6,247.9L306.6,247.9l0-32.3l0-0.1l0,0v0l0,0l-31.4,4.2l0,0v25.5
				c-1.2-0.4-2.6-0.6-4.1-0.4c-4.6,0.4-8.1,3.7-7.7,7.3c0.4,3.6,4.4,6.2,9,5.7c4.6-0.4,8.1-3.7,7.7-7.3c0-0.1,0-0.1,0-0.2h0v-22.1
				l21.7-3.2v17.7c-1.2-0.4-2.6-0.6-4.1-0.4c-4.6,0.4-8.1,3.7-7.7,7.3c0.4,3.6,4.4,6.2,9,5.7c4.6-0.4,8.1-3.7,7.7-7.3
				C306.7,248,306.7,248,306.6,247.9z"/>
		</g>
		<g id="XMLID_519_">
			<path id="XMLID_520_" fill="#FFBD37" d="M1394.3,112L1394.3,112l0-32.3l0-0.1l0,0v0l0,0l-31.4,4.2l0,0v25.5
				c-1.2-0.4-2.6-0.6-4.1-0.4c-4.6,0.4-8.1,3.7-7.7,7.3c0.4,3.6,4.4,6.2,9,5.7c4.6-0.4,8.1-3.7,7.7-7.3c0-0.1,0-0.1,0-0.2h0V92.3
				l21.7-3.2v17.7c-1.2-0.4-2.6-0.6-4.1-0.4c-4.6,0.4-8.1,3.7-7.7,7.3c0.4,3.6,4.4,6.2,9,5.7c4.6-0.4,8.1-3.7,7.7-7.3
				C1394.3,112.1,1394.3,112.1,1394.3,112z"/>
		</g>
		<g id="XMLID_517_">
			<path id="XMLID_518_" fill="#FFBD37" d="M1114.6,150.1c-0.7,2.6-2.3,2.4-4.3,1.6c-5.6-2.1-9.2-7.3-8.9-13.7
				c0.1-2.8,0.5-5.8,1.4-8.4c3.6-9.9-6.2-29.3-17.6-33.1c-0.7-0.2-1.5-0.4-2.8-0.7c2.4,8.6,4.7,16.8,7,24.9
				c3.6,12.7,7.3,25.3,10.7,38c2,7.5-0.2,14.1-5.8,18c-6.3,4.5-15.3,5-21.1,1.2c-6.1-4-7-11.5-2.1-17.3c5.5-6.7,14.6-8.5,24.9-4.4
				c-1.3-4.4-2.5-8.4-3.7-12.3c-4.7-15.7-9.5-31.4-14.1-47.2c-1.9-6.4,1.4-9.7,7.7-7.6c8.5,3,16.5,7.1,22.9,13.6
				c5.8,5.9,7.1,12.9,4.8,20.7c-1,3.5-2.4,6.9-3.6,10.4C1106.6,143.5,1106.9,144.6,1114.6,150.1z"/>
		</g>
		<g id="XMLID_515_">
			<path id="XMLID_516_" fill="#FFBD37" d="M1219.6,622L1219.6,622l-8.9-39.5l0-0.1l0,0l0,0l0,0l-37.3,13.8l0,0l7.1,31.2
				c-1.6-0.1-3.4,0-5.1,0.6c-5.5,1.8-8.8,6.8-7.4,11.1c1.4,4.3,7.1,6.3,12.6,4.5c5.5-1.8,8.8-6.8,7.4-11.1c0-0.1-0.1-0.1-0.1-0.2
				l0,0l-6.1-27.1l25.6-9.9l4.9,21.7c-1.6-0.1-3.4,0-5.1,0.6c-5.5,1.8-8.8,6.8-7.4,11.1c1.4,4.3,7.1,6.3,12.6,4.5
				c5.5-1.8,8.8-6.8,7.4-11.1C1219.7,622.1,1219.6,622.1,1219.6,622z"/>
		</g>
		<g id="XMLID_513_">
			<path id="XMLID_514_" fill="#FFBD37" d="M1833.3,519.7c-0.7,2.9-2.6,2.7-4.9,1.8c-6.3-2.4-10.3-8.2-10.1-15.4
				c0.1-3.2,0.5-6.5,1.6-9.4c4.1-11.2-6.9-33-19.8-37.2c-0.8-0.3-1.7-0.4-3.2-0.8c2.7,9.7,5.3,18.9,7.8,28.1
				c4,14.2,8.2,28.4,12,42.7c2.3,8.4-0.2,15.8-6.5,20.3c-7.1,5-17.3,5.7-23.8,1.4c-6.8-4.5-7.8-12.9-2.4-19.5
				c6.2-7.5,16.4-9.5,28-4.9c-1.5-5-2.8-9.4-4.1-13.9c-5.3-17.7-10.7-35.3-15.9-53c-2.1-7.2,1.6-11,8.6-8.5
				c9.6,3.3,18.5,7.9,25.8,15.3c6.5,6.6,8,14.5,5.4,23.3c-1.2,3.9-2.7,7.8-4,11.7C1824.3,512.3,1824.7,513.5,1833.3,519.7z"/>
		</g>
		<g id="XMLID_511_">
			<path id="XMLID_512_" fill="#FFBD37" d="M626.8,575.6c-2.8,7.4-5.5,14.9-8.3,22.3c-0.2,0-0.3,0-0.5,0c-0.9-3-1.8-5.9-2.6-8.9
				c-0.1,0-0.3-0.1-0.4-0.1c-2.9,11.8-5.8,23.5-8.7,35.3c-0.2,0-0.3,0-0.5,0c-0.6-19-1.2-38.1-1.8-57.1c-0.1,0-0.3-0.1-0.4-0.1
				c-0.4,1.1-0.8,2.2-1.1,3.4c-2.3,7.5-4.5,15-6.9,22.5c-0.2,0.7-1.2,1.7-1.8,1.7c-10.5,0.1-21,0.1-31.4,0c-0.1,0-0.3-0.1-0.6-0.2
				c0-0.8,0-1.7,0-2.8c5.2,0,10.3,0,15.4,0c4.2,0,8.4-0.1,12.7,0c1.8,0.1,2.6-0.5,3.1-2.3c4.3-14.4,8.7-28.8,13.1-43.3
				c0.2-0.6,0.4-1.3,1-1.9c0.6,17.6,1.1,35.3,1.7,52.9c0.1,0,0.3,0,0.4,0.1c1.9-7.6,3.7-15.1,5.7-23.3c1.3,4.5,2.4,8.3,3.6,12.2
				c0.2,0,0.3,0.1,0.5,0.1c3.3-8.8,6.6-17.7,9.9-26.5c0.1,0,0.3,0,0.4,0c1.2,11.2,2.4,22.4,3.6,33.6c0.1,0,0.3,0.1,0.4,0.1
				c2.6-6.1,5.2-12.1,7.9-18.6c2.6,6.2,5.1,12.1,7.8,18.4c3.5-4.6,6.8-9,10.4-13.8c1.2,3.3,2.4,6.1,3.2,9.1c0.7,2.4,1.7,3.4,4.4,3.2
				c4.3-0.3,8.6-0.1,13-0.1c0,1,0,1.9,0,3c-5.2,0-10.3,0-15.4,0c-3.7,0-3.7,0-4.9-3.5c-0.5-1.3-0.9-2.6-1.5-4.3
				c-3.4,4.6-6.7,8.9-10.2,13.6c-2.3-5.5-4.5-10.7-6.8-16.3c-3.5,8.2-6.8,16-10.1,23.8c-0.2,0-0.3,0-0.5,0
				c-1.1-10.8-2.3-21.6-3.4-32.4C627.1,575.6,626.9,575.6,626.8,575.6z"/>
		</g>
		<path id="XMLID_492_" fill-rule="evenodd" clip-rule="evenodd" fill="#FFBD37" d="M360.6,482.3c3.8,0.7,3.3-5.2,0-3.3
			C360.8,480.8,360,481,360.6,482.3z M411.9,566.5c-1.3,4-1.5,8-7.4,5.6c1.2,4.8-2.3,9.5-5.3,13.2c1.8,6.8,0.4,10.9-2.1,16
			c8.9,2.1,11.3,9.9,15.8,16c5.1-1.6,9.4-0.5,10.5,3.8c10.3,1.3,14.4-5.6,24.2-1.9c2.4-9.5,12.2-12.4,16.9-19.8
			c-2.3-0.7-4.2-1.9-4.2-4.7c0.7-2.6,4.4-2.3,4.2-5.6c-5-1.3-6.3-6.2-4.2-11.3c-7.3-2.9-12.3-7.9-15.8-14.1
			c-5,4.9-12.5-0.4-15.8-2.8C421.8,562.7,420.3,567.3,411.9,566.5z M347.7,550.7c-1.3,3.8,1.7,7.2,6,7.4c0.8-3.3-1.4-7.1-5.1-7.8
			C348.5,550.6,348.2,550.7,347.7,550.7z M329.7,587.7c1.7,0.1,1.8,0.6,3.2,0c0-2.3,2.5-3.5,3.2-5.8c0.7-2.2-0.4-5,1.8-6.6
			c-1.8-0.7-2.2-2.5-1.4-4.5c-3.8-0.6-3.6-4.8-8.3-4.5c0-0.7-0.1-1.3-0.5-1.6c-1.4-0.3-0.9,1.1-2.3,0.8c-1.3-0.4-1.1-2-2.8-2.1
			c-0.9,2.4-4.5,2.6-7.4,3.3c-1.1,2.5-4.1,3.2-5.1,5.8c-1.4-3.3-3.4-6.1-8.3-6.2c-5,8.9,11.9,9.5,9.2,18.9c4.8,1.9,9.1,6.4,15.2,3.7
			c1.1,0.5,1.1,2.1,2.8,2.1C329.5,590.1,328.7,588,329.7,587.7z M279.4,434.9c0.6-2.3,1.7-4.3,2.3-6.6
			C278.9,428.4,279,433.3,279.4,434.9z M241.6,593.9c-1.6,1.1-0.9,4.5,1.4,4.5C245.4,597.5,244.2,593.9,241.6,593.9z M182,465.2
			c0.3-1.8-1.5-1.7-1.4-3.3c0.8-1.9,3.5-2.1,5.5-2.9c0.3-1.7-1.5-1.4-0.9-3.3c0.6-1.2,2.1-1.7,3.2-2.5c-0.8-3.8,1.6-4.6,2.8-6.6
			c-0.7-0.7-2.1-0.9-2.3-2.1c1.8-3.9-4-4.4-1.8-8.7c-5.3-1.4-8.2-5-7.8-10.3c-2.8-0.1-2.1,2.8-4.2,3.3c-4,0.7-5-1.3-7.8-1.6
			c-2.6,1.4-6.4,2.4-11.1,2.9c0.1,2.1-1.8,2.5-3.2,3.3c0.3,2.2-0.3,3.6-1.8,4.1c-2.5,0.5-3.1-0.8-5.1-0.8c1,1.9,2.6,3.5,2.8,6.2
			c-1.5,1.8-3.7,3-2.8,7c1.4,0.2,2.3,1,2.8,2.1c-0.6,1.3-2.8,1.1-2.8,2.9c0.9,1.4,5.2-0.7,5.5,2.1c0.1,1.7-2.3,1.3-1.8,3.3
			c2.1,0.5,3,0.5,5.1,0c1.9,2.7-2.3,3.3-1.4,4.9c2,0,1.7-2.1,3.7-2.1c2.8,1.9,8.3-0.6,10.6,2.1c1,1.8-1.4,7.8,0.9,10.3
			C166.1,467.2,174.3,460.6,182,465.2z M164.6,546.1c-3.3,2.1-1,5.3-1.8,9.9C165.7,554.9,165.3,549.3,164.6,546.1z M146.1,462.9
			c-0.6,2.9-1,5.9-1.4,9.1C146.9,470.8,146.8,465.4,146.1,462.9z M133.2,400.7c3.5-1.6,0.7-5.4-1.8-5.8c-3.2-0.4-4.1,2.8-6.9,2.9
			c-2,5.4,5.5,5,8.3,7.4c0.7-0.2,1.2-0.6,1.8-0.8C134.9,402.5,133.9,401.7,133.2,400.7z M126.3,543.3c-2.6,0.1-2.9,4.2-2.8,5.4
			C125.6,547.9,125.7,545.4,126.3,543.3z M111.5,529.2c4-0.8,7.5-2.1,10.1-4.1C117.6,525.9,114.3,527.3,111.5,529.2z M295.1,570.4
			h1.8c0.8-2.3,0.5-1.9-0.9-4.1c1.3-1.5,0.3-2.6,1.4-4.1c-2-0.7-3.4-1.9-2.8-4.9c-3.8-1.4-6.6-5.4-11.5-5.4c-2.6,0-5.1,2.4-7.4,0.8
			c8-6.8-0.4-23,2.3-31.3c3.6,1.1,6.6,2.6,10.1,3.7c0.5,1.5,2.5,3.4,4.6,2.1c-2.1-5.5-10.6-5.4-12.5-11.1c2.8-2.2,3.6-4.7,6.5-7.4
			c6.8-0.3,10.1-3.2,14.3-5.4c1.7-0.9,4.2-0.6,4.2-2.9c-0.7-0.2-1.1-0.6-1.4-1.2c-2.7-0.3-3.3,1.1-6,0.8c-2.6-4.2,0.7-11.4,3.2-16.1
			c-2.9-0.5-3.6,0.9-6,0.8c-2.4-4.3,1.1-7-0.9-11.1c1.6-2.3,4.8-3.1,5.5-6.2c2.6-2.7,7.9-3.1,9.7-6.6c-3.2-0.1-3.5,1.3-5.5,2.5
			c-2.3,1.4-6.3,2.7-8.3,4.1c-2.6,1.9-3.5,4.3-6,4.1c-3.5-0.2-3.7-3.8-5.5-6.6c-12.8-2.6-8.8-15.6-5.5-24.7
			c-3.1,5.3-4.4,12.3-8.3,16.9c-2.7-3.1-5.7-5.9-9.7-7.8c0.2-2.4,2.4-3,1.8-6.2c-2.6-0.4-1.8,2.2-3.2,2.9c-1.6-6.4,4.6-9,3.2-16.1
			c0.7-0.1,0.8-0.7,1.4-0.8c1.7-0.3,1.8,0.9,3.2,0.8c1.5-1.8,3.7-3.2,6.5-2.9c1.5-2.9,3.5-5.4,7.8-5.8c0.4-2-2.4-1.1-1.8-3.3
			c3.8-1.1,1.3-3.1,2.8-6.2c-0.7-0.5-1.9-0.5-2.3-1.2c1.1-4.4-2.7-4.5-3.7-7c1.2-2.8,3.7-4.1,2.3-7.4c-2.5,0.1-0.9,3.9-2.8,4.5
			c-4.3-1.5-9.1-2.6-12.9-4.5c-1.2,1.7-3.9,2.7-6.9,1.6c-2.6,2.6-5.7,5.1-8.8,6.2c-0.3,1.5,1,1.6,0.9,2.9c-1,1.3-2.1,2.6-4.2,2.9
			c2.4,4,2.2,8.5,3.2,12.8c0.6,0.7,2.6,0.1,3.2,0.8c0.1,1.3,0.5,2.3,0.9,3.3c0.6,1.1,2.3-0.4,2.3,0.4c-0.9,5.6,0.1,14.5-4.2,18.9
			c-5,1.3-9.9,2.2-14.8,0c-0.6-0.7,0.4-2.7,0-4.5c0.4-1.1,2.3-0.7,2.3-2.1c-1.5-7.2-5.4-12.2-12.5-14.4c-2.4,0.4-4.9,0.8-7.8,0.8
			c-4.6,2-6.4,6.4-10.1,9.1c1.9,0.8,1.6,3.9,0.5,5.4c2.7,4.6,5.4,9.2,11.5,10.7c0,6.2-6.7,6.4-9.2,10.3c-6.9-1.1-12.9-3-19.4-4.5
			c2.7,3,8.4,4.2,14.8,4.9c0.5,1.7,1.7,2.9,2.3,4.5c-1.1,1-1.5,2.8-3.7,2.9c-1.7,0-1.7-1.5-3.2-1.6c0.6,4.8,1.1,12.5-7.4,11.9
			c-0.8,2.4,2,1.6,1.8,3.3c-3.2,3.9-16.3,4.8-20.8,2.5c3.4-2.5,8.9-2.1,8.3-7c-0.6-4.8-8.4-5.7-12.9-2.5c-1.6,4.2-4.6,8,0.9,10.3
			c-4.3,4.4-14.7,1.6-17.5-2.5c-0.4-1.7-0.9-3.3-2.8-3.7c-0.1,0.3-0.4,0.5-0.9,0.4c-1,1.5-0.2,4.5-0.5,6.6c-2.3,1.1-4,2.7-7.4,2.9
			c-1.5-1.1-2.8-4.6-5.1-3.7c2.4,1.1,3,5.6,1.4,7.8c-1.7,0.2-3.1,0.5-4.6,0.8c-1.2,3-4.2,5.3-3.2,9.1c-1.4,1.1-4.6,0.6-5.5,2.1
			c-0.2,2.4,3.1,1.7,2.8,4.1c-1.4,1-5.4-0.4-5.1,2.1c0.6,1.7,3.9,0.9,5.1,2.1c1,3.4-0.1,5.4,0,8.6c-0.7,0.5-1.9,0.5-2.3,1.2
			c0.8,0.2,1.9-1.2,2.3,0c-0.1,1.7-1.9,1.8-1.4,4.1c2,0,3.4-0.8,5.1,0c0.5,7.9,9,8.7,13.8,12.8c1,5-2.3,8.4-1.8,11.5
			c1-1.5,1-3.8,2.8-4.5c1.2,0.9,1.7,3,3.7,2.1c0.2-2.6-1.7-3.4-2.8-4.9c1-1.3,0.5-3.9,2.3-4.5c3.5-0.5,4.3,1.4,6,2.5
			c2.3-0.3,3.3-1.7,6-1.6c1.8,0.3,0.9,3,3.2,2.9c1.9-0.1,1-2.7,1.8-3.7c3.4-0.5,3.7,0.2,6.9,0.4c0.9-2.8,2.1-5.3,6.5-4.9
			c0.5-3.2,1.5-6.1,6-5.8c1.2-0.7,1-2.7,2.3-3.3c0.1,0.5,2,1.4,2.3,0.4c-2.8-0.9-0.7-5.7,0.5-7c-0.3-1.6-2.5-1.6-2.3-3.7
			c0.9-0.2,1.2-0.9,2.3-0.8c2.2,2.9,1.2,8.5,3.2,11.5c4.9,0,9.8-2.1,14.8,0.4c0,0.4,0.4,0.5,0.5,0.8c-0.8,0.7-1.1,1.7-0.9,3.3
			c-5.7,3.6-5.9,9.9-9.7,14.8c5.4-2.6,5.1-13.9,16.6-12.4c0.7-2.7-4.2-2.1-2.8-4.1c3.7,0.9,4.5,4.5,7.4,6.2c3.2,10-6.9,16.4-3.2,26
			c12.7,2.8,10.1-17.8,19.4-18.5c5.7-0.5,4,4.1,5.5,7.4c3.7-1,0.8-5.9,3.2-7.4c4.1-0.2,4,3.3,5.5,5.4c4.5-0.7,4.8,2.6,7.8,4.1
			c2.4-1,1.7-4.8,4.6-5.4c3.7,2.2,11.5,5.5,7.4,10.7c2.1,2.4-0.1,4-1.8,5.8c2.1,1.5,1,3.1,0.5,5.4c4,2.7,7,9.4,13.8,7
			c1.8,0.1,2.1,1.7,4.2,1.6C288.5,575.3,294.1,574.9,295.1,570.4z M189.5,505.4c0.4,1.3,0.2,3.8-2.3,3.7
			C186,507.6,187.7,505.6,189.5,505.4z M211.6,532.5c-0.8,1.9-3.7,1.9-5.5,2.9C206.6,533.4,209.2,530.4,211.6,532.5z M187.2,478.2
			c-2.2-3.1-5.5-7.4-8.3-8.7C181.5,472.5,183.4,476.1,187.2,478.2z M149.8,463.8c0.8,0.9-1,6.1,1.4,7
			C151.2,468.3,151.4,463.4,149.8,463.8z"/>
		<g id="XMLID_441_">
			<g id="XMLID_444_">
				<path id="XMLID_445_" fill="#FFBD37" d="M386.2,416.2c-3.6-6.9-12.2-9.5-19.1-5.9c-6.9,3.6-9.5,12.2-5.9,19.1
					c3.6,6.9,12.2,9.5,19.1,5.9C387.2,431.6,389.8,423.1,386.2,416.2z M379.2,433.2c-0.5,0.3-1,0.5-1.6,0.7l-1.3-2.4l3-1.6l1.3,2.4
					C380.2,432.7,379.7,433,379.2,433.2z M366.2,413.6l1.3,2.4l-2.6,1.4l-0.8-1.5C364.7,415,365.3,414.3,366.2,413.6z M368.2,412.2
					c0.5-0.3,1-0.5,1.5-0.7l1.3,2.5l-3,1.6l-1.3-2.5C367.2,412.8,367.7,412.5,368.2,412.2z M370.4,411.3c1-0.3,2-0.4,3-0.5l0.8,1.5
					l-2.6,1.4L370.4,411.3z M366.5,420.6l2.6-1.4l1.4,2.6l-2.6,1.4L366.5,420.6z M367.3,423.5l-1.9,1l-1.4-2.6l1.9-1L367.3,423.5z
					 M369.8,418.9l3-1.6l1.4,2.6l-3,1.6L369.8,418.9z M373.4,417l2.6-1.4l1.4,2.6l-2.6,1.4L373.4,417z M376.6,415.3l1.9-1l1.4,2.6
					l-1.9,1L376.6,415.3z M364.6,418.4l1,1.9l-1.9,1l-1-1.9L364.6,418.4z M365.2,418l2.6-1.4l1,1.9l-2.6,1.4L365.2,418z
					 M368.4,416.3l3-1.6l1,1.9l-3,1.6L368.4,416.3z M372,414.4l2.6-1.4l1,1.9l-2.6,1.4L372,414.4z M375.3,412.7l1.9-1l1,1.9l-1.9,1
					L375.3,412.7z M378,411.7c0.7,0.3,1.4,0.6,2,1l-1.2,0.6L378,411.7z M363,421.6l-1.1,0.6c0-0.7,0.1-1.4,0.3-2.2L363,421.6z
					 M363.3,422.3l1.4,2.6l-2.3,1.2c-0.3-1-0.5-2-0.5-3L363.3,422.3z M379.2,413.9l1.5-0.8c0.8,0.6,1.6,1.3,2.2,2.1l-2.4,1.3
					L379.2,413.9z M371.4,422.1l3-1.6l1.6,3l-3,1.6L371.4,422.1z M372.4,425.4l-2.6,1.4l-1.6-3l2.6-1.4L372.4,425.4z M375.1,420.2
					l2.6-1.4l1.6,3l-2.6,1.4L375.1,420.2z M378.3,418.5l1.9-1l1.6,3l-1.9,1L378.3,418.5z M367.6,424.1l1.6,3l-1.9,1l-1.6-3
					L367.6,424.1z M379.1,429.3l-3,1.6l-1-1.9l3-1.6L379.1,429.3z M378.7,427l2.6-1.4l1,1.9l-2.6,1.4L378.7,427z M375.4,431.2
					l-2.6,1.4l-1-1.9l2.6-1.4L375.4,431.2z M372.2,432.9l-1.9,1l-1-1.9l1.9-1L372.2,432.9z M382.9,427.3l-1-1.9l1.9-1l1,1.9
					L382.9,427.3z M384.5,424l1.1-0.6c0,0.7-0.1,1.4-0.3,2L384.5,424z M370.2,427.4l2.6-1.4l1.4,2.6l-2.6,1.4L370.2,427.4z
					 M370.9,430.3l-1.9,1l-1.4-2.6l1.9-1L370.9,430.3z M373.4,425.7l3-1.6l1.4,2.6l-3,1.6L373.4,425.7z M377,423.8l2.6-1.4l1.4,2.6
					l-2.6,1.4L377,423.8z M380.2,422.1l1.9-1l1.4,2.6l-1.9,1L380.2,422.1z M382.8,420.8l2.4-1.2c0.3,1,0.4,2,0.4,3.1l-1.4,0.8
					L382.8,420.8z M368.3,431.7l-1.4,0.7c-0.8-0.6-1.6-1.3-2.3-2.1l2.3-1.2L368.3,431.7z M368.6,432.3l0.7,1.4
					c-0.6-0.2-1.2-0.5-1.8-0.9L368.6,432.3z M375.8,431.9l1.2,2.3c-1,0.3-2,0.4-3,0.4l-0.7-1.4L375.8,431.9z M380,429.6l2.6-1.4
					l0.7,1.4c-0.6,0.8-1.3,1.6-2.1,2.2L380,429.6z M383.8,429l-0.5-1l1.5-0.8C384.5,427.8,384.2,428.4,383.8,429z M384.9,418.8
					l-2.5,1.3l-1.6-3l2.5-1.3c0.3,0.4,0.6,0.9,0.9,1.4C384.5,417.7,384.7,418.3,384.9,418.8z M376.5,411.2l-1.6,0.9l-0.6-1.2
					C375.1,410.9,375.8,411,376.5,411.2z M363.6,416.6l0.6,1.2l-1.6,0.8C362.9,417.9,363.2,417.2,363.6,416.6z M362.6,426.8l2.4-1.3
					l1.6,3l-2.4,1.3c-0.3-0.5-0.7-1-0.9-1.5C363,427.8,362.8,427.3,362.6,426.8z M371.1,434.3l1.4-0.7l0.5,1
					C372.4,434.5,371.8,434.4,371.1,434.3z"/>
			</g>
			<g id="XMLID_442_">
				<path id="XMLID_443_" fill="#FFBD37" d="M365.5,469.7l-11.6-3.6c-0.7-0.2-1-0.9-0.9-1.6l9.4-33.3l7.3,4.3l8.5,0.6l-11.1,32.8
					C366.9,469.6,366.2,469.9,365.5,469.7z"/>
			</g>
		</g>
		<g id="XMLID_390_">
			<g id="XMLID_393_">
				<path id="XMLID_394_" fill="#FFBD37" d="M1663,182c-9.6-4-20.5,0.6-24.5,10.1c-4,9.6,0.6,20.5,10.1,24.5s20.5-0.6,24.5-10.1
					C1677.1,196.9,1672.5,186,1663,182z M1670.3,205.4c-0.3,0.7-0.6,1.4-1,2l-3.3-1.4l1.7-4.2l3.3,1.4
					C1670.9,204,1670.6,204.7,1670.3,205.4z M1640.3,196.4l3.3,1.4l-1.5,3.6l-2.1-0.9C1640,199.2,1640.1,197.8,1640.3,196.4z
					 M1641.3,193.3c0.3-0.7,0.6-1.4,1-2l3.5,1.5l-1.7,4.2l-3.5-1.5C1640.7,194.8,1641,194,1641.3,193.3z M1642.8,190.5
					c0.8-1.1,1.7-2.2,2.7-3l2.1,0.9l-1.5,3.6L1642.8,190.5z M1646.6,203.2l1.5-3.6l3.6,1.5l-1.5,3.6L1646.6,203.2z M1649.8,205.6
					l-1.1,2.7l-3.6-1.5l1.1-2.7L1649.8,205.6z M1648.5,198.8l1.7-4.2l3.6,1.5l-1.7,4.2L1648.5,198.8z M1650.6,193.7l1.5-3.6l3.6,1.5
					l-1.5,3.6L1650.6,193.7z M1652.4,189.3l1.1-2.7l3.6,1.5l-1.1,2.7L1652.4,189.3z M1642.7,202.6l2.7,1.1l-1.1,2.7l-2.7-1.1
					L1642.7,202.6z M1643.1,201.8l1.5-3.6l2.7,1.1l-1.5,3.6L1643.1,201.8z M1644.9,197.3l1.7-4.2l2.7,1.1l-1.7,4.2L1644.9,197.3z
					 M1647,192.3l1.5-3.6l2.7,1.1l-1.5,3.6L1647,192.3z M1648.9,187.8l1.1-2.7l2.7,1.1l-1.1,2.7L1648.9,187.8z M1650.8,184.4
					c0.9-0.3,1.9-0.5,2.9-0.7l-0.7,1.6L1650.8,184.4z M1643.9,207.3l-0.6,1.5c-0.6-0.8-1.1-1.6-1.5-2.4L1643.9,207.3z M1644.8,207.7
					l3.6,1.5l-1.3,3.2c-1.1-0.8-2.2-1.7-3.1-2.7L1644.8,207.7z M1653.9,185.7l0.9-2.1c1.3-0.1,2.7,0,4.1,0.3l-1.4,3.3L1653.9,185.7z
					 M1652.9,200.6l1.7-4.2l4.2,1.7l-1.7,4.2L1652.9,200.6z M1656.7,203.2l-1.5,3.6l-4.2-1.7l1.5-3.6L1656.7,203.2z M1655,195.6
					l1.5-3.6l4.2,1.7l-1.5,3.6L1655,195.6z M1656.9,191.1l1.1-2.7l4.2,1.7l-1.1,2.7L1656.9,191.1z M1650.7,206l4.2,1.7l-1.1,2.7
					l-4.2-1.7L1650.7,206z M1666.8,201.5l-1.7,4.2l-2.7-1.1l1.7-4.2L1666.8,201.5z M1664.5,199.5l1.5-3.6l2.7,1.1l-1.5,3.6
					L1664.5,199.5z M1664.7,206.6l-1.5,3.6l-2.7-1.1l1.5-3.6L1664.7,206.6z M1662.9,211l-1.1,2.7l-2.7-1.1l1.1-2.7L1662.9,211z
					 M1669,196.2l-2.7-1.1l1.1-2.7l2.7,1.1L1669,196.2z M1667.8,191.5l0.6-1.5c0.5,0.7,1,1.5,1.4,2.3L1667.8,191.5z M1656.1,207.2
					l1.5-3.6l3.6,1.5l-1.5,3.6L1656.1,207.2z M1659.3,209.5l-1.1,2.7l-3.6-1.5l1.1-2.7L1659.3,209.5z M1658,202.7l1.7-4.2l3.6,1.5
					l-1.7,4.2L1658,202.7z M1660.1,197.7l1.5-3.6l3.6,1.5l-1.5,3.6L1660.1,197.7z M1661.9,193.2l1.1-2.7l3.6,1.5l-1.1,2.7
					L1661.9,193.2z M1663.4,189.7l1.4-3.3c1.1,0.8,2.2,1.7,3,2.7l-0.8,2L1663.4,189.7z M1657.9,213.1l-0.8,1.9
					c-1.3,0.1-2.7,0-4.1-0.2l1.3-3.2L1657.9,213.1z M1658.8,213.5l2,0.8c-0.8,0.3-1.7,0.5-2.6,0.6L1658.8,213.5z M1665.6,206.9
					l3.2,1.3c-0.8,1.1-1.7,2.2-2.7,3l-1.9-0.8L1665.6,206.9z M1668.1,201l1.5-3.6l1.9,0.8c0.1,1.3,0,2.7-0.2,4.1L1668.1,201z
					 M1671.4,197.1l-1.4-0.6l0.8-2C1671,195.4,1671.2,196.2,1671.4,197.1z M1663.9,185.9l-1.4,3.4l-4.2-1.7l1.4-3.5
					c0.7,0.2,1.4,0.4,2,0.7C1662.6,185.1,1663.3,185.5,1663.9,185.9z M1648.9,185.2l-0.9,2.3l-1.6-0.7
					C1647.1,186.2,1648,185.6,1648.9,185.2z M1640.2,201.6l1.6,0.7l-0.9,2.2C1640.6,203.5,1640.4,202.6,1640.2,201.6z M1647.9,212.9
					l1.4-3.4l4.2,1.7l-1.4,3.4c-0.8-0.2-1.5-0.4-2.2-0.7C1649.1,213.6,1648.5,213.3,1647.9,212.9z M1663,213.3l0.8-2l1.4,0.6
					C1664.5,212.5,1663.7,212.9,1663,213.3z"/>
			</g>
			<g id="XMLID_391_">
				<path id="XMLID_392_" fill="#FFBD37" d="M1687.3,254.3l-14.9,6.2c-0.8,0.4-1.8,0-2.2-0.9l-18.7-42l11.1-1.8l9.2-6.6l16.4,42.9
					C1688.6,253,1688.1,254,1687.3,254.3z"/>
			</g>
		</g>
		<path id="XMLID_389_" fill-rule="evenodd" clip-rule="evenodd" fill="#FFBD37" d="M1842.3,126.5c-1.3,4-1.5,8.1-7.4,5.7
			c1.2,4.8-2.3,9.5-5.3,13.2c1.9,6.9,0.4,11-2.1,16.1c8.9,2.1,11.4,10,15.9,16c5.1-1.6,9.4-0.5,10.6,3.8c10.3,1.3,14.5-5.6,24.3-1.9
			c2.4-9.5,12.2-12.4,16.9-19.8c-2.3-0.8-4.2-1.9-4.2-4.7c0.7-2.6,4.4-2.4,4.2-5.7c-5-1.3-6.3-6.3-4.2-11.3
			c-7.3-2.9-12.3-7.9-15.9-14.2c-5,4.9-12.5-0.4-15.9-2.8C1852.2,122.7,1850.7,127.3,1842.3,126.5z"/>
		<path id="XMLID_388_" fill-rule="evenodd" clip-rule="evenodd" fill="#FFBD37" d="M1600.4,461.6c0.7-4-3.4-3.9-3.2-7.6
			c1.7-4.4,8-4.8,12.7-6.6c0.8-3.9-3.4-3.3-2.1-7.6c1.4-2.8,4.8-3.9,7.4-5.7c-1.9-8.7,3.7-10.6,6.3-15.1c-1.7-1.7-4.9-2-5.3-4.7
			c4.2-9-9.1-10.1-4.2-19.8c-12.1-3.1-18.9-11.4-18-23.6c-6.4-0.3-4.8,6.4-9.5,7.6c-9.2,1.6-11.4-3-18-3.8
			c-5.9,3.2-14.6,5.5-25.4,6.6c0.2,4.9-4.1,5.7-7.4,7.6c0.7,5-0.6,8.3-4.2,9.4c-5.7,1-7-1.9-11.6-1.9c2.4,4.5,5.9,8,6.3,14.2
			c-3.4,4.2-8.5,6.9-6.3,16c3.3,0.5,5.2,2.3,6.3,4.7c-1.4,2.9-6.3,2.5-6.3,6.6c2.1,3.1,12-1.5,12.7,4.7c0.2,4-5.2,2.9-4.2,7.6
			c4.8,1,6.8,1,11.6,0c4.3,6.2-5.2,7.6-3.2,11.3c4.6,0,3.9-4.7,8.5-4.7c6.5,4.3,19-1.4,24.3,4.7c2.4,4.2-3.2,17.8,2.1,23.6
			C1563.9,466.2,1582.7,451.2,1600.4,461.6z"/>
	</g>
	<g id="XMLID_75_">
		<g id="XMLID_367_">
			<path id="XMLID_386_" fill="none" d="M822.1,301.8c-3.3-3.3-7.2-5.9-11.7-7.8c-4.5-1.9-9.3-2.9-14.3-2.9c-5,0-9.7,1-14.1,2.9
				c-4.4,1.9-8.3,4.5-11.6,7.8c-3.3,3.3-5.9,7.2-7.8,11.6c-1.9,4.4-2.9,9.1-2.9,14.1c0,5,0.9,9.7,2.9,14.1c1.9,4.4,4.5,8.3,7.8,11.6
				c3.3,3.3,7.2,5.9,11.6,7.8c4.4,1.9,9.1,2.9,14.1,2.9c5,0,9.8-0.9,14.3-2.9c4.5-1.9,8.4-4.5,11.7-7.8c3.3-3.3,5.9-7.2,7.8-11.6
				c1.9-4.4,2.9-9.1,2.9-14.1c0-5-1-9.7-2.9-14.1C828,308.9,825.4,305.1,822.1,301.8z"/>
			<path id="XMLID_379_" fill="#002395" d="M838.6,285.2c-5.4-5.4-11.9-9.7-19.1-12.8c-7.4-3.1-15.3-4.7-23.4-4.7
				c-8.2,0-16.1,1.6-23.4,4.8c-7.1,3.1-13.4,7.4-18.8,12.7c-5.4,5.4-9.7,11.7-12.7,18.8c-3.2,7.3-4.8,15.2-4.8,23.4
				c0,8.2,1.6,16.1,4.8,23.4c3.1,7.1,7.3,13.4,12.7,18.8c5.4,5.4,11.7,9.7,18.8,12.7c7.3,3.2,15.2,4.8,23.4,4.8
				c8.1,0,16-1.6,23.4-4.7c7.2-3.1,13.7-7.4,19.1-12.8c5.4-5.4,9.7-11.7,12.7-18.8c3.2-7.3,4.8-15.2,4.8-23.4c0-8.2-1.6-16-4.8-23.4
				C848.3,297,844,290.6,838.6,285.2z M829.9,341.6c-1.9,4.4-4.5,8.3-7.8,11.6c-3.3,3.3-7.2,5.9-11.7,7.8c-4.5,1.9-9.3,2.9-14.3,2.9
				c-5,0-9.7-0.9-14.1-2.9c-4.4-1.9-8.3-4.5-11.6-7.8c-3.3-3.3-5.9-7.2-7.8-11.6c-1.9-4.4-2.9-9.1-2.9-14.1c0-5,0.9-9.7,2.9-14.1
				c1.9-4.4,4.5-8.3,7.8-11.6c3.3-3.3,7.2-5.9,11.6-7.8c4.4-1.9,9.1-2.9,14.1-2.9c5,0,9.8,1,14.3,2.9c4.5,1.9,8.4,4.5,11.7,7.8
				c3.3,3.3,5.9,7.2,7.8,11.6c1.9,4.4,2.9,9.1,2.9,14.1C832.8,332.5,831.8,337.2,829.9,341.6z"/>
			<path id="XMLID_371_" fill="#ED2939" d="M897.9,284.8c-5.8-13.2-13.7-24.8-23.6-34.7c-9.9-9.9-21.5-17.7-34.8-23.4
				c-13.3-5.7-27.6-8.6-42.8-8.6c-15,0-29.2,2.9-42.5,8.6c-13.3,5.7-24.9,13.5-34.8,23.4c-9.9,9.9-17.7,21.5-23.4,34.8
				c-5.7,13.3-8.6,27.5-8.6,42.5c0,15,2.9,29.2,8.6,42.5c5.7,13.3,13.5,24.9,23.4,34.8c9.9,9.9,21.5,17.8,34.8,23.6
				c13.3,5.8,27.5,8.7,42.5,8.7c15,0,29.2-2.9,42.6-8.6c13.4-5.7,25.1-13.5,35-23.4c9.9-9.9,17.8-21.5,23.6-34.8
				c5.8-13.3,8.7-27.6,8.7-42.8C906.6,312.3,903.7,298,897.9,284.8z M876.5,360.9c-4.7,10.7-10.8,19.7-18.7,27.6
				c-7.7,7.7-17,13.9-27.6,18.4c-10.6,4.5-21.5,6.7-33.5,6.7c-11.9,0-22.7-2.2-33.1-6.8c-10.6-4.6-19.9-10.9-27.6-18.7
				c-7.9-7.9-13.9-16.9-18.5-27.5c-4.5-10.5-6.7-21.3-6.7-33.3c0-11.9,2.2-22.8,6.7-33.3c4.5-10.5,10.7-19.8,18.5-27.5
				c7.9-7.9,16.9-13.9,27.5-18.5c10.5-4.5,21.3-6.7,33.3-6.7c12.1,0,23.1,2.2,33.6,6.7c10.5,4.5,19.8,10.7,27.5,18.5
				c7.9,7.9,14,16.9,18.7,27.6c4.5,10.3,6.7,21.2,6.7,33.2C883.2,339.5,881,350.5,876.5,360.9z"/>
			<path id="XMLID_368_" fill="#FFFFFF" d="M857.8,266.7c-7.7-7.7-17-14-27.5-18.5c-10.5-4.5-21.5-6.7-33.6-6.7
				c-11.9,0-22.8,2.2-33.3,6.7c-10.7,4.6-19.6,10.6-27.5,18.5c-7.8,7.8-14,17-18.5,27.5c-4.5,10.5-6.7,21.4-6.7,33.3
				c0,11.9,2.2,22.8,6.7,33.3c4.6,10.6,10.6,19.6,18.5,27.5c7.8,7.8,17.1,14.1,27.6,18.7c10.4,4.5,21.3,6.8,33.1,6.8
				c11.9,0,22.9-2.2,33.5-6.7c10.6-4.5,19.9-10.7,27.6-18.4c7.9-7.9,14-16.9,18.7-27.6c4.5-10.4,6.8-21.4,6.8-33.4
				c0-12-2.2-22.9-6.7-33.2C871.8,283.6,865.7,274.6,857.8,266.7z M851.4,350.8c-3.1,7.1-7.4,13.4-12.7,18.8
				c-5.4,5.4-11.9,9.8-19.1,12.8c-7.4,3.1-15.2,4.7-23.4,4.7c-8.2,0-16.1-1.6-23.4-4.8c-7.1-3.1-13.5-7.4-18.8-12.7
				c-5.4-5.4-9.7-11.7-12.7-18.8c-3.2-7.3-4.8-15.2-4.8-23.4c0-8.2,1.6-16.1,4.8-23.4c3.1-7.1,7.4-13.4,12.7-18.8
				c5.4-5.4,11.7-9.7,18.8-12.7c7.3-3.2,15.2-4.8,23.4-4.8c8.1,0,16,1.6,23.4,4.7c7.3,3.1,13.7,7.4,19.1,12.8
				c5.4,5.4,9.7,11.7,12.7,18.8c3.2,7.3,4.8,15.2,4.8,23.4C856.1,335.6,854.5,343.5,851.4,350.8z"/>
		</g>
		<path id="XMLID_365_" fill="#300033" d="M432.1,401.9V253.4h103.3v39.7h-52.7v16.8h46.5v35.5h-46.5v56.5H432.1z"/>
		<path id="XMLID_362_" fill="#300033" d="M556.8,401.9V253.4h65.9c17,0,30.3,4,39.9,12.1c9.6,8.1,14.4,19.2,14.4,33.4
			c0,7.5-1.9,14.4-5.7,20.8c-3.8,6.4-9.6,11.3-17.4,14.7l30.6,67.6h-56.1l-22.7-61.2v61.2H556.8z M605.7,311.6
			c2.3,0.3,4.9,0.5,7.9,0.5c3,0.1,5.7-0.2,8.3-0.9c2.5-0.6,4.7-1.8,6.5-3.5c1.8-1.7,2.7-4.2,2.7-7.6c0-3.3-0.8-5.7-2.4-7.3
			c-1.6-1.6-3.6-2.7-6.1-3.3c-2.4-0.6-5.1-0.8-8.2-0.7c-3,0.1-5.9,0.2-8.6,0.3V311.6z"/>
		<path id="XMLID_360_" fill="#300033" d="M923.3,401.9V253.4h47.6l34.8,68.4v-68.4h49.9v148.5H1007l-34.6-68v68H923.3z"/>
		<path id="XMLID_358_" fill="#300033" d="M1105.2,401.9V293.1h-28.9v-39.7h109.2v39.7h-28.9v108.8H1105.2z"/>
		<path id="XMLID_355_" fill="#300033" d="M1185.9,401.9l42.5-148.5h58.6l42.3,148.5h-50.8l-6.2-27h-32.7l-6.8,27H1185.9z
			 M1245,339.2h21.9l-10.6-46.3L1245,339.2z"/>
		<path id="XMLID_353_" fill="#300033" d="M1344.8,401.9V253.4h50.1v109.4h41v39.1H1344.8z"/>
		<path id="XMLID_351_" fill="#300033" d="M1457.2,401.9V253.4h105.4v39.7H1508v17.2h48.4V346H1508v16.8h54.6v39.1H1457.2z"/>
		<path id="XMLID_86_" fill="#300033" d="M1245,239.1h-25.3l24.6-31.9h24l24.4,31.9h-25.1l-11.3-16.1L1245,239.1z"/>
	</g>
	<g id="XMLID_64_">
		<path id="XMLID_688_" fill="#FFFFFF" d="M1613.9,346.5V301h15.5v14l6.7-14h15.4l-9.2,18.5l11.6,26.9H1637l-7.5-20.6v20.6H1613.9z"
			/>
		<path id="XMLID_690_" fill="#FFFFFF" d="M1658.2,346.5V301h15.4v33.5h12.6v12H1658.2z"/>
		<path id="XMLID_692_" fill="#FFFFFF" d="M1693,346.5V301h15.7v45.5H1693z"/>
		<path id="XMLID_694_" fill="#FFFFFF" d="M1716,346.5V301h14.6l10.7,21v-21h15.3v45.5h-14.9l-10.6-20.8v20.8H1716z"/>
		<path id="XMLID_696_" fill="#FFFFFF" d="M1762.8,323.8c0-14.1,8.1-23.9,24.1-23.9c12.7,0,16.9,5.4,19.8,10.7l-13.5,6.1
			c-1.1-3.6-2.7-5.1-6.3-5.1c-5.7,0-8.5,5.6-8.5,11.6c0,5.6,2.5,11,9,11h5.8v-4.5h-5.8v-10h20.4v26.7h-14.6v-3.1l-3.6,3.1h-2.3
			C1770.5,346.5,1762.8,337.5,1762.8,323.8z"/>
		<path id="XMLID_698_" fill="#FFFFFF" d="M1814.8,346.5V301h32.3v12.2h-16.7v5.3h14.8v10.9h-14.8v5.1h16.7v12H1814.8z"/>
		<path id="XMLID_700_" fill="#FFFFFF" d="M1853.8,346.5V301h15.4v33.5h12.6v12H1853.8z"/>
		<path id="XMLID_702_" fill="#FFFFFF" d="M1888.6,346.5V301h15.7v45.5H1888.6z"/>
	</g>
	<g id="XMLID_63_">
		<path id="XMLID_57_" fill="#FFFFFF" d="M100.3,346.5v-33.3h-4.7v-5.8c2.9-0.7,6.5-3.6,6.8-6.4h12.9v45.5H100.3z"/>
		<path id="XMLID_664_" fill="#FFFFFF" d="M129.4,346.5c3.8-4.9,7.1-10,8.4-14.7c-7.9,0.4-15.9-4.6-15.9-15.4
			c0-9.8,8.1-16.3,17.4-16.3c13.1,0,18.7,7,18.7,17.4c0,9.8-6.8,21.4-12.4,29H129.4z M144,316.6c0-2.3-1.9-4.2-4.1-4.2
			c-2.3,0-4.2,1.8-4.2,4.2c0,2.3,1.9,4,4.2,4C142.1,320.6,144,318.8,144,316.6z"/>
		<path id="XMLID_667_" fill="#FFFFFF" d="M158.6,341.3c0-3.6,2.7-6.1,6.2-6.1c3.6,0,6.3,2.5,6.3,6.1c0,3.5-2.7,6.2-6.3,6.2
			C161.3,347.5,158.6,344.8,158.6,341.3z"/>
		<path id="XMLID_669_" fill="#FFFFFF" d="M178.3,346.5c3.8-4.9,7.1-10,8.4-14.7c-7.9,0.4-15.9-4.6-15.9-15.4
			c0-9.8,8.1-16.3,17.4-16.3c13.1,0,18.7,7,18.7,17.4c0,9.8-6.8,21.4-12.4,29H178.3z M192.9,316.6c0-2.3-1.9-4.2-4.1-4.2
			c-2.3,0-4.2,1.8-4.2,4.2c0,2.3,1.9,4,4.2,4C191,320.6,192.9,318.8,192.9,316.6z"/>
		<path id="XMLID_672_" fill="#FFFFFF" d="M207.4,341.3c0-3.6,2.7-6.1,6.2-6.1c3.6,0,6.3,2.5,6.3,6.1c0,3.5-2.7,6.2-6.3,6.2
			C210.2,347.5,207.4,344.8,207.4,341.3z"/>
		<path id="XMLID_675_" fill="#FFFFFF" d="M226.8,346.5v-9.8c5.8-5.4,14.4-12.3,18.2-18.6c1.6-2.9,1.3-6.4-2.6-6.4
			c-3.1,0-4.4,3.6-2.6,6.9h-12.9c-0.4-1.2-0.7-2.7-0.7-4.3c0-6.3,4-14.3,16.9-14.3c16.5,0,17.4,10.3,17.3,14.3
			c-0.2,7.4-6.1,13.7-13,20.2H260v12H226.8z"/>
		<path id="XMLID_681_" fill="#FFFFFF" d="M265.9,323.7c0-14.2,2.9-23.7,17.8-23.7c14.9,0,17.8,9.5,17.8,23.7
			c0,14.3-2.7,23.8-17.8,23.8C268.8,347.5,265.9,338,265.9,323.7z M286.4,323.7c0-5.9,0.6-10.7-2.9-10.7c-3.3,0-2.7,4.8-2.7,10.7
			s-0.6,10.9,2.7,10.9C287,334.6,286.4,329.6,286.4,323.7z"/>
		<path id="XMLID_684_" fill="#FFFFFF" d="M311.1,346.5v-33.3h-4.7v-5.8c2.9-0.7,6.5-3.6,6.8-6.4h12.9v45.5H311.1z"/>
		<path id="XMLID_686_" fill="#FFFFFF" d="M333,334.6c0-1.2,0.2-2.3,0.5-3.6h12.5c-0.8,4.1,1.4,5.4,4.1,5.1c3.1-0.4,3.9-2.7,3.6-4.6
			c-0.3-3.1-2.5-4.7-6.8-4.7H334l3.6-25.8h27.2v12.2h-14.9l-0.5,4.2c1.4-0.1,3.1-0.1,4.2-0.1c10.2,0.3,15.3,5.9,15.3,15
			c0,5.5-3.4,15.3-19.4,15.3C337.7,347.5,333,341.9,333,334.6z"/>
	</g>
	<g id="XMLID_54_">
		<path id="XMLID_58_" fill="#300033" d="M549.6,488.3c-2.5,0.3-4.5,0.5-6.1,0.5c-0.6,0-0.8-0.2-0.8-0.6c0-1,0.7-2,2-3.1
			s3.5-2,6.5-2.8c1.4-4.8,2.9-9.3,4.6-13.3c-4.2,0.2-7.7,1.6-10.4,4.2c-0.7,0.7-1.2,1.2-1.7,1.6c-0.4,0.4-0.8,0.6-1.1,0.6
			s-0.6-0.3-0.9-0.8c-0.3-0.5-0.4-1.2-0.4-2c0-3.3,2.2-5.9,6.6-7.9c4.4-2,9.8-3,16.2-3l19.1,0.3c1.1,0,1.7,0.4,1.7,1.3
			c0,0.3-0.2,0.7-0.5,1.4c-0.3,0.7-0.6,1.4-0.9,2.1c-0.6,1.5-1.7,2.3-3.6,2.3h-2l-8.5-0.1h-4.9c-0.3,2.4-1.4,6.4-3.1,11.8l11.6,0.2
			c0.7,0,1,0.4,1,1.2c0,0.3-0.1,0.7-0.3,1.3c-0.2,0.6-0.4,1.3-0.6,2c-0.3,1.4-1.1,2.1-2.2,2.1l-9.7-0.4h-0.8c-0.3,0-0.6,0-0.9,0.1
			c-2.2,8.1-3.3,14.5-3.3,19.2c0,2.5-2.4,3.8-7.3,3.8c-1.1,0-1.7-0.5-1.9-1.6c-0.2-1.1-0.3-2.5-0.3-4.3
			C546.9,500.4,547.8,495.1,549.6,488.3z"/>
		<path id="XMLID_579_" fill="#300033" d="M590.7,502.3c3.3,0,6.5-1.3,9.6-3.9c1.1-1,2.1-1.9,2.8-2.7c0.7-0.8,1.3-1.2,1.7-1.2
			c0.6,0,0.9,0.6,0.9,1.8c0,1.2-0.3,2.5-1,4c-0.6,1.5-1.7,2.9-3.2,4.3c-3.6,3.4-8.6,5.2-15,5.2c-5,0-8.5-1.8-10.3-5.5
			c-0.6-1.3-1-3.1-1-5.5c0-2.4,0.5-4.8,1.4-7.4c0.9-2.6,2.2-4.8,3.7-6.6c1.5-1.9,3.3-3.3,5.4-4.4c2-1,4.2-1.6,6.5-1.6
			c2.3,0,4.1,0.6,5.3,1.7c1.2,1.1,1.9,2.6,1.9,4.5c0,1.8-0.5,3.3-1.4,4.5c-0.9,1.2-2.1,2.1-3.5,2.9c-1.4,0.8-3,1.5-4.8,2.1
			c-1.8,0.6-3.5,1.3-5.2,2.1v1.6c0,1.5,0.7,2.6,1.9,3.2C587.8,501.9,589.2,502.2,590.7,502.3z M589.7,484.3c-2.2,0-3.7,2.6-4.6,7.7
			c0.9-0.6,1.7-1.1,2.5-1.6c0.8-0.5,1.5-0.9,2.1-1.3c1.3-0.9,1.9-2,2-3.2C591.6,484.9,591,484.3,589.7,484.3z"/>
		<path id="XMLID_592_" fill="#300033" d="M617,478.4c2.8,0,5,0.5,6.4,1.6s2.1,2.6,2.1,4.6c0,2-0.6,3.7-1.8,5.2
			c-1.2,1.4-2.7,2.4-4.4,3c1.2,1.3,2.3,2.6,3.3,3.9c1,1.3,1.5,2.7,1.5,4.1c0,2.8-1.1,5-3.4,6.6c-2.2,1.5-5.4,2.3-9.4,2.3
			c-4,0-7-0.8-9-2.4c-2-1.6-3-3.4-3-5.4c0-2,0.5-3.8,1.5-5.5s2.1-2.5,3.2-2.5c0.7,0,1.2,0.2,1.5,0.7c0.3,0.5,0.8,1.9,1.7,4.2
			c0.3,0.8,0.8,1.7,1.5,2.4c1.6,1.7,4,2.6,7.4,2.6c-0.5-1.6-1.3-3-2.4-4.2c-1.1-1.2-2.2-2.3-3.3-3.4c-1.1-1.1-2.1-2.3-2.9-3.5
			c-0.8-1.2-1.3-2.7-1.3-4.4c0-3.1,1.1-5.5,3.4-7.4C611.7,479.3,614.2,478.4,617,478.4z M616.8,490.2c1.7-1.8,2.5-3.3,2.5-4.4
			c0-0.5-0.2-1-0.5-1.4c-0.4-0.4-0.9-0.6-1.6-0.6c-0.7,0-1.3,0.1-1.9,0.3c-0.6,0.2-1.1,0.3-1.5,0.4
			C613.8,486.1,614.8,488,616.8,490.2z"/>
		<path id="XMLID_595_" fill="#300033" d="M630.8,505.7c-0.5-1.1-0.8-2.4-1-3.9c-0.2-1.5-0.3-3.6-0.3-6.3c0-2.7,0.5-6.4,1.5-11h-2.9
			c-0.5,0-0.8-0.2-0.8-0.6c0-1,0.1-1.9,0.3-2.5s0.6-1.4,1.4-2.3h1.5c0.6,0,1.2,0,1.9-0.1c2-6.5,4.1-9.8,6.2-9.8
			c1.7,0,2.9,1.1,3.6,3.2c0.2,0.6,0.4,1.2,0.6,1.9l-2.6,4.6c3,0.1,4.8,0.1,5.6,0.1c0.8,0,1.2,0.1,1.3,0.2s0.1,0.4,0.1,0.7
			c0,0.8-0.2,1.7-0.5,2.9c-0.4,1.1-0.8,1.7-1.2,1.7l-6.4-0.3c-0.9,5.2-1.3,9.5-1.3,12.8c0,3.4,0.5,5.1,1.5,5.1c0.8,0,2.3-0.7,4.4-2
			c2.1-1.3,3.6-2.6,4.6-3.8c0.9-1.2,1.7-1.8,2.3-1.8c0.6,0,0.9,0.7,0.9,2.2s-0.5,2.9-1.5,4.4s-2.3,2.9-3.8,4.1
			c-1.5,1.3-3.3,2.3-5.2,3.1c-1.9,0.8-3.5,1.2-4.9,1.2c-1.4,0-2.5-0.3-3.2-1C631.9,507.7,631.3,506.9,630.8,505.7z"/>
		<path id="XMLID_597_" fill="#300033" d="M655.8,509.4c-4.2,0-6.4-4-6.4-11.9c0-4.3,0.5-8.2,1.6-11.8c1.7-5.4,3.5-8.1,5.6-8.1
			c1.2,0,2.2,0.8,2.9,2.5c0.6,1.3,0.9,2.5,0.8,3.8c0,1.7-0.5,4.7-1.5,9c-1,3.7-1.5,6-1.5,6.9c0,0.9,0.2,1.5,0.7,1.8
			c0.4,0.3,1,0.5,1.6,0.5c0.6,0,1.4-0.4,2.3-1.2c0.9-0.8,1.9-1.7,2.8-2.6c0.9-1,1.8-1.8,2.6-2.6c0.8-0.8,1.3-1.2,1.6-1.2
			c0.6,0,0.9,0.7,0.9,2.2c0,3-1.5,5.9-4.5,8.7C662.4,508,659.2,509.4,655.8,509.4z M658.4,472.4c-1.1-1.7-1.7-3.5-1.7-5.5
			c0-1.9,0.3-3.6,0.9-4.9c0.6-1.3,1.2-2.2,1.7-2.9c0.6-0.6,1.2-0.9,1.9-0.9c1.2,0,2.3,0.9,3.2,2.6c1,1.8,1.5,3.2,1.5,4.4
			c0,2.2-0.8,3.9-2.3,5.2C662.1,471.8,660.4,472.4,658.4,472.4z"/>
		<path id="XMLID_600_" fill="#300033" d="M676.7,481.2c0,2.8-0.5,6.1-1.5,9.7c0.1,1.4,0.1,2.7,0.1,3.9c0,1.3,0.1,2.4,0.3,3.3
			c0.6,1.7,1.4,2.7,2.4,3.1c0.8,0,1.8-0.7,2.8-2.2s2.1-3.2,3.1-5.2c-0.5-1.9-0.8-3.8-0.8-5.5c0-3.1,0.5-5.3,1.4-6.7
			c1.1-1.8,2.9-2.7,5.2-2.7c2.3,0,3.9,0.9,4.6,2.7c0.3,0.7,0.4,1.4,0.4,2.3c0,1.5-0.4,3.1-1.1,4.7s-2,3.7-3.7,6.3
			c0.8,2.2,1.9,3.4,3.4,3.4c1.9,0,3.5-0.7,4.8-2c0.5-0.5,0.9-1,1.3-1.3c0.4-0.4,0.7-0.6,1.1-0.6c0.6,0,0.9,0.7,0.9,2.1
			c0,2.6-0.8,4.5-2.3,5.8c-1.5,1.2-3.4,1.8-5.7,1.8c-3,0-5.4-1.3-7.2-3.9c-5,6.4-9.1,9.7-12.5,9.7c-1.3,0-2.6-1.9-3.9-5.6
			c-1.3-3.7-2.2-8.8-2.9-15.1c-0.5-4-0.2-6.9,0.9-8.6c0.9-1.4,2.8-2,5.5-2c1,0,1.8,0.3,2.4,0.9C676.4,479.8,676.7,480.5,676.7,481.2
			z"/>
		<path id="XMLID_602_" fill="#300033" d="M737.8,494.2c0.8,0,1.1,1,1.1,2.9c0,1.1-0.4,2.3-1.3,3.8c-0.9,1.5-2,2.9-3.5,4.1
			c-1.4,1.3-3,2.3-4.7,3.1c-1.7,0.8-3.4,1.2-5.1,1.2c-2.2,0-3.8-2-4.5-5.9c-1.1,1.8-2.5,3.3-4.3,4.5c-1.8,1.2-4.2,1.7-7.2,1.7
			c-3,0-5.4-0.9-7.2-2.8c-1.8-1.9-2.7-4.1-2.7-6.8c0-7.2,2.4-12.9,7.2-17c2-1.7,3.9-2.9,5.7-3.4c1.8-0.6,3.6-0.8,5.6-0.8
			c1.9,0,3.5,0.3,4.8,1c0.6-1.2,1.3-1.8,2-1.8c1.5,0,2.9,0.6,4.2,1.9c1.3,1.3,2,2.5,2,3.7c-0.6,1.4-1.5,3.1-2.6,5
			c-0.3,2-0.5,4.7-0.5,8.2c0,3.5,0.4,5.3,1.3,5.3c1.1,0,3.8-2.2,8-6.6C736.9,494.6,737.4,494.2,737.8,494.2z M707.8,498
			c0,3.3,1.2,4.9,3.6,4.9c2.6,0,4.7-1.4,6.4-4.1c0.6-0.9,1.1-2.1,1.5-3.4c0-4.7,0.4-8.8,1.3-12.2c-3.4,0.7-6.4,2.3-9,5
			C709,490.7,707.8,494,707.8,498z"/>
		<path id="XMLID_606_" fill="#300033" d="M749.9,509.4c-6.1,0-10.2-2.2-12.4-6.8c-0.8-1.6-1.1-3.6-1.1-6.1c0-2.4,0.2-5,0.6-7.8
			c0.8-5.5,2.5-10.6,4.9-15.3c1.2-2.4,2.6-4.4,4.1-6.1c3.3-3.7,7.1-5.6,11.2-5.5c1.8,0,3.3,0.5,4.3,1.5c1,1,1.6,2.4,1.6,4.3
			c0,1.9-0.6,3.7-1.7,5.6c-1.1,1.9-2.5,3.8-4.2,5.9c-1.7,2-3.6,4.1-5.7,6.3c-2.1,2.2-4.1,4.6-6.1,7.2v2.5c0,2.4,0.5,4.1,1.5,5.2
			s2.2,1.7,3.6,1.7c3.6,0,6.9-1.8,9.7-5.4c1.1-1.5,2-2.2,2.6-2.2c0.6,0,0.9,0.7,0.9,2.2s-0.4,2.9-1.2,4.4c-0.8,1.5-1.8,2.9-3.1,4.1
			c-1.3,1.3-2.7,2.3-4.4,3.1C753.4,509,751.7,509.4,749.9,509.4z M753.4,475.2c0.9-1.1,1.6-2.1,2.1-3c0.5-0.9,0.8-1.8,0.8-2.8
			s-0.3-1.4-1-1.4c-1.5,0-3.1,1.5-4.9,4.6c-1.8,3.1-3.1,7.1-4,12c1.4-2.2,2.8-4,4-5.5C751.4,477.6,752.5,476.3,753.4,475.2z"/>
		<path id="XMLID_611_" fill="#300033" d="M786.6,476.8c0-0.8,0.3-1.1,0.8-1.1c0.8,0,1.7,0.2,2.6,0.5c0.9,0.4,1.8,0.6,2.9,0.9
			c3.4-7.2,7.3-12,11.7-14.2c1.5-0.8,3.1-1.1,4.6-1.1c2.8,0,4.8,0.7,5.8,2c1,1.3,1.5,3,1.5,5.1c0,3.9-1.7,7-5.1,9.3
			c-3.4,2.3-7.4,3.5-12.3,3.8c-1.2,3.3-2.2,6.7-2.9,10.4c1.7-0.6,3.8-1,6.4-1c0.3,2.7,0.9,4.6,1.8,5.7c0.8,1.1,1.8,1.7,2.8,1.7
			c1,0,1.9-0.3,2.6-0.8c0.7-0.5,1.3-1.1,1.8-1.7c0.5-0.6,1-1.2,1.3-1.7c0.4-0.5,0.7-0.8,1-0.8c0.7,0,1.1,0.6,1.1,1.9
			c0,2.5-0.6,4.7-1.9,6.3c-1.3,1.7-3.2,2.5-5.9,2.5c-4.1,0-7-1.1-8.8-3.2c0.9,9.3,1.4,14.9,1.4,16.7c0,3.2-1,5.4-3,6.8
			c-1.7,1.1-3.8,1.7-6.3,1.7c-2.6,0-4.3-0.6-5.3-1.7c-1-1.2-1.5-2.6-1.5-4.2c0-10.2,1.5-20.5,4.4-30.8c0.9-3.3,2-6.4,3.2-9.3
			C788.1,479.2,786.6,477.9,786.6,476.8z M794.3,520.5c0.4-0.8,0.6-1.6,0.6-2.5c0-2.9-0.4-7.4-1.2-13.5c-1.1,4.4-1.8,8.7-2.2,13
			c-0.1,0.9-0.1,1.5-0.1,1.7c0,1.6,0.5,2.4,1.5,2.4C793.4,521.7,793.9,521.3,794.3,520.5z M808.6,468c-0.8,0-2,0.8-3.5,2.4
			c-1.5,1.6-3,4.1-4.5,7.4c3.1-1.4,5.1-2.4,6.1-3.1c2-1.4,3-3.1,3-5C809.8,468.6,809.4,468,808.6,468z"/>
		<path id="XMLID_615_" fill="#300033" d="M832.3,482.4c0-2.8,2.2-4.3,6.6-4.3c1.1,0,1.8,0.4,2.1,1.1c0.3,0.7,0.4,1.8,0.4,3.3
			c0,2.1-0.5,5.3-1.4,9.7c-0.9,4.4-1.4,7.3-1.3,8.8c0,0.7,0.2,1.1,0.7,1.1c0.6,0,1.4-0.4,2.4-1.2c0.9-0.8,1.9-1.7,2.8-2.6
			c0.9-1,1.8-1.8,2.6-2.6c0.8-0.8,1.3-1.2,1.6-1.2c0.6,0,0.9,0.7,0.9,2.2c0,3-1.5,5.8-4.4,8.6c-4.9,2.9-8,4.3-9.3,4.3
			c-0.1,0-0.2,0-0.3-0.1c-1.6,0-2.7-0.5-3.4-1.6c-0.7-1.1-1.1-2.4-1.2-4c-0.8,1.6-2,2.9-3.5,4c-1.5,1.1-3.2,1.7-5.1,1.7
			c-3.3,0-5.9-0.6-7.7-1.9c-1.8-1.3-2.7-3.2-2.7-5.7c0-1.1,0.2-2.1,0.5-3.1c0.3-0.9,0.8-2.1,1.6-3.4l1.8-15.6c1.3-1,3.2-1.5,5.7-1.5
			c1.9,0,3.1,1.3,3.3,3.8c0.2,2.1,0.1,3.9-0.3,5.6c-0.4,1.6-0.9,3.7-1.6,6.2c-0.7,2.5-1,4.7-1,6.6c0,1.5,1,2.3,2.9,2.3
			c2.1,0,3.9-1.8,5.4-5.5c1.2-2.8,2-5.9,2.4-9.3c0-0.3-0.1-0.8-0.1-1.3c0-0.5,0-1-0.1-1.6c0-0.5,0-1,0-1.5V482.4z M826.1,469.5
			c-1.4,1-2.9,1.4-4.6,1.4c-1.7,0-2.5-0.9-2.5-2.7c0-1.8,0.6-3.5,1.7-4.9c1.2-1.4,2.5-2.2,3.9-2.2c1.7,0,3.2,1.5,4.5,4.5
			C828.5,467.2,827.5,468.5,826.1,469.5z M841.6,463.8c-1.8,4.7-4,7.1-6.6,7.1c-1,0-1.7-0.3-2.3-0.9c-0.6-0.6-0.9-1.3-0.9-2.1
			c0-1.9,0.4-3.4,1.3-4.5c0.9-1.1,1.9-1.7,3.2-1.7C838.7,461.7,840.4,462.4,841.6,463.8z"/>
		<path id="XMLID_619_" fill="#300033" d="M855.7,498.5l0.4,7.8c0,1-0.5,1.9-1.6,2.7c-1.1,0.8-2.5,1.2-4.3,1.2
			c-1.1,0-1.8-0.6-2.2-1.7c-0.4-1.1-0.6-2.7-0.6-4.8c0-4.5,0.2-7.9,0.7-10.5c0.4-2.5,1.3-5.1,2.6-7.7c-2-1.9-2.9-3.5-2.9-4.8
			c0-2.8,1.5-4.3,4.6-4.3c1.6,0,2.9,0.8,4.1,2.5c0.8,1.1,1.5,2.5,1.8,4c0.6,0.2,1.3,0.3,2.2,0.3c1.2,0,2.6-0.4,4.3-1.2l1.7-0.8
			c0.5-0.3,1-0.4,1.3-0.4c1.2,0,2.5,1.8,3.7,5.4c-0.4,1.7-0.8,3.2-1.2,4.8c-0.4,1.5-1,3.4-1.6,5.5c-0.6,2.2-0.9,3.6-0.9,4.4
			c0,0.7,0.2,1.1,0.7,1.1c0.6,0,1.4-0.4,2.4-1.2c0.9-0.8,1.9-1.7,2.8-2.6c0.9-1,1.8-1.8,2.6-2.6c0.8-0.8,1.3-1.2,1.6-1.2
			c0.6,0,0.9,0.7,0.9,2.2c0,2.9-1.3,5.8-3.8,8.6c-2.6,2.8-5.5,4.2-8.8,4.2c-2,0-3.4-0.8-4.4-2.4c-1-1.6-1.5-3.5-1.5-5.7
			c0-4.5,1-8.7,3-12.7c-0.9,0.4-2,0.6-3.1,0.6c-1.2,0-2,0-2.5-0.1c-0.4,1.6-0.8,3.2-1.1,4.9C855.9,495.6,855.7,497.1,855.7,498.5z"
			/>
		<path id="XMLID_621_" fill="#300033" d="M902.1,476.8c0-0.8,0.3-1.1,0.8-1.1c0.8,0,1.7,0.2,2.6,0.5c0.9,0.4,1.8,0.6,2.9,0.9
			c3.4-7.2,7.3-12,11.7-14.2c1.5-0.8,3.1-1.1,4.6-1.1c2.8,0,4.8,0.7,5.8,2c1,1.3,1.5,3,1.5,5.1c0,3.9-1.7,7-5.1,9.3
			c-3.4,2.3-7.4,3.5-12.3,3.8c-1.2,3.3-2.2,6.7-2.9,10.4c1.7-0.6,3.8-1,6.4-1c0.3,2.7,0.9,4.6,1.8,5.7c0.8,1.1,1.8,1.7,2.8,1.7
			c1,0,1.9-0.3,2.6-0.8c0.7-0.5,1.3-1.1,1.8-1.7c0.5-0.6,1-1.2,1.3-1.7c0.4-0.5,0.7-0.8,1-0.8c0.7,0,1.1,0.6,1.1,1.9
			c0,2.5-0.6,4.7-1.9,6.3c-1.3,1.7-3.2,2.5-5.9,2.5c-4.1,0-7-1.1-8.8-3.2c0.9,9.3,1.4,14.9,1.4,16.7c0,3.2-1,5.4-3,6.8
			c-1.7,1.1-3.8,1.7-6.3,1.7c-2.6,0-4.3-0.6-5.3-1.7c-1-1.2-1.5-2.6-1.5-4.2c0-10.2,1.5-20.5,4.4-30.8c0.9-3.3,2-6.4,3.2-9.3
			C903.7,479.2,902.1,477.9,902.1,476.8z M909.9,520.5c0.4-0.8,0.6-1.6,0.6-2.5c0-2.9-0.4-7.4-1.2-13.5c-1.1,4.4-1.8,8.7-2.2,13
			c-0.1,0.9-0.1,1.5-0.1,1.7c0,1.6,0.5,2.4,1.5,2.4C909,521.7,909.4,521.3,909.9,520.5z M924.2,468c-0.8,0-2,0.8-3.5,2.4
			c-1.5,1.6-3,4.1-4.5,7.4c3.1-1.4,5.1-2.4,6.1-3.1c2-1.4,3-3.1,3-5C925.3,468.6,924.9,468,924.2,468z"/>
		<path id="XMLID_625_" fill="#300033" d="M936.7,498.5l0.4,7.8c0,1-0.5,1.9-1.6,2.7c-1.1,0.8-2.5,1.2-4.3,1.2
			c-1.1,0-1.8-0.6-2.2-1.7c-0.4-1.1-0.6-2.7-0.6-4.8c0-4.5,0.2-7.9,0.7-10.5c0.4-2.5,1.3-5.1,2.6-7.7c-2-1.9-2.9-3.5-2.9-4.8
			c0-2.8,1.5-4.3,4.6-4.3c1.6,0,2.9,0.8,4.1,2.5c0.8,1.1,1.5,2.5,1.8,4c0.6,0.2,1.3,0.3,2.2,0.3c1.2,0,2.6-0.4,4.3-1.2l1.7-0.8
			c0.5-0.3,1-0.4,1.3-0.4c1.2,0,2.5,1.8,3.7,5.4c-0.4,1.7-0.8,3.2-1.2,4.8c-0.4,1.5-1,3.4-1.6,5.5c-0.6,2.2-0.9,3.6-0.9,4.4
			c0,0.7,0.2,1.1,0.7,1.1c0.6,0,1.4-0.4,2.4-1.2c0.9-0.8,1.9-1.7,2.8-2.6c0.9-1,1.8-1.8,2.6-2.6c0.8-0.8,1.3-1.2,1.6-1.2
			c0.6,0,0.9,0.7,0.9,2.2c0,2.9-1.3,5.8-3.8,8.6c-2.6,2.8-5.5,4.2-8.8,4.2c-2,0-3.4-0.8-4.4-2.4c-1-1.6-1.5-3.5-1.5-5.7
			c0-4.5,1-8.7,3-12.7c-0.9,0.4-2,0.6-3.1,0.6c-1.2,0-2,0-2.5-0.1c-0.4,1.6-0.8,3.2-1.1,4.9C936.9,495.6,936.7,497.1,936.7,498.5z"
			/>
		<path id="XMLID_627_" fill="#300033" d="M995.5,494.2c0.8,0,1.1,1,1.1,2.9c0,1.1-0.4,2.3-1.3,3.8c-0.9,1.5-2,2.9-3.5,4.1
			c-1.4,1.3-3,2.3-4.7,3.1c-1.7,0.8-3.4,1.2-5.1,1.2c-2.2,0-3.8-2-4.5-5.9c-1.1,1.8-2.5,3.3-4.3,4.5c-1.8,1.2-4.2,1.7-7.2,1.7
			c-3,0-5.4-0.9-7.2-2.8c-1.8-1.9-2.7-4.1-2.7-6.8c0-7.2,2.4-12.9,7.2-17c2-1.7,3.9-2.9,5.7-3.4c1.8-0.6,3.6-0.8,5.6-0.8
			c1.9,0,3.5,0.3,4.8,1c0.6-1.2,1.3-1.8,2-1.8c1.5,0,2.9,0.6,4.2,1.9c1.3,1.3,2,2.5,2,3.7c-0.6,1.4-1.5,3.1-2.6,5
			c-0.3,2-0.5,4.7-0.5,8.2c0,3.5,0.4,5.3,1.3,5.3c1.1,0,3.8-2.2,8-6.6C994.6,494.6,995.2,494.2,995.5,494.2z M965.5,498
			c0,3.3,1.2,4.9,3.6,4.9c2.6,0,4.7-1.4,6.4-4.1c0.6-0.9,1.1-2.1,1.5-3.4c0-4.7,0.4-8.8,1.3-12.2c-3.4,0.7-6.4,2.3-9,5
			C966.8,490.7,965.5,494,965.5,498z"/>
		<path id="XMLID_630_" fill="#300033" d="M1002,477.5c1.5,0,3,1.5,4.3,4.4c2-2.1,4.5-3.1,7.4-3.1c2.9,0,5.2,0.6,6.6,1.9
			c1.5,1.3,2.2,3.1,2.2,5.5c0,2.4-0.3,4.7-0.9,7.2c-0.6,2.4-1.1,4.1-1.3,5.2c-0.3,1-0.4,1.9-0.4,2.6c0,0.7,0.2,1,0.7,1
			c0.6,0,1.4-0.4,2.4-1.2c0.9-0.8,1.9-1.7,2.8-2.6c0.9-1,1.8-1.8,2.6-2.6c0.8-0.8,1.3-1.2,1.6-1.2c0.6,0,0.9,0.7,0.9,2.2
			c0,3-1.5,5.8-4.4,8.6c-4.9,2.9-8.1,4.3-9.4,4.3c-0.1,0-0.2,0-0.3-0.1c-3.4,0-5.1-2.7-5.1-8.1c0-2.3,0.2-4.5,0.7-6.4
			c0.4-1.9,0.8-3.4,1-4.3c0.2-0.9,0.3-1.8,0.3-2.7c0-1.5-0.9-2.3-2.6-2.3c-1.8,0-3.4,1.3-5,3.9s-2.7,5.3-3.2,8.1v0.4
			c0,1.4,0.2,2.9,0.7,4.5s0.7,2.6,0.7,3.2c0,1.4-1.8,2.9-5.4,4.3c-0.6,0.2-1,0.3-1.5,0.3c-1.1,0-1.8-0.6-2.2-1.7
			c-0.4-1.1-0.6-2.8-0.6-5.2c0-6,0.2-10.4,0.7-13c0.6-4,2.1-7.7,4.3-11.1C1000.2,478.1,1001.1,477.5,1002,477.5z"/>
		<path id="XMLID_632_" fill="#300033" d="M1046.2,495.3c1.1,4.5,3.1,6.8,5.8,6.8c1.3,0,2.5-0.4,3.6-1.2c1.1-0.8,2-1.7,2.9-2.6
			c0.8-1,1.6-1.8,2.2-2.6c0.6-0.8,1.2-1.2,1.8-1.2c0.6,0,0.8,0.7,0.8,2.2c0,3-1.4,5.9-4.2,8.7c-2.8,2.8-5.9,4.2-9.4,4.2
			c-3.5,0-6.5-3.1-9.3-9.1c-0.8-1.7-1.5-3.4-2.2-5.2l-0.4,8.7c0,0.8,0,1.6-0.1,2.4c-0.1,0.8-0.4,1.4-1.1,1.9c-1.7,1.3-3.3,2-5,2
			c-2,0-3-2.1-3-6.2c0-5.9,0.7-12.1,2.1-18.6c1.4-6.5,2.8-11.4,4.1-14.7c1.3-3.3,2.4-5.5,3.1-6.6c0.7-1.1,1.3-1.8,1.7-2
			c0.4-0.3,0.9-0.4,1.4-0.4c0.5,0,1.1,0.3,1.7,0.8c0.6,0.5,1.2,1.3,1.9,2.4c0.7,1.1,1,2.1,1,3.2c0,1-0.1,2.1-0.5,3.1
			c-0.4,1-0.8,2-1.4,2.9c-0.6,1-1.3,1.9-2,2.9c-0.7,1-1.4,2.1-2.2,3.2l-0.6,5.3c1.5-3.1,3.7-5.2,6.6-6.2c1-0.4,2.2-0.6,3.6-0.6
			c2.7,0,4.8,0.6,6.2,1.9c1.4,1.3,2.2,3.2,2.2,5.7c0,2.5-1.3,4.6-3.8,6.4C1051.3,494.5,1048.8,495.3,1046.2,495.3z M1048.6,487.8
			c0-1.5-0.9-2.3-2.6-2.3c-1.7,0-3.6,1.7-5.7,5c-0.6,1-1.1,2-1.5,3c4.4-0.3,7.4-1.4,9-3.6C1048.4,489.3,1048.6,488.6,1048.6,487.8z"
			/>
		<path id="XMLID_635_" fill="#300033" d="M1085.8,503.8c-3.4,3.9-7.4,5.9-12.1,5.9c-4.7,0-8.2-1.2-10.5-3.6
			c-2.3-2.4-3.5-5.4-3.4-8.9c0-5,1.5-9.4,4.8-13c3.2-3.6,7.4-5.5,12.7-5.5c2.4,0,4.3,0.3,5.7,0.9c2.5,1,3.8,2,3.8,2.9
			c0,0.7-1.7,1-5.2,1c-3.5,0-6.4,1.2-8.8,3.6c-2.4,2.4-3.5,5.4-3.5,9.1c0,1.9,0.6,3.5,1.7,4.8c1.1,1.3,2.7,1.9,4.8,1.9
			c2.1,0,3.8-0.4,5.1-1.3c-3-2-4.5-5-4.5-8.8c0-2,0.7-3.9,2.2-5.6c1.5-1.7,3.4-2.5,5.8-2.5c2.4,0,4,0.6,5.1,1.9c1,1.3,1.5,3,1.5,5.1
			s-0.5,4.2-1.5,6.5h0.4c1.9,0,3.5-0.7,4.8-2c0.5-0.5,0.9-1,1.3-1.3c0.4-0.4,0.7-0.6,1.1-0.6c0.6,0,0.9,0.7,0.9,2.1
			c0,2.6-0.8,4.5-2.3,5.8c-1.5,1.3-3.2,1.9-5.1,1.9S1087,504,1085.8,503.8z M1085.2,496.4c0.7-1.5,1.1-3,1.1-4.5s-0.5-2.2-1.4-2.2
			c-0.4,0-0.7,0.3-1,0.8c-0.3,0.6-0.4,1.1-0.4,1.6C1083.5,493.9,1084.1,495.3,1085.2,496.4z"/>
		<path id="XMLID_638_" fill="#300033" d="M1106.6,482.5c2.2-2.5,5-3.8,8.5-3.8c4.9,0,8,2,9.3,6c0.4,1.2,0.6,2.5,0.6,3.9
			c0,3.2-1,6.4-3.1,9.5s-4.6,5.3-7.6,6.4h0.8c3.1,0,6.2-1.1,9.4-3.4c2-1.4,3.6-2.9,4.8-4.5c1.2-1.5,2-2.3,2.6-2.3
			c0.6,0,0.9,0.7,0.9,2c0,2.4-1,4.8-3.1,7.2c-3.1,3.5-7,5.5-11.7,6.1c-3.4,0.4-5.9,0.4-7.3,0.2c-1.4-0.3-2.5-0.6-3.3-1
			c-1.7-0.8-2.5-2.1-2.5-3.8c0-0.9,0.2-1.8,0.6-2.5c3.3,0,5.9-1.3,7.6-3.8c1.7-2.5,2.6-5.7,2.6-9.5c0-0.9-0.3-1.8-1-2.5
			c-0.7-0.7-1.6-1.1-2.7-1.1c-1.1,0-2.3,0.5-3.7,1.5c-1.3,1-2.4,2.2-3.1,3.7c-0.8,1.5-1.5,2.9-2.1,4.3c-0.6,1.4-1.1,3.2-1.5,5.4
			c-0.7,3.9-1.5,8.8-2.3,14.8c-0.9,6-1.4,9.2-1.6,9.6c-0.2,0.4-0.5,0.9-1,1.2c-0.4,0.4-0.9,0.6-1.3,0.6c-0.8,0-1.5-0.3-2.1-0.8
			c-1.5-1.3-2.4-2.3-2.7-3s-0.4-1.6-0.4-2.7c0-4.2,0.7-10,2.1-17.5c1.4-7.5,3.8-15.3,7.2-23.4c0.5-1.2,1.4-1.8,2.7-1.8
			c1.3,0,2.5,1.1,3.7,3.4C1106.3,481.5,1106.5,482,1106.6,482.5z"/>
		<path id="XMLID_640_" fill="#300033" d="M1150.8,487.8c0-1.5-0.9-2.3-2.7-2.3c-1.8,0-3.6,1.4-5.3,4.2c-1.7,2.8-2.8,5.6-3.2,8.5
			c0.1,1,0.2,2,0.3,2.9c0.1,1,0.1,1.9,0.1,2.9c0,2.2-0.7,3.8-2.2,4.6c-0.7,0.4-1.3,0.7-1.9,1.1c-0.6,0.3-1.3,0.5-2.1,0.5
			c-0.8,0-1.5-0.5-2.1-1.6c-0.6-1.1-0.9-2.8-0.9-5.1c0-6.4,0.5-12,1.4-16.7c1.4-7.3,4.3-15.1,8.6-23.4c0.6-1.1,1.5-1.7,2.6-1.7
			c1.1,0,2.1,0.8,2.8,2.4c0.7,1.6,1.1,2.9,1,3.9c0,1.1-0.2,2.1-0.5,3.1c-0.3,1-0.7,2-1.2,2.9c-0.5,1-1,1.9-1.7,2.9
			c-0.6,1-1.2,2.1-1.8,3.2l-1,4.6c1.7-2.8,3.9-4.6,6.7-5.5c1-0.3,2.1-0.5,3.4-0.5c2.9,0,5.1,0.6,6.6,1.9c1.5,1.3,2.2,3.1,2.2,5.5
			c0,2.4-0.3,4.7-0.9,7.2c-0.6,2.4-1.1,4.1-1.3,5.2c-0.3,1-0.4,1.9-0.4,2.6c0,0.7,0.2,1,0.7,1c0.6,0,1.4-0.4,2.4-1.2
			c0.9-0.8,1.9-1.7,2.8-2.6c0.9-1,1.8-1.8,2.6-2.6c0.8-0.8,1.3-1.2,1.6-1.2c0.6,0,0.9,0.7,0.9,2.2c0,3-1.5,5.8-4.4,8.6
			c-4.9,2.9-8.1,4.3-9.4,4.3c-0.1,0-0.2,0-0.3-0.1c-3.4,0-5.1-2.7-5.1-8.1c0-2.3,0.2-4.5,0.7-6.4c0.4-1.9,0.8-3.4,1-4.3
			C1150.7,489.7,1150.8,488.8,1150.8,487.8z"/>
		<path id="XMLID_642_" fill="#300033" d="M1190.4,503.8c-3.4,3.9-7.4,5.9-12.1,5.9c-4.7,0-8.2-1.2-10.5-3.6
			c-2.3-2.4-3.5-5.4-3.4-8.9c0-5,1.5-9.4,4.8-13c3.2-3.6,7.4-5.5,12.7-5.5c2.4,0,4.3,0.3,5.7,0.9c2.5,1,3.8,2,3.8,2.9
			c0,0.7-1.7,1-5.2,1c-3.5,0-6.4,1.2-8.8,3.6c-2.4,2.4-3.5,5.4-3.5,9.1c0,1.9,0.6,3.5,1.7,4.8c1.1,1.3,2.7,1.9,4.8,1.9
			c2.1,0,3.8-0.4,5.1-1.3c-3-2-4.5-5-4.5-8.8c0-2,0.7-3.9,2.2-5.6c1.5-1.7,3.4-2.5,5.8-2.5c2.4,0,4,0.6,5.1,1.9c1,1.3,1.5,3,1.5,5.1
			s-0.5,4.2-1.5,6.5h0.4c1.9,0,3.5-0.7,4.8-2c0.5-0.5,0.9-1,1.3-1.3c0.4-0.4,0.7-0.6,1.1-0.6c0.6,0,0.9,0.7,0.9,2.1
			c0,2.6-0.8,4.5-2.3,5.8c-1.5,1.3-3.2,1.9-5.1,1.9S1191.7,504,1190.4,503.8z M1189.9,496.4c0.7-1.5,1.1-3,1.1-4.5s-0.5-2.2-1.4-2.2
			c-0.4,0-0.7,0.3-1,0.8c-0.3,0.6-0.4,1.1-0.4,1.6C1188.2,493.9,1188.8,495.3,1189.9,496.4z"/>
		<path id="XMLID_645_" fill="#300033" d="M1207.7,477.5c1.5,0,3,1.5,4.3,4.4c2-2.1,4.5-3.1,7.4-3.1c2.9,0,5.2,0.6,6.6,1.9
			c1.5,1.3,2.2,3.1,2.2,5.5c0,2.4-0.3,4.7-0.9,7.2c-0.6,2.4-1.1,4.1-1.3,5.2c-0.3,1-0.4,1.9-0.4,2.6c0,0.7,0.2,1,0.7,1
			c0.6,0,1.4-0.4,2.4-1.2c0.9-0.8,1.9-1.7,2.8-2.6c0.9-1,1.8-1.8,2.6-2.6c0.8-0.8,1.3-1.2,1.6-1.2c0.6,0,0.9,0.7,0.9,2.2
			c0,3-1.5,5.8-4.4,8.6c-4.9,2.9-8.1,4.3-9.4,4.3c-0.1,0-0.2,0-0.3-0.1c-3.4,0-5.1-2.7-5.1-8.1c0-2.3,0.2-4.5,0.7-6.4
			c0.4-1.9,0.8-3.4,1-4.3c0.2-0.9,0.3-1.8,0.3-2.7c0-1.5-0.9-2.3-2.6-2.3c-1.8,0-3.4,1.3-5,3.9s-2.7,5.3-3.2,8.1v0.4
			c0,1.4,0.2,2.9,0.7,4.5s0.7,2.6,0.7,3.2c0,1.4-1.8,2.9-5.4,4.3c-0.6,0.2-1,0.3-1.5,0.3c-1.1,0-1.8-0.6-2.2-1.7
			c-0.4-1.1-0.6-2.8-0.6-5.2c0-6,0.2-10.4,0.7-13c0.6-4,2.1-7.7,4.3-11.1C1206,478.1,1206.9,477.5,1207.7,477.5z"/>
		<path id="XMLID_647_" fill="#300033" d="M1248.3,502.3c3.3,0,6.5-1.3,9.6-3.9c1.1-1,2.1-1.9,2.8-2.7c0.7-0.8,1.3-1.2,1.7-1.2
			c0.6,0,0.9,0.6,0.9,1.8c0,1.2-0.3,2.5-1,4c-0.6,1.5-1.7,2.9-3.2,4.3c-3.6,3.4-8.6,5.2-15,5.2c-5,0-8.5-1.8-10.3-5.5
			c-0.6-1.3-1-3.1-1-5.5c0-2.4,0.5-4.8,1.4-7.4c0.9-2.6,2.2-4.8,3.7-6.6c1.5-1.9,3.3-3.3,5.4-4.4c2-1,4.2-1.6,6.5-1.6
			c2.3,0,4.1,0.6,5.3,1.7c1.2,1.1,1.9,2.6,1.9,4.5c0,1.8-0.5,3.3-1.4,4.5c-0.9,1.2-2.1,2.1-3.5,2.9c-1.4,0.8-3,1.5-4.8,2.1
			c-1.8,0.6-3.5,1.3-5.2,2.1v1.6c0,1.5,0.7,2.6,1.9,3.2C1245.3,501.9,1246.7,502.2,1248.3,502.3z M1247.2,484.3
			c-2.2,0-3.7,2.6-4.6,7.7c0.9-0.6,1.7-1.1,2.5-1.6c0.8-0.5,1.5-0.9,2.1-1.3c1.3-0.9,1.9-2,2-3.2
			C1249.1,484.9,1248.5,484.3,1247.2,484.3z"/>
		<path id="XMLID_650_" fill="#300033" d="M1348,494.2c0.7,0,1.1,1,1.1,2.9c0,1.1-0.4,2.3-1.3,3.8c-0.9,1.5-2,2.9-3.5,4.1
			c-1.4,1.3-3,2.3-4.7,3.1c-1.7,0.8-3.6,1.2-5.5,1.2c-1.9,0-3.4-0.6-4.5-1.9c-1.1-1.2-1.6-2.6-1.6-4.2c0-1.5,0.3-3.3,0.8-5.2
			c0.5-1.9,1.1-4,1.7-6.1c1.6-5.6,2.4-9.6,2.5-11.9c0-1-0.1-1.7-0.4-2.3s-0.7-0.8-1.5-0.8c-1.3,0-2.6,0.8-4.1,2.3
			c-1.4,1.5-2.8,3.5-4.1,5.9c-2.9,5.4-4.5,10.7-4.6,15.9c0.1,0.6,0.2,1.2,0.3,1.8c0.1,0.6,0.1,1.2,0.1,1.9c0,1.4-0.7,2.6-2,3.7
			s-2.8,1.7-4.5,1.7c-1,0-1.7-0.5-2.2-1.4c-0.5-1-0.7-2.1-0.7-3.5c0-1.4,0.3-3.3,1-5.7c0.6-2.4,1.3-5,2.1-7.7c2-7.2,3.1-12.5,3.1-16
			c0-1.8-0.2-3.2-0.7-4.2c-0.4-1-1.3-1.5-2.6-1.5c-2.3,0-4.6,1.6-6.8,4.9c-2.2,3.3-4.3,8.3-6,15.2c-0.5,1.8-0.8,3.3-1.1,4.6
			l-0.1,1.2c0.8,3.9,1.2,6.4,1.2,7.6c0,2.5-0.9,4.1-2.6,5c-0.8,0.4-1.6,0.7-2.3,1.1c-0.7,0.3-1.5,0.5-2.4,0.5c-2.1,0-3.2-2-3.2-6.1
			s1.1-12,3.4-23.8c0.8-4.2,1.2-6.6,1.2-7.1c0-3.4-0.9-5.2-2.6-5.2c-0.6,0-1.1,0.2-1.6,0.5c-0.5,0.3-1,0.7-1.5,1.1
			c-0.5,0.4-1,0.7-1.5,1.1c-0.5,0.3-1.1,0.5-1.7,0.5c-0.7,0-1-0.6-1-1.7c0-2.3,1.1-4.2,3.2-5.7c2.1-1.5,4.6-2.3,7.6-2.3
			c3.8,0,6.1,1.8,6.7,5.3c0.2,1.1,0.3,2.2,0.4,3.4c3.1-5.9,7.1-8.8,11.9-8.8c5.2,0,8.2,2.5,9,7.5c0.3,1.4,0.4,3,0.3,4.6v0.5
			c2.8-3.8,6-5.7,9.8-5.7c5.3,0,8,3.2,8,9.7c0,2.8-0.4,6.1-1.3,9.8c-0.9,3.8-1.5,6.4-1.9,8.1c-0.4,1.6-0.6,2.9-0.6,3.8
			c0,1.6,0.6,2.4,1.7,2.4c1.1,0,3.8-2.2,8-6.6C1347.1,494.6,1347.7,494.2,1348,494.2z"/>
		<path id="XMLID_652_" fill="#300033" d="M1365.7,482.4c0-2.8,2.2-4.3,6.6-4.3c1.1,0,1.8,0.4,2.1,1.1c0.3,0.7,0.4,1.8,0.4,3.3
			c0,2.1-0.5,5.3-1.4,9.7c-0.9,4.4-1.4,7.3-1.3,8.8c0,0.7,0.2,1.1,0.7,1.1c0.6,0,1.4-0.4,2.4-1.2c0.9-0.8,1.9-1.7,2.8-2.6
			c0.9-1,1.8-1.8,2.6-2.6c0.8-0.8,1.3-1.2,1.6-1.2c0.6,0,0.9,0.7,0.9,2.2c0,3-1.5,5.8-4.4,8.6c-4.9,2.9-8,4.3-9.3,4.3
			c-0.1,0-0.2,0-0.3-0.1c-1.6,0-2.7-0.5-3.4-1.6c-0.7-1.1-1.1-2.4-1.2-4c-0.8,1.6-2,2.9-3.5,4c-1.5,1.1-3.2,1.7-5.1,1.7
			c-3.3,0-5.9-0.6-7.7-1.9c-1.8-1.3-2.7-3.2-2.7-5.7c0-1.1,0.2-2.1,0.5-3.1c0.3-0.9,0.8-2.1,1.6-3.4l1.8-15.6c1.3-1,3.2-1.5,5.7-1.5
			c1.9,0,3.1,1.3,3.3,3.8c0.2,2.1,0.1,3.9-0.3,5.6c-0.4,1.6-0.9,3.7-1.6,6.2c-0.7,2.5-1,4.7-1,6.6c0,1.5,1,2.3,2.9,2.3
			c2.1,0,3.9-1.8,5.4-5.5c1.2-2.8,2-5.9,2.4-9.3c0-0.3-0.1-0.8-0.1-1.3c0-0.5,0-1-0.1-1.6c0-0.5,0-1,0-1.5V482.4z"/>
		<path id="XMLID_654_" fill="#300033" d="M1394.3,478.4c2.8,0,5,0.5,6.4,1.6s2.1,2.6,2.1,4.6c0,2-0.6,3.7-1.8,5.2
			c-1.2,1.4-2.7,2.4-4.4,3c1.2,1.3,2.3,2.6,3.3,3.9c1,1.3,1.5,2.7,1.5,4.1c0,2.8-1.1,5-3.4,6.6c-2.2,1.5-5.4,2.3-9.4,2.3
			c-4,0-7-0.8-9-2.4c-2-1.6-3-3.4-3-5.4c0-2,0.5-3.8,1.5-5.5s2.1-2.5,3.2-2.5c0.7,0,1.2,0.2,1.5,0.7c0.3,0.5,0.8,1.9,1.7,4.2
			c0.3,0.8,0.8,1.7,1.5,2.4c1.6,1.7,4,2.6,7.4,2.6c-0.5-1.6-1.3-3-2.4-4.2c-1.1-1.2-2.2-2.3-3.3-3.4c-1.1-1.1-2.1-2.3-2.9-3.5
			c-0.8-1.2-1.3-2.7-1.3-4.4c0-3.1,1.1-5.5,3.4-7.4C1389,479.3,1391.5,478.4,1394.3,478.4z M1394.1,490.2c1.7-1.8,2.5-3.3,2.5-4.4
			c0-0.5-0.2-1-0.5-1.4c-0.4-0.4-0.9-0.6-1.6-0.6c-0.7,0-1.3,0.1-1.9,0.3c-0.6,0.2-1.1,0.3-1.5,0.4
			C1391.1,486.1,1392.1,488,1394.1,490.2z"/>
		<path id="XMLID_657_" fill="#300033" d="M1413,509.4c-4.2,0-6.4-4-6.4-11.9c0-4.3,0.5-8.2,1.6-11.8c1.7-5.4,3.5-8.1,5.6-8.1
			c1.2,0,2.2,0.8,2.9,2.5c0.6,1.3,0.9,2.5,0.8,3.8c0,1.7-0.5,4.7-1.5,9c-1,3.7-1.5,6-1.5,6.9c0,0.9,0.2,1.5,0.7,1.8
			c0.4,0.3,1,0.5,1.6,0.5c0.6,0,1.4-0.4,2.3-1.2c0.9-0.8,1.9-1.7,2.8-2.6c0.9-1,1.8-1.8,2.6-2.6c0.8-0.8,1.3-1.2,1.6-1.2
			c0.6,0,0.9,0.7,0.9,2.2c0,3-1.5,5.9-4.5,8.7C1419.6,508,1416.4,509.4,1413,509.4z M1415.6,472.4c-1.1-1.7-1.7-3.5-1.7-5.5
			c0-1.9,0.3-3.6,0.9-4.9c0.6-1.3,1.2-2.2,1.7-2.9c0.6-0.6,1.2-0.9,1.9-0.9c1.2,0,2.3,0.9,3.2,2.6c1,1.8,1.5,3.2,1.5,4.4
			c0,2.2-0.8,3.9-2.3,5.2C1419.3,471.8,1417.5,472.4,1415.6,472.4z"/>
		<path id="XMLID_660_" fill="#300033" d="M1442.4,495.3c1.1,4.5,3.1,6.8,5.8,6.8c1.3,0,2.5-0.4,3.6-1.2c1.1-0.8,2-1.7,2.9-2.6
			c0.8-1,1.6-1.8,2.2-2.6c0.6-0.8,1.2-1.2,1.8-1.2c0.6,0,0.8,0.7,0.8,2.2c0,3-1.4,5.9-4.2,8.7c-2.8,2.8-5.9,4.2-9.4,4.2
			c-3.5,0-6.5-3.1-9.3-9.1c-0.8-1.7-1.5-3.4-2.2-5.2l-0.4,8.7c0,0.8,0,1.6-0.1,2.4c-0.1,0.8-0.4,1.4-1.1,1.9c-1.7,1.3-3.3,2-5,2
			c-2,0-3-2.1-3-6.2c0-5.9,0.7-12.1,2.1-18.6c1.4-6.5,2.8-11.4,4.1-14.7c1.3-3.3,2.4-5.5,3.1-6.6c0.7-1.1,1.3-1.8,1.7-2
			c0.4-0.3,0.9-0.4,1.4-0.4c0.5,0,1.1,0.3,1.7,0.8c0.6,0.5,1.2,1.3,1.9,2.4c0.7,1.1,1,2.1,1,3.2c0,1-0.1,2.1-0.5,3.1
			c-0.4,1-0.8,2-1.4,2.9c-0.6,1-1.3,1.9-2,2.9c-0.7,1-1.4,2.1-2.2,3.2l-0.6,5.3c1.5-3.1,3.7-5.2,6.6-6.2c1-0.4,2.2-0.6,3.6-0.6
			c2.7,0,4.8,0.6,6.2,1.9c1.4,1.3,2.2,3.2,2.2,5.7c0,2.5-1.3,4.6-3.8,6.4C1447.5,494.5,1445,495.3,1442.4,495.3z M1444.8,487.8
			c0-1.5-0.9-2.3-2.6-2.3c-1.7,0-3.6,1.7-5.7,5c-0.6,1-1.1,2-1.5,3c4.4-0.3,7.4-1.4,9-3.6C1444.6,489.3,1444.8,488.6,1444.8,487.8z"
			/>
	</g>
</g>
</svg>
