<?xml version="1.0" encoding="utf-8"?>
<!-- Generator: Adobe Illustrator 19.0.1, SVG Export Plug-In . SVG Version: 6.00 Build 0)  -->
<!DOCTYPE svg PUBLIC "-//W3C//DTD SVG 1.1//EN" "http://www.w3.org/Graphics/SVG/1.1/DTD/svg11.dtd">
<svg version="1.1" id="Layer_1" xmlns="http://www.w3.org/2000/svg" xmlns:xlink="http://www.w3.org/1999/xlink" x="0px" y="0px"
	 viewBox="488 1156 2000 690" enable-background="new 488 1156 2000 690" xml:space="preserve">
<g id="Layer_2">
	<g id="XMLID_387_">
		<g id="XMLID_549_">
			<path id="XMLID_550_" fill="#FFBD37" d="M1160.9,1295.3c-0.3,0-0.6,0.1-0.9,0.2l-6.8,2.6c-0.5-0.4-1.1-0.7-1.6-1l-31.2-11.3
				c-0.5-0.2-0.9-0.2-1.3-0.2c-1.6,0-2.8,1.2-2.8,3.1v30.8c0,1.9,1.1,3.1,2.7,3.1c0.4,0,0.9-0.1,1.4-0.3l19.9-7.6
				c0.2,0.5,0.4,1.1,0.8,1.7c0.9,1.5,2.9,3.1,5.8,3.1h0.1c0.1,0,0.2,0,0.2,0c0,0.1,0.1,0.2,0.1,0.3l4.4,8.3c0.4,0.7,1.3,0.8,1.9,0.2
				l5.3-4.9c0.6-0.5,0.7-1.5,0.3-2.2l-2-3.9c-0.3-0.8-0.6-2-0.7-2.8l-0.5-3.4c0-0.6,0-1.5,0-2l4.1,1.6c0.3,0.1,0.6,0.2,0.9,0.2
				c1,0,1.8-0.8,1.8-2v-11.4C1162.7,1296.1,1162,1295.3,1160.9,1295.3z M1120.6,1290.6l29.5,10.7c0.1,0.1,0.3,0.2,0.4,0.3
				c0,0.2,0,0.3,0,0.5v2c0,0.5,0.1,1,0.4,1.5c-0.2,0.3-0.5,0.6-0.8,0.7l-29.5,11.2L1120.6,1290.6L1120.6,1290.6z M1143.5,1314.9
				c-0.3-0.4-0.4-0.8-0.5-1.1l3-1.1l0.5,4C1144.8,1316.5,1144.1,1315.7,1143.5,1314.9z"/>
		</g>
		<g id="XMLID_528_">
			
				<radialGradient id="XMLID_2_" cx="1274.8921" cy="1503.0039" r="324.6041" gradientTransform="matrix(1 0 0 -1 0 3004)" gradientUnits="userSpaceOnUse">
				<stop  offset="0" style="stop-color:#FFD787"/>
				<stop  offset="1" style="stop-color:#FFBD37"/>
			</radialGradient>
			<path id="XMLID_529_" fill="url(#XMLID_2_)" d="M1624.3,1460.2c10.8,2,9.4-14.7,0-9.3C1625,1456,1622.5,1456.6,1624.3,1460.2z
				 M1549.8,1455.5c-1.6,5-1.9,10-9.2,7c1.5,6-2.9,11.7-6.5,16.4c2.3,8.5,0.4,13.6-2.6,19.9c11,2.6,14.1,12.3,19.6,19.9
				c6.3-2,11.6-0.6,13.1,4.7c12.8,1.6,17.9-7,30.1-2.3c2.9-11.8,15.1-15.3,20.9-24.5c-2.9-0.9-5.2-2.3-5.2-5.8
				c0.8-3.2,5.5-2.9,5.2-7c-6.2-1.6-7.8-7.7-5.2-14c-9.1-3.6-15.2-9.8-19.6-17.5c-6.2,6.1-15.5-0.5-19.6-3.5
				C1562.1,1450.8,1560.2,1456.5,1549.8,1455.5z M1587.7,1654.1c-3.7,10.9,4.9,20.5,17,21c2.1-9.4-4.1-20.1-14.4-22.2
				C1590,1653.8,1589.2,1654.3,1587.7,1654.1z M1536.7,1759.2c4.8,0.3,5,1.6,9.2,0c0-6.5,7-9.8,9.2-16.4c2.1-6.3-1.2-14.3,5.2-18.7
				c-5-2.1-6.3-7.1-3.9-12.8c-10.9-1.6-10.1-13.5-23.5-12.9c0.1-2-0.3-3.6-1.3-4.7c-4-0.9-2.5,3.2-6.5,2.3c-3.6-1-3.1-5.8-7.9-5.8
				c-2.7,6.9-12.8,7.2-20.9,9.3c-3,7-11.8,9-14.4,16.4c-3.9-9.4-9.5-17.2-23.5-17.5c-14.1,25.3,33.7,26.8,26.2,53.7
				c13.7,5.3,25.8,18.2,43.2,10.5c3.2,1.5,3,5.9,7.9,5.8C1536.2,1765.8,1533.7,1760.1,1536.7,1759.2z M1394.1,1325.8
				c1.7-6.7,4.7-12.1,6.5-18.7C1392.6,1307.4,1392.9,1321.2,1394.1,1325.8z M1286.8,1776.7c-4.7,3.2-2.7,12.8,3.9,12.9
				C1297.5,1786.9,1294.3,1776.6,1286.8,1776.7z M1065.7,1376.1c0.8-5-4.3-4.8-3.9-9.3c2.1-5.5,9.9-5.9,15.7-8.2
				c1-4.8-4.2-4-2.6-9.4c1.8-3.5,5.9-4.8,9.2-7c-2.4-10.7,4.5-13.1,7.8-18.7c-2.1-2-6-2.4-6.5-5.8c5.2-11.2-11.2-12.5-5.2-24.5
				c-14.9-3.9-23.4-14.2-22.2-29.2c-7.9-0.4-6,7.9-11.8,9.3c-11.4,2-14.2-3.7-22.2-4.7c-7.3,3.9-18.1,6.8-31.4,8.2
				c0.2,6-5.1,7.1-9.2,9.3c0.9,6.2-0.8,10.2-5.2,11.7c-7.1,1.3-8.7-2.4-14.4-2.3c3,5.5,7.3,9.9,7.8,17.5c-4.2,5.2-10.5,8.6-7.8,19.9
				c4.1,0.6,6.5,2.8,7.8,5.8c-1.7,3.6-7.8,3.1-7.8,8.2c2.6,3.9,14.8-1.9,15.7,5.8c0.3,4.9-6.4,3.6-5.2,9.3c6,1.3,8.4,1.3,14.4,0
				c5.3,7.7-6.5,9.4-3.9,14c5.6,0,4.8-5.8,10.5-5.8c8.1,5.3,23.5-1.7,30.1,5.8c2.9,5.2-4,22,2.6,29.2
				C1020.6,1381.8,1043.8,1363.2,1065.7,1376.1z M1068.3,1641.2c-9.5,5.8-3,15.1-5.2,28C1071.6,1666,1070.3,1650.3,1068.3,1641.2z
				 M1016,1405.3c-1.7,8.2-2.9,16.9-3.9,25.7C1018.2,1427.4,1018,1412.1,1016,1405.3z M979.4,1228.9c9.8-4.5,2.1-15.4-5.2-16.4
				c-9.2-1.2-11.6,8-19.6,8.2c-5.6,15.4,15.5,14.2,23.5,21c1.9-0.6,3.3-1.7,5.2-2.3C984.2,1233.9,981.4,1231.7,979.4,1228.9z
				 M959.7,1633.1c-7.4,0.3-8.1,11.8-7.9,15.2C957.9,1646.2,958.2,1639.1,959.7,1633.1z M917.9,1593.3c11.3-2.4,21.2-6,28.8-11.7
				C935.2,1583.9,925.8,1587.9,917.9,1593.3z M1438.6,1710.2h5.2c2.4-6.5,1.4-5.5-2.6-11.7c3.7-4.4,0.9-7.5,3.9-11.7
				c-5.6-2-9.8-5.3-7.9-14c-10.8-4.1-18.8-15.2-32.7-15.2c-7.3,0-14.6,6.8-20.9,2.3c22.8-19.3-1.3-65.1,6.5-88.8
				c10.2,3,18.7,7.5,28.8,10.5c1.3,4.3,7,9.5,13.1,5.8c-6-15.7-30-15.3-35.3-31.5c7.9-6.3,10.2-13.4,18.3-21
				c19.2-0.8,28.6-9,40.6-15.2c4.9-2.5,11.9-1.6,11.8-8.2c-1.9-0.7-3.2-1.8-3.9-3.5c-7.6-0.9-9.4,3.2-17,2.3
				c-7.3-12,2-32.3,9.2-45.6c-8.1-1.4-10.1,2.6-17,2.3c-6.9-12.2,3.1-19.9-2.6-31.5c4.6-6.4,13.6-8.9,15.7-17.5
				c7.4-7.8,22.3-8.9,27.5-18.7c-8.9-0.3-9.9,3.6-15.7,7c-6.6,3.9-17.9,7.6-23.6,11.7c-7.3,5.3-9.8,12.1-17,11.7
				c-9.9-0.6-10.4-10.9-15.7-18.7c-36.2-7.3-25.1-44.2-15.7-70.1c-8.8,15.1-12.4,34.9-23.5,47.9c-7.8-8.7-16.1-16.8-27.5-22.2
				c0.6-6.9,6.9-8.6,5.2-17.5c-7.2-1-5.1,6.3-9.2,8.2c-4.7-18.1,13-25.5,9.2-45.6c1.9-0.3,2.2-1.9,3.9-2.3c4.8-0.8,5,2.5,9.1,2.3
				c4.3-5.2,10.6-9.2,18.3-8.2c4.3-8.3,9.9-15.3,22.2-16.4c1.2-5.7-6.9-3.2-5.2-9.3c10.9-3.1,3.6-8.9,7.9-17.5
				c-2-1.4-5.4-1.5-6.5-3.5c3.2-12.6-7.6-12.7-10.5-19.9c3.3-7.9,10.5-11.7,6.5-21c-7,0.3-2.5,11-7.8,12.8
				c-12.2-4.3-25.8-7.3-36.6-12.8c-3.4,4.8-11.1,7.7-19.6,4.7c-7.5,7.2-16.2,14.6-24.9,17.5c-0.9,4.3,2.8,4.5,2.6,8.2
				c-2.9,3.7-5.8,7.3-11.8,8.2c6.9,11.4,6.2,24,9.2,36.2c1.7,1.9,7.4,0.4,9.2,2.3c0.3,3.6,1.3,6.6,2.6,9.3c1.7,3,6.4-1.1,6.5,1.2
				c-2.4,16,0.2,41.2-11.8,53.7c-14.1,3.7-28,6.3-41.9,0c-1.6-2,1-7.8,0-12.9c1-3,6.5-2,6.5-5.8c-4.2-20.4-15.4-34.5-35.3-40.9
				c-6.9,1.2-14,2.3-22.2,2.3c-12.9,5.6-18.2,18-28.8,25.7c5.3,2.4,4.5,11.2,1.3,15.2c7.5,13.1,15.3,26,32.7,30.4
				c0,17.5-19,18.1-26.2,29.2c-19.5-3.2-36.7-8.5-55-12.9c7.7,8.6,23.7,11.8,41.9,14c1.5,4.9,4.8,8.2,6.5,12.9
				c-3.2,2.9-4.2,7.9-10.5,8.2c-4.9,0.1-4.8-4.3-9.2-4.7c1.7,13.6,3.1,35.4-20.9,33.9c-2.3,6.7,5.5,4.4,5.2,9.3
				c-9.1,11.1-46.3,13.5-58.9,7c9.8-7,25.2-6.1,23.5-19.9c-1.6-13.7-23.7-16.3-36.6-7c-4.4,11.9-13,22.6,2.6,29.2
				c-12.2,12.4-41.8,4.6-49.7-7c-1.2-4.8-2.5-9.5-7.8-10.5c-0.3,0.9-1.1,1.4-2.6,1.2c-2.7,4.2-0.7,12.6-1.3,18.7
				c-6.5,3.2-11.4,7.8-20.9,8.2c-4.2-3.3-7.9-13.2-14.4-10.5c6.7,3.1,8.6,15.8,3.9,22.2c-4.7,0.5-8.8,1.5-13.1,2.3
				c-3.5,8.4-12,15.1-9.2,25.7c-4,3-13.1,1.6-15.7,5.8c-0.6,6.8,8.7,4.7,7.9,11.7c-3.9,2.7-15.3-1.2-14.4,5.8
				c1.7,4.7,11,2.6,14.4,5.8c2.9,9.8-0.2,15.5,0,24.5c-2,1.4-5.4,1.4-6.5,3.5c2.3,0.7,5.4-3.4,6.5,0c-0.2,4.9-5.5,5.2-3.9,11.7
				c5.6-0.1,9.6-2.3,14.4,0c1.5,22.4,25.7,24.6,39.2,36.2c2.9,14.3-6.4,23.8-5.2,32.7c2.8-4.1,2.8-10.8,7.9-12.9
				c3.5,2.5,4.9,8.5,10.5,5.8c0.5-7.4-4.8-9.7-7.8-14c2.8-3.7,1.4-11.2,6.5-12.8c9.8-1.3,12.2,3.9,17,7c6.4-0.9,9.4-4.9,17-4.7
				c5.2,0.8,2.7,8.5,9.2,8.2c5.3-0.3,2.8-7.6,5.2-10.5c9.6-1.5,10.6,0.6,19.6,1.2c2.5-7.9,6-14.9,18.3-14c1.5-9.2,4.3-17.2,17-16.4
				c3.3-2.1,2.8-7.7,6.5-9.3c0.4,1.3,5.7,4,6.5,1.2c-7.9-2.6-2.1-16.1,1.3-19.9c-1-4.6-7.1-4.5-6.5-10.5c2.5-0.5,3.3-2.5,6.5-2.3
				c6.2,8.1,3.5,24.1,9.2,32.7c14-0.1,27.9-6,41.9,1.2c0,1.2,1.1,1.4,1.3,2.3c-2.2,1.9-3.3,4.9-2.6,9.3
				c-16.3,10.2-16.6,28.1-27.5,42.1c15.2-7.5,14.3-39.4,47.1-35c2-7.6-11.8-6-7.8-11.7c10.6,2.6,12.6,12.9,20.9,17.5
				c9.2,28.2-19.7,46.6-9.2,73.6c36.1,7.9,28.7-50.4,54.9-52.6c16.3-1.3,11.3,11.8,15.7,21c10.4-2.8,2.3-16.7,9.2-21
				c11.5-0.5,11.2,9.4,15.7,15.2c12.8-1.9,13.7,7.2,22.2,11.7c6.9-2.8,4.8-13.6,13.1-15.2c10.4,6.4,32.5,15.5,20.9,30.4
				c6,6.7-0.2,11.3-5.2,16.4c5.8,4.2,2.8,8.8,1.3,15.2c11.3,7.8,19.9,26.6,39.3,19.9c5.2,0.4,5.9,4.8,11.8,4.7
				C1419.8,1723.8,1435.7,1722.8,1438.6,1710.2z M1139,1525.6c1.3,3.6,0.4,10.9-6.5,10.5C1129.3,1531.8,1134,1526.3,1139,1525.6z
				 M1201.8,1602.7c-2.2,5.5-10.5,5.4-15.7,8.2C1187.7,1605.1,1195,1596.6,1201.8,1602.7z M1132.4,1448.5
				c-6.2-8.9-15.7-21-23.6-24.5C1116.3,1432.5,1121.9,1442.7,1132.4,1448.5z M1026.5,1407.6c2.4,2.4-2.8,17.3,3.9,19.9
				C1030.4,1420.4,1031.1,1406.6,1026.5,1407.6z"/>
		</g>
		<g id="XMLID_523_">
			<g id="XMLID_524_">
				<path id="XMLID_525_" fill="#FFBD37" d="M1874.9,1706.1c0.9,0,1.8,0,2.8,0.1c6.1,0.6,13.1,6.2,14,16.8v3.5
					c-0.8,10.2-8.5,22.8-31,38.6c-22.5-15.8-30.2-28.4-31-38.6v-3.5c0.9-10.7,7.9-16.2,13.9-16.8c1-0.1,1.9-0.1,2.8-0.1
					c7,0,10.4,3,14.2,7.6C1864.5,1709.1,1867.9,1706.1,1874.9,1706.1 M1874.9,1712.9c-4,0-5.7,1.2-9,5.2l-5.2,6.2l-5.2-6.2
					c-3.3-4-5-5.2-9-5.2c-0.7,0-1.4,0-2.1,0.1c-2.8,0.3-7.2,3.3-7.8,10.4v3c0.8,8.9,9,19.1,24.2,30.5c15.3-11.3,23.4-21.6,24.2-30.5
					v-3c-0.7-7.1-5-10.1-7.8-10.4C1876.3,1712.9,1875.6,1712.9,1874.9,1712.9L1874.9,1712.9z"/>
			</g>
		</g>
		<g id="XMLID_521_">
			<path id="XMLID_522_" fill="#FFBD37" d="M794.6,1403.9L794.6,1403.9v-32.3v-0.1l0,0l0,0l0,0l-31.4,4.2l0,0v25.5
				c-1.2-0.4-2.6-0.6-4.1-0.4c-4.6,0.4-8.1,3.7-7.7,7.3c0.4,3.6,4.4,6.2,9,5.7c4.6-0.4,8.1-3.7,7.7-7.3c0-0.1,0-0.1,0-0.2l0,0v-22.1
				l21.7-3.2v17.7c-1.2-0.4-2.6-0.6-4.1-0.4c-4.6,0.4-8.1,3.7-7.7,7.3s4.4,6.2,9,5.7c4.6-0.4,8.1-3.7,7.7-7.3
				C794.7,1404,794.7,1404,794.6,1403.9z"/>
		</g>
		<g id="XMLID_519_">
			<path id="XMLID_520_" fill="#FFBD37" d="M1882.3,1268L1882.3,1268v-32.3v-0.1l0,0l0,0l0,0l-31.4,4.2l0,0v25.5
				c-1.2-0.4-2.6-0.6-4.1-0.4c-4.6,0.4-8.1,3.7-7.7,7.3c0.4,3.6,4.4,6.2,9,5.7c4.6-0.4,8.1-3.7,7.7-7.3c0-0.1,0-0.1,0-0.2l0,0v-22.1
				l21.7-3.2v17.7c-1.2-0.4-2.6-0.6-4.1-0.4c-4.6,0.4-8.1,3.7-7.7,7.3c0.4,3.6,4.4,6.2,9,5.7C1879.3,1275,1882.8,1271.7,1882.3,1268
				C1882.3,1268.1,1882.3,1268.1,1882.3,1268z"/>
		</g>
		<g id="XMLID_517_">
			<path id="XMLID_518_" fill="#FFBD37" d="M1602.6,1306.1c-0.7,2.6-2.3,2.4-4.3,1.6c-5.6-2.1-9.2-7.3-8.9-13.7
				c0.1-2.8,0.5-5.8,1.4-8.4c3.6-9.9-6.2-29.3-17.6-33.1c-0.7-0.2-1.5-0.4-2.8-0.7c2.4,8.6,4.7,16.8,7,24.9
				c3.6,12.7,7.3,25.3,10.7,38c2,7.5-0.2,14.1-5.8,18c-6.3,4.5-15.3,5-21.1,1.2c-6.1-4-7-11.5-2.1-17.3c5.5-6.7,14.6-8.5,24.9-4.4
				c-1.3-4.4-2.5-8.4-3.7-12.3c-4.7-15.7-9.5-31.4-14.1-47.2c-1.9-6.4,1.4-9.7,7.7-7.6c8.5,3,16.5,7.1,22.9,13.6
				c5.8,5.9,7.1,12.9,4.8,20.7c-1,3.5-2.4,6.9-3.6,10.4C1594.6,1299.5,1594.9,1300.6,1602.6,1306.1z"/>
		</g>
		<g id="XMLID_515_">
			<path id="XMLID_516_" fill="#FFBD37" d="M1707.6,1778L1707.6,1778l-8.9-39.5v-0.1l0,0l0,0l0,0l-37.3,13.8l0,0l7.1,31.2
				c-1.6-0.1-3.4,0-5.1,0.6c-5.5,1.8-8.8,6.8-7.4,11.1s7.1,6.3,12.6,4.5s8.8-6.8,7.4-11.1c0-0.1-0.1-0.1-0.1-0.2l0,0l-6.1-27.1
				l25.6-9.9l4.9,21.7c-1.6-0.1-3.4,0-5.1,0.6c-5.5,1.8-8.8,6.8-7.4,11.1s7.1,6.3,12.6,4.5s8.8-6.8,7.4-11.1
				C1707.7,1778.1,1707.6,1778.1,1707.6,1778z"/>
		</g>
		<g id="XMLID_513_">
			<path id="XMLID_514_" fill="#FFBD37" d="M2321.3,1675.7c-0.7,2.9-2.6,2.7-4.9,1.8c-6.3-2.4-10.3-8.2-10.1-15.4
				c0.1-3.2,0.5-6.5,1.6-9.4c4.1-11.2-6.9-33-19.8-37.2c-0.8-0.3-1.7-0.4-3.2-0.8c2.7,9.7,5.3,18.9,7.8,28.1
				c4,14.2,8.2,28.4,12,42.7c2.3,8.4-0.2,15.8-6.5,20.3c-7.1,5-17.3,5.7-23.8,1.4c-6.8-4.5-7.8-12.9-2.4-19.5
				c6.2-7.5,16.4-9.5,28-4.9c-1.5-5-2.8-9.4-4.1-13.9c-5.3-17.7-10.7-35.3-15.9-53c-2.1-7.2,1.6-11,8.6-8.5
				c9.6,3.3,18.5,7.9,25.8,15.3c6.5,6.6,8,14.5,5.4,23.3c-1.2,3.9-2.7,7.8-4,11.7C2312.3,1668.3,2312.7,1669.5,2321.3,1675.7z"/>
		</g>
		<g id="XMLID_511_">
			<path id="XMLID_512_" fill="#FFBD37" d="M1114.8,1731.6c-2.8,7.4-5.5,14.9-8.3,22.3c-0.2,0-0.3,0-0.5,0c-0.9-3-1.8-5.9-2.6-8.9
				c-0.1,0-0.3-0.1-0.4-0.1c-2.9,11.8-5.8,23.5-8.7,35.3c-0.2,0-0.3,0-0.5,0c-0.6-19-1.2-38.1-1.8-57.1c-0.1,0-0.3-0.1-0.4-0.1
				c-0.4,1.1-0.8,2.2-1.1,3.4c-2.3,7.5-4.5,15-6.9,22.5c-0.2,0.7-1.2,1.7-1.8,1.7c-10.5,0.1-21,0.1-31.4,0c-0.1,0-0.3-0.1-0.6-0.2
				c0-0.8,0-1.7,0-2.8c5.2,0,10.3,0,15.4,0c4.2,0,8.4-0.1,12.7,0c1.8,0.1,2.6-0.5,3.1-2.3c4.3-14.4,8.7-28.8,13.1-43.3
				c0.2-0.6,0.4-1.3,1-1.9c0.6,17.6,1.1,35.3,1.7,52.9c0.1,0,0.3,0,0.4,0.1c1.9-7.6,3.7-15.1,5.7-23.3c1.3,4.5,2.4,8.3,3.6,12.2
				c0.2,0,0.3,0.1,0.5,0.1c3.3-8.8,6.6-17.7,9.9-26.5c0.1,0,0.3,0,0.4,0c1.2,11.2,2.4,22.4,3.6,33.6c0.1,0,0.3,0.1,0.4,0.1
				c2.6-6.1,5.2-12.1,7.9-18.6c2.6,6.2,5.1,12.1,7.8,18.4c3.5-4.6,6.8-9,10.4-13.8c1.2,3.3,2.4,6.1,3.2,9.1c0.7,2.4,1.7,3.4,4.4,3.2
				c4.3-0.3,8.6-0.1,13-0.1c0,1,0,1.9,0,3c-5.2,0-10.3,0-15.4,0c-3.7,0-3.7,0-4.9-3.5c-0.5-1.3-0.9-2.6-1.5-4.3
				c-3.4,4.6-6.7,8.9-10.2,13.6c-2.3-5.5-4.5-10.7-6.8-16.3c-3.5,8.2-6.8,16-10.1,23.8c-0.2,0-0.3,0-0.5,0
				c-1.1-10.8-2.3-21.6-3.4-32.4C1115.1,1731.6,1114.9,1731.6,1114.8,1731.6z"/>
		</g>
		<path id="XMLID_492_" fill="#FFBD37" d="M848.6,1638.3c3.8,0.7,3.3-5.2,0-3.3C848.8,1636.8,848,1637,848.6,1638.3z M899.9,1722.5
			c-1.3,4-1.5,8-7.4,5.6c1.2,4.8-2.3,9.5-5.3,13.2c1.8,6.8,0.4,10.9-2.1,16c8.9,2.1,11.3,9.9,15.8,16c5.1-1.6,9.4-0.5,10.5,3.8
			c10.3,1.3,14.4-5.6,24.2-1.9c2.4-9.5,12.2-12.4,16.9-19.8c-2.3-0.7-4.2-1.9-4.2-4.7c0.7-2.6,4.4-2.3,4.2-5.6
			c-5-1.3-6.3-6.2-4.2-11.3c-7.3-2.9-12.3-7.9-15.8-14.1c-5,4.9-12.5-0.4-15.8-2.8C909.8,1718.7,908.3,1723.3,899.9,1722.5z
			 M835.7,1706.7c-1.3,3.8,1.7,7.2,6,7.4c0.8-3.3-1.4-7.1-5.1-7.8C836.5,1706.6,836.2,1706.7,835.7,1706.7z M817.7,1743.7
			c1.7,0.1,1.8,0.6,3.2,0c0-2.3,2.5-3.5,3.2-5.8c0.7-2.2-0.4-5,1.8-6.6c-1.8-0.7-2.2-2.5-1.4-4.5c-3.8-0.6-3.6-4.8-8.3-4.5
			c0-0.7-0.1-1.3-0.5-1.6c-1.4-0.3-0.9,1.1-2.3,0.8c-1.3-0.4-1.1-2-2.8-2.1c-0.9,2.4-4.5,2.6-7.4,3.3c-1.1,2.5-4.1,3.2-5.1,5.8
			c-1.4-3.3-3.4-6.1-8.3-6.2c-5,8.9,11.9,9.5,9.2,18.9c4.8,1.9,9.1,6.4,15.2,3.7c1.1,0.5,1.1,2.1,2.8,2.1
			C817.5,1746.1,816.7,1744,817.7,1743.7z M767.4,1590.9c0.6-2.3,1.7-4.3,2.3-6.6C766.9,1584.4,767,1589.3,767.4,1590.9z
			 M729.6,1749.9c-1.6,1.1-0.9,4.5,1.4,4.5C733.4,1753.5,732.2,1749.9,729.6,1749.9z M670,1621.2c0.3-1.8-1.5-1.7-1.4-3.3
			c0.8-1.9,3.5-2.1,5.5-2.9c0.3-1.7-1.5-1.4-0.9-3.3c0.6-1.2,2.1-1.7,3.2-2.5c-0.8-3.8,1.6-4.6,2.8-6.6c-0.7-0.7-2.1-0.9-2.3-2.1
			c1.8-3.9-4-4.4-1.8-8.7c-5.3-1.4-8.2-5-7.8-10.3c-2.8-0.1-2.1,2.8-4.2,3.3c-4,0.7-5-1.3-7.8-1.6c-2.6,1.4-6.4,2.4-11.1,2.9
			c0.1,2.1-1.8,2.5-3.2,3.3c0.3,2.2-0.3,3.6-1.8,4.1c-2.5,0.5-3.1-0.8-5.1-0.8c1,1.9,2.6,3.5,2.8,6.2c-1.5,1.8-3.7,3-2.8,7
			c1.4,0.2,2.3,1,2.8,2.1c-0.6,1.3-2.8,1.1-2.8,2.9c0.9,1.4,5.2-0.7,5.5,2.1c0.1,1.7-2.3,1.3-1.8,3.3c2.1,0.5,3,0.5,5.1,0
			c1.9,2.7-2.3,3.3-1.4,4.9c2,0,1.7-2.1,3.7-2.1c2.8,1.9,8.3-0.6,10.6,2.1c1,1.8-1.4,7.8,0.9,10.3
			C654.1,1623.2,662.3,1616.6,670,1621.2z M652.6,1702.1c-3.3,2.1-1,5.3-1.8,9.9C653.7,1710.9,653.3,1705.3,652.6,1702.1z
			 M634.1,1618.9c-0.6,2.9-1,5.9-1.4,9.1C634.9,1626.8,634.8,1621.4,634.1,1618.9z M621.2,1556.7c3.5-1.6,0.7-5.4-1.8-5.8
			c-3.2-0.4-4.1,2.8-6.9,2.9c-2,5.4,5.5,5,8.3,7.4c0.7-0.2,1.2-0.6,1.8-0.8C622.9,1558.5,621.9,1557.7,621.2,1556.7z M614.3,1699.3
			c-2.6,0.1-2.9,4.2-2.8,5.4C613.6,1703.9,613.7,1701.4,614.3,1699.3z M599.5,1685.2c4-0.8,7.5-2.1,10.1-4.1
			C605.6,1681.9,602.3,1683.3,599.5,1685.2z M783.1,1726.4h1.8c0.8-2.3,0.5-1.9-0.9-4.1c1.3-1.5,0.3-2.6,1.4-4.1
			c-2-0.7-3.4-1.9-2.8-4.9c-3.8-1.4-6.6-5.4-11.5-5.4c-2.6,0-5.1,2.4-7.4,0.8c8-6.8-0.4-23,2.3-31.3c3.6,1.1,6.6,2.6,10.1,3.7
			c0.5,1.5,2.5,3.4,4.6,2.1c-2.1-5.5-10.6-5.4-12.5-11.1c2.8-2.2,3.6-4.7,6.5-7.4c6.8-0.3,10.1-3.2,14.3-5.4
			c1.7-0.9,4.2-0.6,4.2-2.9c-0.7-0.2-1.1-0.6-1.4-1.2c-2.7-0.3-3.3,1.1-6,0.8c-2.6-4.2,0.7-11.4,3.2-16.1c-2.9-0.5-3.6,0.9-6,0.8
			c-2.4-4.3,1.1-7-0.9-11.1c1.6-2.3,4.8-3.1,5.5-6.2c2.6-2.7,7.9-3.1,9.7-6.6c-3.2-0.1-3.5,1.3-5.5,2.5c-2.3,1.4-6.3,2.7-8.3,4.1
			c-2.6,1.9-3.5,4.3-6,4.1c-3.5-0.2-3.7-3.8-5.5-6.6c-12.8-2.6-8.8-15.6-5.5-24.7c-3.1,5.3-4.4,12.3-8.3,16.9
			c-2.7-3.1-5.7-5.9-9.7-7.8c0.2-2.4,2.4-3,1.8-6.2c-2.6-0.4-1.8,2.2-3.2,2.9c-1.6-6.4,4.6-9,3.2-16.1c0.7-0.1,0.8-0.7,1.4-0.8
			c1.7-0.3,1.8,0.9,3.2,0.8c1.5-1.8,3.7-3.2,6.5-2.9c1.5-2.9,3.5-5.4,7.8-5.8c0.4-2-2.4-1.1-1.8-3.3c3.8-1.1,1.3-3.1,2.8-6.2
			c-0.7-0.5-1.9-0.5-2.3-1.2c1.1-4.4-2.7-4.5-3.7-7c1.2-2.8,3.7-4.1,2.3-7.4c-2.5,0.1-0.9,3.9-2.8,4.5c-4.3-1.5-9.1-2.6-12.9-4.5
			c-1.2,1.7-3.9,2.7-6.9,1.6c-2.6,2.6-5.7,5.1-8.8,6.2c-0.3,1.5,1,1.6,0.9,2.9c-1,1.3-2.1,2.6-4.2,2.9c2.4,4,2.2,8.5,3.2,12.8
			c0.6,0.7,2.6,0.1,3.2,0.8c0.1,1.3,0.5,2.3,0.9,3.3c0.6,1.1,2.3-0.4,2.3,0.4c-0.9,5.6,0.1,14.5-4.2,18.9c-5,1.3-9.9,2.2-14.8,0
			c-0.6-0.7,0.4-2.7,0-4.5c0.4-1.1,2.3-0.7,2.3-2.1c-1.5-7.2-5.4-12.2-12.5-14.4c-2.4,0.4-4.9,0.8-7.8,0.8c-4.6,2-6.4,6.4-10.1,9.1
			c1.9,0.8,1.6,3.9,0.5,5.4c2.7,4.6,5.4,9.2,11.5,10.7c0,6.2-6.7,6.4-9.2,10.3c-6.9-1.1-12.9-3-19.4-4.5c2.7,3,8.4,4.2,14.8,4.9
			c0.5,1.7,1.7,2.9,2.3,4.5c-1.1,1-1.5,2.8-3.7,2.9c-1.7,0-1.7-1.5-3.2-1.6c0.6,4.8,1.1,12.5-7.4,11.9c-0.8,2.4,2,1.6,1.8,3.3
			c-3.2,3.9-16.3,4.8-20.8,2.5c3.4-2.5,8.9-2.1,8.3-7c-0.6-4.8-8.4-5.7-12.9-2.5c-1.6,4.2-4.6,8,0.9,10.3
			c-4.3,4.4-14.7,1.6-17.5-2.5c-0.4-1.7-0.9-3.3-2.8-3.7c-0.1,0.3-0.4,0.5-0.9,0.4c-1,1.5-0.2,4.5-0.5,6.6c-2.3,1.1-4,2.7-7.4,2.9
			c-1.5-1.1-2.8-4.6-5.1-3.7c2.4,1.1,3,5.6,1.4,7.8c-1.7,0.2-3.1,0.5-4.6,0.8c-1.2,3-4.2,5.3-3.2,9.1c-1.4,1.1-4.6,0.6-5.5,2.1
			c-0.2,2.4,3.1,1.7,2.8,4.1c-1.4,1-5.4-0.4-5.1,2.1c0.6,1.7,3.9,0.9,5.1,2.1c1,3.4-0.1,5.4,0,8.6c-0.7,0.5-1.9,0.5-2.3,1.2
			c0.8,0.2,1.9-1.2,2.3,0c-0.1,1.7-1.9,1.8-1.4,4.1c2,0,3.4-0.8,5.1,0c0.5,7.9,9,8.7,13.8,12.8c1,5-2.3,8.4-1.8,11.5
			c1-1.5,1-3.8,2.8-4.5c1.2,0.9,1.7,3,3.7,2.1c0.2-2.6-1.7-3.4-2.8-4.9c1-1.3,0.5-3.9,2.3-4.5c3.5-0.5,4.3,1.4,6,2.5
			c2.3-0.3,3.3-1.7,6-1.6c1.8,0.3,0.9,3,3.2,2.9c1.9-0.1,1-2.7,1.8-3.7c3.4-0.5,3.7,0.2,6.9,0.4c0.9-2.8,2.1-5.3,6.5-4.9
			c0.5-3.2,1.5-6.1,6-5.8c1.2-0.7,1-2.7,2.3-3.3c0.1,0.5,2,1.4,2.3,0.4c-2.8-0.9-0.7-5.7,0.5-7c-0.3-1.6-2.5-1.6-2.3-3.7
			c0.9-0.2,1.2-0.9,2.3-0.8c2.2,2.9,1.2,8.5,3.2,11.5c4.9,0,9.8-2.1,14.8,0.4c0,0.4,0.4,0.5,0.5,0.8c-0.8,0.7-1.1,1.7-0.9,3.3
			c-5.7,3.6-5.9,9.9-9.7,14.8c5.4-2.6,5.1-13.9,16.6-12.4c0.7-2.7-4.2-2.1-2.8-4.1c3.7,0.9,4.5,4.5,7.4,6.2c3.2,10-6.9,16.4-3.2,26
			c12.7,2.8,10.1-17.8,19.4-18.5c5.7-0.5,4,4.1,5.5,7.4c3.7-1,0.8-5.9,3.2-7.4c4.1-0.2,4,3.3,5.5,5.4c4.5-0.7,4.8,2.6,7.8,4.1
			c2.4-1,1.7-4.8,4.6-5.4c3.7,2.2,11.5,5.5,7.4,10.7c2.1,2.4-0.1,4-1.8,5.8c2.1,1.5,1,3.1,0.5,5.4c4,2.7,7,9.4,13.8,7
			c1.8,0.1,2.1,1.7,4.2,1.6C776.5,1731.3,782.1,1730.9,783.1,1726.4z M677.5,1661.4c0.4,1.3,0.2,3.8-2.3,3.7
			C674,1663.6,675.7,1661.6,677.5,1661.4z M699.6,1688.5c-0.8,1.9-3.7,1.9-5.5,2.9C694.6,1689.4,697.2,1686.4,699.6,1688.5z
			 M675.2,1634.2c-2.2-3.1-5.5-7.4-8.3-8.7C669.5,1628.5,671.4,1632.1,675.2,1634.2z M637.8,1619.8c0.8,0.9-1,6.1,1.4,7
			C639.2,1624.3,639.4,1619.4,637.8,1619.8z"/>
		<g id="XMLID_441_">
			<g id="XMLID_444_">
				<path id="XMLID_445_" fill="#FFBD37" d="M874.2,1572.2c-3.6-6.9-12.2-9.5-19.1-5.9c-6.9,3.6-9.5,12.2-5.9,19.1
					s12.2,9.5,19.1,5.9C875.2,1587.6,877.8,1579.1,874.2,1572.2z M867.2,1589.2c-0.5,0.3-1,0.5-1.6,0.7l-1.3-2.4l3-1.6l1.3,2.4
					C868.2,1588.7,867.7,1589,867.2,1589.2z M854.2,1569.6l1.3,2.4l-2.6,1.4l-0.8-1.5C852.7,1571,853.3,1570.3,854.2,1569.6z
					 M856.2,1568.2c0.5-0.3,1-0.5,1.5-0.7l1.3,2.5l-3,1.6l-1.3-2.5C855.2,1568.8,855.7,1568.5,856.2,1568.2z M858.4,1567.3
					c1-0.3,2-0.4,3-0.5l0.8,1.5l-2.6,1.4L858.4,1567.3z M854.5,1576.6l2.6-1.4l1.4,2.6l-2.6,1.4L854.5,1576.6z M855.3,1579.5l-1.9,1
					l-1.4-2.6l1.9-1L855.3,1579.5z M857.8,1574.9l3-1.6l1.4,2.6l-3,1.6L857.8,1574.9z M861.4,1573l2.6-1.4l1.4,2.6l-2.6,1.4
					L861.4,1573z M864.6,1571.3l1.9-1l1.4,2.6l-1.9,1L864.6,1571.3z M852.6,1574.4l1,1.9l-1.9,1l-1-1.9L852.6,1574.4z M853.2,1574
					l2.6-1.4l1,1.9l-2.6,1.4L853.2,1574z M856.4,1572.3l3-1.6l1,1.9l-3,1.6L856.4,1572.3z M860,1570.4l2.6-1.4l1,1.9l-2.6,1.4
					L860,1570.4z M863.3,1568.7l1.9-1l1,1.9l-1.9,1L863.3,1568.7z M866,1567.7c0.7,0.3,1.4,0.6,2,1l-1.2,0.6L866,1567.7z
					 M851,1577.6l-1.1,0.6c0-0.7,0.1-1.4,0.3-2.2L851,1577.6z M851.3,1578.3l1.4,2.6l-2.3,1.2c-0.3-1-0.5-2-0.5-3L851.3,1578.3z
					 M867.2,1569.9l1.5-0.8c0.8,0.6,1.6,1.3,2.2,2.1l-2.4,1.3L867.2,1569.9z M859.4,1578.1l3-1.6l1.6,3l-3,1.6L859.4,1578.1z
					 M860.4,1581.4l-2.6,1.4l-1.6-3l2.6-1.4L860.4,1581.4z M863.1,1576.2l2.6-1.4l1.6,3l-2.6,1.4L863.1,1576.2z M866.3,1574.5l1.9-1
					l1.6,3l-1.9,1L866.3,1574.5z M855.6,1580.1l1.6,3l-1.9,1l-1.6-3L855.6,1580.1z M867.1,1585.3l-3,1.6l-1-1.9l3-1.6L867.1,1585.3z
					 M866.7,1583l2.6-1.4l1,1.9l-2.6,1.4L866.7,1583z M863.4,1587.2l-2.6,1.4l-1-1.9l2.6-1.4L863.4,1587.2z M860.2,1588.9l-1.9,1
					l-1-1.9l1.9-1L860.2,1588.9z M870.9,1583.3l-1-1.9l1.9-1l1,1.9L870.9,1583.3z M872.5,1580l1.1-0.6c0,0.7-0.1,1.4-0.3,2
					L872.5,1580z M858.2,1583.4l2.6-1.4l1.4,2.6l-2.6,1.4L858.2,1583.4z M858.9,1586.3l-1.9,1l-1.4-2.6l1.9-1L858.9,1586.3z
					 M861.4,1581.7l3-1.6l1.4,2.6l-3,1.6L861.4,1581.7z M865,1579.8l2.6-1.4l1.4,2.6l-2.6,1.4L865,1579.8z M868.2,1578.1l1.9-1
					l1.4,2.6l-1.9,1L868.2,1578.1z M870.8,1576.8l2.4-1.2c0.3,1,0.4,2,0.4,3.1l-1.4,0.8L870.8,1576.8z M856.3,1587.7l-1.4,0.7
					c-0.8-0.6-1.6-1.3-2.3-2.1l2.3-1.2L856.3,1587.7z M856.6,1588.3l0.7,1.4c-0.6-0.2-1.2-0.5-1.8-0.9L856.6,1588.3z M863.8,1587.9
					l1.2,2.3c-1,0.3-2,0.4-3,0.4l-0.7-1.4L863.8,1587.9z M868,1585.6l2.6-1.4l0.7,1.4c-0.6,0.8-1.3,1.6-2.1,2.2L868,1585.6z
					 M871.8,1585l-0.5-1l1.5-0.8C872.5,1583.8,872.2,1584.4,871.8,1585z M872.9,1574.8l-2.5,1.3l-1.6-3l2.5-1.3
					c0.3,0.4,0.6,0.9,0.9,1.4C872.5,1573.7,872.7,1574.3,872.9,1574.8z M864.5,1567.2l-1.6,0.9l-0.6-1.2
					C863.1,1566.9,863.8,1567,864.5,1567.2z M851.6,1572.6l0.6,1.2l-1.6,0.8C850.9,1573.9,851.2,1573.2,851.6,1572.6z M850.6,1582.8
					l2.4-1.3l1.6,3l-2.4,1.3c-0.3-0.5-0.7-1-0.9-1.5C851,1583.8,850.8,1583.3,850.6,1582.8z M859.1,1590.3l1.4-0.7l0.5,1
					C860.4,1590.5,859.8,1590.4,859.1,1590.3z"/>
			</g>
			<g id="XMLID_442_">
				<path id="XMLID_443_" fill="#FFBD37" d="M853.5,1625.7l-11.6-3.6c-0.7-0.2-1-0.9-0.9-1.6l9.4-33.3l7.3,4.3l8.5,0.6l-11.1,32.8
					C854.9,1625.6,854.2,1625.9,853.5,1625.7z"/>
			</g>
		</g>
		<g id="XMLID_390_">
			<g id="XMLID_393_">
				<path id="XMLID_394_" fill="#FFBD37" d="M2151,1338c-9.6-4-20.5,0.6-24.5,10.1c-4,9.6,0.6,20.5,10.1,24.5s20.5-0.6,24.5-10.1
					C2165.1,1352.9,2160.5,1342,2151,1338z M2158.3,1361.4c-0.3,0.7-0.6,1.4-1,2l-3.3-1.4l1.7-4.2l3.3,1.4
					C2158.9,1360,2158.6,1360.7,2158.3,1361.4z M2128.3,1352.4l3.3,1.4l-1.5,3.6l-2.1-0.9C2128,1355.2,2128.1,1353.8,2128.3,1352.4z
					 M2129.3,1349.3c0.3-0.7,0.6-1.4,1-2l3.5,1.5l-1.7,4.2l-3.5-1.5C2128.7,1350.8,2129,1350,2129.3,1349.3z M2130.8,1346.5
					c0.8-1.1,1.7-2.2,2.7-3l2.1,0.9l-1.5,3.6L2130.8,1346.5z M2134.6,1359.2l1.5-3.6l3.6,1.5l-1.5,3.6L2134.6,1359.2z
					 M2137.8,1361.6l-1.1,2.7l-3.6-1.5l1.1-2.7L2137.8,1361.6z M2136.5,1354.8l1.7-4.2l3.6,1.5l-1.7,4.2L2136.5,1354.8z
					 M2138.6,1349.7l1.5-3.6l3.6,1.5l-1.5,3.6L2138.6,1349.7z M2140.4,1345.3l1.1-2.7l3.6,1.5l-1.1,2.7L2140.4,1345.3z
					 M2130.7,1358.6l2.7,1.1l-1.1,2.7l-2.7-1.1L2130.7,1358.6z M2131.1,1357.8l1.5-3.6l2.7,1.1l-1.5,3.6L2131.1,1357.8z
					 M2132.9,1353.3l1.7-4.2l2.7,1.1l-1.7,4.2L2132.9,1353.3z M2135,1348.3l1.5-3.6l2.7,1.1l-1.5,3.6L2135,1348.3z M2136.9,1343.8
					l1.1-2.7l2.7,1.1l-1.1,2.7L2136.9,1343.8z M2138.8,1340.4c0.9-0.3,1.9-0.5,2.9-0.7l-0.7,1.6L2138.8,1340.4z M2131.9,1363.3
					l-0.6,1.5c-0.6-0.8-1.1-1.6-1.5-2.4L2131.9,1363.3z M2132.8,1363.7l3.6,1.5l-1.3,3.2c-1.1-0.8-2.2-1.7-3.1-2.7L2132.8,1363.7z
					 M2141.9,1341.7l0.9-2.1c1.3-0.1,2.7,0,4.1,0.3l-1.4,3.3L2141.9,1341.7z M2140.9,1356.6l1.7-4.2l4.2,1.7l-1.7,4.2L2140.9,1356.6
					z M2144.7,1359.2l-1.5,3.6l-4.2-1.7l1.5-3.6L2144.7,1359.2z M2143,1351.6l1.5-3.6l4.2,1.7l-1.5,3.6L2143,1351.6z M2144.9,1347.1
					l1.1-2.7l4.2,1.7l-1.1,2.7L2144.9,1347.1z M2138.7,1362l4.2,1.7l-1.1,2.7l-4.2-1.7L2138.7,1362z M2154.8,1357.5l-1.7,4.2
					l-2.7-1.1l1.7-4.2L2154.8,1357.5z M2152.5,1355.5l1.5-3.6l2.7,1.1l-1.5,3.6L2152.5,1355.5z M2152.7,1362.6l-1.5,3.6l-2.7-1.1
					l1.5-3.6L2152.7,1362.6z M2150.9,1367l-1.1,2.7l-2.7-1.1l1.1-2.7L2150.9,1367z M2157,1352.2l-2.7-1.1l1.1-2.7l2.7,1.1
					L2157,1352.2z M2155.8,1347.5l0.6-1.5c0.5,0.7,1,1.5,1.4,2.3L2155.8,1347.5z M2144.1,1363.2l1.5-3.6l3.6,1.5l-1.5,3.6
					L2144.1,1363.2z M2147.3,1365.5l-1.1,2.7l-3.6-1.5l1.1-2.7L2147.3,1365.5z M2146,1358.7l1.7-4.2l3.6,1.5l-1.7,4.2L2146,1358.7z
					 M2148.1,1353.7l1.5-3.6l3.6,1.5l-1.5,3.6L2148.1,1353.7z M2149.9,1349.2l1.1-2.7l3.6,1.5l-1.1,2.7L2149.9,1349.2z
					 M2151.4,1345.7l1.4-3.3c1.1,0.8,2.2,1.7,3,2.7l-0.8,2L2151.4,1345.7z M2145.9,1369.1l-0.8,1.9c-1.3,0.1-2.7,0-4.1-0.2l1.3-3.2
					L2145.9,1369.1z M2146.8,1369.5l2,0.8c-0.8,0.3-1.7,0.5-2.6,0.6L2146.8,1369.5z M2153.6,1362.9l3.2,1.3c-0.8,1.1-1.7,2.2-2.7,3
					l-1.9-0.8L2153.6,1362.9z M2156.1,1357l1.5-3.6l1.9,0.8c0.1,1.3,0,2.7-0.2,4.1L2156.1,1357z M2159.4,1353.1l-1.4-0.6l0.8-2
					C2159,1351.4,2159.2,1352.2,2159.4,1353.1z M2151.9,1341.9l-1.4,3.4l-4.2-1.7l1.4-3.5c0.7,0.2,1.4,0.4,2,0.7
					C2150.6,1341.1,2151.3,1341.5,2151.9,1341.9z M2136.9,1341.2l-0.9,2.3l-1.6-0.7C2135.1,1342.2,2136,1341.6,2136.9,1341.2z
					 M2128.2,1357.6l1.6,0.7l-0.9,2.2C2128.6,1359.5,2128.4,1358.6,2128.2,1357.6z M2135.9,1368.9l1.4-3.4l4.2,1.7l-1.4,3.4
					c-0.8-0.2-1.5-0.4-2.2-0.7C2137.1,1369.6,2136.5,1369.3,2135.9,1368.9z M2151,1369.3l0.8-2l1.4,0.6
					C2152.5,1368.5,2151.7,1368.9,2151,1369.3z"/>
			</g>
			<g id="XMLID_391_">
				<path id="XMLID_392_" fill="#FFBD37" d="M2175.3,1410.3l-14.9,6.2c-0.8,0.4-1.8,0-2.2-0.9l-18.7-42l11.1-1.8l9.2-6.6l16.4,42.9
					C2176.6,1409,2176.1,1410,2175.3,1410.3z"/>
			</g>
		</g>
		<path id="XMLID_389_" fill="#FFBD37" d="M2330.3,1282.5c-1.3,4-1.5,8.1-7.4,5.7c1.2,4.8-2.3,9.5-5.3,13.2c1.9,6.9,0.4,11-2.1,16.1
			c8.9,2.1,11.4,10,15.9,16c5.1-1.6,9.4-0.5,10.6,3.8c10.3,1.3,14.5-5.6,24.3-1.9c2.4-9.5,12.2-12.4,16.9-19.8
			c-2.3-0.8-4.2-1.9-4.2-4.7c0.7-2.6,4.4-2.4,4.2-5.7c-5-1.3-6.3-6.3-4.2-11.3c-7.3-2.9-12.3-7.9-15.9-14.2
			c-5,4.9-12.5-0.4-15.9-2.8C2340.2,1278.7,2338.7,1283.3,2330.3,1282.5z"/>
		<path id="XMLID_388_" fill="#FFBD37" d="M2088.4,1617.6c0.7-4-3.4-3.9-3.2-7.6c1.7-4.4,8-4.8,12.7-6.6c0.8-3.9-3.4-3.3-2.1-7.6
			c1.4-2.8,4.8-3.9,7.4-5.7c-1.9-8.7,3.7-10.6,6.3-15.1c-1.7-1.7-4.9-2-5.3-4.7c4.2-9-9.1-10.1-4.2-19.8
			c-12.1-3.1-18.9-11.4-18-23.6c-6.4-0.3-4.8,6.4-9.5,7.6c-9.2,1.6-11.4-3-18-3.8c-5.9,3.2-14.6,5.5-25.4,6.6
			c0.2,4.9-4.1,5.7-7.4,7.6c0.7,5-0.6,8.3-4.2,9.4c-5.7,1-7-1.9-11.6-1.9c2.4,4.5,5.9,8,6.3,14.2c-3.4,4.2-8.5,6.9-6.3,16
			c3.3,0.5,5.2,2.3,6.3,4.7c-1.4,2.9-6.3,2.5-6.3,6.6c2.1,3.1,12-1.5,12.7,4.7c0.2,4-5.2,2.9-4.2,7.6c4.8,1,6.8,1,11.6,0
			c4.3,6.2-5.2,7.6-3.2,11.3c4.6,0,3.9-4.7,8.5-4.7c6.5,4.3,19-1.4,24.3,4.7c2.4,4.2-3.2,17.8,2.1,23.6
			C2051.9,1622.2,2070.7,1607.2,2088.4,1617.6z"/>
	</g>
	<g id="XMLID_75_">
		<g id="XMLID_367_">
			<path id="XMLID_386_" fill="none" d="M1310.1,1457.8c-3.3-3.3-7.2-5.9-11.7-7.8s-9.3-2.9-14.3-2.9s-9.7,1-14.1,2.9
				c-4.4,1.9-8.3,4.5-11.6,7.8c-3.3,3.3-5.9,7.2-7.8,11.6c-1.9,4.4-2.9,9.1-2.9,14.1s0.9,9.7,2.9,14.1c1.9,4.4,4.5,8.3,7.8,11.6
				c3.3,3.3,7.2,5.9,11.6,7.8c4.4,1.9,9.1,2.9,14.1,2.9s9.8-0.9,14.3-2.9c4.5-1.9,8.4-4.5,11.7-7.8c3.3-3.3,5.9-7.2,7.8-11.6
				c1.9-4.4,2.9-9.1,2.9-14.1s-1-9.7-2.9-14.1C1316,1464.9,1313.4,1461.1,1310.1,1457.8z"/>
			<path id="XMLID_379_" fill="#002395" d="M1326.6,1441.2c-5.4-5.4-11.9-9.7-19.1-12.8c-7.4-3.1-15.3-4.7-23.4-4.7
				c-8.2,0-16.1,1.6-23.4,4.8c-7.1,3.1-13.4,7.4-18.8,12.7c-5.4,5.4-9.7,11.7-12.7,18.8c-3.2,7.3-4.8,15.2-4.8,23.4
				c0,8.2,1.6,16.1,4.8,23.4c3.1,7.1,7.3,13.4,12.7,18.8c5.4,5.4,11.7,9.7,18.8,12.7c7.3,3.2,15.2,4.8,23.4,4.8
				c8.1,0,16-1.6,23.4-4.7c7.2-3.1,13.7-7.4,19.1-12.8s9.7-11.7,12.7-18.8c3.2-7.3,4.8-15.2,4.8-23.4c0-8.2-1.6-16-4.8-23.4
				C1336.3,1453,1332,1446.6,1326.6,1441.2z M1317.9,1497.6c-1.9,4.4-4.5,8.3-7.8,11.6c-3.3,3.3-7.2,5.9-11.7,7.8s-9.3,2.9-14.3,2.9
				s-9.7-0.9-14.1-2.9c-4.4-1.9-8.3-4.5-11.6-7.8c-3.3-3.3-5.9-7.2-7.8-11.6c-1.9-4.4-2.9-9.1-2.9-14.1s0.9-9.7,2.9-14.1
				c1.9-4.4,4.5-8.3,7.8-11.6c3.3-3.3,7.2-5.9,11.6-7.8c4.4-1.9,9.1-2.9,14.1-2.9s9.8,1,14.3,2.9s8.4,4.5,11.7,7.8
				c3.3,3.3,5.9,7.2,7.8,11.6s2.9,9.1,2.9,14.1S1319.8,1493.2,1317.9,1497.6z"/>
			<path id="XMLID_371_" fill="#ED2939" d="M1385.9,1440.8c-5.8-13.2-13.7-24.8-23.6-34.7c-9.9-9.9-21.5-17.7-34.8-23.4
				c-13.3-5.7-27.6-8.6-42.8-8.6c-15,0-29.2,2.9-42.5,8.6c-13.3,5.7-24.9,13.5-34.8,23.4c-9.9,9.9-17.7,21.5-23.4,34.8
				c-5.7,13.3-8.6,27.5-8.6,42.5s2.9,29.2,8.6,42.5c5.7,13.3,13.5,24.9,23.4,34.8c9.9,9.9,21.5,17.8,34.8,23.6
				c13.3,5.8,27.5,8.7,42.5,8.7s29.2-2.9,42.6-8.6c13.4-5.7,25.1-13.5,35-23.4s17.8-21.5,23.6-34.8c5.8-13.3,8.7-27.6,8.7-42.8
				C1394.6,1468.3,1391.7,1454,1385.9,1440.8z M1364.5,1516.9c-4.7,10.7-10.8,19.7-18.7,27.6c-7.7,7.7-17,13.9-27.6,18.4
				c-10.6,4.5-21.5,6.7-33.5,6.7c-11.9,0-22.7-2.2-33.1-6.8c-10.6-4.6-19.9-10.9-27.6-18.7c-7.9-7.9-13.9-16.9-18.5-27.5
				c-4.5-10.5-6.7-21.3-6.7-33.3c0-11.9,2.2-22.8,6.7-33.3s10.7-19.8,18.5-27.5c7.9-7.9,16.9-13.9,27.5-18.5
				c10.5-4.5,21.3-6.7,33.3-6.7c12.1,0,23.1,2.2,33.6,6.7s19.8,10.7,27.5,18.5c7.9,7.9,14,16.9,18.7,27.6
				c4.5,10.3,6.7,21.2,6.7,33.2C1371.2,1495.5,1369,1506.5,1364.5,1516.9z"/>
			<path id="XMLID_368_" fill="#FFFFFF" d="M1345.8,1422.7c-7.7-7.7-17-14-27.5-18.5s-21.5-6.7-33.6-6.7c-11.9,0-22.8,2.2-33.3,6.7
				c-10.7,4.6-19.6,10.6-27.5,18.5c-7.8,7.8-14,17-18.5,27.5s-6.7,21.4-6.7,33.3s2.2,22.8,6.7,33.3c4.6,10.6,10.6,19.6,18.5,27.5
				c7.8,7.8,17.1,14.1,27.6,18.7c10.4,4.5,21.3,6.8,33.1,6.8c11.9,0,22.9-2.2,33.5-6.7s19.9-10.7,27.6-18.4
				c7.9-7.9,14-16.9,18.7-27.6c4.5-10.4,6.8-21.4,6.8-33.4s-2.2-22.9-6.7-33.2C1359.8,1439.6,1353.7,1430.6,1345.8,1422.7z
				 M1339.4,1506.8c-3.1,7.1-7.4,13.4-12.7,18.8c-5.4,5.4-11.9,9.8-19.1,12.8c-7.4,3.1-15.2,4.7-23.4,4.7c-8.2,0-16.1-1.6-23.4-4.8
				c-7.1-3.1-13.5-7.4-18.8-12.7c-5.4-5.4-9.7-11.7-12.7-18.8c-3.2-7.3-4.8-15.2-4.8-23.4c0-8.2,1.6-16.1,4.8-23.4
				c3.1-7.1,7.4-13.4,12.7-18.8c5.4-5.4,11.7-9.7,18.8-12.7c7.3-3.2,15.2-4.8,23.4-4.8c8.1,0,16,1.6,23.4,4.7
				c7.3,3.1,13.7,7.4,19.1,12.8c5.4,5.4,9.7,11.7,12.7,18.8c3.2,7.3,4.8,15.2,4.8,23.4C1344.1,1491.6,1342.5,1499.5,1339.4,1506.8z"
				/>
		</g>
		<path id="XMLID_365_" fill="#300033" d="M920.1,1557.9v-148.5h103.3v39.7h-52.7v16.8h46.5v35.5h-46.5v56.5H920.1z"/>
		<path id="XMLID_362_" fill="#300033" d="M1044.8,1557.9v-148.5h65.9c17,0,30.3,4,39.9,12.1c9.6,8.1,14.4,19.2,14.4,33.4
			c0,7.5-1.9,14.4-5.7,20.8c-3.8,6.4-9.6,11.3-17.4,14.7l30.6,67.6h-56.1l-22.7-61.2v61.2L1044.8,1557.9L1044.8,1557.9z
			 M1093.7,1467.6c2.3,0.3,4.9,0.5,7.9,0.5c3,0.1,5.7-0.2,8.3-0.9c2.5-0.6,4.7-1.8,6.5-3.5c1.8-1.7,2.7-4.2,2.7-7.6
			c0-3.3-0.8-5.7-2.4-7.3c-1.6-1.6-3.6-2.7-6.1-3.3c-2.4-0.6-5.1-0.8-8.2-0.7c-3,0.1-5.9,0.2-8.6,0.3v22.5H1093.7z"/>
		<path id="XMLID_360_" fill="#300033" d="M1411.3,1557.9v-148.5h47.6l34.8,68.4v-68.4h49.9v148.5H1495l-34.6-68v68H1411.3z"/>
		<path id="XMLID_358_" fill="#300033" d="M1593.2,1557.9v-108.8h-28.9v-39.7h109.2v39.7h-28.9v108.8H1593.2L1593.2,1557.9z"/>
		<path id="XMLID_355_" fill="#300033" d="M1673.9,1557.9l42.5-148.5h58.6l42.3,148.5h-50.8l-6.2-27h-32.7l-6.8,27H1673.9z
			 M1733,1495.2h21.9l-10.6-46.3L1733,1495.2z"/>
		<path id="XMLID_353_" fill="#300033" d="M1832.8,1557.9v-148.5h50.1v109.4h41v39.1H1832.8z"/>
		<path id="XMLID_351_" fill="#300033" d="M1945.2,1557.9v-148.5h105.4v39.7H1996v17.2h48.4v35.7H1996v16.8h54.6v39.1H1945.2z"/>
		<path id="XMLID_86_" fill="#300033" d="M1733,1395.1h-25.3l24.6-31.9h24l24.4,31.9h-25.1l-11.3-16.1L1733,1395.1z"/>
	</g>
	<g id="XMLID_54_">
		<path id="XMLID_58_" fill="#300033" d="M1037.6,1644.3c-2.5,0.3-4.5,0.5-6.1,0.5c-0.6,0-0.8-0.2-0.8-0.6c0-1,0.7-2,2-3.1
			c1.3-1.1,3.5-2,6.5-2.8c1.4-4.8,2.9-9.3,4.6-13.3c-4.2,0.2-7.7,1.6-10.4,4.2c-0.7,0.7-1.2,1.2-1.7,1.6c-0.4,0.4-0.8,0.6-1.1,0.6
			s-0.6-0.3-0.9-0.8s-0.4-1.2-0.4-2c0-3.3,2.2-5.9,6.6-7.9c4.4-2,9.8-3,16.2-3l19.1,0.3c1.1,0,1.7,0.4,1.7,1.3
			c0,0.3-0.2,0.7-0.5,1.4c-0.3,0.7-0.6,1.4-0.9,2.1c-0.6,1.5-1.7,2.3-3.6,2.3h-2l-8.5-0.1h-4.9c-0.3,2.4-1.4,6.4-3.1,11.8l11.6,0.2
			c0.7,0,1,0.4,1,1.2c0,0.3-0.1,0.7-0.3,1.3c-0.2,0.6-0.4,1.3-0.6,2c-0.3,1.4-1.1,2.1-2.2,2.1l-9.7-0.4h-0.8c-0.3,0-0.6,0-0.9,0.1
			c-2.2,8.1-3.3,14.5-3.3,19.2c0,2.5-2.4,3.8-7.3,3.8c-1.1,0-1.7-0.5-1.9-1.6c-0.2-1.1-0.3-2.5-0.3-4.3
			C1034.9,1656.4,1035.8,1651.1,1037.6,1644.3z"/>
		<path id="XMLID_579_" fill="#300033" d="M1078.7,1658.3c3.3,0,6.5-1.3,9.6-3.9c1.1-1,2.1-1.9,2.8-2.7c0.7-0.8,1.3-1.2,1.7-1.2
			c0.6,0,0.9,0.6,0.9,1.8c0,1.2-0.3,2.5-1,4c-0.6,1.5-1.7,2.9-3.2,4.3c-3.6,3.4-8.6,5.2-15,5.2c-5,0-8.5-1.8-10.3-5.5
			c-0.6-1.3-1-3.1-1-5.5s0.5-4.8,1.4-7.4c0.9-2.6,2.2-4.8,3.7-6.6c1.5-1.9,3.3-3.3,5.4-4.4c2-1,4.2-1.6,6.5-1.6s4.1,0.6,5.3,1.7
			c1.2,1.1,1.9,2.6,1.9,4.5c0,1.8-0.5,3.3-1.4,4.5c-0.9,1.2-2.1,2.1-3.5,2.9c-1.4,0.8-3,1.5-4.8,2.1c-1.8,0.6-3.5,1.3-5.2,2.1v1.6
			c0,1.5,0.7,2.6,1.9,3.2C1075.8,1657.9,1077.2,1658.2,1078.7,1658.3z M1077.7,1640.3c-2.2,0-3.7,2.6-4.6,7.7
			c0.9-0.6,1.7-1.1,2.5-1.6c0.8-0.5,1.5-0.9,2.1-1.3c1.3-0.9,1.9-2,2-3.2C1079.6,1640.9,1079,1640.3,1077.7,1640.3z"/>
		<path id="XMLID_592_" fill="#300033" d="M1105,1634.4c2.8,0,5,0.5,6.4,1.6s2.1,2.6,2.1,4.6s-0.6,3.7-1.8,5.2
			c-1.2,1.4-2.7,2.4-4.4,3c1.2,1.3,2.3,2.6,3.3,3.9c1,1.3,1.5,2.7,1.5,4.1c0,2.8-1.1,5-3.4,6.6c-2.2,1.5-5.4,2.3-9.4,2.3
			s-7-0.8-9-2.4c-2-1.6-3-3.4-3-5.4s0.5-3.8,1.5-5.5s2.1-2.5,3.2-2.5c0.7,0,1.2,0.2,1.5,0.7c0.3,0.5,0.8,1.9,1.7,4.2
			c0.3,0.8,0.8,1.7,1.5,2.4c1.6,1.7,4,2.6,7.4,2.6c-0.5-1.6-1.3-3-2.4-4.2c-1.1-1.2-2.2-2.3-3.3-3.4c-1.1-1.1-2.1-2.3-2.9-3.5
			c-0.8-1.2-1.3-2.7-1.3-4.4c0-3.1,1.1-5.5,3.4-7.4C1099.7,1635.3,1102.2,1634.4,1105,1634.4z M1104.8,1646.2
			c1.7-1.8,2.5-3.3,2.5-4.4c0-0.5-0.2-1-0.5-1.4c-0.4-0.4-0.9-0.6-1.6-0.6s-1.3,0.1-1.9,0.3c-0.6,0.2-1.1,0.3-1.5,0.4
			C1101.8,1642.1,1102.8,1644,1104.8,1646.2z"/>
		<path id="XMLID_595_" fill="#300033" d="M1118.8,1661.7c-0.5-1.1-0.8-2.4-1-3.9c-0.2-1.5-0.3-3.6-0.3-6.3s0.5-6.4,1.5-11h-2.9
			c-0.5,0-0.8-0.2-0.8-0.6c0-1,0.1-1.9,0.3-2.5s0.6-1.4,1.4-2.3h1.5c0.6,0,1.2,0,1.9-0.1c2-6.5,4.1-9.8,6.2-9.8
			c1.7,0,2.9,1.1,3.6,3.2c0.2,0.6,0.4,1.2,0.6,1.9l-2.6,4.6c3,0.1,4.8,0.1,5.6,0.1c0.8,0,1.2,0.1,1.3,0.2s0.1,0.4,0.1,0.7
			c0,0.8-0.2,1.7-0.5,2.9c-0.4,1.1-0.8,1.7-1.2,1.7l-6.4-0.3c-0.9,5.2-1.3,9.5-1.3,12.8c0,3.4,0.5,5.1,1.5,5.1c0.8,0,2.3-0.7,4.4-2
			c2.1-1.3,3.6-2.6,4.6-3.8c0.9-1.2,1.7-1.8,2.3-1.8c0.6,0,0.9,0.7,0.9,2.2s-0.5,2.9-1.5,4.4s-2.3,2.9-3.8,4.1
			c-1.5,1.3-3.3,2.3-5.2,3.1c-1.9,0.8-3.5,1.2-4.9,1.2c-1.4,0-2.5-0.3-3.2-1C1119.9,1663.7,1119.3,1662.9,1118.8,1661.7z"/>
		<path id="XMLID_597_" fill="#300033" d="M1143.8,1665.4c-4.2,0-6.4-4-6.4-11.9c0-4.3,0.5-8.2,1.6-11.8c1.7-5.4,3.5-8.1,5.6-8.1
			c1.2,0,2.2,0.8,2.9,2.5c0.6,1.3,0.9,2.5,0.8,3.8c0,1.7-0.5,4.7-1.5,9c-1,3.7-1.5,6-1.5,6.9c0,0.9,0.2,1.5,0.7,1.8
			c0.4,0.3,1,0.5,1.6,0.5c0.6,0,1.4-0.4,2.3-1.2c0.9-0.8,1.9-1.7,2.8-2.6c0.9-1,1.8-1.8,2.6-2.6c0.8-0.8,1.3-1.2,1.6-1.2
			c0.6,0,0.9,0.7,0.9,2.2c0,3-1.5,5.9-4.5,8.7C1150.4,1664,1147.2,1665.4,1143.8,1665.4z M1146.4,1628.4c-1.1-1.7-1.7-3.5-1.7-5.5
			c0-1.9,0.3-3.6,0.9-4.9c0.6-1.3,1.2-2.2,1.7-2.9c0.6-0.6,1.2-0.9,1.9-0.9c1.2,0,2.3,0.9,3.2,2.6c1,1.8,1.5,3.2,1.5,4.4
			c0,2.2-0.8,3.9-2.3,5.2C1150.1,1627.8,1148.4,1628.4,1146.4,1628.4z"/>
		<path id="XMLID_600_" fill="#300033" d="M1164.7,1637.2c0,2.8-0.5,6.1-1.5,9.7c0.1,1.4,0.1,2.7,0.1,3.9c0,1.3,0.1,2.4,0.3,3.3
			c0.6,1.7,1.4,2.7,2.4,3.1c0.8,0,1.8-0.7,2.8-2.2s2.1-3.2,3.1-5.2c-0.5-1.9-0.8-3.8-0.8-5.5c0-3.1,0.5-5.3,1.4-6.7
			c1.1-1.8,2.9-2.7,5.2-2.7c2.3,0,3.9,0.9,4.6,2.7c0.3,0.7,0.4,1.4,0.4,2.3c0,1.5-0.4,3.1-1.1,4.7s-2,3.7-3.7,6.3
			c0.8,2.2,1.9,3.4,3.4,3.4c1.9,0,3.5-0.7,4.8-2c0.5-0.5,0.9-1,1.3-1.3c0.4-0.4,0.7-0.6,1.1-0.6c0.6,0,0.9,0.7,0.9,2.1
			c0,2.6-0.8,4.5-2.3,5.8c-1.5,1.2-3.4,1.8-5.7,1.8c-3,0-5.4-1.3-7.2-3.9c-5,6.4-9.1,9.7-12.5,9.7c-1.3,0-2.6-1.9-3.9-5.6
			c-1.3-3.7-2.2-8.8-2.9-15.1c-0.5-4-0.2-6.9,0.9-8.6c0.9-1.4,2.8-2,5.5-2c1,0,1.8,0.3,2.4,0.9
			C1164.4,1635.8,1164.7,1636.5,1164.7,1637.2z"/>
		<path id="XMLID_602_" fill="#300033" d="M1225.8,1650.2c0.8,0,1.1,1,1.1,2.9c0,1.1-0.4,2.3-1.3,3.8s-2,2.9-3.5,4.1
			c-1.4,1.3-3,2.3-4.7,3.1c-1.7,0.8-3.4,1.2-5.1,1.2c-2.2,0-3.8-2-4.5-5.9c-1.1,1.8-2.5,3.3-4.3,4.5s-4.2,1.7-7.2,1.7
			s-5.4-0.9-7.2-2.8s-2.7-4.1-2.7-6.8c0-7.2,2.4-12.9,7.2-17c2-1.7,3.9-2.9,5.7-3.4c1.8-0.6,3.6-0.8,5.6-0.8c1.9,0,3.5,0.3,4.8,1
			c0.6-1.2,1.3-1.8,2-1.8c1.5,0,2.9,0.6,4.2,1.9c1.3,1.3,2,2.5,2,3.7c-0.6,1.4-1.5,3.1-2.6,5c-0.3,2-0.5,4.7-0.5,8.2
			s0.4,5.3,1.3,5.3c1.1,0,3.8-2.2,8-6.6C1224.9,1650.6,1225.4,1650.2,1225.8,1650.2z M1195.8,1654c0,3.3,1.2,4.9,3.6,4.9
			c2.6,0,4.7-1.4,6.4-4.1c0.6-0.9,1.1-2.1,1.5-3.4c0-4.7,0.4-8.8,1.3-12.2c-3.4,0.7-6.4,2.3-9,5
			C1197,1646.7,1195.8,1650,1195.8,1654z"/>
		<path id="XMLID_606_" fill="#300033" d="M1237.9,1665.4c-6.1,0-10.2-2.2-12.4-6.8c-0.8-1.6-1.1-3.6-1.1-6.1c0-2.4,0.2-5,0.6-7.8
			c0.8-5.5,2.5-10.6,4.9-15.3c1.2-2.4,2.6-4.4,4.1-6.1c3.3-3.7,7.1-5.6,11.2-5.5c1.8,0,3.3,0.5,4.3,1.5s1.6,2.4,1.6,4.3
			s-0.6,3.7-1.7,5.6c-1.1,1.9-2.5,3.8-4.2,5.9c-1.7,2-3.6,4.1-5.7,6.3c-2.1,2.2-4.1,4.6-6.1,7.2v2.5c0,2.4,0.5,4.1,1.5,5.2
			c1,1.1,2.2,1.7,3.6,1.7c3.6,0,6.9-1.8,9.7-5.4c1.1-1.5,2-2.2,2.6-2.2s0.9,0.7,0.9,2.2s-0.4,2.9-1.2,4.4c-0.8,1.5-1.8,2.9-3.1,4.1
			c-1.3,1.3-2.7,2.3-4.4,3.1C1241.4,1665,1239.7,1665.4,1237.9,1665.4z M1241.4,1631.2c0.9-1.1,1.6-2.1,2.1-3
			c0.5-0.9,0.8-1.8,0.8-2.8s-0.3-1.4-1-1.4c-1.5,0-3.1,1.5-4.9,4.6c-1.8,3.1-3.1,7.1-4,12c1.4-2.2,2.8-4,4-5.5
			C1239.4,1633.6,1240.5,1632.3,1241.4,1631.2z"/>
		<path id="XMLID_611_" fill="#300033" d="M1274.6,1632.8c0-0.8,0.3-1.1,0.8-1.1c0.8,0,1.7,0.2,2.6,0.5c0.9,0.4,1.8,0.6,2.9,0.9
			c3.4-7.2,7.3-12,11.7-14.2c1.5-0.8,3.1-1.1,4.6-1.1c2.8,0,4.8,0.7,5.8,2c1,1.3,1.5,3,1.5,5.1c0,3.9-1.7,7-5.1,9.3
			c-3.4,2.3-7.4,3.5-12.3,3.8c-1.2,3.3-2.2,6.7-2.9,10.4c1.7-0.6,3.8-1,6.4-1c0.3,2.7,0.9,4.6,1.8,5.7c0.8,1.1,1.8,1.7,2.8,1.7
			s1.9-0.3,2.6-0.8c0.7-0.5,1.3-1.1,1.8-1.7s1-1.2,1.3-1.7c0.4-0.5,0.7-0.8,1-0.8c0.7,0,1.1,0.6,1.1,1.9c0,2.5-0.6,4.7-1.9,6.3
			c-1.3,1.7-3.2,2.5-5.9,2.5c-4.1,0-7-1.1-8.8-3.2c0.9,9.3,1.4,14.9,1.4,16.7c0,3.2-1,5.4-3,6.8c-1.7,1.1-3.8,1.7-6.3,1.7
			c-2.6,0-4.3-0.6-5.3-1.7c-1-1.2-1.5-2.6-1.5-4.2c0-10.2,1.5-20.5,4.4-30.8c0.9-3.3,2-6.4,3.2-9.3
			C1276.1,1635.2,1274.6,1633.9,1274.6,1632.8z M1282.3,1676.5c0.4-0.8,0.6-1.6,0.6-2.5c0-2.9-0.4-7.4-1.2-13.5
			c-1.1,4.4-1.8,8.7-2.2,13c-0.1,0.9-0.1,1.5-0.1,1.7c0,1.6,0.5,2.4,1.5,2.4C1281.4,1677.7,1281.9,1677.3,1282.3,1676.5z
			 M1296.6,1624c-0.8,0-2,0.8-3.5,2.4s-3,4.1-4.5,7.4c3.1-1.4,5.1-2.4,6.1-3.1c2-1.4,3-3.1,3-5
			C1297.8,1624.6,1297.4,1624,1296.6,1624z"/>
		<path id="XMLID_615_" fill="#300033" d="M1320.3,1638.4c0-2.8,2.2-4.3,6.6-4.3c1.1,0,1.8,0.4,2.1,1.1c0.3,0.7,0.4,1.8,0.4,3.3
			c0,2.1-0.5,5.3-1.4,9.7c-0.9,4.4-1.4,7.3-1.3,8.8c0,0.7,0.2,1.1,0.7,1.1c0.6,0,1.4-0.4,2.4-1.2c0.9-0.8,1.9-1.7,2.8-2.6
			c0.9-1,1.8-1.8,2.6-2.6c0.8-0.8,1.3-1.2,1.6-1.2c0.6,0,0.9,0.7,0.9,2.2c0,3-1.5,5.8-4.4,8.6c-4.9,2.9-8,4.3-9.3,4.3
			c-0.1,0-0.2,0-0.3-0.1c-1.6,0-2.7-0.5-3.4-1.6c-0.7-1.1-1.1-2.4-1.2-4c-0.8,1.6-2,2.9-3.5,4c-1.5,1.1-3.2,1.7-5.1,1.7
			c-3.3,0-5.9-0.6-7.7-1.9c-1.8-1.3-2.7-3.2-2.7-5.7c0-1.1,0.2-2.1,0.5-3.1c0.3-0.9,0.8-2.1,1.6-3.4l1.8-15.6c1.3-1,3.2-1.5,5.7-1.5
			c1.9,0,3.1,1.3,3.3,3.8c0.2,2.1,0.1,3.9-0.3,5.6c-0.4,1.6-0.9,3.7-1.6,6.2s-1,4.7-1,6.6c0,1.5,1,2.3,2.9,2.3
			c2.1,0,3.9-1.8,5.4-5.5c1.2-2.8,2-5.9,2.4-9.3c0-0.3-0.1-0.8-0.1-1.3s0-1-0.1-1.6c0-0.5,0-1,0-1.5v-1.3H1320.3z M1314.1,1625.5
			c-1.4,1-2.9,1.4-4.6,1.4s-2.5-0.9-2.5-2.7c0-1.8,0.6-3.5,1.7-4.9c1.2-1.4,2.5-2.2,3.9-2.2c1.7,0,3.2,1.5,4.5,4.5
			C1316.5,1623.2,1315.5,1624.5,1314.1,1625.5z M1329.6,1619.8c-1.8,4.7-4,7.1-6.6,7.1c-1,0-1.7-0.3-2.3-0.9
			c-0.6-0.6-0.9-1.3-0.9-2.1c0-1.9,0.4-3.4,1.3-4.5s1.9-1.7,3.2-1.7C1326.7,1617.7,1328.4,1618.4,1329.6,1619.8z"/>
		<path id="XMLID_619_" fill="#300033" d="M1343.7,1654.5l0.4,7.8c0,1-0.5,1.9-1.6,2.7c-1.1,0.8-2.5,1.2-4.3,1.2
			c-1.1,0-1.8-0.6-2.2-1.7c-0.4-1.1-0.6-2.7-0.6-4.8c0-4.5,0.2-7.9,0.7-10.5c0.4-2.5,1.3-5.1,2.6-7.7c-2-1.9-2.9-3.5-2.9-4.8
			c0-2.8,1.5-4.3,4.6-4.3c1.6,0,2.9,0.8,4.1,2.5c0.8,1.1,1.5,2.5,1.8,4c0.6,0.2,1.3,0.3,2.2,0.3c1.2,0,2.6-0.4,4.3-1.2l1.7-0.8
			c0.5-0.3,1-0.4,1.3-0.4c1.2,0,2.5,1.8,3.7,5.4c-0.4,1.7-0.8,3.2-1.2,4.8c-0.4,1.5-1,3.4-1.6,5.5c-0.6,2.2-0.9,3.6-0.9,4.4
			c0,0.7,0.2,1.1,0.7,1.1c0.6,0,1.4-0.4,2.4-1.2c0.9-0.8,1.9-1.7,2.8-2.6c0.9-1,1.8-1.8,2.6-2.6c0.8-0.8,1.3-1.2,1.6-1.2
			c0.6,0,0.9,0.7,0.9,2.2c0,2.9-1.3,5.8-3.8,8.6c-2.6,2.8-5.5,4.2-8.8,4.2c-2,0-3.4-0.8-4.4-2.4s-1.5-3.5-1.5-5.7
			c0-4.5,1-8.7,3-12.7c-0.9,0.4-2,0.6-3.1,0.6c-1.2,0-2,0-2.5-0.1c-0.4,1.6-0.8,3.2-1.1,4.9
			C1343.9,1651.6,1343.7,1653.1,1343.7,1654.5z"/>
		<path id="XMLID_621_" fill="#300033" d="M1390.1,1632.8c0-0.8,0.3-1.1,0.8-1.1c0.8,0,1.7,0.2,2.6,0.5c0.9,0.4,1.8,0.6,2.9,0.9
			c3.4-7.2,7.3-12,11.7-14.2c1.5-0.8,3.1-1.1,4.6-1.1c2.8,0,4.8,0.7,5.8,2c1,1.3,1.5,3,1.5,5.1c0,3.9-1.7,7-5.1,9.3
			c-3.4,2.3-7.4,3.5-12.3,3.8c-1.2,3.3-2.2,6.7-2.9,10.4c1.7-0.6,3.8-1,6.4-1c0.3,2.7,0.9,4.6,1.8,5.7c0.8,1.1,1.8,1.7,2.8,1.7
			s1.9-0.3,2.6-0.8c0.7-0.5,1.3-1.1,1.8-1.7s1-1.2,1.3-1.7c0.4-0.5,0.7-0.8,1-0.8c0.7,0,1.1,0.6,1.1,1.9c0,2.5-0.6,4.7-1.9,6.3
			c-1.3,1.7-3.2,2.5-5.9,2.5c-4.1,0-7-1.1-8.8-3.2c0.9,9.3,1.4,14.9,1.4,16.7c0,3.2-1,5.4-3,6.8c-1.7,1.1-3.8,1.7-6.3,1.7
			c-2.6,0-4.3-0.6-5.3-1.7c-1-1.2-1.5-2.6-1.5-4.2c0-10.2,1.5-20.5,4.4-30.8c0.9-3.3,2-6.4,3.2-9.3
			C1391.7,1635.2,1390.1,1633.9,1390.1,1632.8z M1397.9,1676.5c0.4-0.8,0.6-1.6,0.6-2.5c0-2.9-0.4-7.4-1.2-13.5
			c-1.1,4.4-1.8,8.7-2.2,13c-0.1,0.9-0.1,1.5-0.1,1.7c0,1.6,0.5,2.4,1.5,2.4C1397,1677.7,1397.4,1677.3,1397.9,1676.5z M1412.2,1624
			c-0.8,0-2,0.8-3.5,2.4s-3,4.1-4.5,7.4c3.1-1.4,5.1-2.4,6.1-3.1c2-1.4,3-3.1,3-5C1413.3,1624.6,1412.9,1624,1412.2,1624z"/>
		<path id="XMLID_625_" fill="#300033" d="M1424.7,1654.5l0.4,7.8c0,1-0.5,1.9-1.6,2.7c-1.1,0.8-2.5,1.2-4.3,1.2
			c-1.1,0-1.8-0.6-2.2-1.7c-0.4-1.1-0.6-2.7-0.6-4.8c0-4.5,0.2-7.9,0.7-10.5c0.4-2.5,1.3-5.1,2.6-7.7c-2-1.9-2.9-3.5-2.9-4.8
			c0-2.8,1.5-4.3,4.6-4.3c1.6,0,2.9,0.8,4.1,2.5c0.8,1.1,1.5,2.5,1.8,4c0.6,0.2,1.3,0.3,2.2,0.3c1.2,0,2.6-0.4,4.3-1.2l1.7-0.8
			c0.5-0.3,1-0.4,1.3-0.4c1.2,0,2.5,1.8,3.7,5.4c-0.4,1.7-0.8,3.2-1.2,4.8c-0.4,1.5-1,3.4-1.6,5.5c-0.6,2.2-0.9,3.6-0.9,4.4
			c0,0.7,0.2,1.1,0.7,1.1c0.6,0,1.4-0.4,2.4-1.2c0.9-0.8,1.9-1.7,2.8-2.6c0.9-1,1.8-1.8,2.6-2.6c0.8-0.8,1.3-1.2,1.6-1.2
			c0.6,0,0.9,0.7,0.9,2.2c0,2.9-1.3,5.8-3.8,8.6c-2.6,2.8-5.5,4.2-8.8,4.2c-2,0-3.4-0.8-4.4-2.4s-1.5-3.5-1.5-5.7
			c0-4.5,1-8.7,3-12.7c-0.9,0.4-2,0.6-3.1,0.6c-1.2,0-2,0-2.5-0.1c-0.4,1.6-0.8,3.2-1.1,4.9
			C1424.9,1651.6,1424.7,1653.1,1424.7,1654.5z"/>
		<path id="XMLID_627_" fill="#300033" d="M1483.5,1650.2c0.8,0,1.1,1,1.1,2.9c0,1.1-0.4,2.3-1.3,3.8c-0.9,1.5-2,2.9-3.5,4.1
			c-1.4,1.3-3,2.3-4.7,3.1c-1.7,0.8-3.4,1.2-5.1,1.2c-2.2,0-3.8-2-4.5-5.9c-1.1,1.8-2.5,3.3-4.3,4.5c-1.8,1.2-4.2,1.7-7.2,1.7
			s-5.4-0.9-7.2-2.8c-1.8-1.9-2.7-4.1-2.7-6.8c0-7.2,2.4-12.9,7.2-17c2-1.7,3.9-2.9,5.7-3.4c1.8-0.6,3.6-0.8,5.6-0.8
			c1.9,0,3.5,0.3,4.8,1c0.6-1.2,1.3-1.8,2-1.8c1.5,0,2.9,0.6,4.2,1.9c1.3,1.3,2,2.5,2,3.7c-0.6,1.4-1.5,3.1-2.6,5
			c-0.3,2-0.5,4.7-0.5,8.2s0.4,5.3,1.3,5.3c1.1,0,3.8-2.2,8-6.6C1482.6,1650.6,1483.2,1650.2,1483.5,1650.2z M1453.5,1654
			c0,3.3,1.2,4.9,3.6,4.9c2.6,0,4.7-1.4,6.4-4.1c0.6-0.9,1.1-2.1,1.5-3.4c0-4.7,0.4-8.8,1.3-12.2c-3.4,0.7-6.4,2.3-9,5
			C1454.8,1646.7,1453.5,1650,1453.5,1654z"/>
		<path id="XMLID_630_" fill="#300033" d="M1490,1633.5c1.5,0,3,1.5,4.3,4.4c2-2.1,4.5-3.1,7.4-3.1c2.9,0,5.2,0.6,6.6,1.9
			c1.5,1.3,2.2,3.1,2.2,5.5c0,2.4-0.3,4.7-0.9,7.2c-0.6,2.4-1.1,4.1-1.3,5.2c-0.3,1-0.4,1.9-0.4,2.6c0,0.7,0.2,1,0.7,1
			c0.6,0,1.4-0.4,2.4-1.2c0.9-0.8,1.9-1.7,2.8-2.6c0.9-1,1.8-1.8,2.6-2.6c0.8-0.8,1.3-1.2,1.6-1.2c0.6,0,0.9,0.7,0.9,2.2
			c0,3-1.5,5.8-4.4,8.6c-4.9,2.9-8.1,4.3-9.4,4.3c-0.1,0-0.2,0-0.3-0.1c-3.4,0-5.1-2.7-5.1-8.1c0-2.3,0.2-4.5,0.7-6.4
			c0.4-1.9,0.8-3.4,1-4.3c0.2-0.9,0.3-1.8,0.3-2.7c0-1.5-0.9-2.3-2.6-2.3c-1.8,0-3.4,1.3-5,3.9c-1.6,2.6-2.7,5.3-3.2,8.1v0.4
			c0,1.4,0.2,2.9,0.7,4.5c0.5,1.6,0.7,2.6,0.7,3.2c0,1.4-1.8,2.9-5.4,4.3c-0.6,0.2-1,0.3-1.5,0.3c-1.1,0-1.8-0.6-2.2-1.7
			c-0.4-1.1-0.6-2.8-0.6-5.2c0-6,0.2-10.4,0.7-13c0.6-4,2.1-7.7,4.3-11.1C1488.2,1634.1,1489.1,1633.5,1490,1633.5z"/>
		<path id="XMLID_632_" fill="#300033" d="M1534.2,1651.3c1.1,4.5,3.1,6.8,5.8,6.8c1.3,0,2.5-0.4,3.6-1.2c1.1-0.8,2-1.7,2.9-2.6
			c0.8-1,1.6-1.8,2.2-2.6s1.2-1.2,1.8-1.2c0.6,0,0.8,0.7,0.8,2.2c0,3-1.4,5.9-4.2,8.7c-2.8,2.8-5.9,4.2-9.4,4.2s-6.5-3.1-9.3-9.1
			c-0.8-1.7-1.5-3.4-2.2-5.2l-0.4,8.7c0,0.8,0,1.6-0.1,2.4c-0.1,0.8-0.4,1.4-1.1,1.9c-1.7,1.3-3.3,2-5,2c-2,0-3-2.1-3-6.2
			c0-5.9,0.7-12.1,2.1-18.6s2.8-11.4,4.1-14.7c1.3-3.3,2.4-5.5,3.1-6.6c0.7-1.1,1.3-1.8,1.7-2c0.4-0.3,0.9-0.4,1.4-0.4
			s1.1,0.3,1.7,0.8s1.2,1.3,1.9,2.4c0.7,1.1,1,2.1,1,3.2c0,1-0.1,2.1-0.5,3.1s-0.8,2-1.4,2.9c-0.6,1-1.3,1.9-2,2.9s-1.4,2.1-2.2,3.2
			l-0.6,5.3c1.5-3.1,3.7-5.2,6.6-6.2c1-0.4,2.2-0.6,3.6-0.6c2.7,0,4.8,0.6,6.2,1.9c1.4,1.3,2.2,3.2,2.2,5.7s-1.3,4.6-3.8,6.4
			C1539.3,1650.5,1536.8,1651.3,1534.2,1651.3z M1536.6,1643.8c0-1.5-0.9-2.3-2.6-2.3s-3.6,1.7-5.7,5c-0.6,1-1.1,2-1.5,3
			c4.4-0.3,7.4-1.4,9-3.6C1536.4,1645.3,1536.6,1644.6,1536.6,1643.8z"/>
		<path id="XMLID_635_" fill="#300033" d="M1573.8,1659.8c-3.4,3.9-7.4,5.9-12.1,5.9s-8.2-1.2-10.5-3.6s-3.5-5.4-3.4-8.9
			c0-5,1.5-9.4,4.8-13c3.2-3.6,7.4-5.5,12.7-5.5c2.4,0,4.3,0.3,5.7,0.9c2.5,1,3.8,2,3.8,2.9c0,0.7-1.7,1-5.2,1s-6.4,1.2-8.8,3.6
			s-3.5,5.4-3.5,9.1c0,1.9,0.6,3.5,1.7,4.8c1.1,1.3,2.7,1.9,4.8,1.9c2.1,0,3.8-0.4,5.1-1.3c-3-2-4.5-5-4.5-8.8c0-2,0.7-3.9,2.2-5.6
			c1.5-1.7,3.4-2.5,5.8-2.5s4,0.6,5.1,1.9c1,1.3,1.5,3,1.5,5.1c0,2.1-0.5,4.2-1.5,6.5h0.4c1.9,0,3.5-0.7,4.8-2
			c0.5-0.5,0.9-1,1.3-1.3c0.4-0.4,0.7-0.6,1.1-0.6c0.6,0,0.9,0.7,0.9,2.1c0,2.6-0.8,4.5-2.3,5.8c-1.5,1.3-3.2,1.9-5.1,1.9
			S1575,1660,1573.8,1659.8z M1573.2,1652.4c0.7-1.5,1.1-3,1.1-4.5s-0.5-2.2-1.4-2.2c-0.4,0-0.7,0.3-1,0.8c-0.3,0.6-0.4,1.1-0.4,1.6
			C1571.5,1649.9,1572.1,1651.3,1573.2,1652.4z"/>
		<path id="XMLID_638_" fill="#300033" d="M1594.6,1638.5c2.2-2.5,5-3.8,8.5-3.8c4.9,0,8,2,9.3,6c0.4,1.2,0.6,2.5,0.6,3.9
			c0,3.2-1,6.4-3.1,9.5s-4.6,5.3-7.6,6.4h0.8c3.1,0,6.2-1.1,9.4-3.4c2-1.4,3.6-2.9,4.8-4.5c1.2-1.5,2-2.3,2.6-2.3s0.9,0.7,0.9,2
			c0,2.4-1,4.8-3.1,7.2c-3.1,3.5-7,5.5-11.7,6.1c-3.4,0.4-5.9,0.4-7.3,0.2c-1.4-0.3-2.5-0.6-3.3-1c-1.7-0.8-2.5-2.1-2.5-3.8
			c0-0.9,0.2-1.8,0.6-2.5c3.3,0,5.9-1.3,7.6-3.8s2.6-5.7,2.6-9.5c0-0.9-0.3-1.8-1-2.5s-1.6-1.1-2.7-1.1s-2.3,0.5-3.7,1.5
			c-1.3,1-2.4,2.2-3.1,3.7c-0.8,1.5-1.5,2.9-2.1,4.3c-0.6,1.4-1.1,3.2-1.5,5.4c-0.7,3.9-1.5,8.8-2.3,14.8c-0.9,6-1.4,9.2-1.6,9.6
			s-0.5,0.9-1,1.2c-0.4,0.4-0.9,0.6-1.3,0.6c-0.8,0-1.5-0.3-2.1-0.8c-1.5-1.3-2.4-2.3-2.7-3s-0.4-1.6-0.4-2.7c0-4.2,0.7-10,2.1-17.5
			s3.8-15.3,7.2-23.4c0.5-1.2,1.4-1.8,2.7-1.8c1.3,0,2.5,1.1,3.7,3.4C1594.3,1637.5,1594.5,1638,1594.6,1638.5z"/>
		<path id="XMLID_640_" fill="#300033" d="M1638.8,1643.8c0-1.5-0.9-2.3-2.7-2.3c-1.8,0-3.6,1.4-5.3,4.2c-1.7,2.8-2.8,5.6-3.2,8.5
			c0.1,1,0.2,2,0.3,2.9c0.1,1,0.1,1.9,0.1,2.9c0,2.2-0.7,3.8-2.2,4.6c-0.7,0.4-1.3,0.7-1.9,1.1c-0.6,0.3-1.3,0.5-2.1,0.5
			c-0.8,0-1.5-0.5-2.1-1.6s-0.9-2.8-0.9-5.1c0-6.4,0.5-12,1.4-16.7c1.4-7.3,4.3-15.1,8.6-23.4c0.6-1.1,1.5-1.7,2.6-1.7
			s2.1,0.8,2.8,2.4c0.7,1.6,1.1,2.9,1,3.9c0,1.1-0.2,2.1-0.5,3.1s-0.7,2-1.2,2.9c-0.5,1-1,1.9-1.7,2.9c-0.6,1-1.2,2.1-1.8,3.2
			l-1,4.6c1.7-2.8,3.9-4.6,6.7-5.5c1-0.3,2.1-0.5,3.4-0.5c2.9,0,5.1,0.6,6.6,1.9s2.2,3.1,2.2,5.5s-0.3,4.7-0.9,7.2
			c-0.6,2.4-1.1,4.1-1.3,5.2c-0.3,1-0.4,1.9-0.4,2.6c0,0.7,0.2,1,0.7,1c0.6,0,1.4-0.4,2.4-1.2c0.9-0.8,1.9-1.7,2.8-2.6
			c0.9-1,1.8-1.8,2.6-2.6c0.8-0.8,1.3-1.2,1.6-1.2c0.6,0,0.9,0.7,0.9,2.2c0,3-1.5,5.8-4.4,8.6c-4.9,2.9-8.1,4.3-9.4,4.3
			c-0.1,0-0.2,0-0.3-0.1c-3.4,0-5.1-2.7-5.1-8.1c0-2.3,0.2-4.5,0.7-6.4c0.4-1.9,0.8-3.4,1-4.3
			C1638.7,1645.7,1638.8,1644.8,1638.8,1643.8z"/>
		<path id="XMLID_642_" fill="#300033" d="M1678.4,1659.8c-3.4,3.9-7.4,5.9-12.1,5.9s-8.2-1.2-10.5-3.6s-3.5-5.4-3.4-8.9
			c0-5,1.5-9.4,4.8-13c3.2-3.6,7.4-5.5,12.7-5.5c2.4,0,4.3,0.3,5.7,0.9c2.5,1,3.8,2,3.8,2.9c0,0.7-1.7,1-5.2,1s-6.4,1.2-8.8,3.6
			s-3.5,5.4-3.5,9.1c0,1.9,0.6,3.5,1.7,4.8c1.1,1.3,2.7,1.9,4.8,1.9c2.1,0,3.8-0.4,5.1-1.3c-3-2-4.5-5-4.5-8.8c0-2,0.7-3.9,2.2-5.6
			c1.5-1.7,3.4-2.5,5.8-2.5s4,0.6,5.1,1.9c1,1.3,1.5,3,1.5,5.1c0,2.1-0.5,4.2-1.5,6.5h0.4c1.9,0,3.5-0.7,4.8-2
			c0.5-0.5,0.9-1,1.3-1.3c0.4-0.4,0.7-0.6,1.1-0.6c0.6,0,0.9,0.7,0.9,2.1c0,2.6-0.8,4.5-2.3,5.8c-1.5,1.3-3.2,1.9-5.1,1.9
			S1679.7,1660,1678.4,1659.8z M1677.9,1652.4c0.7-1.5,1.1-3,1.1-4.5s-0.5-2.2-1.4-2.2c-0.4,0-0.7,0.3-1,0.8
			c-0.3,0.6-0.4,1.1-0.4,1.6C1676.2,1649.9,1676.8,1651.3,1677.9,1652.4z"/>
		<path id="XMLID_645_" fill="#300033" d="M1695.7,1633.5c1.5,0,3,1.5,4.3,4.4c2-2.1,4.5-3.1,7.4-3.1s5.2,0.6,6.6,1.9
			c1.5,1.3,2.2,3.1,2.2,5.5c0,2.4-0.3,4.7-0.9,7.2c-0.6,2.4-1.1,4.1-1.3,5.2c-0.3,1-0.4,1.9-0.4,2.6c0,0.7,0.2,1,0.7,1
			c0.6,0,1.4-0.4,2.4-1.2c0.9-0.8,1.9-1.7,2.8-2.6c0.9-1,1.8-1.8,2.6-2.6c0.8-0.8,1.3-1.2,1.6-1.2c0.6,0,0.9,0.7,0.9,2.2
			c0,3-1.5,5.8-4.4,8.6c-4.9,2.9-8.1,4.3-9.4,4.3c-0.1,0-0.2,0-0.3-0.1c-3.4,0-5.1-2.7-5.1-8.1c0-2.3,0.2-4.5,0.7-6.4
			c0.4-1.9,0.8-3.4,1-4.3c0.2-0.9,0.3-1.8,0.3-2.7c0-1.5-0.9-2.3-2.6-2.3c-1.8,0-3.4,1.3-5,3.9c-1.6,2.6-2.7,5.3-3.2,8.1v0.4
			c0,1.4,0.2,2.9,0.7,4.5c0.5,1.6,0.7,2.6,0.7,3.2c0,1.4-1.8,2.9-5.4,4.3c-0.6,0.2-1,0.3-1.5,0.3c-1.1,0-1.8-0.6-2.2-1.7
			c-0.4-1.1-0.6-2.8-0.6-5.2c0-6,0.2-10.4,0.7-13c0.6-4,2.1-7.7,4.3-11.1C1694,1634.1,1694.9,1633.5,1695.7,1633.5z"/>
		<path id="XMLID_647_" fill="#300033" d="M1736.3,1658.3c3.3,0,6.5-1.3,9.6-3.9c1.1-1,2.1-1.9,2.8-2.7c0.7-0.8,1.3-1.2,1.7-1.2
			c0.6,0,0.9,0.6,0.9,1.8c0,1.2-0.3,2.5-1,4c-0.6,1.5-1.7,2.9-3.2,4.3c-3.6,3.4-8.6,5.2-15,5.2c-5,0-8.5-1.8-10.3-5.5
			c-0.6-1.3-1-3.1-1-5.5s0.5-4.8,1.4-7.4c0.9-2.6,2.2-4.8,3.7-6.6c1.5-1.9,3.3-3.3,5.4-4.4c2-1,4.2-1.6,6.5-1.6s4.1,0.6,5.3,1.7
			c1.2,1.1,1.9,2.6,1.9,4.5c0,1.8-0.5,3.3-1.4,4.5c-0.9,1.2-2.1,2.1-3.5,2.9c-1.4,0.8-3,1.5-4.8,2.1c-1.8,0.6-3.5,1.3-5.2,2.1v1.6
			c0,1.5,0.7,2.6,1.9,3.2C1733.3,1657.9,1734.7,1658.2,1736.3,1658.3z M1735.2,1640.3c-2.2,0-3.7,2.6-4.6,7.7
			c0.9-0.6,1.7-1.1,2.5-1.6s1.5-0.9,2.1-1.3c1.3-0.9,1.9-2,2-3.2C1737.1,1640.9,1736.5,1640.3,1735.2,1640.3z"/>
		<path id="XMLID_650_" fill="#300033" d="M1836,1650.2c0.7,0,1.1,1,1.1,2.9c0,1.1-0.4,2.3-1.3,3.8s-2,2.9-3.5,4.1
			c-1.4,1.3-3,2.3-4.7,3.1c-1.7,0.8-3.6,1.2-5.5,1.2s-3.4-0.6-4.5-1.9c-1.1-1.2-1.6-2.6-1.6-4.2c0-1.5,0.3-3.3,0.8-5.2
			s1.1-4,1.7-6.1c1.6-5.6,2.4-9.6,2.5-11.9c0-1-0.1-1.7-0.4-2.3c-0.3-0.6-0.7-0.8-1.5-0.8c-1.3,0-2.6,0.8-4.1,2.3
			c-1.4,1.5-2.8,3.5-4.1,5.9c-2.9,5.4-4.5,10.7-4.6,15.9c0.1,0.6,0.2,1.2,0.3,1.8c0.1,0.6,0.1,1.2,0.1,1.9c0,1.4-0.7,2.6-2,3.7
			s-2.8,1.7-4.5,1.7c-1,0-1.7-0.5-2.2-1.4c-0.5-1-0.7-2.1-0.7-3.5c0-1.4,0.3-3.3,1-5.7c0.6-2.4,1.3-5,2.1-7.7c2-7.2,3.1-12.5,3.1-16
			c0-1.8-0.2-3.2-0.7-4.2c-0.4-1-1.3-1.5-2.6-1.5c-2.3,0-4.6,1.6-6.8,4.9c-2.2,3.3-4.3,8.3-6,15.2c-0.5,1.8-0.8,3.3-1.1,4.6
			l-0.1,1.2c0.8,3.9,1.2,6.4,1.2,7.6c0,2.5-0.9,4.1-2.6,5c-0.8,0.4-1.6,0.7-2.3,1.1c-0.7,0.3-1.5,0.5-2.4,0.5c-2.1,0-3.2-2-3.2-6.1
			s1.1-12,3.4-23.8c0.8-4.2,1.2-6.6,1.2-7.1c0-3.4-0.9-5.2-2.6-5.2c-0.6,0-1.1,0.2-1.6,0.5s-1,0.7-1.5,1.1s-1,0.7-1.5,1.1
			c-0.5,0.3-1.1,0.5-1.7,0.5c-0.7,0-1-0.6-1-1.7c0-2.3,1.1-4.2,3.2-5.7s4.6-2.3,7.6-2.3c3.8,0,6.1,1.8,6.7,5.3
			c0.2,1.1,0.3,2.2,0.4,3.4c3.1-5.9,7.1-8.8,11.9-8.8c5.2,0,8.2,2.5,9,7.5c0.3,1.4,0.4,3,0.3,4.6v0.5c2.8-3.8,6-5.7,9.8-5.7
			c5.3,0,8,3.2,8,9.7c0,2.8-0.4,6.1-1.3,9.8c-0.9,3.8-1.5,6.4-1.9,8.1c-0.4,1.6-0.6,2.9-0.6,3.8c0,1.6,0.6,2.4,1.7,2.4
			s3.8-2.2,8-6.6C1835.1,1650.6,1835.7,1650.2,1836,1650.2z"/>
		<path id="XMLID_652_" fill="#300033" d="M1853.7,1638.4c0-2.8,2.2-4.3,6.6-4.3c1.1,0,1.8,0.4,2.1,1.1c0.3,0.7,0.4,1.8,0.4,3.3
			c0,2.1-0.5,5.3-1.4,9.7c-0.9,4.4-1.4,7.3-1.3,8.8c0,0.7,0.2,1.1,0.7,1.1c0.6,0,1.4-0.4,2.4-1.2c0.9-0.8,1.9-1.7,2.8-2.6
			c0.9-1,1.8-1.8,2.6-2.6c0.8-0.8,1.3-1.2,1.6-1.2c0.6,0,0.9,0.7,0.9,2.2c0,3-1.5,5.8-4.4,8.6c-4.9,2.9-8,4.3-9.3,4.3
			c-0.1,0-0.2,0-0.3-0.1c-1.6,0-2.7-0.5-3.4-1.6c-0.7-1.1-1.1-2.4-1.2-4c-0.8,1.6-2,2.9-3.5,4c-1.5,1.1-3.2,1.7-5.1,1.7
			c-3.3,0-5.9-0.6-7.7-1.9c-1.8-1.3-2.7-3.2-2.7-5.7c0-1.1,0.2-2.1,0.5-3.1c0.3-0.9,0.8-2.1,1.6-3.4l1.8-15.6c1.3-1,3.2-1.5,5.7-1.5
			c1.9,0,3.1,1.3,3.3,3.8c0.2,2.1,0.1,3.9-0.3,5.6c-0.4,1.6-0.9,3.7-1.6,6.2s-1,4.7-1,6.6c0,1.5,1,2.3,2.9,2.3
			c2.1,0,3.9-1.8,5.4-5.5c1.2-2.8,2-5.9,2.4-9.3c0-0.3-0.1-0.8-0.1-1.3s0-1-0.1-1.6c0-0.5,0-1,0-1.5v-1.3H1853.7z"/>
		<path id="XMLID_654_" fill="#300033" d="M1882.3,1634.4c2.8,0,5,0.5,6.4,1.6s2.1,2.6,2.1,4.6s-0.6,3.7-1.8,5.2
			c-1.2,1.4-2.7,2.4-4.4,3c1.2,1.3,2.3,2.6,3.3,3.9c1,1.3,1.5,2.7,1.5,4.1c0,2.8-1.1,5-3.4,6.6c-2.2,1.5-5.4,2.3-9.4,2.3
			s-7-0.8-9-2.4c-2-1.6-3-3.4-3-5.4s0.5-3.8,1.5-5.5s2.1-2.5,3.2-2.5c0.7,0,1.2,0.2,1.5,0.7s0.8,1.9,1.7,4.2
			c0.3,0.8,0.8,1.7,1.5,2.4c1.6,1.7,4,2.6,7.4,2.6c-0.5-1.6-1.3-3-2.4-4.2c-1.1-1.2-2.2-2.3-3.3-3.4c-1.1-1.1-2.1-2.3-2.9-3.5
			c-0.8-1.2-1.3-2.7-1.3-4.4c0-3.1,1.1-5.5,3.4-7.4C1877,1635.3,1879.5,1634.4,1882.3,1634.4z M1882.1,1646.2
			c1.7-1.8,2.5-3.3,2.5-4.4c0-0.5-0.2-1-0.5-1.4c-0.4-0.4-0.9-0.6-1.6-0.6s-1.3,0.1-1.9,0.3c-0.6,0.2-1.1,0.3-1.5,0.4
			C1879.1,1642.1,1880.1,1644,1882.1,1646.2z"/>
		<path id="XMLID_657_" fill="#300033" d="M1901,1665.4c-4.2,0-6.4-4-6.4-11.9c0-4.3,0.5-8.2,1.6-11.8c1.7-5.4,3.5-8.1,5.6-8.1
			c1.2,0,2.2,0.8,2.9,2.5c0.6,1.3,0.9,2.5,0.8,3.8c0,1.7-0.5,4.7-1.5,9c-1,3.7-1.5,6-1.5,6.9c0,0.9,0.2,1.5,0.7,1.8
			c0.4,0.3,1,0.5,1.6,0.5s1.4-0.4,2.3-1.2c0.9-0.8,1.9-1.7,2.8-2.6c0.9-1,1.8-1.8,2.6-2.6c0.8-0.8,1.3-1.2,1.6-1.2
			c0.6,0,0.9,0.7,0.9,2.2c0,3-1.5,5.9-4.5,8.7C1907.6,1664,1904.4,1665.4,1901,1665.4z M1903.6,1628.4c-1.1-1.7-1.7-3.5-1.7-5.5
			c0-1.9,0.3-3.6,0.9-4.9s1.2-2.2,1.7-2.9c0.6-0.6,1.2-0.9,1.9-0.9c1.2,0,2.3,0.9,3.2,2.6c1,1.8,1.5,3.2,1.5,4.4
			c0,2.2-0.8,3.9-2.3,5.2C1907.3,1627.8,1905.5,1628.4,1903.6,1628.4z"/>
		<path id="XMLID_660_" fill="#300033" d="M1930.4,1651.3c1.1,4.5,3.1,6.8,5.8,6.8c1.3,0,2.5-0.4,3.6-1.2c1.1-0.8,2-1.7,2.9-2.6
			c0.8-1,1.6-1.8,2.2-2.6s1.2-1.2,1.8-1.2c0.6,0,0.8,0.7,0.8,2.2c0,3-1.4,5.9-4.2,8.7c-2.8,2.8-5.9,4.2-9.4,4.2s-6.5-3.1-9.3-9.1
			c-0.8-1.7-1.5-3.4-2.2-5.2l-0.4,8.7c0,0.8,0,1.6-0.1,2.4c-0.1,0.8-0.4,1.4-1.1,1.9c-1.7,1.3-3.3,2-5,2c-2,0-3-2.1-3-6.2
			c0-5.9,0.7-12.1,2.1-18.6s2.8-11.4,4.1-14.7c1.3-3.3,2.4-5.5,3.1-6.6c0.7-1.1,1.3-1.8,1.7-2c0.4-0.3,0.9-0.4,1.4-0.4
			s1.1,0.3,1.7,0.8s1.2,1.3,1.9,2.4c0.7,1.1,1,2.1,1,3.2c0,1-0.1,2.1-0.5,3.1s-0.8,2-1.4,2.9c-0.6,1-1.3,1.9-2,2.9s-1.4,2.1-2.2,3.2
			l-0.6,5.3c1.5-3.1,3.7-5.2,6.6-6.2c1-0.4,2.2-0.6,3.6-0.6c2.7,0,4.8,0.6,6.2,1.9c1.4,1.3,2.2,3.2,2.2,5.7s-1.3,4.6-3.8,6.4
			C1935.5,1650.5,1933,1651.3,1930.4,1651.3z M1932.8,1643.8c0-1.5-0.9-2.3-2.6-2.3s-3.6,1.7-5.7,5c-0.6,1-1.1,2-1.5,3
			c4.4-0.3,7.4-1.4,9-3.6C1932.6,1645.3,1932.8,1644.6,1932.8,1643.8z"/>
	</g>
</g>
</svg>
