<?xml version="1.0" encoding="utf-8"?>
<!-- Generator: Adobe Illustrator 19.1.0, SVG Export Plug-In . SVG Version: 6.00 Build 0)  -->
<!DOCTYPE svg PUBLIC "-//W3C//DTD SVG 1.1//EN" "http://www.w3.org/Graphics/SVG/1.1/DTD/svg11.dtd">
<svg version="1.1" xmlns="http://www.w3.org/2000/svg" xmlns:xlink="http://www.w3.org/1999/xlink" x="0px" y="0px"
	 viewBox="0 0 800 500" enable-background="new 0 0 800 500" xml:space="preserve">
<g id="bg">
</g>
<g id="Layer_1">
	<g>
		<g>
			<g id="XMLID_816_">
				<path fill="#FFFFFF" d="M250.8,387.3c0-0.5,0.1-1.1,0.1-1.6h13.8c-0.2,4.3,2,6.3,5.4,6.3c4,0,5.9-2.9,5-6.1
					c-1-3.4-4.6-3.6-6.7-3.6h-6.2v-9.6h6.2c3.4,0,5.9-1.4,6-4.9c0.2-2.4-1.5-4.3-3.4-4.6c-3.4-0.6-6.4,1.3-5.7,5.7h-13
					c-0.6-8,4.2-17.6,18.2-17.6c6.1,0,13.8,1.7,17.2,7.7c0.9,1.6,1.4,3.8,1.4,6.1c0.1,4.9-2.3,9.9-6.3,11.5c4.5,1.3,8.4,6,8.4,11.6
					c0,10.4-8.2,16.9-21.5,16.9C254.9,404.9,250.8,395.1,250.8,387.3z"/>
				<path fill="#FFFFFF" d="M298,397.8c0-4,3.1-6.9,7.1-6.9c4,0,7.1,2.9,7.1,6.9c0,4-3.1,7-7.1,7C301.1,404.8,298,401.8,298,397.8z"
					/>
				<path fill="#FFFFFF" d="M320.3,403.7c4.3-5.5,8-11.3,9.5-16.6c-8.9,0.4-18-5.2-18-17.4c0-11,9.1-18.5,19.6-18.5
					c14.8,0,21.1,7.9,21.1,19.7c0,11-7.7,24.2-14,32.8H320.3z M336.8,369.9c0-2.6-2.1-4.7-4.6-4.7c-2.6,0-4.8,2.1-4.8,4.7
					c0,2.6,2.1,4.6,4.8,4.6C334.6,374.4,336.8,372.4,336.8,369.9z"/>
				<path fill="#FFFFFF" d="M353.2,397.8c0-4,3.1-6.9,7.1-6.9c4,0,7.1,2.9,7.1,6.9c0,4-3.1,7-7.1,7
					C356.3,404.8,353.2,401.8,353.2,397.8z"/>
				<path fill="#FFFFFF" d="M375.1,403.7v-11.1c6.5-6.1,16.3-13.9,20.5-21c1.8-3.2,1.5-7.2-2.9-7.2c-3.5,0-4.9,4.1-2.9,7.8h-14.6
					c-0.4-1.3-0.7-3.1-0.7-4.9c0-7.1,4.5-16.1,19.1-16.1c18.7,0,19.6,11.7,19.6,16.1c-0.2,8.4-6.8,15.5-14.7,22.9h14.3v13.5H375.1z"
					/>
				<path fill="#FFFFFF" d="M419.3,378c0-16,3.3-26.8,20.2-26.8s20.1,10.7,20.1,26.8c0,16.2-3,26.9-20.1,26.9
					C422.6,404.9,419.3,394.1,419.3,378z M442.6,377.9c0-6.7,0.7-12.1-3.2-12.1c-3.7,0-3,5.4-3,12.1c0,6.7-0.7,12.4,3,12.4
					C443.2,390.2,442.6,384.6,442.6,377.9z"/>
				<path fill="#FFFFFF" d="M470.5,403.7V366h-5.3v-6.5c3.2-0.8,7.4-4.1,7.7-7.2h14.6v51.4H470.5z"/>
				<path fill="#FFFFFF" d="M495.1,385.3c0-10.7,8.2-24.5,14.5-33h17.5c-4,5.2-7.9,12.1-9.6,17.1c9.5-1,18.6,5.1,18.6,16.6
					c0,11.1-7.4,18.9-20.6,18.9C501.6,404.9,495.1,395.7,495.1,385.3z M520.9,386.5c0-2.6-2.2-4.7-4.8-4.7c-2.5,0-4.6,2.1-4.6,4.7
					c0,2.6,2.1,4.6,4.6,4.6C518.6,391.1,520.9,389.1,520.9,386.5z"/>
			</g>
			<g id="XMLID_815_">
				<path fill="#FFFFFF" d="M250.8,467.5v-44.7H266v13.8l6.6-13.8h15.2l-9.1,18.2l11.4,26.5h-16.6l-7.4-20.3v20.3H250.8z"/>
				<path fill="#FFFFFF" d="M294.2,467.5v-44.7h15.1v32.9h12.3v11.8H294.2z"/>
				<path fill="#FFFFFF" d="M328.5,467.5v-44.7h15.4v44.7H328.5z"/>
				<path fill="#FFFFFF" d="M351,467.5v-44.7h14.3l10.5,20.6v-20.6h15v44.7h-14.6L365.8,447v20.5H351z"/>
				<path fill="#FFFFFF" d="M397.1,445.2c0-13.8,7.9-23.5,23.7-23.5c12.5,0,16.6,5.3,19.4,10.6l-13.2,6c-1.1-3.5-2.6-5-6.2-5
					c-5.6,0-8.3,5.5-8.3,11.4c0,5.5,2.5,10.8,8.9,10.8h5.7v-4.4h-5.7v-9.9h20.1v26.3H427v-3.1l-3.5,3.1h-2.2
					C404.6,467.5,397.1,458.6,397.1,445.2z"/>
				<path fill="#FFFFFF" d="M448.2,467.5v-44.7h31.7v12h-16.4v5.2h14.6v10.7h-14.6v5.1h16.4v11.8H448.2z"/>
				<path fill="#FFFFFF" d="M486.5,467.5v-44.7h15.1v32.9H514v11.8H486.5z"/>
				<path fill="#FFFFFF" d="M520.7,467.5v-44.7h15.4v44.7H520.7z"/>
			</g>
		</g>
		<rect y="243.3" fill="#300033" width="800" height="8.6"/>
		<g id="XMLID_785_">
			<g id="XMLID_804_">
				<path id="XMLID_814_" fill="none" d="M325.1,202.6c-1.4-1.4-3.1-2.5-5-3.3c-1.9-0.8-4-1.2-6.1-1.2c-2.1,0-4.1,0.4-6,1.2
					c-1.9,0.8-3.5,1.9-4.9,3.3c-1.4,1.4-2.5,3.1-3.3,4.9c-0.8,1.9-1.2,3.9-1.2,6c0,2.1,0.4,4.1,1.2,6c0.8,1.9,1.9,3.5,3.3,4.9
					c1.4,1.4,3.1,2.5,4.9,3.3c1.9,0.8,3.9,1.2,6,1.2c2.1,0,4.2-0.4,6.1-1.2c1.9-0.8,3.6-1.9,5-3.3c1.4-1.4,2.5-3.1,3.3-4.9
					c0.8-1.9,1.2-3.9,1.2-6c0-2.1-0.4-4.1-1.2-6C327.6,205.7,326.5,204,325.1,202.6z"/>
				<path id="XMLID_811_" fill="#002395" d="M332.2,195.5c-2.3-2.3-5.1-4.2-8.2-5.5c-3.2-1.3-6.5-2-10-2c-3.5,0-6.9,0.7-10,2
					c-3,1.3-5.7,3.1-8,5.4c-2.3,2.3-4.1,5-5.4,8c-1.4,3.1-2,6.5-2,10c0,3.5,0.7,6.9,2,10c1.3,3,3.1,5.7,5.4,8c2.3,2.3,5,4.1,8.1,5.4
					c3.1,1.3,6.5,2,10,2c3.5,0,6.8-0.7,10-2c3.1-1.3,5.9-3.1,8.2-5.5c2.3-2.3,4.1-5,5.4-8c1.4-3.1,2-6.5,2-10c0-3.5-0.7-6.9-2-10
					C336.3,200.5,334.5,197.8,332.2,195.5z M328.5,219.6c-0.8,1.9-1.9,3.5-3.3,4.9c-1.4,1.4-3.1,2.5-5,3.3c-1.9,0.8-4,1.2-6.1,1.2
					c-2.1,0-4.1-0.4-6-1.2c-1.9-0.8-3.5-1.9-4.9-3.3c-1.4-1.4-2.5-3.1-3.3-4.9c-0.8-1.9-1.2-3.9-1.2-6c0-2.1,0.4-4.1,1.2-6
					c0.8-1.9,1.9-3.5,3.3-4.9c1.4-1.4,3.1-2.5,4.9-3.3c1.9-0.8,3.9-1.2,6-1.2c2.1,0,4.2,0.4,6.1,1.2c1.9,0.8,3.6,1.9,5,3.3
					c1.4,1.4,2.5,3.1,3.3,4.9c0.8,1.9,1.2,3.9,1.2,6C329.7,215.7,329.3,217.7,328.5,219.6z"/>
				<path id="XMLID_808_" fill="#ED2939" d="M357.5,195.4c-2.5-5.6-5.8-10.6-10.1-14.8c-4.2-4.2-9.2-7.6-14.9-10
					c-5.7-2.4-11.8-3.7-18.3-3.7c-6.4,0-12.5,1.2-18.2,3.7c-5.7,2.4-10.6,5.8-14.9,10c-4.2,4.2-7.6,9.2-10,14.9
					c-2.4,5.7-3.7,11.7-3.7,18.2c0,6.4,1.2,12.5,3.7,18.2c2.4,5.7,5.8,10.6,10,14.9c4.2,4.2,9.2,7.6,14.9,10.1
					c5.7,2.5,11.7,3.7,18.2,3.7c6.4,0,12.5-1.2,18.2-3.7c5.7-2.4,10.7-5.8,14.9-10c4.2-4.2,7.6-9.2,10.1-14.9
					c2.5-5.7,3.7-11.8,3.7-18.3C361.2,207.1,360,201,357.5,195.4z M348.4,227.9c-2,4.6-4.6,8.4-8,11.8c-3.3,3.3-7.3,6-11.8,7.9
					c-4.5,1.9-9.2,2.9-14.3,2.9c-5.1,0-9.7-0.9-14.2-2.9c-4.5-2-8.5-4.6-11.8-8c-3.4-3.4-5.9-7.2-7.9-11.8
					c-1.9-4.5-2.8-9.1-2.8-14.2c0-5.1,0.9-9.7,2.8-14.2c1.9-4.5,4.6-8.4,7.9-11.8c3.4-3.4,7.2-5.9,11.8-7.9
					c4.5-1.9,9.1-2.8,14.2-2.8c5.2,0,9.9,0.9,14.3,2.8c4.5,1.9,8.4,4.6,11.8,7.9c3.4,3.4,6,7.2,8,11.8c1.9,4.4,2.9,9,2.9,14.2
					C351.2,218.7,350.3,223.4,348.4,227.9z"/>
				<path id="XMLID_805_" fill="#FFFFFF" d="M340.4,187.6c-3.3-3.3-7.3-6-11.8-7.9c-4.5-1.9-9.2-2.8-14.3-2.8
					c-5.1,0-9.7,0.9-14.2,2.8c-4.6,2-8.4,4.5-11.8,7.9c-3.3,3.3-6,7.3-7.9,11.8c-1.9,4.5-2.8,9.1-2.8,14.2c0,5.1,0.9,9.7,2.8,14.2
					c1.9,4.5,4.5,8.4,7.9,11.8c3.3,3.3,7.3,6,11.8,8c4.5,1.9,9.1,2.9,14.2,2.9c5.1,0,9.8-0.9,14.3-2.9c4.5-1.9,8.5-4.6,11.8-7.9
					c3.4-3.4,6-7.2,8-11.8c1.9-4.5,2.9-9.1,2.9-14.3c0-5.1-0.9-9.8-2.9-14.2C346.4,194.8,343.8,191,340.4,187.6z M337.6,223.6
					c-1.3,3-3.1,5.7-5.4,8c-2.3,2.3-5.1,4.2-8.2,5.5c-3.2,1.3-6.5,2-10,2c-3.5,0-6.9-0.7-10-2c-3-1.3-5.7-3.1-8.1-5.4
					c-2.3-2.3-4.1-5-5.4-8c-1.4-3.1-2-6.5-2-10c0-3.5,0.7-6.9,2-10c1.3-3,3.1-5.7,5.4-8c2.3-2.3,5-4.1,8-5.4c3.1-1.4,6.5-2,10-2
					c3.5,0,6.8,0.7,10,2c3.1,1.3,5.9,3.2,8.2,5.5c2.3,2.3,4.1,5,5.4,8c1.4,3.1,2,6.5,2,10C339.7,217.1,339,220.4,337.6,223.6z"/>
			</g>
			<path id="XMLID_802_" fill="#300033" d="M158.5,245.4v-63.5h44.1v17h-22.5v7.2H200v15.2h-19.9v24.1H158.5z"/>
			<path id="XMLID_799_" fill="#300033" d="M211.8,245.4v-63.5h28.1c7.3,0,13,1.7,17.1,5.2c4.1,3.4,6.2,8.2,6.2,14.3
				c0,3.2-0.8,6.2-2.5,8.9c-1.6,2.7-4.1,4.8-7.4,6.3l13.1,28.9h-24l-9.7-26.1v26.1H211.8z M232.6,206.8c1,0.1,2.1,0.2,3.4,0.2
				c1.3,0,2.5-0.1,3.5-0.4c1.1-0.3,2-0.8,2.8-1.5c0.8-0.7,1.1-1.8,1.1-3.3c0-1.4-0.3-2.4-1-3.1c-0.7-0.7-1.6-1.2-2.6-1.4
				c-1-0.2-2.2-0.3-3.5-0.3c-1.3,0-2.5,0.1-3.7,0.1V206.8z"/>
			<path id="XMLID_797_" fill="#300033" d="M368.4,245.4v-63.5h20.3l14.9,29.2v-29.2h21.3v63.5h-20.8l-14.8-29v29H368.4z"/>
			<path id="XMLID_795_" fill="#300033" d="M446.1,245.4v-46.5h-12.3v-17h46.7v17H468v46.5H446.1z"/>
			<path id="XMLID_792_" fill="#300033" d="M480.6,245.4l18.2-63.5h25.1l18.1,63.5h-21.7l-2.6-11.5h-14l-2.9,11.5H480.6z
				 M505.8,218.6h9.4l-4.5-19.8L505.8,218.6z"/>
			<path id="XMLID_790_" fill="#300033" d="M548.5,245.4v-63.5h21.4v46.8h17.5v16.7H548.5z"/>
			<path id="XMLID_788_" fill="#300033" d="M596.5,245.4v-63.5h45v17h-23.3v7.4h20.7v15.3h-20.7v7.2h23.3v16.7H596.5z"/>
			<path id="XMLID_786_" fill="#300033" d="M505.8,175.8H495l10.5-13.6h10.3l10.4,13.6h-10.7l-4.8-6.9L505.8,175.8z"/>
		</g>
		<g>
			<g id="Layer_1_12_">
				<g>
					<path fill="#300033" d="M515.8,70.5c-1.2-0.6-2.8-0.2-3.4,1.1c-3.5,6.7-10.4,10.8-17.9,10.8c-7.7,0-14.7-4.3-18.1-11.2
						c-0.6-1.3-2.1-1.8-3.4-1.1c-1.3,0.6-1.8,2.1-1.1,3.4c4.3,8.6,13,14,22.6,14c9.4,0,18-5.2,22.4-13.5
						C517.5,72.6,517,71.1,515.8,70.5z"/>
					<circle fill="#300033" cx="484.3" cy="59.6" r="5"/>
					<circle fill="#300033" cx="504.4" cy="59.6" r="5"/>
					<path fill="#300033" d="M494.4,107.2c-10,0-19.4-3.9-26.4-10.9c-7-7-10.9-16.4-10.9-26.4S461,50.5,468,43.4
						c7-7,16.4-10.9,26.4-10.9c10,0,19.4,3.9,26.4,10.9c7,7,10.9,16.4,10.9,26.4s-3.9,19.4-10.9,26.4
						C513.8,103.3,504.4,107.2,494.4,107.2z M494.4,40.3c-16.3,0-29.5,13.2-29.5,29.5s13.2,29.5,29.5,29.5
						c16.3,0,29.5-13.2,29.5-29.5S510.7,40.3,494.4,40.3z"/>
				</g>
			</g>
			<g id="XMLID_781_">
				<g id="XMLID_782_">
					<path id="XMLID_783_" fill="#300033" d="M415.9,34.5c1,0,2.2,0.1,3.4,0.2c7.3,0.7,15.7,7.4,16.7,20.1V59
						c-1,12.2-10.2,27.2-37.1,46.1c-26.9-18.9-36.1-33.9-37.1-46.1v-4.2c1-12.7,9.4-19.4,16.7-20.1c1.2-0.1,2.3-0.2,3.4-0.2
						c8.4,0,12.4,3.6,17,9.1C403.4,38.2,407.5,34.5,415.9,34.5"/>
				</g>
			</g>
			<g id="Layer_1_6_">
				<path fill="#300033" d="M342.4,40.5c0-2.4-2-4.5-4.4-4.5h-43.2c-2.4,0-4.4,2.1-4.4,4.5v12.4c0,0,0,0,0,0.2h0V76
					c-2.3-1.3-4.7-2-7.4-2c-8.2,0-14.9,6.7-14.9,14.9c0,8.2,6.7,14.9,14.9,14.9c8.2,0,14.9-6.7,14.9-14.9c0-0.4,0-0.8,0-1.2V57.3
					h36.9V76c-2.3-1.3-4.8-2-7.5-2c-8.2,0-14.8,6.7-14.8,14.9c0,8.2,6.7,14.9,14.9,14.9s14.9-6.6,14.9-14.8c0,0,0,0,0,0h0V53.6h0
					c0-0.2,0.1-0.5,0.1-0.7L342.4,40.5L342.4,40.5z"/>
			</g>
		</g>
		<g id="XMLID_312_">
			<path id="XMLID_779_" fill="#300033" d="M162.9,285.2c-1.3,0.2-2.4,0.3-3.2,0.3c-0.3,0-0.4-0.1-0.4-0.3c0-0.5,0.4-1.1,1.1-1.6
				c0.7-0.6,1.8-1.1,3.4-1.5c0.7-2.5,1.5-4.9,2.4-7c-2.2,0.1-4.1,0.8-5.5,2.2c-0.4,0.4-0.6,0.6-0.9,0.8c-0.2,0.2-0.4,0.3-0.6,0.3
				c-0.2,0-0.3-0.1-0.5-0.4c-0.2-0.3-0.2-0.6-0.2-1.1c0-1.7,1.2-3.1,3.5-4.2c2.3-1.1,5.1-1.6,8.5-1.6l10,0.2c0.6,0,0.9,0.2,0.9,0.7
				c0,0.1-0.1,0.4-0.3,0.7c-0.2,0.3-0.3,0.7-0.5,1.1c-0.3,0.8-0.9,1.2-1.9,1.2h-1.1l-4.4,0h-2.6c-0.2,1.3-0.7,3.3-1.6,6.2l6.1,0.1
				c0.4,0,0.5,0.2,0.5,0.6c0,0.1-0.1,0.4-0.2,0.7c-0.1,0.3-0.2,0.7-0.3,1c-0.2,0.7-0.6,1.1-1.1,1.1l-5.1-0.2h-0.4
				c-0.1,0-0.3,0-0.5,0c-1.2,4.3-1.7,7.6-1.7,10.1c0,1.3-1.3,2-3.8,2c-0.6,0-0.9-0.3-1-0.9c-0.1-0.6-0.2-1.3-0.2-2.3
				C161.4,291.6,161.9,288.8,162.9,285.2z"/>
			<path id="XMLID_776_" fill="#300033" d="M184.5,292.5c1.7,0,3.4-0.7,5.1-2.1c0.6-0.5,1.1-1,1.5-1.4c0.4-0.4,0.7-0.7,0.9-0.7
				c0.3,0,0.5,0.3,0.5,0.9c0,0.6-0.2,1.3-0.5,2.1c-0.3,0.8-0.9,1.5-1.7,2.3c-1.9,1.8-4.6,2.7-7.9,2.7c-2.7,0-4.5-1-5.4-2.9
				c-0.3-0.7-0.5-1.6-0.5-2.9c0-1.2,0.2-2.5,0.7-3.9c0.5-1.3,1.1-2.5,2-3.5c0.8-1,1.8-1.7,2.8-2.3c1.1-0.5,2.2-0.8,3.4-0.8
				c1.2,0,2.2,0.3,2.8,0.9c0.7,0.6,1,1.4,1,2.3c0,1-0.2,1.7-0.7,2.4c-0.5,0.6-1.1,1.1-1.9,1.5c-0.8,0.4-1.6,0.8-2.5,1.1
				c-0.9,0.3-1.8,0.7-2.7,1.1v0.8c0,0.8,0.4,1.4,1,1.7C182.9,292.3,183.7,292.5,184.5,292.5z M183.9,283.1c-1.2,0-2,1.3-2.4,4
				c0.5-0.3,0.9-0.6,1.3-0.8c0.4-0.2,0.8-0.5,1.1-0.7c0.7-0.5,1-1,1-1.7C185,283.4,184.6,283.1,183.9,283.1z"/>
			<path id="XMLID_773_" fill="#300033" d="M198.3,280c1.5,0,2.6,0.3,3.3,0.8c0.7,0.6,1.1,1.4,1.1,2.4c0,1.1-0.3,2-1,2.7
				c-0.6,0.7-1.4,1.3-2.3,1.6c0.6,0.7,1.2,1.4,1.8,2c0.5,0.7,0.8,1.4,0.8,2.2c0,1.5-0.6,2.6-1.8,3.5c-1.2,0.8-2.8,1.2-4.9,1.2
				c-2.1,0-3.7-0.4-4.7-1.3c-1-0.8-1.6-1.8-1.6-2.8c0-1.1,0.3-2,0.8-2.9s1.1-1.3,1.7-1.3c0.4,0,0.6,0.1,0.8,0.4
				c0.2,0.3,0.4,1,0.9,2.2c0.2,0.4,0.4,0.9,0.8,1.3c0.8,0.9,2.1,1.4,3.9,1.4c-0.3-0.8-0.7-1.6-1.3-2.2c-0.6-0.6-1.2-1.2-1.8-1.8
				c-0.6-0.6-1.1-1.2-1.5-1.9c-0.4-0.7-0.7-1.4-0.7-2.3c0-1.6,0.6-2.9,1.8-3.9C195.5,280.4,196.8,280,198.3,280z M198.2,286.2
				c0.9-1,1.3-1.7,1.3-2.3c0-0.3-0.1-0.5-0.3-0.7c-0.2-0.2-0.5-0.3-0.8-0.3c-0.4,0-0.7,0-1,0.1c-0.3,0.1-0.6,0.2-0.8,0.2
				C196.6,284,197.1,285,198.2,286.2z"/>
			<path id="XMLID_771_" fill="#300033" d="M205.6,294.3c-0.3-0.6-0.4-1.3-0.6-2.1c-0.1-0.8-0.2-1.9-0.2-3.3c0-1.4,0.3-3.4,0.8-5.8
				h-1.5c-0.3,0-0.4-0.1-0.4-0.3c0-0.5,0.1-1,0.2-1.3c0.1-0.3,0.3-0.7,0.7-1.2h0.8c0.3,0,0.6,0,1,0c1.1-3.4,2.2-5.2,3.3-5.2
				c0.9,0,1.5,0.6,1.9,1.7c0.1,0.3,0.2,0.6,0.3,1l-1.4,2.4c1.6,0,2.5,0.1,3,0.1c0.4,0,0.6,0,0.7,0.1c0,0.1,0.1,0.2,0.1,0.4
				c0,0.4-0.1,0.9-0.3,1.5c-0.2,0.6-0.4,0.9-0.7,0.9l-3.3-0.2c-0.5,2.7-0.7,5-0.7,6.8c0,1.8,0.3,2.7,0.8,2.7c0.4,0,1.2-0.4,2.3-1.1
				c1.1-0.7,1.9-1.4,2.4-2c0.5-0.6,0.9-1,1.2-1c0.3,0,0.5,0.4,0.5,1.1s-0.3,1.5-0.8,2.3c-0.5,0.8-1.2,1.5-2,2.2
				c-0.8,0.7-1.7,1.2-2.7,1.6c-1,0.4-1.9,0.6-2.6,0.6c-0.7,0-1.3-0.2-1.7-0.5C206.2,295.4,205.9,294.9,205.6,294.3z"/>
			<path id="XMLID_768_" fill="#300033" d="M218.7,296.3c-2.2,0-3.3-2.1-3.3-6.3c0-2.3,0.3-4.3,0.8-6.2c0.9-2.9,1.9-4.3,2.9-4.3
				c0.6,0,1.2,0.4,1.5,1.3c0.3,0.7,0.5,1.3,0.4,2c0,0.9-0.3,2.5-0.8,4.7c-0.5,2-0.8,3.2-0.8,3.6c0,0.5,0.1,0.8,0.4,1
				c0.2,0.2,0.5,0.3,0.8,0.3c0.3,0,0.7-0.2,1.2-0.6c0.5-0.4,1-0.9,1.5-1.4c0.5-0.5,0.9-1,1.4-1.4c0.4-0.4,0.7-0.6,0.9-0.6
				c0.3,0,0.5,0.4,0.5,1.1c0,1.6-0.8,3.1-2.4,4.6C222.2,295.6,220.5,296.3,218.7,296.3z M220.1,276.8c-0.6-0.9-0.9-1.9-0.9-2.9
				c0-1,0.2-1.9,0.5-2.6c0.3-0.7,0.6-1.2,0.9-1.5c0.3-0.3,0.6-0.5,1-0.5c0.6,0,1.2,0.5,1.7,1.4c0.5,0.9,0.8,1.7,0.8,2.3
				c0,1.2-0.4,2.1-1.2,2.7C222.1,276.5,221.1,276.8,220.1,276.8z"/>
			<path id="XMLID_766_" fill="#300033" d="M229.7,281.4c0,1.5-0.3,3.2-0.8,5.1c0,0.7,0.1,1.4,0.1,2.1c0,0.7,0,1.2,0.1,1.7
				c0.3,0.9,0.8,1.4,1.3,1.6c0.4,0,0.9-0.4,1.5-1.2s1.1-1.7,1.6-2.8c-0.3-1-0.4-2-0.4-2.9c0-1.6,0.2-2.8,0.7-3.5
				c0.6-0.9,1.5-1.4,2.7-1.4c1.2,0,2,0.5,2.4,1.4c0.2,0.4,0.2,0.8,0.2,1.2c0,0.8-0.2,1.6-0.6,2.5c-0.4,0.8-1,1.9-1.9,3.3
				c0.4,1.2,1,1.8,1.8,1.8c1,0,1.8-0.4,2.5-1c0.3-0.3,0.5-0.5,0.7-0.7c0.2-0.2,0.4-0.3,0.6-0.3c0.3,0,0.5,0.4,0.5,1.1
				c0,1.4-0.4,2.4-1.2,3c-0.8,0.6-1.8,1-3,1c-1.6,0-2.8-0.7-3.8-2.1c-2.6,3.4-4.8,5.1-6.6,5.1c-0.7,0-1.4-1-2-2.9
				c-0.7-2-1.2-4.6-1.5-8c-0.3-2.1-0.1-3.6,0.5-4.6c0.5-0.7,1.4-1.1,2.9-1.1c0.5,0,0.9,0.2,1.2,0.5
				C229.6,280.7,229.7,281.1,229.7,281.4z"/>
			<path id="XMLID_763_" fill="#300033" d="M261.9,288.3c0.4,0,0.6,0.5,0.6,1.5c0,0.6-0.2,1.2-0.7,2c-0.5,0.8-1.1,1.5-1.8,2.2
				c-0.7,0.7-1.6,1.2-2.5,1.6c-0.9,0.4-1.8,0.6-2.7,0.6c-1.2,0-2-1-2.4-3.1c-0.6,1-1.3,1.7-2.3,2.4c-0.9,0.6-2.2,0.9-3.8,0.9
				c-1.6,0-2.8-0.5-3.8-1.5c-1-1-1.4-2.2-1.4-3.6c0-3.8,1.3-6.8,3.8-9c1.1-0.9,2.1-1.5,3-1.8c0.9-0.3,1.9-0.4,2.9-0.4
				c1,0,1.9,0.2,2.5,0.5c0.3-0.6,0.7-1,1.1-1c0.8,0,1.5,0.3,2.2,1c0.7,0.7,1.1,1.3,1.1,1.9c-0.3,0.7-0.8,1.6-1.4,2.6
				c-0.2,1-0.3,2.5-0.3,4.3c0,1.9,0.2,2.8,0.7,2.8c0.6,0,2-1.2,4.2-3.5C261.4,288.5,261.7,288.3,261.9,288.3z M246.1,290.3
				c0,1.7,0.6,2.6,1.9,2.6c1.4,0,2.5-0.7,3.4-2.2c0.3-0.5,0.6-1.1,0.8-1.8c0-2.5,0.2-4.6,0.7-6.4c-1.8,0.4-3.4,1.2-4.7,2.6
				C246.7,286.4,246.1,288.2,246.1,290.3z"/>
			<path id="XMLID_760_" fill="#300033" d="M268.2,296.3c-3.2,0-5.4-1.2-6.5-3.6c-0.4-0.8-0.6-1.9-0.6-3.2c0-1.3,0.1-2.6,0.3-4.1
				c0.4-2.9,1.3-5.6,2.6-8c0.6-1.2,1.4-2.3,2.2-3.2c1.8-2,3.7-2.9,5.9-2.9c1,0,1.7,0.3,2.3,0.8c0.5,0.5,0.8,1.3,0.8,2.3
				c0,1-0.3,2-0.9,3c-0.6,1-1.3,2-2.2,3.1c-0.9,1.1-1.9,2.2-3,3.3c-1.1,1.2-2.2,2.4-3.2,3.8v1.3c0,1.2,0.3,2.2,0.8,2.7
				s1.2,0.9,1.9,0.9c1.9,0,3.6-0.9,5.1-2.8c0.6-0.8,1.1-1.2,1.4-1.2c0.3,0,0.5,0.4,0.5,1.1s-0.2,1.5-0.6,2.3c-0.4,0.8-1,1.5-1.6,2.2
				c-0.7,0.7-1.4,1.2-2.3,1.6C270.1,296.1,269.2,296.3,268.2,296.3z M270.1,278.3c0.5-0.6,0.8-1.1,1.1-1.6c0.3-0.5,0.4-1,0.4-1.5
				c0-0.5-0.2-0.8-0.5-0.8c-0.8,0-1.6,0.8-2.6,2.4c-0.9,1.6-1.7,3.7-2.1,6.3c0.8-1.2,1.5-2.1,2.1-2.9
				C269,279.6,269.6,278.9,270.1,278.3z"/>
			<path id="XMLID_756_" fill="#300033" d="M287.5,279.1c0-0.4,0.1-0.6,0.4-0.6c0.4,0,0.9,0.1,1.4,0.3c0.5,0.2,1,0.3,1.5,0.5
				c1.8-3.8,3.8-6.3,6.2-7.5c0.8-0.4,1.6-0.6,2.4-0.6c1.5,0,2.5,0.4,3,1.1c0.5,0.7,0.8,1.6,0.8,2.7c0,2.1-0.9,3.7-2.7,4.9
				c-1.8,1.2-3.9,1.9-6.5,2c-0.6,1.7-1.1,3.5-1.5,5.5c0.9-0.3,2-0.5,3.3-0.5c0.2,1.4,0.5,2.4,0.9,3c0.4,0.6,0.9,0.9,1.5,0.9
				c0.5,0,1-0.1,1.4-0.4c0.4-0.3,0.7-0.6,1-0.9c0.3-0.3,0.5-0.6,0.7-0.9c0.2-0.3,0.4-0.4,0.6-0.4c0.4,0,0.6,0.3,0.6,1
				c0,1.3-0.3,2.4-1,3.3c-0.7,0.9-1.7,1.3-3.1,1.3c-2.2,0-3.7-0.6-4.6-1.7c0.5,4.9,0.7,7.8,0.7,8.8c0,1.7-0.5,2.9-1.6,3.6
				c-0.9,0.6-2,0.9-3.3,0.9c-1.3,0-2.3-0.3-2.8-0.9c-0.5-0.6-0.8-1.3-0.8-2.2c0-5.4,0.8-10.8,2.3-16.2c0.5-1.7,1-3.4,1.7-4.9
				C288.4,280.4,287.5,279.7,287.5,279.1z M291.6,302.1c0.2-0.4,0.3-0.9,0.3-1.3c0-1.5-0.2-3.9-0.6-7.1c-0.6,2.3-0.9,4.6-1.1,6.9
				c0,0.5-0.1,0.8-0.1,0.9c0,0.8,0.3,1.3,0.8,1.3C291.1,302.8,291.4,302.6,291.6,302.1z M299.1,274.5c-0.4,0-1.1,0.4-1.8,1.3
				c-0.8,0.8-1.6,2.1-2.4,3.9c1.6-0.7,2.7-1.3,3.2-1.6c1-0.7,1.6-1.6,1.6-2.6C299.7,274.8,299.5,274.5,299.1,274.5z"/>
			<path id="XMLID_752_" fill="#300033" d="M311.6,282.1c0-1.5,1.2-2.2,3.5-2.2c0.6,0,0.9,0.2,1.1,0.6c0.1,0.4,0.2,1,0.2,1.7
				c0,1.1-0.2,2.8-0.7,5.1c-0.5,2.3-0.7,3.8-0.7,4.7c0,0.4,0.1,0.6,0.4,0.6c0.3,0,0.7-0.2,1.2-0.6c0.5-0.4,1-0.9,1.5-1.4
				c0.5-0.5,0.9-1,1.4-1.4c0.4-0.4,0.7-0.6,0.9-0.6c0.3,0,0.5,0.4,0.5,1.1c0,1.6-0.8,3.1-2.3,4.5c-2.6,1.5-4.2,2.3-4.9,2.3
				c-0.1,0-0.1,0-0.2,0c-0.8,0-1.4-0.3-1.8-0.8c-0.3-0.6-0.6-1.3-0.7-2.1c-0.4,0.8-1.1,1.5-1.8,2.1c-0.8,0.6-1.7,0.9-2.7,0.9
				c-1.8,0-3.1-0.3-4.1-1c-0.9-0.7-1.4-1.7-1.4-3c0-0.6,0.1-1.1,0.3-1.6c0.2-0.5,0.4-1.1,0.8-1.8l1-8.2c0.7-0.5,1.7-0.8,3-0.8
				c1,0,1.6,0.7,1.7,2c0.1,1.1,0.1,2.1-0.2,2.9c-0.2,0.9-0.5,1.9-0.9,3.2c-0.4,1.3-0.5,2.5-0.5,3.5c0,0.8,0.5,1.2,1.5,1.2
				c1.1,0,2-1,2.8-2.9c0.6-1.5,1-3.1,1.3-4.9c0-0.2,0-0.4-0.1-0.7c0-0.3,0-0.6,0-0.8c0-0.3,0-0.5,0-0.8V282.1z M308.3,275.3
				c-0.7,0.5-1.5,0.8-2.4,0.8c-0.9,0-1.3-0.5-1.3-1.4c0-1,0.3-1.8,0.9-2.6c0.6-0.8,1.3-1.1,2.1-1.1c0.9,0,1.7,0.8,2.4,2.4
				C309.6,274.1,309.1,274.8,308.3,275.3z M316.5,272.3c-1,2.5-2.1,3.7-3.5,3.7c-0.5,0-0.9-0.2-1.2-0.5c-0.3-0.3-0.5-0.7-0.5-1.1
				c0-1,0.2-1.8,0.7-2.4c0.5-0.6,1-0.9,1.7-0.9C314.9,271.2,315.9,271.5,316.5,272.3z"/>
			<path id="XMLID_750_" fill="#300033" d="M323.9,290.5l0.2,4.1c0,0.5-0.3,1-0.8,1.4c-0.6,0.4-1.3,0.6-2.3,0.6
				c-0.6,0-0.9-0.3-1.2-0.9c-0.2-0.6-0.3-1.4-0.3-2.5c0-2.3,0.1-4.2,0.4-5.5c0.2-1.3,0.7-2.7,1.4-4c-1-1-1.5-1.8-1.5-2.5
				c0-1.5,0.8-2.2,2.4-2.2c0.8,0,1.5,0.4,2.2,1.3c0.4,0.6,0.8,1.3,1,2.1c0.3,0.1,0.7,0.2,1.2,0.2c0.6,0,1.4-0.2,2.2-0.6l0.9-0.4
				c0.3-0.1,0.5-0.2,0.7-0.2c0.6,0,1.3,0.9,1.9,2.8c-0.2,0.9-0.4,1.7-0.7,2.5c-0.2,0.8-0.5,1.8-0.8,2.9c-0.3,1.1-0.5,1.9-0.5,2.3
				c0,0.4,0.1,0.6,0.4,0.6c0.3,0,0.7-0.2,1.2-0.6c0.5-0.4,1-0.9,1.5-1.4c0.5-0.5,0.9-1,1.4-1.4c0.4-0.4,0.7-0.6,0.9-0.6
				c0.3,0,0.5,0.4,0.5,1.1c0,1.5-0.7,3.1-2,4.5c-1.3,1.5-2.9,2.2-4.6,2.2c-1,0-1.8-0.4-2.3-1.2c-0.5-0.8-0.8-1.8-0.8-3
				c0-2.3,0.5-4.6,1.6-6.7c-0.5,0.2-1,0.3-1.7,0.3c-0.6,0-1.1,0-1.3-0.1c-0.2,0.8-0.4,1.7-0.6,2.6C324,289,323.9,289.8,323.9,290.5z
				"/>
			<path id="XMLID_746_" fill="#300033" d="M348.3,279.1c0-0.4,0.1-0.6,0.4-0.6c0.4,0,0.9,0.1,1.4,0.3c0.5,0.2,1,0.3,1.5,0.5
				c1.8-3.8,3.8-6.3,6.2-7.5c0.8-0.4,1.6-0.6,2.4-0.6c1.5,0,2.5,0.4,3,1.1c0.5,0.7,0.8,1.6,0.8,2.7c0,2.1-0.9,3.7-2.7,4.9
				c-1.8,1.2-3.9,1.9-6.5,2c-0.6,1.7-1.1,3.5-1.5,5.5c0.9-0.3,2-0.5,3.3-0.5c0.2,1.4,0.5,2.4,0.9,3c0.4,0.6,0.9,0.9,1.5,0.9
				c0.5,0,1-0.1,1.4-0.4c0.4-0.3,0.7-0.6,1-0.9c0.3-0.3,0.5-0.6,0.7-0.9c0.2-0.3,0.4-0.4,0.6-0.4c0.4,0,0.6,0.3,0.6,1
				c0,1.3-0.3,2.4-1,3.3c-0.7,0.9-1.7,1.3-3.1,1.3c-2.2,0-3.7-0.6-4.6-1.7c0.5,4.9,0.7,7.8,0.7,8.8c0,1.7-0.5,2.9-1.6,3.6
				c-0.9,0.6-2,0.9-3.3,0.9c-1.3,0-2.3-0.3-2.8-0.9c-0.5-0.6-0.8-1.3-0.8-2.2c0-5.4,0.8-10.8,2.3-16.2c0.5-1.7,1-3.4,1.7-4.9
				C349.1,280.4,348.3,279.7,348.3,279.1z M352.4,302.1c0.2-0.4,0.3-0.9,0.3-1.3c0-1.5-0.2-3.9-0.6-7.1c-0.6,2.3-0.9,4.6-1.1,6.9
				c0,0.5-0.1,0.8-0.1,0.9c0,0.8,0.3,1.3,0.8,1.3C351.9,302.8,352.2,302.6,352.4,302.1z M359.9,274.5c-0.4,0-1.1,0.4-1.8,1.3
				c-0.8,0.8-1.6,2.1-2.4,3.9c1.6-0.7,2.7-1.3,3.2-1.6c1-0.7,1.6-1.6,1.6-2.6C360.5,274.8,360.3,274.5,359.9,274.5z"/>
			<path id="XMLID_744_" fill="#300033" d="M366.5,290.5l0.2,4.1c0,0.5-0.3,1-0.8,1.4c-0.6,0.4-1.3,0.6-2.3,0.6
				c-0.6,0-0.9-0.3-1.2-0.9c-0.2-0.6-0.3-1.4-0.3-2.5c0-2.3,0.1-4.2,0.4-5.5c0.2-1.3,0.7-2.7,1.4-4c-1-1-1.5-1.8-1.5-2.5
				c0-1.5,0.8-2.2,2.4-2.2c0.8,0,1.5,0.4,2.2,1.3c0.4,0.6,0.8,1.3,1,2.1c0.3,0.1,0.7,0.2,1.2,0.2c0.6,0,1.4-0.2,2.2-0.6l0.9-0.4
				c0.3-0.1,0.5-0.2,0.7-0.2c0.6,0,1.3,0.9,1.9,2.8c-0.2,0.9-0.4,1.7-0.7,2.5c-0.2,0.8-0.5,1.8-0.8,2.9c-0.3,1.1-0.5,1.9-0.5,2.3
				c0,0.4,0.1,0.6,0.4,0.6c0.3,0,0.7-0.2,1.2-0.6c0.5-0.4,1-0.9,1.5-1.4c0.5-0.5,0.9-1,1.4-1.4c0.4-0.4,0.7-0.6,0.9-0.6
				c0.3,0,0.5,0.4,0.5,1.1c0,1.5-0.7,3.1-2,4.5c-1.3,1.5-2.9,2.2-4.6,2.2c-1,0-1.8-0.4-2.3-1.2c-0.5-0.8-0.8-1.8-0.8-3
				c0-2.3,0.5-4.6,1.6-6.7c-0.5,0.2-1,0.3-1.7,0.3c-0.6,0-1.1,0-1.3-0.1c-0.2,0.8-0.4,1.7-0.6,2.6
				C366.6,289,366.5,289.8,366.5,290.5z"/>
			<path id="XMLID_346_" fill="#300033" d="M397.5,288.3c0.4,0,0.6,0.5,0.6,1.5c0,0.6-0.2,1.2-0.7,2c-0.5,0.8-1.1,1.5-1.8,2.2
				c-0.7,0.7-1.6,1.2-2.5,1.6c-0.9,0.4-1.8,0.6-2.7,0.6c-1.2,0-2-1-2.4-3.1c-0.6,1-1.3,1.7-2.3,2.4c-0.9,0.6-2.2,0.9-3.8,0.9
				c-1.6,0-2.8-0.5-3.8-1.5c-1-1-1.4-2.2-1.4-3.6c0-3.8,1.3-6.8,3.8-9c1.1-0.9,2.1-1.5,3-1.8c0.9-0.3,1.9-0.4,2.9-0.4
				c1,0,1.9,0.2,2.5,0.5c0.3-0.6,0.7-1,1.1-1c0.8,0,1.5,0.3,2.2,1c0.7,0.7,1.1,1.3,1.1,1.9c-0.3,0.7-0.8,1.6-1.4,2.6
				c-0.2,1-0.3,2.5-0.3,4.3c0,1.9,0.2,2.8,0.7,2.8c0.6,0,2-1.2,4.2-3.5C397,288.5,397.3,288.3,397.5,288.3z M381.7,290.3
				c0,1.7,0.6,2.6,1.9,2.6c1.4,0,2.5-0.7,3.4-2.2c0.3-0.5,0.6-1.1,0.8-1.8c0-2.5,0.2-4.6,0.7-6.4c-1.8,0.4-3.4,1.2-4.7,2.6
				C382.3,286.4,381.7,288.2,381.7,290.3z"/>
			<path id="XMLID_344_" fill="#300033" d="M400.8,279.5c0.8,0,1.6,0.8,2.3,2.3c1-1.1,2.3-1.6,3.9-1.6c1.5,0,2.7,0.3,3.5,1
				c0.8,0.7,1.2,1.6,1.2,2.9c0,1.2-0.2,2.5-0.5,3.8c-0.3,1.3-0.6,2.2-0.7,2.7c-0.1,0.5-0.2,1-0.2,1.4c0,0.4,0.1,0.5,0.4,0.5
				c0.3,0,0.7-0.2,1.2-0.6c0.5-0.4,1-0.9,1.5-1.4c0.5-0.5,0.9-1,1.4-1.4c0.4-0.4,0.7-0.6,0.9-0.6c0.3,0,0.5,0.4,0.5,1.1
				c0,1.6-0.8,3.1-2.3,4.5c-2.6,1.5-4.2,2.3-5,2.3c-0.1,0-0.1,0-0.1,0c-1.8,0-2.7-1.4-2.7-4.3c0-1.2,0.1-2.4,0.4-3.4
				c0.2-1,0.4-1.8,0.5-2.2c0.1-0.5,0.2-0.9,0.2-1.4c0-0.8-0.5-1.2-1.4-1.2c-0.9,0-1.8,0.7-2.6,2.1c-0.8,1.4-1.4,2.8-1.7,4.3v0.2
				c0,0.8,0.1,1.5,0.4,2.3c0.2,0.8,0.4,1.4,0.4,1.7c0,0.8-0.9,1.5-2.8,2.2c-0.3,0.1-0.5,0.2-0.8,0.2c-0.6,0-0.9-0.3-1.2-0.9
				c-0.2-0.6-0.3-1.5-0.3-2.7c0-3.2,0.1-5.5,0.4-6.9c0.3-2.1,1.1-4,2.3-5.9C399.9,279.8,400.4,279.5,400.8,279.5z"/>
			<path id="XMLID_341_" fill="#300033" d="M424.1,288.8c0.6,2.4,1.6,3.6,3,3.6c0.7,0,1.3-0.2,1.9-0.6c0.6-0.4,1.1-0.9,1.5-1.4
				c0.4-0.5,0.8-1,1.2-1.4c0.3-0.4,0.6-0.6,0.9-0.6c0.3,0,0.4,0.4,0.4,1.1c0,1.6-0.7,3.1-2.2,4.6c-1.5,1.5-3.1,2.2-4.9,2.2
				c-1.8,0-3.4-1.6-4.9-4.8c-0.4-0.9-0.8-1.8-1.1-2.7l-0.2,4.6c0,0.4,0,0.8-0.1,1.3c0,0.4-0.2,0.8-0.6,1c-0.9,0.7-1.8,1-2.6,1
				c-1,0-1.6-1.1-1.6-3.2c0-3.1,0.4-6.4,1.1-9.8c0.7-3.4,1.5-6,2.2-7.7c0.7-1.7,1.2-2.9,1.6-3.5c0.4-0.6,0.7-0.9,0.9-1.1
				c0.2-0.1,0.5-0.2,0.8-0.2c0.3,0,0.6,0.1,0.9,0.4c0.3,0.3,0.6,0.7,1,1.3c0.4,0.6,0.5,1.1,0.6,1.7c0,0.5-0.1,1.1-0.3,1.6
				c-0.2,0.5-0.4,1-0.8,1.5c-0.3,0.5-0.7,1-1,1.5c-0.4,0.5-0.8,1.1-1.1,1.7l-0.3,2.8c0.8-1.6,1.9-2.7,3.4-3.3
				c0.5-0.2,1.2-0.3,1.9-0.3c1.4,0,2.5,0.3,3.3,1c0.8,0.7,1.1,1.7,1.1,3c0,1.3-0.7,2.4-2,3.3C426.8,288.4,425.5,288.9,424.1,288.8z
				 M425.4,284.9c0-0.8-0.5-1.2-1.4-1.2c-0.9,0-1.9,0.9-3,2.6c-0.3,0.5-0.6,1-0.8,1.6c2.3-0.1,3.9-0.8,4.8-1.9
				C425.3,285.7,425.4,285.3,425.4,284.9z"/>
			<path id="XMLID_338_" fill="#300033" d="M444.9,293.3c-1.8,2.1-3.9,3.1-6.3,3.1c-2.5,0-4.3-0.6-5.5-1.9c-1.2-1.3-1.8-2.8-1.8-4.7
				c0-2.7,0.8-4.9,2.5-6.9c1.7-1.9,3.9-2.9,6.7-2.9c1.2,0,2.3,0.2,3,0.5c1.3,0.5,2,1,2,1.5c0,0.4-0.9,0.5-2.8,0.6
				c-1.8,0-3.4,0.6-4.6,1.9c-1.2,1.3-1.9,2.8-1.9,4.8c0,1,0.3,1.8,0.9,2.5c0.6,0.7,1.4,1,2.5,1c1.1,0,2-0.2,2.7-0.7
				c-1.6-1.1-2.4-2.6-2.4-4.7c0-1.1,0.4-2,1.2-2.9c0.8-0.9,1.8-1.3,3-1.3c1.2,0,2.1,0.3,2.7,1c0.5,0.7,0.8,1.6,0.8,2.7
				s-0.3,2.2-0.8,3.4h0.2c1,0,1.8-0.4,2.5-1c0.3-0.3,0.5-0.5,0.7-0.7c0.2-0.2,0.4-0.3,0.6-0.3c0.3,0,0.5,0.4,0.5,1.1
				c0,1.4-0.4,2.4-1.2,3.1c-0.8,0.7-1.7,1-2.7,1C446.4,293.5,445.6,293.5,444.9,293.3z M444.6,289.4c0.4-0.8,0.6-1.6,0.6-2.3
				s-0.2-1.1-0.7-1.1c-0.2,0-0.4,0.1-0.5,0.4c-0.1,0.3-0.2,0.6-0.2,0.8C443.8,288.1,444.1,288.9,444.6,289.4z"/>
			<path id="XMLID_336_" fill="#300033" d="M455.9,282.2c1.2-1.3,2.6-2,4.4-2c2.6,0,4.2,1,4.9,3.1c0.2,0.6,0.3,1.3,0.3,2.1
				c0,1.7-0.6,3.4-1.7,5c-1.1,1.7-2.4,2.8-4,3.3h0.4c1.6,0,3.3-0.6,5-1.8c1.1-0.8,1.9-1.5,2.5-2.4c0.6-0.8,1.1-1.2,1.4-1.2
				c0.3,0,0.5,0.4,0.5,1.1c0,1.2-0.5,2.5-1.6,3.8c-1.6,1.8-3.7,2.9-6.2,3.2c-1.8,0.2-3.1,0.2-3.8,0.1c-0.8-0.1-1.3-0.3-1.7-0.5
				c-0.9-0.4-1.3-1.1-1.3-2c0-0.5,0.1-0.9,0.3-1.3c1.8,0,3.1-0.7,4-2c0.9-1.3,1.4-3,1.4-5c0-0.5-0.2-0.9-0.5-1.3
				c-0.4-0.4-0.8-0.6-1.4-0.6c-0.6,0-1.2,0.3-1.9,0.8c-0.7,0.5-1.2,1.2-1.7,1.9c-0.4,0.8-0.8,1.5-1.1,2.3c-0.3,0.7-0.6,1.7-0.8,2.8
				c-0.4,2.1-0.8,4.6-1.2,7.8c-0.5,3.1-0.7,4.8-0.9,5.1c-0.1,0.2-0.3,0.5-0.5,0.7c-0.2,0.2-0.5,0.3-0.7,0.3c-0.4,0-0.8-0.1-1.1-0.4
				c-0.8-0.7-1.3-1.2-1.4-1.6c-0.1-0.4-0.2-0.8-0.2-1.4c0-2.2,0.4-5.3,1.1-9.2c0.7-3.9,2-8.1,3.8-12.3c0.3-0.6,0.7-0.9,1.4-0.9
				c0.7,0,1.3,0.6,2,1.8C455.7,281.6,455.8,281.9,455.9,282.2z"/>
			<path id="XMLID_334_" fill="#300033" d="M479.1,284.9c0-0.8-0.5-1.2-1.4-1.2c-0.9,0-1.9,0.7-2.8,2.2c-0.9,1.5-1.5,2.9-1.7,4.5
				c0,0.5,0.1,1,0.1,1.5c0,0.5,0.1,1,0.1,1.5c0,1.2-0.4,2-1.2,2.4c-0.4,0.2-0.7,0.4-1,0.6c-0.3,0.2-0.7,0.3-1.1,0.3
				c-0.4,0-0.8-0.3-1.1-0.9c-0.3-0.6-0.5-1.5-0.5-2.7c0-3.4,0.2-6.3,0.7-8.8c0.8-3.8,2.3-7.9,4.5-12.3c0.3-0.6,0.8-0.9,1.4-0.9
				c0.6,0,1.1,0.4,1.5,1.3c0.4,0.8,0.6,1.5,0.6,2.1c0,0.6-0.1,1.1-0.3,1.6c-0.2,0.5-0.4,1-0.6,1.5c-0.3,0.5-0.5,1-0.9,1.5
				c-0.3,0.5-0.6,1.1-1,1.7l-0.5,2.4c0.9-1.4,2-2.4,3.5-2.9c0.5-0.2,1.1-0.3,1.8-0.3c1.5,0,2.7,0.3,3.4,1c0.8,0.7,1.2,1.6,1.2,2.9
				c0,1.2-0.2,2.5-0.5,3.8c-0.3,1.3-0.6,2.2-0.7,2.7c-0.1,0.5-0.2,1-0.2,1.4c0,0.4,0.1,0.5,0.4,0.5c0.3,0,0.7-0.2,1.2-0.6
				c0.5-0.4,1-0.9,1.5-1.4c0.5-0.5,0.9-1,1.4-1.4c0.4-0.4,0.7-0.6,0.9-0.6c0.3,0,0.5,0.4,0.5,1.1c0,1.6-0.8,3.1-2.3,4.5
				c-2.6,1.5-4.2,2.3-5,2.3c-0.1,0-0.1,0-0.1,0c-1.8,0-2.7-1.4-2.7-4.3c0-1.2,0.1-2.4,0.4-3.4c0.2-1,0.4-1.8,0.5-2.2
				C479.1,285.9,479.1,285.4,479.1,284.9z"/>
			<path id="XMLID_331_" fill="#300033" d="M500,293.3c-1.8,2.1-3.9,3.1-6.3,3.1c-2.5,0-4.3-0.6-5.5-1.9c-1.2-1.3-1.8-2.8-1.8-4.7
				c0-2.7,0.8-4.9,2.5-6.9c1.7-1.9,3.9-2.9,6.7-2.9c1.2,0,2.3,0.2,3,0.5c1.3,0.5,2,1,2,1.5c0,0.4-0.9,0.5-2.8,0.6
				c-1.8,0-3.4,0.6-4.6,1.9c-1.2,1.3-1.9,2.8-1.9,4.8c0,1,0.3,1.8,0.9,2.5c0.6,0.7,1.4,1,2.5,1c1.1,0,2-0.2,2.7-0.7
				c-1.6-1.1-2.4-2.6-2.4-4.7c0-1.1,0.4-2,1.2-2.9c0.8-0.9,1.8-1.3,3-1.3c1.2,0,2.1,0.3,2.7,1c0.5,0.7,0.8,1.6,0.8,2.7
				s-0.3,2.2-0.8,3.4h0.2c1,0,1.8-0.4,2.5-1c0.3-0.3,0.5-0.5,0.7-0.7c0.2-0.2,0.4-0.3,0.6-0.3c0.3,0,0.5,0.4,0.5,1.1
				c0,1.4-0.4,2.4-1.2,3.1c-0.8,0.7-1.7,1-2.7,1C501.5,293.5,500.7,293.5,500,293.3z M499.7,289.4c0.4-0.8,0.6-1.6,0.6-2.3
				s-0.2-1.1-0.7-1.1c-0.2,0-0.4,0.1-0.5,0.4c-0.1,0.3-0.2,0.6-0.2,0.8C498.8,288.1,499.1,288.9,499.7,289.4z"/>
			<path id="XMLID_329_" fill="#300033" d="M509.1,279.5c0.8,0,1.6,0.8,2.3,2.3c1-1.1,2.3-1.6,3.9-1.6c1.5,0,2.7,0.3,3.5,1
				c0.8,0.7,1.2,1.6,1.2,2.9c0,1.2-0.2,2.5-0.5,3.8c-0.3,1.3-0.6,2.2-0.7,2.7c-0.1,0.5-0.2,1-0.2,1.4c0,0.4,0.1,0.5,0.4,0.5
				c0.3,0,0.7-0.2,1.2-0.6c0.5-0.4,1-0.9,1.5-1.4c0.5-0.5,0.9-1,1.4-1.4c0.4-0.4,0.7-0.6,0.9-0.6c0.3,0,0.5,0.4,0.5,1.1
				c0,1.6-0.8,3.1-2.3,4.5c-2.6,1.5-4.2,2.3-5,2.3c-0.1,0-0.1,0-0.1,0c-1.8,0-2.7-1.4-2.7-4.3c0-1.2,0.1-2.4,0.4-3.4
				c0.2-1,0.4-1.8,0.5-2.2c0.1-0.5,0.2-0.9,0.2-1.4c0-0.8-0.5-1.2-1.4-1.2c-0.9,0-1.8,0.7-2.6,2.1c-0.8,1.4-1.4,2.8-1.7,4.3v0.2
				c0,0.8,0.1,1.5,0.4,2.3c0.2,0.8,0.4,1.4,0.4,1.7c0,0.8-0.9,1.5-2.8,2.2c-0.3,0.1-0.5,0.2-0.8,0.2c-0.6,0-0.9-0.3-1.2-0.9
				c-0.2-0.6-0.3-1.5-0.3-2.7c0-3.2,0.1-5.5,0.4-6.9c0.3-2.1,1.1-4,2.3-5.9C508.2,279.8,508.6,279.5,509.1,279.5z"/>
			<path id="XMLID_326_" fill="#300033" d="M530.4,292.5c1.7,0,3.4-0.7,5.1-2.1c0.6-0.5,1.1-1,1.5-1.4c0.4-0.4,0.7-0.7,0.9-0.7
				c0.3,0,0.5,0.3,0.5,0.9c0,0.6-0.2,1.3-0.5,2.1c-0.3,0.8-0.9,1.5-1.7,2.3c-1.9,1.8-4.6,2.7-7.9,2.7c-2.7,0-4.5-1-5.4-2.9
				c-0.3-0.7-0.5-1.6-0.5-2.9c0-1.2,0.2-2.5,0.7-3.9c0.5-1.3,1.1-2.5,2-3.5c0.8-1,1.8-1.7,2.8-2.3c1.1-0.5,2.2-0.8,3.4-0.8
				c1.2,0,2.2,0.3,2.8,0.9c0.7,0.6,1,1.4,1,2.3c0,1-0.2,1.7-0.7,2.4c-0.5,0.6-1.1,1.1-1.9,1.5c-0.8,0.4-1.6,0.8-2.5,1.1
				c-0.9,0.3-1.8,0.7-2.7,1.1v0.8c0,0.8,0.4,1.4,1,1.7C528.9,292.3,529.6,292.5,530.4,292.5z M529.8,283.1c-1.2,0-2,1.3-2.4,4
				c0.5-0.3,0.9-0.6,1.3-0.8c0.4-0.2,0.8-0.5,1.1-0.7c0.7-0.5,1-1,1-1.7C530.9,283.4,530.5,283.1,529.8,283.1z"/>
			<path id="XMLID_324_" fill="#300033" d="M582.9,288.3c0.4,0,0.6,0.5,0.6,1.5c0,0.6-0.2,1.2-0.7,2c-0.5,0.8-1.1,1.5-1.8,2.2
				c-0.7,0.7-1.6,1.2-2.5,1.6c-0.9,0.4-1.9,0.6-2.9,0.6c-1,0-1.8-0.3-2.4-1c-0.6-0.7-0.9-1.4-0.9-2.2c0-0.8,0.1-1.7,0.4-2.8
				c0.3-1,0.6-2.1,0.9-3.2c0.8-3,1.3-5.1,1.3-6.3c0-0.5-0.1-0.9-0.2-1.2s-0.4-0.4-0.8-0.4c-0.7,0-1.4,0.4-2.1,1.2
				c-0.8,0.8-1.5,1.8-2.1,3.1c-1.5,2.9-2.4,5.6-2.4,8.4c0,0.3,0.1,0.6,0.1,0.9c0,0.3,0.1,0.6,0.1,1c0,0.7-0.4,1.4-1.1,2
				c-0.7,0.6-1.5,0.9-2.4,0.9c-0.5,0-0.9-0.3-1.1-0.8c-0.2-0.5-0.4-1.1-0.4-1.9c0-0.7,0.2-1.7,0.5-3c0.3-1.3,0.7-2.6,1.1-4
				c1.1-3.8,1.6-6.6,1.6-8.4c0-0.9-0.1-1.7-0.4-2.2c-0.2-0.5-0.7-0.8-1.4-0.8c-1.2,0-2.4,0.9-3.6,2.6c-1.2,1.7-2.2,4.4-3.2,8
				c-0.2,0.9-0.4,1.8-0.6,2.4l0,0.6c0.4,2.1,0.6,3.4,0.6,4c0,1.3-0.5,2.2-1.4,2.6c-0.4,0.2-0.8,0.4-1.2,0.6
				c-0.4,0.2-0.8,0.3-1.3,0.3c-1.1,0-1.7-1.1-1.7-3.2c0-2.1,0.6-6.3,1.8-12.5c0.4-2.2,0.6-3.5,0.6-3.7c0-1.8-0.5-2.7-1.4-2.7
				c-0.3,0-0.6,0.1-0.9,0.3c-0.3,0.2-0.5,0.4-0.8,0.6c-0.3,0.2-0.5,0.4-0.8,0.6c-0.3,0.2-0.6,0.3-0.9,0.3c-0.3,0-0.5-0.3-0.5-0.9
				c0-1.2,0.6-2.2,1.7-3c1.1-0.8,2.4-1.2,4-1.2c2,0,3.2,0.9,3.5,2.8c0.1,0.6,0.2,1.1,0.2,1.8c1.7-3.1,3.7-4.7,6.3-4.7
				c2.7,0,4.3,1.3,4.7,3.9c0.1,0.8,0.2,1.6,0.2,2.4v0.3c1.4-2,3.2-3,5.2-3c2.8,0,4.2,1.7,4.2,5.1c0,1.5-0.2,3.2-0.7,5.2
				c-0.5,2-0.8,3.4-1,4.2c-0.2,0.9-0.3,1.5-0.3,2c0,0.8,0.3,1.3,0.9,1.3c0.6,0,2-1.2,4.2-3.5C582.4,288.5,582.7,288.3,582.9,288.3z"
				/>
			<path id="XMLID_322_" fill="#300033" d="M592.2,282.1c0-1.5,1.2-2.2,3.5-2.2c0.6,0,0.9,0.2,1.1,0.6c0.1,0.4,0.2,1,0.2,1.7
				c0,1.1-0.2,2.8-0.7,5.1c-0.5,2.3-0.7,3.8-0.7,4.7c0,0.4,0.1,0.6,0.4,0.6c0.3,0,0.7-0.2,1.2-0.6c0.5-0.4,1-0.9,1.5-1.4
				c0.5-0.5,0.9-1,1.4-1.4c0.4-0.4,0.7-0.6,0.9-0.6c0.3,0,0.5,0.4,0.5,1.1c0,1.6-0.8,3.1-2.3,4.5c-2.6,1.5-4.2,2.3-4.9,2.3
				c-0.1,0-0.1,0-0.2,0c-0.8,0-1.4-0.3-1.8-0.8c-0.3-0.6-0.6-1.3-0.7-2.1c-0.4,0.8-1.1,1.5-1.8,2.1c-0.8,0.6-1.7,0.9-2.7,0.9
				c-1.8,0-3.1-0.3-4.1-1c-0.9-0.7-1.4-1.7-1.4-3c0-0.6,0.1-1.1,0.3-1.6c0.2-0.5,0.4-1.1,0.8-1.8l1-8.2c0.7-0.5,1.7-0.8,3-0.8
				c1,0,1.6,0.7,1.7,2c0.1,1.1,0.1,2.1-0.2,2.9c-0.2,0.9-0.5,1.9-0.9,3.2c-0.4,1.3-0.5,2.5-0.5,3.5c0,0.8,0.5,1.2,1.5,1.2
				c1.1,0,2-1,2.8-2.9c0.6-1.5,1-3.1,1.3-4.9c0-0.2,0-0.4-0.1-0.7c0-0.3,0-0.6,0-0.8c0-0.3,0-0.5,0-0.8V282.1z"/>
			<path id="XMLID_319_" fill="#300033" d="M607.3,280c1.5,0,2.6,0.3,3.3,0.8s1.1,1.4,1.1,2.4c0,1.1-0.3,2-1,2.7
				c-0.6,0.7-1.4,1.3-2.3,1.6c0.6,0.7,1.2,1.4,1.8,2c0.5,0.7,0.8,1.4,0.8,2.2c0,1.5-0.6,2.6-1.8,3.5c-1.2,0.8-2.8,1.2-4.9,1.2
				c-2.1,0-3.7-0.4-4.7-1.3c-1-0.8-1.6-1.8-1.6-2.8c0-1.1,0.3-2,0.8-2.9c0.5-0.9,1.1-1.3,1.7-1.3c0.4,0,0.6,0.1,0.8,0.4
				c0.2,0.3,0.4,1,0.9,2.2c0.2,0.4,0.4,0.9,0.8,1.3c0.8,0.9,2.1,1.4,3.9,1.4c-0.3-0.8-0.7-1.6-1.3-2.2c-0.6-0.6-1.2-1.2-1.8-1.8
				c-0.6-0.6-1.1-1.2-1.5-1.9c-0.4-0.7-0.7-1.4-0.7-2.3c0-1.6,0.6-2.9,1.8-3.9C604.5,280.4,605.8,280,607.3,280z M607.1,286.2
				c0.9-1,1.3-1.7,1.3-2.3c0-0.3-0.1-0.5-0.3-0.7c-0.2-0.2-0.5-0.3-0.8-0.3c-0.4,0-0.7,0-1,0.1c-0.3,0.1-0.6,0.2-0.8,0.2
				C605.6,284,606.1,285,607.1,286.2z"/>
			<path id="XMLID_316_" fill="#300033" d="M617.1,296.3c-2.2,0-3.3-2.1-3.3-6.3c0-2.3,0.3-4.3,0.8-6.2c0.9-2.9,1.9-4.3,2.9-4.3
				c0.6,0,1.2,0.4,1.5,1.3c0.3,0.7,0.5,1.3,0.4,2c0,0.9-0.3,2.5-0.8,4.7c-0.5,2-0.8,3.2-0.8,3.6c0,0.5,0.1,0.8,0.4,1
				c0.2,0.2,0.5,0.3,0.8,0.3c0.3,0,0.7-0.2,1.2-0.6c0.5-0.4,1-0.9,1.5-1.4c0.5-0.5,0.9-1,1.4-1.4c0.4-0.4,0.7-0.6,0.9-0.6
				c0.3,0,0.5,0.4,0.5,1.1c0,1.6-0.8,3.1-2.4,4.6C620.5,295.6,618.8,296.3,617.1,296.3z M618.4,276.8c-0.6-0.9-0.9-1.9-0.9-2.9
				c0-1,0.2-1.9,0.5-2.6c0.3-0.7,0.6-1.2,0.9-1.5c0.3-0.3,0.6-0.5,1-0.5c0.6,0,1.2,0.5,1.7,1.4c0.5,0.9,0.8,1.7,0.8,2.3
				c0,1.2-0.4,2.1-1.2,2.7C620.4,276.5,619.5,276.8,618.4,276.8z"/>
			<path id="XMLID_313_" fill="#300033" d="M632.6,288.8c0.6,2.4,1.6,3.6,3,3.6c0.7,0,1.3-0.2,1.9-0.6c0.6-0.4,1.1-0.9,1.5-1.4
				c0.4-0.5,0.8-1,1.2-1.4c0.3-0.4,0.6-0.6,0.9-0.6c0.3,0,0.4,0.4,0.4,1.1c0,1.6-0.7,3.1-2.2,4.6c-1.5,1.5-3.1,2.2-4.9,2.2
				c-1.8,0-3.4-1.6-4.9-4.8c-0.4-0.9-0.8-1.8-1.1-2.7l-0.2,4.6c0,0.4,0,0.8-0.1,1.3c0,0.4-0.2,0.8-0.6,1c-0.9,0.7-1.8,1-2.6,1
				c-1,0-1.6-1.1-1.6-3.2c0-3.1,0.4-6.4,1.1-9.8c0.7-3.4,1.5-6,2.2-7.7c0.7-1.7,1.2-2.9,1.6-3.5c0.4-0.6,0.7-0.9,0.9-1.1
				c0.2-0.1,0.5-0.2,0.8-0.2c0.3,0,0.6,0.1,0.9,0.4c0.3,0.3,0.6,0.7,1,1.3c0.4,0.6,0.5,1.1,0.6,1.7c0,0.5-0.1,1.1-0.3,1.6
				c-0.2,0.5-0.4,1-0.8,1.5c-0.3,0.5-0.7,1-1,1.5c-0.4,0.5-0.8,1.1-1.1,1.7l-0.3,2.8c0.8-1.6,1.9-2.7,3.4-3.3
				c0.5-0.2,1.2-0.3,1.9-0.3c1.4,0,2.5,0.3,3.3,1c0.8,0.7,1.1,1.7,1.1,3c0,1.3-0.7,2.4-2,3.3C635.2,288.4,633.9,288.9,632.6,288.8z
				 M633.8,284.9c0-0.8-0.5-1.2-1.4-1.2c-0.9,0-1.9,0.9-3,2.6c-0.3,0.5-0.6,1-0.8,1.6c2.3-0.1,3.9-0.8,4.8-1.9
				C633.7,285.7,633.8,285.3,633.8,284.9z"/>
		</g>
	</g>
</g>
</svg>
