<?xml version="1.0" encoding="utf-8"?>
<svg xmlns="http://www.w3.org/2000/svg" viewBox="0 0 850 220">
    <defs>
        <style>.cls-1{fill:#ffbd37;}.cls-2{fill:#300033;}.cls-3{fill:none;}.cls-4{fill:#002395;}.cls-5{fill:#ed2939;}.cls-6{fill:#fff;}</style>
    </defs>
    <title>Artboard 4 copy 8</title>
    <g id="Layer_1" data-name="Layer 1">
        <g id="_Group_" data-name="&lt;Group&gt;">
            <g id="_Group_2" data-name="&lt;Group&gt;">
                <path id="_Path_" data-name="&lt;Path&gt;" class="cls-3"
                      d="M381,134.07a10.57,10.57,0,0,0-7.45-3.06,10.1,10.1,0,0,0-4,.82,10.51,10.51,0,0,0-5.55,5.55,10.42,10.42,0,0,0,0,8.09,10.51,10.51,0,0,0,5.55,5.55,10.07,10.07,0,0,0,4,.82,10.57,10.57,0,0,0,7.45-3.06,10.56,10.56,0,0,0,2.24-3.31,10.42,10.42,0,0,0,0-8.09A10.58,10.58,0,0,0,381,134.07Z"/>
                <path id="_Compound_Path_" data-name="&lt;Compound Path&gt;" class="cls-4"
                      d="M385.72,129.32a17.28,17.28,0,0,0-12.19-5,16.8,16.8,0,0,0-6.71,1.37,17.21,17.21,0,0,0-9,9.05,17.12,17.12,0,0,0,0,13.41,17.21,17.21,0,0,0,9.05,9,16.76,16.76,0,0,0,6.7,1.37,17.16,17.16,0,0,0,15.84-10.42,17.12,17.12,0,0,0,0-13.41A17.3,17.3,0,0,0,385.72,129.32Zm-2.5,16.15a10.56,10.56,0,0,1-2.24,3.31,10.57,10.57,0,0,1-7.45,3.06,10.07,10.07,0,0,1-4-.82,10.51,10.51,0,0,1-5.55-5.55,10.42,10.42,0,0,1,0-8.09,10.51,10.51,0,0,1,5.55-5.55,10.1,10.1,0,0,1,4-.82,10.57,10.57,0,0,1,7.45,3.06,10.58,10.58,0,0,1,2.24,3.31,10.42,10.42,0,0,1,0,8.09Z"/>
                <path id="_Compound_Path_2" data-name="&lt;Compound Path&gt;" class="cls-5"
                      d="M402.72,129.2a32.31,32.31,0,0,0-6.76-9.94,31.53,31.53,0,0,0-10-6.71,31.68,31.68,0,0,0-24.45,0,31.3,31.3,0,0,0-16.7,16.7,31.46,31.46,0,0,0,0,24.36,31.53,31.53,0,0,0,6.71,10,32.13,32.13,0,0,0,10,6.76,30.14,30.14,0,0,0,12.18,2.5,30.9,30.9,0,0,0,12.22-2.45,31.41,31.41,0,0,0,10-6.71,32.15,32.15,0,0,0,6.76-10,31.28,31.28,0,0,0,0-24.49ZM396.57,151a25.27,25.27,0,0,1-5.35,7.92,24.9,24.9,0,0,1-7.91,5.29,24.05,24.05,0,0,1-9.6,1.92,23.29,23.29,0,0,1-9.5-1.94,25.58,25.58,0,0,1-7.92-5.35A24.66,24.66,0,0,1,351,151a24.76,24.76,0,0,1,0-19.08,25,25,0,0,1,5.29-7.89,24.66,24.66,0,0,1,7.88-5.29,25,25,0,0,1,19.16,0,25,25,0,0,1,7.88,5.29,25.42,25.42,0,0,1,5.36,7.9,23.21,23.21,0,0,1,1.93,9.52A23.51,23.51,0,0,1,396.57,151Z"/>
                <path id="_Compound_Path_3" data-name="&lt;Compound Path&gt;" class="cls-6"
                      d="M391.22,124a25,25,0,0,0-7.88-5.29,25,25,0,0,0-19.16,0,24.66,24.66,0,0,0-7.88,5.29,25,25,0,0,0-5.29,7.89A24.76,24.76,0,0,0,351,151a24.66,24.66,0,0,0,5.29,7.88,25.58,25.58,0,0,0,7.92,5.35,23.29,23.29,0,0,0,9.5,1.94,24.05,24.05,0,0,0,9.6-1.92,24.9,24.9,0,0,0,7.91-5.29,25.27,25.27,0,0,0,5.35-7.92,23.51,23.51,0,0,0,1.94-9.59,23.21,23.21,0,0,0-1.93-9.52A25.42,25.42,0,0,0,391.22,124Zm-1.84,24.13a17.22,17.22,0,0,1-15.84,10.42,16.76,16.76,0,0,1-6.7-1.37,17.21,17.21,0,0,1-9.05-9,17.12,17.12,0,0,1,0-13.41,17.21,17.21,0,0,1,9-9.05,16.8,16.8,0,0,1,6.71-1.37,17.16,17.16,0,0,1,15.84,10.42,17.12,17.12,0,0,1,0,13.41Z"/>
            </g>
            <path id="_Compound_Path_4" data-name="&lt;Compound Path&gt;" class="cls-2"
                  d="M275.86,160.63V122.3h26.65v10.26h-13.6v4.33h12V146h-12v14.59Z"/>
            <path id="_Compound_Path_5" data-name="&lt;Compound Path&gt;" class="cls-2"
                  d="M308.05,160.63V122.3h17q6.58,0,10.31,3.13a10.63,10.63,0,0,1,3.73,8.61,10.26,10.26,0,0,1-1.48,5.37,9.46,9.46,0,0,1-4.5,3.78l7.9,17.44H326.53l-5.87-15.79v15.79Zm12.61-23.31a20.21,20.21,0,0,0,2,.14,8,8,0,0,0,2.14-.22,3.64,3.64,0,0,0,1.67-.9,2.62,2.62,0,0,0,.69-2,2.57,2.57,0,0,0-.63-1.89,3.2,3.2,0,0,0-1.56-.85,8.44,8.44,0,0,0-2.11-.19q-1.18,0-2.22.08Z"/>
            <path id="_Compound_Path_6" data-name="&lt;Compound Path&gt;" class="cls-2"
                  d="M410.13,160.63V122.3h12.28l9,17.66V122.3h12.89v38.33H431.73l-8.94-17.55v17.55Z"/>
            <path id="_Compound_Path_7" data-name="&lt;Compound Path&gt;" class="cls-2"
                  d="M457.07,160.63V132.56h-7.46V122.3H477.8v10.26h-7.46v28.08Z"/>
            <path id="_Compound_Path_8" data-name="&lt;Compound Path&gt;" class="cls-2"
                  d="M477.91,160.63l11-38.33H504l10.91,38.33H501.82l-1.59-7h-8.45l-1.75,7Zm15.25-16.18h5.65l-2.74-12Z"/>
            <path id="_Compound_Path_9" data-name="&lt;Compound Path&gt;" class="cls-2" d="M518.93,160.63V122.3h12.94v28.24h10.58v10.09Z"/>
            <path id="_Compound_Path_10" data-name="&lt;Compound Path&gt;" class="cls-2"
                  d="M547.94,160.63V122.3h27.2v10.26H561V137h12.5v9.21H561v4.33h14.09v10.09Z"/>
            <path id="_Compound_Path_11" data-name="&lt;Compound Path&gt;" class="cls-2"
                  d="M493.15,118.63h-6.53L493,110.4h6.2l6.31,8.23H499l-2.91-4.17Z"/>
        </g>
        <g id="Layer_1-2" data-name="Layer 1">ct
            <path class="cls-2"
                  d="M475.5,61.81a1.09,1.09,0,0,0-1.47.46,8.76,8.76,0,0,1-15.59-.15,1.09,1.09,0,0,0-1.95,1,10.93,10.93,0,0,0,19.46.19A1.08,1.08,0,0,0,475.5,61.81Z"/>
            <circle class="cls-2" cx="461.92" cy="57.13" r="2.15"/>
            <circle class="cls-2" cx="470.59" cy="57.13" r="2.15"/>
            <path class="cls-2"
                  d="M466.28,77.68a16.14,16.14,0,1,1,11.4-4.73A16,16,0,0,1,466.28,77.68Zm0-28.88A12.75,12.75,0,1,0,479,61.54,12.76,12.76,0,0,0,466.28,48.8Z"/>
        </g>
        <g id="_Group_3" data-name="&lt;Group&gt;">
            <g id="_Group_4" data-name="&lt;Group&gt;">
                <path id="_Compound_Path_12" data-name="&lt;Compound Path&gt;" class="cls-2"
                      d="M432.35,46.3c.45,0,.93,0,1.45.07,3.14.31,6.76,3.18,7.2,8.68v1.83c-.41,5.27-4.39,11.76-16,19.91-11.62-8.15-15.59-14.64-16-19.91V55c.44-5.5,4.07-8.37,7.2-8.68.52-.05,1-.07,1.45-.07,3.62,0,5.36,1.57,7.35,3.94,2-2.37,3.73-3.94,7.35-3.94"/>
            </g>
        </g>
        <g id="Layer_1-3" data-name="Layer 1">
            <path class="cls-2"
                  d="M400.64,48.87a2,2,0,0,0-1.9-2H380.08a2,2,0,0,0-1.88,2v5.35s0,0,0,.08h0v9.88a6.41,6.41,0,1,0,3.22,5.56c0-.17,0-.35,0-.52V56.12h16v8.1a6.41,6.41,0,1,0,3.18,5.55h0V54.52h0a1.56,1.56,0,0,0,.06-.29V48.87Z"/>
        </g>
    </g>
</svg>
