<svg class="map-image" version="1.1" xmlns="http://www.w3.org/2000/svg" xmlns:xlink="http://www.w3.org/1999/xlink" x="0px" y="0px"
	 viewBox="0 0 410 430" enable-background="new 0 0 410 430" xml:space="preserve">
<g id="bg">
</g>
<g id="Layer_1">
	<path fill="#0063D9" d="M241.5,420.7c-48.4-45.2-92.3-99.8-130.6-162.2C74.7,199.3,42.3,131,14.6,55.7l21.6-7.9
		c27.1,73.9,58.8,140.7,94.3,198.6c37.2,60.7,79.8,113.6,126.7,157.4L241.5,420.7z"/>
	<polygon fill="#300033" points="139.1,132.7 142.1,131.4 134.3,127 136.7,120.4 133.7,121.7 131.5,128.3 129.4,123.7 127.2,124.7
		132.2,135.9 134.5,134.8 132.8,131.1 133.4,129.5 	"/>
	<path fill="#300033" d="M143.2,130.4c0.7,0.2,1.4,0.1,2.1-0.2c0.6-0.3,1.1-0.6,1.4-1.1c0.3-0.4,0.5-0.8,0.7-1.3
		c0.1,0.2,0.2,0.3,0.3,0.5c0.1,0.1,0.2,0.3,0.3,0.4l2.3-1.1l-0.1-0.3c-0.2,0-0.3,0-0.4-0.1c-0.1-0.1-0.2-0.2-0.4-0.5
		c-0.2-0.4-0.3-0.7-0.4-0.9l-1.7-3.8c-0.5-1-1.1-1.5-2-1.5c-0.9,0-1.8,0.2-2.7,0.6c-1.4,0.6-2.2,1.4-2.4,2.4
		c-0.1,0.6-0.1,1.3,0.2,2.1l2.1-0.9c-0.1-0.3-0.1-0.6,0-0.9c0.1-0.4,0.4-0.6,0.9-0.9c0.5-0.2,0.8-0.3,1.1-0.3c0.3,0,0.5,0.2,0.7,0.5
		c0.1,0.3,0.1,0.6-0.2,0.8c-0.1,0.2-0.4,0.3-0.8,0.6l-0.7,0.4c-0.8,0.5-1.3,1-1.7,1.4c-0.6,0.8-0.6,1.7-0.2,2.7
		C142,129.7,142.5,130.2,143.2,130.4z M143.8,126.6c0.1-0.2,0.4-0.5,0.9-0.7l0.4-0.3c0.2-0.2,0.4-0.3,0.5-0.4
		c0.1-0.1,0.2-0.2,0.3-0.4l0.4,0.8c0.3,0.7,0.3,1.3,0.1,1.8c-0.3,0.5-0.6,0.8-1.1,1c-0.3,0.1-0.6,0.2-0.9,0.1
		c-0.3-0.1-0.5-0.3-0.7-0.7C143.5,127.4,143.6,127,143.8,126.6z"/>
	<path fill="#300033" d="M152,126.2c0.9,0.3,1.9,0.1,3.2-0.5c1.3-0.6,2.1-1.3,2.5-2.1c0.4-0.8,0.4-1.6,0-2.4c-0.3-0.6-0.7-1-1.3-1.3
		c-0.6-0.2-1.4-0.2-2.3,0c-1.4,0.3-2.3,0.4-2.5,0.4c-0.3,0-0.4-0.1-0.6-0.4c-0.1-0.2-0.1-0.4,0.1-0.6c0.1-0.2,0.4-0.5,0.9-0.7
		c0.6-0.3,1-0.3,1.4-0.1c0.2,0.1,0.4,0.3,0.5,0.5l2.2-1c-0.6-1-1.3-1.5-2.1-1.6c-0.8-0.1-1.8,0.1-2.8,0.5c-1.1,0.5-1.8,1.2-2.2,2
		c-0.3,0.8-0.3,1.6,0,2.4c0.3,0.6,0.7,1.1,1.2,1.2c0.5,0.2,1.3,0.2,2.4,0c1.4-0.3,2.3-0.4,2.5-0.4c0.3,0,0.4,0.2,0.6,0.4
		c0.1,0.3,0.1,0.5-0.1,0.7s-0.5,0.5-0.9,0.7c-0.7,0.3-1.3,0.4-1.7,0.2c-0.2-0.1-0.4-0.3-0.7-0.7l-2.2,1
		C150.5,125.4,151.1,126,152,126.2z"/>
	<path fill="#300033" d="M160.7,122c1.1,0.3,2.3,0.2,3.4-0.3c1.3-0.6,2.2-1.5,2.5-2.6c0.2-0.7,0.3-1.3,0.1-1.9l-2.2,1
		c0,0.3-0.1,0.6-0.2,0.8c-0.2,0.4-0.5,0.7-1,0.9c-0.5,0.2-0.9,0.3-1.3,0.2c-0.7-0.1-1.2-0.5-1.7-1.3l6-2.7c-0.3-0.7-0.6-1.2-0.8-1.6
		c-0.4-0.6-0.9-1.1-1.4-1.4c-0.6-0.4-1.3-0.6-2-0.6c-0.7,0-1.4,0.2-2.1,0.5c-1.2,0.6-2,1.4-2.4,2.5c-0.4,1.1-0.3,2.4,0.4,3.8
		C158.6,120.8,159.5,121.7,160.7,122z M159.7,115.8c0.2-0.5,0.5-0.8,1.1-1.1c0.5-0.2,1-0.3,1.5-0.1c0.5,0.1,0.9,0.5,1.2,1l-3.7,1.7
		C159.5,116.8,159.5,116.3,159.7,115.8z"/>
	<path fill="#300033" d="M171.1,118.1l-1.8-3.9c-0.3-0.7-0.4-1.2-0.4-1.6c0-0.7,0.5-1.2,1.4-1.6c0.1,0,0.2-0.1,0.3-0.1
		c0.1,0,0.2-0.1,0.4-0.1l-1-2.2c-0.1,0-0.2,0.1-0.2,0.1c0,0-0.1,0-0.1,0c-0.6,0.3-1.1,0.7-1.3,1.2c-0.2,0.3-0.3,0.8-0.4,1.5
		l-0.7-1.4l-2.1,0.9l3.8,8.2L171.1,118.1z"/>
	<path fill="#300033" d="M178.1,105.6c-0.7-0.2-1.5-0.1-2.4,0.3c-0.7,0.3-1.2,0.7-1.5,1.3c-0.2,0.3-0.3,0.7-0.4,1.3l-0.5-1.2l-2.1,1
		l3.7,8.2l2.2-1l-2-4.5c-0.2-0.5-0.4-1-0.4-1.3c0-0.7,0.3-1.3,1.1-1.6c0.6-0.3,1.1-0.2,1.5,0.1c0.2,0.2,0.4,0.5,0.6,0.9l2.3,5l2.2-1
		l-2.5-5.5C179.5,106.4,178.9,105.8,178.1,105.6z"/>
	<path fill="#300033" d="M189.6,103.5c-0.4-0.6-0.9-1.1-1.4-1.4c-0.6-0.4-1.3-0.6-2-0.6c-0.7,0-1.4,0.2-2.1,0.5
		c-1.2,0.6-2,1.4-2.4,2.5c-0.4,1.1-0.3,2.4,0.4,3.8c0.7,1.5,1.6,2.4,2.8,2.7c1.1,0.3,2.3,0.2,3.4-0.3c1.3-0.6,2.2-1.5,2.5-2.6
		c0.2-0.7,0.3-1.3,0.1-1.9l-2.2,1c0,0.3-0.1,0.6-0.2,0.8c-0.2,0.4-0.5,0.7-1,0.9c-0.5,0.2-0.9,0.3-1.3,0.2c-0.7-0.1-1.2-0.5-1.7-1.3
		l6-2.7C190.1,104.4,189.8,103.8,189.6,103.5z M183.8,106.4c-0.2-0.6-0.2-1.1,0-1.5c0.2-0.5,0.5-0.8,1.1-1.1c0.5-0.2,1-0.3,1.5-0.1
		c0.5,0.1,0.9,0.5,1.2,1L183.8,106.4z"/>
	<path fill="#300033" d="M324.7,222.4c0.8-0.4,1.5-0.4,2.2-0.1c0.4,0.2,0.7,0.5,1.1,0.9l2.3-1.1c-0.4-0.7-0.9-1.3-1.7-1.7
		c-1.4-0.8-3.1-0.8-4.9,0c-1.4,0.6-2.3,1.6-2.8,2.9c-0.6,1.5-0.4,3.3,0.5,5.2c0.8,1.8,1.9,3,3.3,3.6c1.4,0.6,2.9,0.6,4.4-0.2
		c1.3-0.6,2.2-1.4,2.6-2.6c0.5-1.1,0.5-2.4,0.2-3.7l-2.3,1.1c0.1,0.6,0.1,1.2,0,1.6c-0.2,0.7-0.7,1.3-1.5,1.6
		c-0.8,0.4-1.6,0.3-2.3-0.1c-0.8-0.4-1.5-1.2-2-2.5c-0.6-1.2-0.8-2.3-0.6-3.2S323.9,222.8,324.7,222.4z"/>

		<rect x="327.9" y="221.6" transform="matrix(0.4151 0.9098 -0.9098 0.4151 398.0403 -173.5602)" fill="#300033" width="12.2" height="2.4"/>
	<path fill="#300033" d="M346.3,223.2c-0.1-0.1-0.2-0.2-0.4-0.5c-0.2-0.4-0.3-0.7-0.4-0.9l-1.7-3.8c-0.5-1-1.1-1.5-2-1.5
		c-0.9,0-1.8,0.2-2.7,0.6c-1.4,0.6-2.2,1.4-2.4,2.4c-0.1,0.6-0.1,1.3,0.2,2.1l2.1-0.9c-0.1-0.3-0.1-0.6,0-0.9
		c0.1-0.4,0.4-0.6,0.9-0.9c0.5-0.2,0.8-0.3,1.1-0.3c0.3,0,0.5,0.2,0.7,0.5c0.1,0.3,0.1,0.6-0.2,0.8c-0.1,0.2-0.4,0.3-0.8,0.6
		l-0.7,0.4c-0.8,0.5-1.3,1-1.7,1.4c-0.6,0.8-0.6,1.7-0.2,2.7c0.4,0.8,0.9,1.3,1.6,1.5c0.7,0.2,1.4,0.1,2.1-0.2
		c0.6-0.3,1.1-0.6,1.4-1.1c0.3-0.4,0.5-0.8,0.7-1.3c0.1,0.2,0.2,0.3,0.3,0.5c0.1,0.1,0.2,0.3,0.3,0.4l2.3-1.1l-0.1-0.3
		C346.6,223.3,346.4,223.3,346.3,223.2z M342.9,223.4c-0.3,0.5-0.6,0.8-1.1,1c-0.3,0.1-0.6,0.2-0.9,0.1c-0.3-0.1-0.5-0.3-0.7-0.7
		c-0.2-0.4-0.2-0.8,0.1-1.1c0.1-0.2,0.4-0.5,0.9-0.7l0.4-0.3c0.2-0.2,0.4-0.3,0.5-0.4c0.1-0.1,0.2-0.2,0.3-0.4l0.4,0.8
		C343.1,222.3,343.2,222.9,342.9,223.4z"/>
	<path fill="#300033" d="M348.2,216.5c0-0.7,0.5-1.2,1.4-1.6c0.1,0,0.2-0.1,0.3-0.1c0.1,0,0.2-0.1,0.4-0.1l-1-2.2
		c-0.1,0-0.2,0.1-0.2,0.1s-0.1,0-0.1,0c-0.6,0.3-1.1,0.7-1.3,1.2c-0.2,0.3-0.3,0.8-0.4,1.5l-0.7-1.4l-2.1,0.9l3.8,8.2l2.2-1
		l-1.8-3.9C348.4,217.4,348.2,216.9,348.2,216.5z"/>
	<path fill="#300033" d="M360.9,216.5c-0.1-0.1-0.2-0.2-0.4-0.5c-0.2-0.4-0.3-0.7-0.4-0.9l-1.7-3.8c-0.5-1-1.1-1.5-2-1.5
		c-0.9,0-1.8,0.2-2.7,0.6c-1.4,0.6-2.2,1.4-2.4,2.4c-0.1,0.6-0.1,1.3,0.2,2.1l2.1-0.9c-0.1-0.3-0.1-0.6,0-0.9
		c0.1-0.4,0.4-0.6,0.9-0.9c0.5-0.2,0.8-0.3,1.1-0.3c0.3,0,0.5,0.2,0.7,0.5c0.1,0.3,0.1,0.6-0.2,0.8c-0.1,0.2-0.4,0.3-0.8,0.6
		l-0.7,0.4c-0.8,0.5-1.3,1-1.7,1.4c-0.6,0.8-0.6,1.7-0.2,2.7c0.4,0.8,0.9,1.3,1.6,1.5c0.7,0.2,1.4,0.1,2.1-0.2
		c0.6-0.3,1.1-0.6,1.4-1.1c0.3-0.4,0.5-0.8,0.7-1.3c0.1,0.2,0.2,0.3,0.3,0.5c0.1,0.1,0.2,0.3,0.3,0.4l2.3-1.1l-0.1-0.3
		C361.2,216.6,361.1,216.6,360.9,216.5z M357.5,216.7c-0.3,0.5-0.6,0.8-1.1,1c-0.3,0.1-0.6,0.2-0.9,0.1c-0.3-0.1-0.5-0.3-0.7-0.7
		c-0.2-0.4-0.2-0.8,0.1-1.1c0.1-0.2,0.4-0.5,0.9-0.7l0.4-0.3c0.2-0.2,0.4-0.3,0.5-0.4c0.1-0.1,0.2-0.2,0.3-0.4l0.4,0.8
		C357.8,215.7,357.8,216.3,357.5,216.7z"/>
	<path fill="#300033" d="M366.5,205.8c-1-0.4-2-0.4-2.9,0.1c-0.7,0.3-1.2,0.7-1.5,1.3c-0.2,0.3-0.3,0.7-0.4,1.2l-0.6-1.2l-2.1,0.9
		l5.2,11.5l2.1-1l-2-4.3c0.4,0.2,0.7,0.4,1.1,0.5c0.6,0.1,1.2,0,1.9-0.3c1-0.5,1.7-1.2,2-2.3c0.3-1.1,0.1-2.3-0.5-3.8
		C368.3,207.1,367.5,206.2,366.5,205.8z M367.1,211.7c-0.1,0.6-0.5,1.1-1.1,1.3c-0.4,0.2-0.8,0.2-1.2,0.2c-0.7-0.2-1.3-0.7-1.7-1.7
		c-0.3-0.6-0.4-1.1-0.5-1.6c0-0.9,0.3-1.5,1.1-1.9c0.7-0.3,1.2-0.3,1.8,0.1c0.5,0.4,0.9,0.8,1.2,1.5
		C367.1,210.4,367.2,211,367.1,211.7z"/>

		<rect x="364.9" y="204.7" transform="matrix(-0.415 -0.9098 0.9098 -0.415 337.5874 628.8894)" fill="#300033" width="12.2" height="2.4"/>
	<path fill="#300033" d="M383.3,206.3c-0.1-0.1-0.2-0.2-0.4-0.5c-0.2-0.4-0.3-0.7-0.4-0.9l-1.7-3.8c-0.5-1-1.1-1.5-2-1.5
		c-0.9,0-1.8,0.2-2.7,0.6c-1.4,0.6-2.2,1.4-2.4,2.4c-0.1,0.6-0.1,1.3,0.2,2.1l2.1-0.9c-0.1-0.3-0.1-0.6,0-0.9
		c0.1-0.4,0.4-0.6,0.9-0.9c0.5-0.2,0.8-0.3,1.1-0.3c0.3,0,0.5,0.2,0.7,0.5c0.1,0.3,0.1,0.6-0.2,0.8c-0.1,0.2-0.4,0.3-0.8,0.6
		L377,204c-0.8,0.5-1.3,1-1.7,1.4c-0.6,0.8-0.6,1.7-0.2,2.7c0.4,0.8,0.9,1.3,1.6,1.5c0.7,0.2,1.4,0.1,2.1-0.2
		c0.6-0.3,1.1-0.6,1.4-1.1c0.3-0.4,0.5-0.8,0.7-1.3c0.1,0.2,0.2,0.3,0.3,0.5c0.1,0.1,0.2,0.3,0.3,0.4l2.3-1.1l-0.1-0.3
		C383.5,206.4,383.4,206.4,383.3,206.3z M379.9,206.5c-0.3,0.5-0.6,0.8-1.1,1c-0.3,0.1-0.6,0.2-0.9,0.1c-0.3-0.1-0.5-0.3-0.7-0.7
		c-0.2-0.4-0.2-0.8,0.1-1.1c0.1-0.2,0.4-0.5,0.9-0.7l0.4-0.3c0.2-0.2,0.4-0.3,0.5-0.4c0.1-0.1,0.2-0.2,0.3-0.4l0.4,0.8
		C380.1,205.5,380.1,206.1,379.9,206.5z"/>
	<path fill="#300033" d="M388.1,203c-0.1,0-0.1,0.1-0.2,0.1c-0.4,0.2-0.7,0.3-0.8,0.2c-0.1,0-0.3-0.2-0.4-0.6l-2-4.4l1.3-0.6
		l-0.7-1.5l-1.3,0.6l-1-2.3l-2.1,1l1,2.3l-1.1,0.5l0.7,1.5l1.1-0.5l2.3,5.1c0.2,0.5,0.5,0.8,0.9,1c0.5,0.2,1.3,0.1,2.3-0.4l1-0.5
		l-0.7-1.6C388.3,202.9,388.2,202.9,388.1,203z"/>
	<polygon fill="#300033" points="395.8,199.2 391.6,201.1 393.5,194.6 392.7,192.8 386.2,195.7 387,197.5 390.8,195.8 388.9,202.4
		389.7,204.1 396.6,200.9 	"/>
	<path fill="#300033" d="M62.3,232.2c0.7-0.4,1.2-0.9,1.5-1.3c0.2-0.4,0.3-0.9,0.2-1.5c0.5,0.5,1.1,0.7,1.8,0.6
		c0.6,0,1.2-0.2,1.7-0.5c0.4-0.2,0.7-0.5,1-0.9c0.2-0.3,0.4-0.7,0.6-1.1c0.2-0.5,0.2-0.9,0.1-1.4s-0.3-1.1-0.7-1.8l-3-5L55,225.6
		l1.3,2.1l4.1-2.5l1.3,2.1c0.4,0.6,0.5,1.1,0.4,1.5c-0.1,0.4-0.5,0.7-1.1,1.1l-1,0.6c-0.3,0.2-0.6,0.4-0.9,0.6
		c-0.1,0.1-0.3,0.3-0.5,0.5l1.4,2.4l0.3-0.2c0-0.3,0.1-0.5,0.4-0.8c0.1-0.1,0.5-0.4,0.9-0.6L62.3,232.2z M64.9,222.6l1.4,2.4
		c0.3,0.5,0.4,0.8,0.4,1.1c0,0.5-0.3,1-0.9,1.4c-0.6,0.4-1.1,0.4-1.6,0.1c-0.3-0.2-0.5-0.5-0.8-1l-1.4-2.4L64.9,222.6z"/>
	<path fill="#300033" d="M71.3,239.3c0.3-0.2,0.5-0.5,0.7-0.9c0.2-0.5,0.3-0.9,0.2-1.4c-0.1-0.5-0.2-1-0.5-1.5
		c-0.3-0.4-0.6-0.8-1-1.1c-0.4-0.3-0.9-0.4-1.6-0.5l3.7-2.2l-1.2-2L61.1,236l1.2,2l4.2-2.5c0.7-0.4,1.3-0.6,1.8-0.5
		c0.5,0.1,0.9,0.4,1.3,0.9c0.3,0.5,0.3,1,0.1,1.4c-0.2,0.3-0.5,0.6-0.9,0.8l-4.7,2.8l1.2,2.1l4.6-2.7
		C70.5,239.8,71,239.5,71.3,239.3z"/>
	<path fill="#300033" d="M72.8,250.5l-1.2-2.1c-0.3,0-0.6,0-0.8-0.1c-0.4-0.1-0.8-0.5-1-0.9c-0.3-0.4-0.4-0.9-0.4-1.3
		c0-0.7,0.4-1.3,1.2-1.8L74,250c0.7-0.4,1.2-0.7,1.5-1c0.6-0.5,1-1,1.2-1.6c0.3-0.7,0.4-1.3,0.4-2c-0.1-0.7-0.3-1.4-0.7-2
		c-0.7-1.1-1.6-1.9-2.7-2.1c-1.1-0.3-2.4,0-3.7,0.8c-1.4,0.9-2.2,1.9-2.4,3c-0.2,1.2,0.1,2.3,0.7,3.3c0.7,1.3,1.7,2,2.9,2.3
		C71.7,250.8,72.4,250.7,72.8,250.5z M73.5,243.4c0.5,0.1,0.9,0.4,1.2,1c0.3,0.5,0.4,1,0.3,1.5c-0.1,0.5-0.4,0.9-0.9,1.3l-2.1-3.5
		C72.5,243.4,73,243.3,73.5,243.4z"/>

		<rect x="80.3" y="247.2" transform="matrix(0.5111 0.8595 -0.8595 0.5111 253.2889 51.3301)" fill="#300033" width="2.4" height="2.2"/>

		<rect x="71.2" y="250.5" transform="matrix(0.8596 -0.511 0.511 0.8596 -117.9976 74.0595)" fill="#300033" width="9" height="2.4"/>
	<path fill="#300033" d="M82.8,255.3c-0.3-0.1-0.7-0.2-1.3-0.2l1.1-0.7l-1.2-2l-7.8,4.6l1.2,2l4.2-2.5c0.5-0.3,0.9-0.5,1.3-0.5
		c0.7-0.1,1.3,0.2,1.7,0.9c0.3,0.6,0.4,1.1,0.1,1.5c-0.2,0.2-0.4,0.5-0.8,0.7l-4.7,2.8l1.2,2.1l5.2-3.1c1-0.6,1.5-1.2,1.6-2
		c0.1-0.8-0.1-1.5-0.5-2.3C83.8,256,83.3,255.6,82.8,255.3z"/>
	<polygon fill="#300033" points="197.5,192 253.2,170.1 234,134.1 201.5,148.6 208.5,163.8 189.4,172.7 	"/>
	<polygon fill="#300033" points="212.9,195.4 228.3,223.9 275,198.8 256.5,177 	"/>
	<polygon fill="#300033" points="300.2,230 280.4,204 231.7,231.3 244.4,257.5 	"/>
	<polygon fill="#300033" points="237.1,260.5 224.6,235.7 183.7,255.8 199.8,278.6 	"/>
	<path fill="#300033" d="M187.6,244.7l34.2-17.1l-15.9-28.4l-15.5,3.2l-6.6,36.2L187.6,244.7z M197.3,214.1l5.5-1.1l5.6,10
		l-12.1,6.1l-1.4-2.1L197.3,214.1z"/>
	<polygon fill="#300033" points="151.5,194.7 162.2,231.7 177.3,237 183.7,193.7 178.1,175.9 	"/>
	<polygon fill="#300033" points="179.1,146.4 227.7,125.1 221.3,113.8 173.2,135.7 	"/>
	<polygon fill="#300033" points="163.6,140.6 117.4,162 98.1,122.7 206.2,72.7 200.5,60.1 78,117.7 110.2,181.8 170.1,151.8 	"/>
	<polygon fill="#300033" points="141.4,192 163.1,177 158.9,168.5 115.9,192 141.6,237.7 152.8,230.3 	"/>
	<polygon fill="#300033" points="171.9,248.4 158.2,238 146.8,246.1 177.7,293.1 192.4,282 	"/>
	<polygon fill="#300033" points="187.4,305.2 225.3,353.5 240.4,343.4 199.3,295.4 	"/>
	<polygon fill="#300033" points="207.2,290.7 237.1,325.5 269.3,308.9 243.4,271.6 	"/>
	<polygon fill="#300033" points="254.2,267.6 275,307.5 338.1,284 307.5,241.7 	"/>
	<polygon fill="#300033" points="265.4,120.3 249.4,127 273,169.9 284.6,164.5 	"/>
	<polygon fill="#300033" points="309.6,213.6 358.6,190.2 338.1,144.5 276.3,174.9 	"/>
	<polygon fill="#300033" points="307.9,85.6 269.6,11.5 223.6,35 246.8,114.2 	"/>
	<polygon fill="#300033" points="290.8,152.3 302.2,147.9 291.6,120.8 309.2,114.2 322.3,140 334.1,134.6 315.9,99.1 276.3,115.9
		"/>
	<path fill="#300033" d="M135.5,77.3L118.7,33L57,69.9l16.1,38.3L135.5,77.3z M112,51.7l7.4,18.8L81.5,87.7l-5.7-14.1L112,51.7z"/>
	<path fill="#300033" d="M210.4,38.2l-1.7-27.1l-80.6,18.8l14.4,42.6L210.4,38.2z M193.9,24.2l2,9.7l-45.6,17.8l-5.2-12.5
		L193.9,24.2z"/>
	<polygon fill="#300033" points="46,157.3 48,157.3 48,156.3 46.2,156.3 33.2,156.3 31,156.3 31,157.3 34,157.3 34,164.3 11,164.3
		18.6,170.3 46.7,170.3 53.8,164.3 46,164.3 	"/>
	<path fill-rule="evenodd" clip-rule="evenodd" fill="#FFBD37" d="M189.9,138c-5.2,0-9.5,4.2-9.5,9.4c0,6.8,8.8,15.2,9.2,15.5
		c0.1,0.1,0.2,0.1,0.3,0.1c0.1,0,0.2,0,0.3-0.1c0.4-0.4,9.2-8.9,9.2-15.5C199.3,142.2,195.2,138,189.9,138z M189.9,150.5
		c-1.8,0-3.3-1.5-3.3-3.3s1.5-3.3,3.3-3.3c1.8,0,3.3,1.5,3.3,3.3S191.7,150.5,189.9,150.5z"/>
</g>
</svg>
