<svg class="map-image" version="1.1" xmlns="http://www.w3.org/2000/svg" xmlns:xlink="http://www.w3.org/1999/xlink" x="0px" y="0px"
	 viewBox="0 0 410 390" enable-background="new 0 0 410 390" xml:space="preserve" width="410" height="390">
<g id="Layer_1">
	<polygon fill="#300033" points="139.1,132.6 142.1,131.3 134.3,126.9 136.7,120.2 133.7,121.6 131.5,128.1 129.4,123.6
		127.2,124.6 132.2,135.7 134.5,134.7 132.8,131 133.4,129.3 	"/>
	<path fill="#300033" d="M143.2,130.3c0.7,0.2,1.4,0.1,2.1-0.2c0.6-0.3,1.1-0.6,1.4-1.1c0.3-0.4,0.5-0.8,0.7-1.3
		c0.1,0.2,0.2,0.3,0.3,0.5c0.1,0.1,0.2,0.3,0.3,0.4l2.3-1.1l-0.1-0.3c-0.2,0-0.3,0-0.4-0.1c-0.1-0.1-0.2-0.2-0.4-0.5
		c-0.2-0.4-0.3-0.7-0.4-0.9l-1.7-3.8c-0.5-1-1.1-1.5-2-1.5c-0.9,0-1.8,0.2-2.7,0.6c-1.4,0.6-2.2,1.4-2.4,2.4
		c-0.1,0.6-0.1,1.3,0.2,2.1l2.1-0.9c-0.1-0.3-0.1-0.6,0-0.9c0.1-0.4,0.4-0.6,0.9-0.9c0.5-0.2,0.8-0.3,1.1-0.3c0.3,0,0.5,0.2,0.7,0.5
		c0.1,0.3,0.1,0.6-0.2,0.8c-0.1,0.2-0.4,0.3-0.8,0.6l-0.7,0.4c-0.8,0.5-1.3,1-1.7,1.4c-0.6,0.8-0.6,1.7-0.2,2.7
		C142,129.6,142.5,130.1,143.2,130.3z M143.8,126.5c0.1-0.2,0.4-0.5,0.9-0.7l0.4-0.3c0.2-0.2,0.4-0.3,0.5-0.4
		c0.1-0.1,0.2-0.2,0.3-0.4l0.4,0.8c0.3,0.7,0.3,1.3,0.1,1.8c-0.3,0.5-0.6,0.8-1.1,1c-0.3,0.1-0.6,0.2-0.9,0.1
		c-0.3-0.1-0.5-0.3-0.7-0.7C143.5,127.3,143.6,126.9,143.8,126.5z"/>
	<path fill="#300033" d="M152,126.1c0.9,0.3,1.9,0.1,3.2-0.5c1.3-0.6,2.1-1.3,2.5-2.1c0.4-0.8,0.4-1.6,0-2.4c-0.3-0.6-0.7-1-1.3-1.3
		c-0.6-0.2-1.4-0.2-2.3,0c-1.4,0.3-2.3,0.4-2.5,0.4c-0.3,0-0.4-0.1-0.6-0.4c-0.1-0.2-0.1-0.4,0.1-0.6c0.1-0.2,0.4-0.5,0.9-0.7
		c0.6-0.3,1-0.3,1.4-0.1c0.2,0.1,0.4,0.3,0.5,0.5l2.2-1c-0.6-1-1.3-1.5-2.1-1.6c-0.8-0.1-1.8,0.1-2.8,0.5c-1.1,0.5-1.8,1.2-2.2,2
		c-0.3,0.8-0.3,1.6,0,2.4c0.3,0.6,0.7,1.1,1.2,1.2c0.5,0.2,1.3,0.2,2.4,0c1.4-0.3,2.3-0.4,2.5-0.4c0.3,0,0.4,0.2,0.6,0.4
		c0.1,0.3,0.1,0.5-0.1,0.7s-0.5,0.5-0.9,0.7c-0.7,0.3-1.3,0.4-1.7,0.2c-0.2-0.1-0.4-0.3-0.7-0.7l-2.2,1
		C150.5,125.3,151.1,125.8,152,126.1z"/>
	<path fill="#300033" d="M160.7,121.9c1.1,0.3,2.3,0.2,3.4-0.3c1.3-0.6,2.2-1.5,2.5-2.6c0.2-0.7,0.3-1.3,0.1-1.9l-2.2,1
		c0,0.3-0.1,0.6-0.2,0.8c-0.2,0.4-0.5,0.7-1,0.9c-0.5,0.2-0.9,0.3-1.3,0.2c-0.7-0.1-1.2-0.5-1.7-1.3l6-2.7c-0.3-0.7-0.6-1.2-0.8-1.6
		c-0.4-0.6-0.9-1.1-1.4-1.4c-0.6-0.4-1.3-0.6-2-0.6c-0.7,0-1.4,0.2-2.1,0.5c-1.2,0.6-2,1.4-2.4,2.5c-0.4,1.1-0.3,2.4,0.4,3.8
		C158.6,120.7,159.5,121.6,160.7,121.9z M159.7,115.7c0.2-0.5,0.5-0.8,1.1-1.1c0.5-0.2,1-0.3,1.5-0.1c0.5,0.1,0.9,0.5,1.2,1
		l-3.7,1.7C159.5,116.7,159.5,116.2,159.7,115.7z"/>
	<path fill="#300033" d="M171.1,118l-1.8-3.9c-0.3-0.7-0.4-1.2-0.4-1.6c0-0.7,0.5-1.2,1.4-1.6c0.1,0,0.2-0.1,0.3-0.1
		c0.1,0,0.2-0.1,0.4-0.1l-1-2.2c-0.1,0-0.2,0.1-0.2,0.1c0,0-0.1,0-0.1,0c-0.6,0.3-1.1,0.7-1.3,1.2c-0.2,0.3-0.3,0.8-0.4,1.5
		l-0.7-1.4l-2.1,0.9l3.8,8.2L171.1,118z"/>
	<path fill="#300033" d="M178.1,105.4c-0.7-0.2-1.5-0.1-2.4,0.3c-0.7,0.3-1.2,0.7-1.5,1.3c-0.2,0.3-0.3,0.7-0.4,1.3l-0.5-1.2l-2.1,1
		l3.7,8.2l2.2-1l-2-4.5c-0.2-0.5-0.4-1-0.4-1.3c0-0.7,0.3-1.3,1.1-1.6c0.6-0.3,1.1-0.2,1.5,0.1c0.2,0.2,0.4,0.5,0.6,0.9l2.3,5l2.2-1
		l-2.5-5.5C179.5,106.2,178.9,105.6,178.1,105.4z"/>
	<path fill="#300033" d="M189.6,103.4c-0.4-0.6-0.9-1.1-1.4-1.4c-0.6-0.4-1.3-0.6-2-0.6c-0.7,0-1.4,0.2-2.1,0.5
		c-1.2,0.6-2,1.4-2.4,2.5c-0.4,1.1-0.3,2.4,0.4,3.8c0.7,1.5,1.6,2.4,2.8,2.7c1.1,0.3,2.3,0.2,3.4-0.3c1.3-0.6,2.2-1.5,2.5-2.6
		c0.2-0.7,0.3-1.3,0.1-1.9l-2.2,1c0,0.3-0.1,0.6-0.2,0.8c-0.2,0.4-0.5,0.7-1,0.9c-0.5,0.2-0.9,0.3-1.3,0.2c-0.7-0.1-1.2-0.5-1.7-1.3
		l6-2.7C190.1,104.3,189.8,103.7,189.6,103.4z M183.8,106.3c-0.2-0.6-0.2-1.1,0-1.5c0.2-0.5,0.5-0.8,1.1-1.1c0.5-0.2,1-0.3,1.5-0.1
		c0.5,0.1,0.9,0.5,1.2,1L183.8,106.3z"/>
	<path fill="#300033" d="M324.7,222.3c0.8-0.4,1.5-0.4,2.2-0.1c0.4,0.2,0.7,0.5,1.1,0.9l2.3-1.1c-0.4-0.7-0.9-1.3-1.7-1.7
		c-1.4-0.8-3.1-0.8-4.9,0c-1.4,0.6-2.3,1.6-2.8,2.9c-0.6,1.5-0.4,3.3,0.5,5.2c0.8,1.8,1.9,3,3.3,3.6c1.4,0.6,2.9,0.6,4.4-0.2
		c1.3-0.6,2.2-1.4,2.6-2.6c0.5-1.1,0.5-2.4,0.2-3.7l-2.3,1.1c0.1,0.6,0.1,1.2,0,1.6c-0.2,0.7-0.7,1.3-1.5,1.6
		c-0.8,0.4-1.6,0.3-2.3-0.1c-0.8-0.4-1.5-1.2-2-2.5c-0.6-1.2-0.8-2.3-0.6-3.2S323.9,222.7,324.7,222.3z"/>

		<rect x="327.9" y="221.5" transform="matrix(0.4151 0.9098 -0.9098 0.4151 397.9235 -173.6353)" fill="#300033" width="12.2" height="2.4"/>
	<path fill="#300033" d="M346.3,223.1c-0.1-0.1-0.2-0.2-0.4-0.5c-0.2-0.4-0.3-0.7-0.4-0.9l-1.7-3.8c-0.5-1-1.1-1.5-2-1.5
		c-0.9,0-1.8,0.2-2.7,0.6c-1.4,0.6-2.2,1.4-2.4,2.4c-0.1,0.6-0.1,1.3,0.2,2.1l2.1-0.9c-0.1-0.3-0.1-0.6,0-0.9
		c0.1-0.4,0.4-0.6,0.9-0.9c0.5-0.2,0.8-0.3,1.1-0.3c0.3,0,0.5,0.2,0.7,0.5c0.1,0.3,0.1,0.6-0.2,0.8c-0.1,0.2-0.4,0.3-0.8,0.6
		l-0.7,0.4c-0.8,0.5-1.3,1-1.7,1.4c-0.6,0.8-0.6,1.7-0.2,2.7c0.4,0.8,0.9,1.3,1.6,1.5c0.7,0.2,1.4,0.1,2.1-0.2
		c0.6-0.3,1.1-0.6,1.4-1.1c0.3-0.4,0.5-0.8,0.7-1.3c0.1,0.2,0.2,0.3,0.3,0.5c0.1,0.1,0.2,0.3,0.3,0.4l2.3-1.1l-0.1-0.3
		C346.6,223.2,346.4,223.1,346.3,223.1z M342.9,223.3c-0.3,0.5-0.6,0.8-1.1,1c-0.3,0.1-0.6,0.2-0.9,0.1c-0.3-0.1-0.5-0.3-0.7-0.7
		c-0.2-0.4-0.2-0.8,0.1-1.1c0.1-0.2,0.4-0.5,0.9-0.7l0.4-0.3c0.2-0.2,0.4-0.3,0.5-0.4c0.1-0.1,0.2-0.2,0.3-0.4l0.4,0.8
		C343.1,222.2,343.2,222.8,342.9,223.3z"/>
	<path fill="#300033" d="M348.2,216.4c0-0.7,0.5-1.2,1.4-1.6c0.1,0,0.2-0.1,0.3-0.1c0.1,0,0.2-0.1,0.4-0.1l-1-2.2
		c-0.1,0-0.2,0.1-0.2,0.1s-0.1,0-0.1,0c-0.6,0.3-1.1,0.7-1.3,1.2c-0.2,0.3-0.3,0.8-0.4,1.5l-0.7-1.4l-2.1,0.9l3.8,8.2l2.2-1
		l-1.8-3.9C348.4,217.3,348.2,216.7,348.2,216.4z"/>
	<path fill="#300033" d="M360.9,216.4c-0.1-0.1-0.2-0.2-0.4-0.5c-0.2-0.4-0.3-0.7-0.4-0.9l-1.7-3.8c-0.5-1-1.1-1.5-2-1.5
		c-0.9,0-1.8,0.2-2.7,0.6c-1.4,0.6-2.2,1.4-2.4,2.4c-0.1,0.6-0.1,1.3,0.2,2.1l2.1-0.9c-0.1-0.3-0.1-0.6,0-0.9
		c0.1-0.4,0.4-0.6,0.9-0.9c0.5-0.2,0.8-0.3,1.1-0.3c0.3,0,0.5,0.2,0.7,0.5c0.1,0.3,0.1,0.6-0.2,0.8c-0.1,0.2-0.4,0.3-0.8,0.6
		l-0.7,0.4c-0.8,0.5-1.3,1-1.7,1.4c-0.6,0.8-0.6,1.7-0.2,2.7c0.4,0.8,0.9,1.3,1.6,1.5c0.7,0.2,1.4,0.1,2.1-0.2
		c0.6-0.3,1.1-0.6,1.4-1.1c0.3-0.4,0.5-0.8,0.7-1.3c0.1,0.2,0.2,0.3,0.3,0.5c0.1,0.1,0.2,0.3,0.3,0.4l2.3-1.1l-0.1-0.3
		C361.2,216.5,361.1,216.5,360.9,216.4z M357.5,216.6c-0.3,0.5-0.6,0.8-1.1,1c-0.3,0.1-0.6,0.2-0.9,0.1c-0.3-0.1-0.5-0.3-0.7-0.7
		c-0.2-0.4-0.2-0.8,0.1-1.1c0.1-0.2,0.4-0.5,0.9-0.7l0.4-0.3c0.2-0.2,0.4-0.3,0.5-0.4c0.1-0.1,0.2-0.2,0.3-0.4l0.4,0.8
		C357.8,215.5,357.8,216.1,357.5,216.6z"/>
	<path fill="#300033" d="M366.5,205.7c-1-0.4-2-0.4-2.9,0.1c-0.7,0.3-1.2,0.7-1.5,1.3c-0.2,0.3-0.3,0.7-0.4,1.2l-0.6-1.2l-2.1,0.9
		l5.2,11.5l2.1-1l-2-4.3c0.4,0.2,0.7,0.4,1.1,0.5c0.6,0.1,1.2,0,1.9-0.3c1-0.5,1.7-1.2,2-2.3c0.3-1.1,0.1-2.3-0.5-3.8
		C368.3,207,367.5,206.1,366.5,205.7z M367.1,211.5c-0.1,0.6-0.5,1.1-1.1,1.3c-0.4,0.2-0.8,0.2-1.2,0.2c-0.7-0.2-1.3-0.7-1.7-1.7
		c-0.3-0.6-0.4-1.1-0.5-1.6c0-0.9,0.3-1.5,1.1-1.9c0.7-0.3,1.2-0.3,1.8,0.1c0.5,0.4,0.9,0.8,1.2,1.5
		C367.1,210.2,367.2,210.9,367.1,211.5z"/>

		<rect x="364.9" y="204.6" transform="matrix(-0.415 -0.9098 0.9098 -0.415 337.7043 628.7076)" fill="#300033" width="12.2" height="2.4"/>
	<path fill="#300033" d="M383.3,206.2c-0.1-0.1-0.2-0.2-0.4-0.5c-0.2-0.4-0.3-0.7-0.4-0.9l-1.7-3.8c-0.5-1-1.1-1.5-2-1.5
		c-0.9,0-1.8,0.2-2.7,0.6c-1.4,0.6-2.2,1.4-2.4,2.4c-0.1,0.6-0.1,1.3,0.2,2.1l2.1-0.9c-0.1-0.3-0.1-0.6,0-0.9
		c0.1-0.4,0.4-0.6,0.9-0.9c0.5-0.2,0.8-0.3,1.1-0.3c0.3,0,0.5,0.2,0.7,0.5c0.1,0.3,0.1,0.6-0.2,0.8c-0.1,0.2-0.4,0.3-0.8,0.6
		l-0.7,0.4c-0.8,0.5-1.3,1-1.7,1.4c-0.6,0.8-0.6,1.7-0.2,2.7c0.4,0.8,0.9,1.3,1.6,1.5c0.7,0.2,1.4,0.1,2.1-0.2
		c0.6-0.3,1.1-0.6,1.4-1.1c0.3-0.4,0.5-0.8,0.7-1.3c0.1,0.2,0.2,0.3,0.3,0.5c0.1,0.1,0.2,0.3,0.3,0.4l2.3-1.1l-0.1-0.3
		C383.5,206.3,383.4,206.3,383.3,206.2z M379.9,206.4c-0.3,0.5-0.6,0.8-1.1,1c-0.3,0.1-0.6,0.2-0.9,0.1c-0.3-0.1-0.5-0.3-0.7-0.7
		c-0.2-0.4-0.2-0.8,0.1-1.1c0.1-0.2,0.4-0.5,0.9-0.7l0.4-0.3c0.2-0.2,0.4-0.3,0.5-0.4c0.1-0.1,0.2-0.2,0.3-0.4l0.4,0.8
		C380.1,205.3,380.1,205.9,379.9,206.4z"/>
	<path fill="#300033" d="M388.1,202.8c-0.1,0-0.1,0.1-0.2,0.1c-0.4,0.2-0.7,0.3-0.8,0.2c-0.1,0-0.3-0.2-0.4-0.6l-2-4.4l1.3-0.6
		l-0.7-1.5l-1.3,0.6l-1-2.3l-2.1,1l1,2.3l-1.1,0.5l0.7,1.5l1.1-0.5l2.3,5.1c0.2,0.5,0.5,0.8,0.9,1c0.5,0.2,1.3,0.1,2.3-0.4l1-0.5
		l-0.7-1.6C388.3,202.8,388.2,202.8,388.1,202.8z"/>
	<polygon fill="#300033" points="395.8,199 391.6,201 393.5,194.4 392.7,192.6 386.2,195.6 387,197.4 390.8,195.6 388.9,202.3
		389.7,204 396.6,200.8 	"/>
	<path fill="#300033" d="M62.3,232.1c0.7-0.4,1.2-0.9,1.5-1.3c0.2-0.4,0.3-0.9,0.2-1.5c0.5,0.5,1.1,0.7,1.8,0.6
		c0.6,0,1.2-0.2,1.7-0.5c0.4-0.2,0.7-0.5,1-0.9c0.2-0.3,0.4-0.7,0.6-1.1c0.2-0.5,0.2-0.9,0.1-1.4s-0.3-1.1-0.7-1.8l-3-5L55,225.5
		l1.3,2.1l4.1-2.5l1.3,2.1c0.4,0.6,0.5,1.1,0.4,1.5c-0.1,0.4-0.5,0.7-1.1,1.1l-1,0.6c-0.3,0.2-0.6,0.4-0.9,0.6
		c-0.1,0.1-0.3,0.3-0.5,0.5l1.4,2.4l0.3-0.2c0-0.3,0.1-0.5,0.4-0.8c0.1-0.1,0.5-0.4,0.9-0.6L62.3,232.1z M64.9,222.5l1.4,2.4
		c0.3,0.5,0.4,0.8,0.4,1.1c0,0.5-0.3,1-0.9,1.4c-0.6,0.4-1.1,0.4-1.6,0.1c-0.3-0.2-0.5-0.5-0.8-1l-1.4-2.4L64.9,222.5z"/>
	<path fill="#300033" d="M71.3,239.2c0.3-0.2,0.5-0.5,0.7-0.9c0.2-0.5,0.3-0.9,0.2-1.4c-0.1-0.5-0.2-1-0.5-1.5
		c-0.3-0.4-0.6-0.8-1-1.1c-0.4-0.3-0.9-0.4-1.6-0.5l3.7-2.2l-1.2-2l-10.5,6.2l1.2,2l4.2-2.5c0.7-0.4,1.3-0.6,1.8-0.5
		c0.5,0.1,0.9,0.4,1.3,0.9c0.3,0.5,0.3,1,0.1,1.4c-0.2,0.3-0.5,0.6-0.9,0.8l-4.7,2.8l1.2,2.1l4.6-2.7
		C70.5,239.7,71,239.4,71.3,239.2z"/>
	<path fill="#300033" d="M72.8,250.4l-1.2-2.1c-0.3,0-0.6,0-0.8-0.1c-0.4-0.1-0.8-0.5-1-0.9c-0.3-0.4-0.4-0.9-0.4-1.3
		c0-0.7,0.4-1.3,1.2-1.8l3.4,5.7c0.7-0.4,1.2-0.7,1.5-1c0.6-0.5,1-1,1.2-1.6c0.3-0.7,0.4-1.3,0.4-2c-0.1-0.7-0.3-1.4-0.7-2
		c-0.7-1.1-1.6-1.9-2.7-2.1c-1.1-0.3-2.4,0-3.7,0.8c-1.4,0.9-2.2,1.9-2.4,3c-0.2,1.2,0.1,2.3,0.7,3.3c0.7,1.3,1.7,2,2.9,2.3
		C71.7,250.6,72.4,250.6,72.8,250.4z M73.5,243.3c0.5,0.1,0.9,0.4,1.2,1c0.3,0.5,0.4,1,0.3,1.5c-0.1,0.5-0.4,0.9-0.9,1.3l-2.1-3.5
		C72.5,243.2,73,243.2,73.5,243.3z"/>

		<rect x="80.3" y="247.1" transform="matrix(0.5111 0.8595 -0.8595 0.5111 253.1785 51.2673)" fill="#300033" width="2.4" height="2.2"/>

		<rect x="71.2" y="250.4" transform="matrix(0.8596 -0.511 0.511 0.8596 -117.9319 74.0414)" fill="#300033" width="9" height="2.4"/>
	<path fill="#300033" d="M82.8,255.2c-0.3-0.1-0.7-0.2-1.3-0.2l1.1-0.7l-1.2-2l-7.8,4.6l1.2,2l4.2-2.5c0.5-0.3,0.9-0.5,1.3-0.5
		c0.7-0.1,1.3,0.2,1.7,0.9c0.3,0.6,0.4,1.1,0.1,1.5c-0.2,0.2-0.4,0.5-0.8,0.7l-4.7,2.8l1.2,2.1l5.2-3.1c1-0.6,1.5-1.2,1.6-2
		c0.1-0.8-0.1-1.5-0.5-2.3C83.8,255.9,83.3,255.4,82.8,255.2z"/>
	<polygon fill="#300033" points="197.5,191.9 253.2,170 234,134 201.5,148.5 208.5,163.7 189.4,172.6 	"/>
	<polygon fill="#300033" points="212.9,195.3 228.3,223.8 275,198.6 256.5,176.9 	"/>
	<polygon fill="#300033" points="300.2,229.9 280.4,203.8 231.7,231.2 244.4,257.4 	"/>
	<polygon fill="#300033" points="237.1,260.4 224.6,235.6 183.7,255.7 199.8,278.5 	"/>
	<path fill="#300033" d="M187.6,244.6l34.2-17.1l-15.9-28.4l-15.5,3.2l-6.6,36.2L187.6,244.6z M197.3,214l5.5-1.1l5.6,10l-12.1,6.1
		l-1.4-2.1L197.3,214z"/>
	<polygon fill="#300033" points="151.5,194.6 162.2,231.6 177.3,236.9 183.7,193.6 178.1,175.7 	"/>
	<polygon fill="#300033" points="179.1,146.3 227.7,125 221.3,113.7 173.2,135.5 	"/>
	<polygon fill="#300033" points="163.6,140.4 117.4,161.9 98.1,122.6 206.2,72.6 200.5,60 78,117.6 110.2,181.7 170.1,151.6 	"/>
	<polygon fill="#300033" points="141.4,191.9 163.1,176.9 158.9,168.4 115.9,191.9 141.6,237.6 152.8,230.2 	"/>
	<polygon fill="#300033" points="171.9,248.3 158.2,237.9 146.8,245.9 177.7,292.9 192.4,281.9 	"/>
	<polygon fill="#300033" points="187.4,305 225.3,353.4 240.4,343.3 199.3,295.3 	"/>
	<polygon fill="#300033" points="207.2,290.6 237.1,325.3 269.3,308.7 243.4,271.5 	"/>
	<polygon fill="#300033" points="254.2,267.4 275,307.4 338.1,283.9 307.5,241.6 	"/>
	<polygon fill="#300033" points="265.4,120.2 249.4,126.9 273,169.8 284.6,164.4 	"/>
	<polygon fill="#300033" points="309.6,213.4 358.6,190.1 338.1,144.3 276.3,174.8 	"/>
	<polygon fill="#300033" points="307.9,85.5 269.6,11.3 223.6,34.8 246.8,114 	"/>
	<polygon fill="#300033" points="290.8,152.2 302.2,147.8 291.6,120.7 309.2,114 322.3,139.9 334.1,134.5 315.9,98.9 276.3,115.7
		"/>
	<path fill="#300033" d="M135.5,77.1l-16.8-44.2L57,69.7L73.1,108L135.5,77.1z M112,51.6l7.4,18.8L81.5,87.5l-5.7-14.1L112,51.6z"/>
	<path fill="#300033" d="M210.4,38.1L208.7,11l-80.6,18.8l14.4,42.6L210.4,38.1z M193.9,24.1l2,9.7l-45.6,17.8l-5.2-12.5L193.9,24.1
		z"/>
	<polygon fill="#300033" points="46,157.1 48,157.1 48,156.1 46.2,156.1 33.2,156.1 31,156.1 31,157.1 34,157.1 34,164.1 11,164.1
		18.6,170.1 46.7,170.1 53.8,164.1 46,164.1 	"/>
	<path fill-rule="evenodd" clip-rule="evenodd" fill="#FFBD37" d="M189.9,137.9c-5.2,0-9.5,4.2-9.5,9.4c0,6.8,8.8,15.2,9.2,15.5
		c0.1,0.1,0.2,0.1,0.3,0.1c0.1,0,0.2,0,0.3-0.1c0.4-0.4,9.2-8.9,9.2-15.5C199.3,142,195.2,137.9,189.9,137.9z M189.9,150.4
		c-1.8,0-3.3-1.5-3.3-3.3s1.5-3.3,3.3-3.3c1.8,0,3.3,1.5,3.3,3.3S191.7,150.4,189.9,150.4z"/>
	<g>
		<path fill="#0063D9" d="M130.6,246.3C95.1,188.4,63.3,121.6,36.2,47.7l-21.6,7.9c27.6,75.3,60,143.6,96.3,202.8
			c28.5,46.5,60.1,88.6,94.4,125.8l16.3-16.3C188.6,331.9,158.1,291.2,130.6,246.3z"/>
	</g>
</g>
</svg>
